<?xml version="1.0" encoding="UTF-8"?>
<svg xmlns="http://www.w3.org/2000/svg" version="1.1" xmlns:xlink="http://www.w3.org/1999/xlink" viewBox="0 0 530 400">
  <defs>
    <clipPath id="clippath">
      <rect x="10.4" y="92.9" width="292.1" height="282.1" fill="none"/>
    </clipPath>
  </defs>
  <!-- Generator: Adobe Illustrator 28.6.0, SVG Export Plug-In . SVG Version: 1.2.0 Build 709)  -->
  <g>
    <g id="_Слой_2" data-name="Слой_2">
      <g>
        <g>
          <g>
            <g opacity=".3">
              <path d="M505.1,275.6v-49.9s0,0,0,0l-20.4-2.1h0l-10.6.7v-37.2s0,0,0,0l-19.7-3.4s0,0,0,0l-3.4.4v-2.8c.5-.2.9-.8.9-1.4s-.4-1.1-.9-1.2c0,0,0,0,0,0h0s0,0,0,0h-.2s0,0,0,0h0s0,0,0,0c0,0,0,0,0,0,0,0,0,0-.1,0-.6,0-1.1.7-1.1,1.5s.4,1.2.9,1.2h.2s0,0,0,0h0s0,0,0,0c0,0,0,0,0,0s0,0,0,0v2.8l-3.4.4v-1.9c.3-.2.6-.5.6-1s-.2-.8-.6-.8v-.7c.7-.2,1.2-1,1.2-1.9s-.5-1.5-1.1-1.6c0,0,0,0,0,0h0s0,0,0,0h0s-.2,0-.2,0c0,0,0,0,0,0h0s0,0,0,0c0,0,0,0,0,0,0,0-.1,0-.2,0-.8.1-1.4,1-1.4,1.9s.5,1.5,1.1,1.6h.2s0,0,0,0h0s0,0,0,0c0,0,0,0,0,0s0,0,0,0v.6s0,0,0,0c0,0,0,0,0,0-.4,0-.8.5-.8,1s.3.8.6.9h.1s0,0,0,0h0s0,0,0,0c0,0,0,0,0,0s0,0,0,0v1.9l-5,.5v-26s0,0,0,0l-8.6-1.8s0,0,0,0l-1.2.2h-.2v-.9s0,0,0,0l-1.2-.3v-3.1s0,0,0,0l-6.4-1.4v-2s0,0,0,0l-4.7-1s0,0,0,0l-4.7.7s0,0,0,0v.2h-.4v-15.8s0,0,0,0h-.6s0,0,0,0c0,0,0,0,0,0v15.6l-5.5-1.2s0,0,0,0l-7.3,1.2-7.5-1.6v-8s0,0,0,0l-9.6-2.2v-7.4s0,0,0,0c0,0,0,0,0,0h-.4s0,0,0,0v7.3h-.3c0,0,0,0,0,0l-1.4.3v-14.3s0,0,0,0c0,0,0,0,0,0h-.7s0,0,0,0v14.4l-9.1,1.7v-.6s0,0,0,0l-4.4-1h0s0,0,0,0l-5.9,1.1s0,0,0,0v2.4l-6.6,1.2s0,0,0,0v37.2l-15-2.3s0,0,0,0l-1.5.2v-2.7c.5-.2.8-.8.8-1.5s-.3-1.2-.8-1.3c0,0,0,0,0,0h0s0,0,0,0h-.2s0,0,0,0h0s0,0,0,0c0,0,0,0,0,0,0,0,0,0-.1,0-.6.1-1,.8-1,1.6s.4,1.3.8,1.3h.2s0,0,0,0h0s0,0,0,0c0,0,0,0,0,0s0,0,0,0v2.6l-3.4.5v-1.9c.3-.2.5-.6.5-1s-.2-.8-.5-.9v-.7c.7-.3,1.1-1.1,1.1-2s-.4-1.6-1-1.7c0,0,0,0,0,0h0s0,0,0,0h0s-.2,0-.2,0c0,0,0,0,0,0h0s0,0,0,0c0,0,0,0,0,0,0,0,0,0-.1,0-.7.1-1.3,1-1.3,2.1s.5,1.7,1,1.7h.2s0,0,0,0h0s0,0,0,0c0,0,0,0,0,0s0,0,0,0v.6s0,0,0,0c0,0,0,0,0,0-.4,0-.7.6-.7,1.1s.3.9.6.9h.1s0,0,0,0h0s0,0,0,0c0,0,0,0,0,0s0,0,0,0v1.8l-6.7.9s0,0,0,0v8.8l-2.1-.3s0,0,0,0l-1.8.2s0,0,0,0v.2l-2.2.3v-2.7c.5-.2.8-.8.8-1.5s-.3-1.2-.8-1.3c0,0,0,0,0,0h0s0,0,0,0h0s-.2,0-.2,0c0,0,0,0,0,0h0s0,0,0,0c0,0,0,0,0,0,0,0,0,0-.1,0-.6,0-1,.8-1,1.6s.4,1.3.8,1.3h.2s0,0,0,0h0s0,0,0,0c0,0,0,0,0,0s0,0,0,0v2.6l-7.3.9v-2.2c.1,0,.2-.1.2-.2h0v-8.1c0-.1-.4-.3-1.1-.4-.7-.1-1.6-.2-2.4-.2-1.6,0-2.9.2-3.2.4,0,0,0,0,0,0v8.1s0,0,0,0,0,0,0,0h0c0,0,.1.2.4.3v3l-5.9.7h-.7c0,0,0,0,0,0l-1.7.2s0,0,0,0v30.6l-13-1s0,0,0,0l-25.2,2.1s0,0,0,0v53h-16.4c0,0,109.9,0,109.9,0h164.8c0,0-14.5,0-14.5,0ZM286.5,275.6h-25.1v-52.9l25.1-2.1v55ZM299.5,275.6h-13v-55l13,1v54ZM301.2,275.6h-1.6v-84.7l1.6-.2v84.9ZM321,185.6s0,0-.1,0,0,0,0,0h0s0,0,0,0c-.4,0-.7-.6-.7-1.2s.4-1.4.9-1.5c0,0,0,0,0,0s0,0,0,0h0c.4.1.7.6.7,1.2s-.4,1.4-.9,1.5ZM321.1,185.6c.5-.2.9-.8.9-1.5s-.2-.9-.5-1.1c.4.1.6.6.6,1.2s-.4,1.4-.9,1.5c0,0,0,0-.1,0ZM321.4,185.6v2.6h-.1s0-2.6,0-2.6c0,0,0,0,.1,0ZM307.4,178.7s0,0,0,0c.2-.2,1.4-.4,3.1-.4.9,0,1.7,0,2.4.2.8.1,1,.3,1,.3v8c-.3-.3-1.9-.4-3.3-.4-1.7,0-3,.1-3.3.3v-8ZM307.4,186.7s0,0,0,0c.2-.2,1.6-.3,3.3-.3,2.1,0,3.3.3,3.3.4,0,0,0,0-.2.1h0c0-.1,0-.2,0-.2h-.3s0,0,0,0l-.2.3c-.4,0-1,.1-1.7.1l-.4-.6h0c0-.1,0-.2,0-.2h-.2s0,0,0,0v.7c0,0-.2,0-.3,0-.9,0-1.8,0-2.4-.2v-.2c-.1,0-.1,0-.2,0h-.3s0,0,0,0h0c-.3,0-.4-.1-.4-.1ZM313.8,186.8v2.3h-.1v-2.3h.1ZM312.5,188.9l.2.3h-.4s.2-.3.2-.3ZM312.2,189.2h-.2s.3-.5.3-.5h0c0,.1-.2.5-.2.5ZM311.2,186.9v-.2l1.7,2.4h-.1s-1.5-2.2-1.5-2.2ZM311.3,187.2s0,0,0,0h0c0-.1,0,0,0,0ZM311.6,187.2c.6,0,1.2,0,1.6-.1l-.8,1.3-.8-1.2ZM312.5,188.5l1-1.6h0v.2l-1,1.5h0ZM311.1,186.5v3h-.1s0-3,0-3h.1ZM310.9,187.3v2.3h-.3s0-2.3,0-2.3h0c0,0,.2,0,.3,0ZM310.6,187.3v2.3h-.1s0-2.3,0-2.3c0,0,0,0,.1,0ZM309.2,188.8h0c0,0-.8,1.1-.8,1.1h-.2s.9-1.1.9-1.1ZM308.2,189.9h-.2s0-2.7,0-2.7l1.1,1.5-1,1.2ZM309.3,188.9l.6.8-1.3.2.8-.9ZM308,187h0c0-.1,0-.1,0-.1l2,2.8h-.1s-1.9-2.6-1.9-2.6ZM309.5,188.7l.9-1.1v2h-.2s-.7-.9-.7-.9ZM309.5,188.7h0c0,0,1-1.3,1-1.3v.2l-.9,1.1ZM309.3,188.5l-1-1.4c.5,0,1.3.1,2.1.1h0s-1,1.3-1,1.3ZM307.9,186.9h0s0,0,0,0ZM308,187.1v2.9h-.1s0-3,0-3h0v.2ZM301.9,265.4v10.2h-.6v-84.9h.6v4.6s0,0,0,0c0,0,0,0,0,0h0s.4,0,.4,0v6.5h-.4s0,0,0,0v6s0,0,0,0c0,0,0,0,0,0h0s.3,0,.3,0v6.5h-.4s0,0,0,0v6.1s0,0,0,0c0,0,0,0,0,0h0s.3,0,.3,0v6.5h-.4s0,0,0,0v5.9s0,0,0,0c0,0,0,0,0,0h0s.4,0,.4,0v6.5h-.4s0,0,0,0v6s0,0,0,0c0,0,0,0,0,0h0s.4,0,.4,0v6.6h-.4s0,0,0,0v6s0,0,0,0c0,0,0,0,0,0h.4s0,6.6,0,6.6h-.4s0,0,0,0ZM302.2,220.7l4.2-.3-4.2.3h0ZM302.2,233.3l9.1-.6-9,.6h0ZM311.3,275.6h-9.4v-10.2h9.4c0-.1,0,10.2,0,10.2ZM311.3,265h-.8s0-3.7,0-3.7h.8s0,3.7,0,3.7ZM311.3,261.2l-8.9.2v-.2l8.9-.2v.2ZM310.4,261.3v3.7h0s0-3.7,0-3.7h0ZM310.3,261.3v3.7h0s0-3.7,0-3.7h0ZM310.1,261.3v3.7h-1.6s0-3.7,0-3.7h1.6ZM308.5,261.3v3.7h0s0-3.7,0-3.7h0ZM308.3,261.3v3.7h0s0-3.7,0-3.7h0ZM308.2,261.3v3.7h-1.6s0-3.7,0-3.7h1.6ZM306.5,261.4v3.7h0s0-3.7,0-3.7h0ZM306.4,261.4v3.7h0s0-3.7,0-3.7h0ZM306.2,261.4v3.7h-1.6s0-3.6,0-3.6h1.6ZM304.6,261.4v3.7h0s0-3.7,0-3.7h0ZM304.4,261.4v3.7h0s0-3.7,0-3.7h0ZM304.3,261.4v3.7h-1.6s0-3.6,0-3.6h1.6ZM302.6,261.4v3.7h-.1s0-3.7,0-3.7h.1ZM302.5,261.1v-2.2h.1s0,2.2,0,2.2h-.1ZM302.6,261.1v-2.2h1.6s0,2.2,0,2.2h-1.6ZM304.4,261.1v-2.2h0s0,2.2,0,2.2h0ZM304.5,261.1v-2.2h0s0,2.2,0,2.2h0ZM304.6,261.1v-2.2h1.6s0,2.2,0,2.2h-1.6ZM306.3,261v-2.2h0s0,2.2,0,2.2h0ZM306.4,261v-2.2h0s0,2.2,0,2.2h0ZM306.6,261v-2.2h1.6s0,2.2,0,2.2h-1.6ZM308.2,261v-2.2h0s0,2.2,0,2.2h0ZM308.4,261v-2.2h0s0,2.2,0,2.2h0ZM308.5,261v-2.2h1.6s0,2.2,0,2.2h-1.6ZM310.2,261v-2.2h0s0,2.2,0,2.2h0ZM310.3,261v-2.2h0s0,2.2,0,2.2h0ZM311.3,260.9h-.8s0-2.2,0-2.2h.8s0,2.2,0,2.2ZM311.3,258.7l-8.9.2s0,0,0,0v6.2s0,0,0,0c0,0,0,0,0,0h8.9c0-.1,0,0,0,0h-9c0,.1,0-6.5,0-6.5l9-.2v.2ZM311.3,258.4l-9.4.2v-5.9l9.4-.3v6ZM311.3,252.1h-.8s0-3.7,0-3.7h.8s0,3.7,0,3.7ZM311.3,248.4l-8.9.3h0c0-.1,8.9-.5,8.9-.5v.2ZM310.4,248.5v3.7h0s0-3.7,0-3.7h0ZM310.3,248.5v3.7h0s0-3.7,0-3.7h0ZM310.1,248.5v3.7h-1.6c0,0,0-3.6,0-3.6h1.6ZM308.5,248.5v3.7h0s0-3.7,0-3.7h0ZM308.3,248.5v3.7h0s0-3.7,0-3.7h0ZM308.2,248.6v3.7h-1.6c0,0,0-3.6,0-3.6h1.6ZM306.5,248.6v3.7h0s0-3.7,0-3.7h0ZM306.4,248.6v3.7h0s0-3.7,0-3.7h0ZM306.2,248.6v3.7h-1.6c0,0,0-3.6,0-3.6h1.6ZM304.6,248.7v3.7h0s0-3.7,0-3.7h0ZM304.4,248.7v3.7h0s0-3.7,0-3.7h0ZM304.3,248.7v3.7h-1.6c0,0,0-3.6,0-3.6h1.6ZM302.6,248.8v3.7h0s0-3.7,0-3.7h0ZM302.5,248.5v-2.2h0s0,2.2,0,2.2h0ZM302.6,248.5v-2.2h1.6c0,0,0,2.1,0,2.1h-1.6ZM304.3,248.4v-2.2h0s0,2.2,0,2.2h0ZM304.5,248.4v-2.2h0s0,2.2,0,2.2h0ZM304.6,248.4v-2.2h1.6c0,0,0,2.2,0,2.2h-1.6ZM306.3,248.3v-2.2h0s0,2.2,0,2.2h0ZM306.4,248.3v-2.2h0s0,2.2,0,2.2h0ZM306.6,248.3v-2.2h1.6c0,0,0,2.2,0,2.2h-1.6ZM308.2,248.2v-2.2h0s0,2.2,0,2.2h0ZM308.4,248.2v-2.2h0s0,2.2,0,2.2h0ZM308.5,248.2v-2.2h1.6c0,0,0,2.2,0,2.2h-1.6ZM310.2,248.1v-2.2h0s0,2.2,0,2.2h0ZM310.3,248.1v-2.2h0s0,2.2,0,2.2h0ZM311.3,248.1h-.9s0-2.2,0-2.2h.9s0,2.2,0,2.2ZM311.3,245.8l-8.9.4s0,0,0,0v6.2s0,0,0,0c0,0,0,0,0,0h0l8.9-.3h0c0,0-9,.4-9,.4v-6.5l9-.4h0ZM311.3,245.6l-9.1.4h0s9.1-.4,9.1-.4h0ZM311.3,245.5l-9.4.4v-5.9l9.4-.5v6ZM311.3,239.3h-.8s0-3.6,0-3.6h.8s0,3.6,0,3.6ZM311.3,235.5l-8.9.5v-.2l8.9-.5v.2ZM310.4,235.6v3.7h0s0-3.7,0-3.7h0ZM310.3,235.6v3.7h0s0-3.7,0-3.7h0ZM310.1,235.7v3.7h-1.6c0,0,0-3.6,0-3.6h1.6ZM308.5,235.7v3.7h0s0-3.7,0-3.7h0ZM308.3,235.8v3.7h0s0-3.7,0-3.7h0ZM308.2,235.8v3.7h-1.6c0,0,0-3.6,0-3.6h1.6ZM306.5,235.9v3.7h0s0-3.7,0-3.7h0ZM306.4,235.9v3.7h0s0-3.7,0-3.7h0ZM306.2,235.9v3.7h-1.6c0,0,0-3.6,0-3.6h1.6ZM304.6,236v3.7h0s0-3.7,0-3.7h0ZM304.4,236v3.7h0s0-3.7,0-3.7h0ZM304.3,236v3.7h-1.6c0,0,0-3.6,0-3.6h1.6ZM302.6,236.1v3.7h0s0-3.7,0-3.7h0ZM302.5,235.8v-2.2h0s0,2.2,0,2.2h0ZM302.6,235.8v-2.2h1.6c0-.1,0,2.1,0,2.1h-1.6ZM304.3,235.7v-2.2h0s0,2.2,0,2.2h0ZM304.5,235.6v-2.2h0s0,2.2,0,2.2h0ZM304.6,235.6v-2.2h1.6c0-.1,0,2.1,0,2.1h-1.6ZM306.3,235.5v-2.2h0s0,2.2,0,2.2h0ZM306.4,235.5v-2.2h0s0,2.2,0,2.2h0ZM306.6,235.5v-2.2h1.6c0-.1,0,2.1,0,2.1h-1.6ZM308.2,235.4v-2.2h0s0,2.2,0,2.2h0ZM308.4,235.4v-2.2h0s0,2.2,0,2.2h0ZM308.5,235.4v-2.2h1.6c0-.1,0,2.1,0,2.1h-1.6ZM310.2,235.3v-2.2h0s0,2.2,0,2.2h0ZM310.3,235.3v-2.2h0s0,2.2,0,2.2h0ZM311.3,235.2h-.9s0-2.2,0-2.2h.9c0,0,0,2.2,0,2.2ZM311.3,232.9l-8.9.6s0,0,0,0v6.2s0,0,0,0c0,0,0,0,0,0h0l8.9-.5h0c0,0-9,.6-9,.6v-6.5l9-.6v.2ZM311.3,232.6l-9.4.6v-5.9l9.4-.7v5.9ZM311.3,226.4h-.8c0,0,0-3.6,0-3.6h.8c0,0,0,3.6,0,3.6ZM311.3,222.7l-8.9.7v-.2l8.9-.6v.2ZM310.4,222.8v3.7h0s0-3.7,0-3.7h0ZM310.3,222.8v3.7h0s0-3.7,0-3.7h0ZM310.1,222.8v3.7h-1.6c0,.1,0-3.6,0-3.6h1.6ZM308.5,223v3.7h0s0-3.7,0-3.7h0ZM308.3,223v3.7h0s0-3.7,0-3.7h0ZM308.2,223v3.7h-1.6c0,.1,0-3.6,0-3.6h1.6ZM306.5,223.1v3.7h0s0-3.7,0-3.7h0ZM306.4,223.1v3.7h0s0-3.7,0-3.7h0ZM306.2,223.1v3.7h-1.6c0,.1,0-3.6,0-3.6h1.6ZM304.6,223.2v3.7h0s0-3.7,0-3.7h0ZM304.4,223.3v3.7h0s0-3.7,0-3.7h0ZM304.3,223.3v3.7h-1.6c0,.1,0-3.6,0-3.6h1.6ZM302.6,223.4v3.7h0s0-3.7,0-3.7h0ZM302.5,223.1v-2.2h0s0,2.2,0,2.2h0ZM302.6,223.1v-2.2h1.6c0-.1,0,2.1,0,2.1h-1.6ZM304.4,222.9v-2.2h0s0,2.2,0,2.2h0ZM304.5,222.9v-2.2h0s0,2.2,0,2.2h0ZM304.7,222.9v-2.2h1.6c0-.1,0,2.1,0,2.1h-1.6ZM306.3,222.8v-2.2h0s0,2.2,0,2.2h0ZM306.4,222.8v-2.2h0s0,2.2,0,2.2h0ZM306.6,222.8v-2.2h1.6c0-.1,0,2.1,0,2.1h-1.6ZM308.2,222.7v-2.2h0s0,2.2,0,2.2h0ZM308.4,222.7v-2.2h0s0,2.2,0,2.2h0ZM308.5,222.6v-2.2h1.6c0-.1,0,2.1,0,2.1h-1.6ZM310.2,222.5v-2.2h0s0,2.2,0,2.2h0ZM310.3,222.5v-2.2h0s0,2.2,0,2.2h0ZM311.3,222.4h-.8c0,0,0-2.2,0-2.2h.8c0,0,0,2.2,0,2.2ZM311.3,220.1l-8.9.7s0,0,0,0v6.2s0,0,0,0c0,0,0,0,0,0h0l8.9-.6h0c0,.1-9,.8-9,.8v-6.5l9-.7h0ZM311.3,219.9l-9.4.8v-6l9.4-.9v6.1ZM311.3,213.6h-.8c0,0,0-3.6,0-3.6h.8c0,0,0,3.6,0,3.6ZM311.3,209.8l-8.9.8v-.2c.3,0,2.4-.2,4.4-.4,1.1-.1,2.2-.2,3.1-.3.4,0,.8,0,1,0,.1,0,.2,0,.3,0,0,0,0,0,0,0h0ZM310.4,210v3.7h0s0-3.7,0-3.7h0ZM310.3,210v3.7h0s0-3.7,0-3.7h0ZM310.1,210v3.7h-1.6c0,.1,0-3.5,0-3.5h1.6ZM308.5,210.2v3.7h0s0-3.7,0-3.7h0ZM308.3,210.2v3.7h0s0-3.7,0-3.7h0ZM308.2,210.2v3.7h-1.6c0,.1,0-3.5,0-3.5h1.6ZM306.5,210.3v3.7h0s0-3.7,0-3.7h0ZM306.4,210.4v3.7h0s0-3.7,0-3.7h0ZM306.2,210.4v3.7h-1.6c0,.1,0-3.5,0-3.5h1.6ZM304.6,210.5v3.7h0s0-3.7,0-3.7h0ZM304.4,210.5v3.7h0s0-3.7,0-3.7h0ZM304.3,210.5v3.7l-1.8.2v-3.7l1.8-.2ZM302.5,210.4v-2.2h0s0,2.2,0,2.2c0,0,0,0,0,0ZM302.6,210.4v-2.2l1.6-.2v2.2c-.7,0-1.3.1-1.6.2ZM304.4,210.2v-2.2h0s0,2.2,0,2.2c0,0,0,0,0,0ZM304.5,210.2v-2.2h0s0,2.2,0,2.2c0,0,0,0,0,0ZM304.6,210.2v-2.2l1.6-.2v2.2c-.5,0-1.1,0-1.6.1ZM306.3,210.1v-2.2h0s0,2.2,0,2.2c0,0,0,0,0,0ZM306.4,210v-2.2h0s0,2.2,0,2.2c0,0,0,0,0,0ZM306.6,210v-2.2l1.6-.2v2.2c-.5,0-1.1,0-1.6.1ZM308.2,209.9v-2.2h0s0,2.2,0,2.2c0,0,0,0,0,0ZM308.4,209.9v-2.2h0s0,2.2,0,2.2c0,0,0,0,0,0ZM308.5,209.9v-2.2l1.6-.2v2.3c-.5,0-1,0-1.6.1ZM310.2,209.7v-2.3h0s0,2.2,0,2.2c0,0,0,0,0,0ZM310.3,209.7v-2.3h0s0,2.2,0,2.2c0,0,0,0,0,0ZM311.3,209.6c0,0-.4,0-.9,0v-2.3h.9c0,0,0,2.2,0,2.2ZM311.3,207.3l-8.9.9s0,0,0,0v6.2s0,0,0,0c0,0,0,0,0,0s0,0,0,0l8.9-.8h0c0,0-9,.9-9,.9v-6.5l9-.9v.2ZM311.3,207l-9.1.9h-.1s9.2-.9,9.2-.9h0ZM311.3,206.9l-9.4.9v-5.9l9.4-1v6ZM311.3,200.7h-.9c0,0,0-3.6,0-3.6h.9c0,0,0,3.6,0,3.6ZM311.3,197l-8.9,1v-.2l8.9-1h0ZM310.4,197.1v3.7h0s0-3.7,0-3.7h0ZM310.3,197.2v3.7h0s0-3.7,0-3.7h0ZM310.1,197.2v3.7l-1.6.2v-3.7l1.6-.2ZM308.5,197.4v3.7h0s0-3.7,0-3.7h0ZM308.3,197.4v3.7h0s0-3.7,0-3.7h0ZM308.2,197.4v3.7l-1.6.2v-3.7l1.6-.2ZM306.5,197.6v3.7h0s0-3.7,0-3.7h0ZM306.3,197.6v3.7h0s0-3.7,0-3.7h0ZM306.2,197.6v3.7l-1.6.2v-3.7l1.6-.2ZM304.6,197.8v3.7h0s0-3.7,0-3.7h0ZM304.4,197.8v3.7h0s0-3.7,0-3.7h0ZM304.3,197.8v3.7l-1.6.2v-3.7l1.6-.2ZM302.6,198v3.7h0s0-3.6,0-3.6h0ZM302.5,197.7v-2.2h0s0,2.2,0,2.2h0ZM302.6,197.7v-2.2l1.6-.2v2.2l-1.6.2ZM304.3,197.5v-2.2h0s0,2.2,0,2.2h0ZM304.5,197.5v-2.2h0s0,2.2,0,2.2h0ZM304.6,197.5v-2.2l1.6-.2v2.2l-1.6.2ZM306.3,197.3v-2.2h0s0,2.2,0,2.2h0ZM306.4,197.3v-2.2h0s0,2.2,0,2.2h0ZM306.6,197.3v-2.2l1.6-.2v2.3l-1.6.2ZM308.2,197.1v-2.3h0s0,2.3,0,2.3h0ZM308.4,197.1v-2.3h0s0,2.3,0,2.3h0ZM308.5,197.1v-2.3l1.6-.2v2.3l-1.6.2ZM310.2,196.9v-2.3h0s0,2.3,0,2.3h0ZM310.3,196.9v-2.3h0s0,2.3,0,2.3h0ZM311.3,196.8h-.8c0,0,0-2.2,0-2.2h.8c0-.1,0,2.2,0,2.2ZM311.3,194.4l-8.9,1.1s0,0,0,0v6.2s0,0,0,0c0,0,0,0,0,0h0l8.9-1h0s-9,1-9,1v-6.5l9-1.1h0ZM311.3,194.2l-9,1.1h-.2s9.2-1.1,9.2-1.1h0ZM311.3,194.1l-9.4,1.1v-4.4l9.4-1.2v4.5ZM311.3,189.4h0c0,.1-.1.2-.1.2v-2.3s0,0,.1,0l1,1.4-.4.6h-.5c0,0,0,0,0,0ZM313.1,275.6h-1.7v-86h0c0-.1,1.7-.3,1.7-.3v86.4ZM313.1,189.1h-.2s-.3-.5-.3-.5l.9-1.5v2h-.4s0,0,0,0ZM313.7,265.2v10.4h-.6v-86.4h.6v4.6s0,0,0,0c0,0,0,0,0,0h0s.4,0,.4,0v6.6h-.4s0,0,0,0v6.1s0,0,0,0c0,0,0,0,0,0h0s.4,0,.4,0v6.6h-.4s0,0,0,0v6.2s0,0,0,0c0,0,0,0,0,0h.4v6.7h-.4s0,0,0,0v6s0,0,0,0c0,0,0,0,0,0h0s.4,0,.4,0v6.7h-.4s0,0,0,0v6.1s0,0,0,0c0,0,0,0,0,0h0s.4,0,.4,0v6.7h-.4s0,0,0,0v6.1s0,0,0,0,0,0,0,0h.4s0,6.7,0,6.7h-.3s0,0,0,0ZM323.6,275.6h-9.8v-10.3l9.8-.2v10.5ZM323.6,264.8h-.9s0-3.8,0-3.8h.9s0,3.8,0,3.8ZM323.6,260.9l-9.2.2v-.2l9.2-.2v.2ZM322.6,261v3.8h0s0-3.8,0-3.8h0ZM322.5,261v3.8h0s0-3.8,0-3.8h0ZM322.3,261v3.8h-1.7s0-3.7,0-3.7h1.7ZM320.6,261v3.8h0s0-3.8,0-3.8h0ZM320.4,261.1v3.8h0s0-3.8,0-3.8h0ZM320.3,261.1v3.8h-1.6s0-3.7,0-3.7h1.6ZM318.6,261.1v3.7h0s0-3.7,0-3.7h0ZM318.4,261.1v3.7h0s0-3.7,0-3.7h0ZM318.3,261.1v3.7h-1.6s0-3.7,0-3.7h1.6ZM316.6,261.1v3.7h0s0-3.7,0-3.7h0ZM316.4,261.1v3.7h0s0-3.7,0-3.7h0ZM316.3,261.2v3.7h-1.7s0-3.7,0-3.7h1.7ZM314.5,261.2v3.7h0s0-3.7,0-3.7h0ZM314.4,260.9v-2.2h0s0,2.2,0,2.2h0ZM314.6,260.9v-2.2h1.7s0,2.2,0,2.2h-1.7ZM316.3,260.8v-2.2h0s0,2.2,0,2.2h0ZM316.5,260.8v-2.2h0s0,2.2,0,2.2h0ZM316.6,260.8v-2.2h1.6s0,2.2,0,2.2h-1.6ZM318.3,260.8v-2.2h0s0,2.2,0,2.2h0ZM318.5,260.8v-2.2h0s0,2.2,0,2.2h0ZM318.6,260.8v-2.2h1.6s0,2.2,0,2.2h-1.6ZM320.4,260.7v-2.2h0s0,2.2,0,2.2h0ZM320.5,260.7v-2.2h0s0,2.2,0,2.2h0ZM320.7,260.7v-2.2h1.7s0,2.2,0,2.2h-1.7ZM322.4,260.7v-2.3h0s0,2.3,0,2.3h0ZM322.5,260.7v-2.3h0s0,2.3,0,2.3h0ZM323.6,260.7h-.9s0-2.2,0-2.2h.9s0,2.2,0,2.2ZM323.6,258.3l-9.2.2s0,0,0,0v6.3s0,0,0,0c0,0,0,0,0,0h9.2c0-.1,0,0,0,0l-9.4.2v-6.7l9.4-.2v.2ZM323.6,258.1l-9.8.3v-6.1l9.8-.3v6.2ZM323.6,251.7h-.9s0-3.7,0-3.7h.9s0,3.7,0,3.7ZM323.6,247.8l-9.2.4v-.2l9.2-.4v.2ZM322.6,248v3.8h0s0-3.8,0-3.8h0ZM322.5,248v3.8h0s0-3.8,0-3.8h0ZM322.3,248v3.8h-1.7c0,0,0-3.7,0-3.7h1.7ZM320.6,248v3.8h0s0-3.8,0-3.8h0ZM320.4,248v3.8h0s0-3.8,0-3.8h0ZM320.3,248v3.8h-1.6c0,0,0-3.7,0-3.7h1.6ZM318.6,248.1v3.7h0s0-3.7,0-3.7h0ZM318.4,248.1v3.7h0s0-3.7,0-3.7h0ZM318.3,248.1v3.7h-1.6c0,0,0-3.7,0-3.7h1.6ZM316.6,248.2v3.7h0s0-3.7,0-3.7h0ZM316.4,248.2v3.7h0s0-3.7,0-3.7h0ZM316.3,248.2v3.7h-1.7c0,0,0-3.7,0-3.7h1.7ZM314.5,248.3v3.7h0s0-3.7,0-3.7h0ZM314.4,248v-2.2h0s0,2.2,0,2.2h0ZM314.6,248v-2.2h1.7c0,0,0,2.2,0,2.2h-1.7ZM316.3,247.9v-2.2h0s0,2.2,0,2.2h0ZM316.5,247.9v-2.2h0s0,2.2,0,2.2h0ZM316.6,247.9v-2.2h1.6c0,0,0,2.2,0,2.2h-1.6ZM318.3,247.8v-2.3h0s0,2.2,0,2.2h0ZM318.5,247.8v-2.3h0s0,2.2,0,2.2h0ZM318.6,247.8v-2.3h1.6c0,0,0,2.2,0,2.2h-1.6ZM320.4,247.7v-2.3h0s0,2.3,0,2.3h0ZM320.5,247.7v-2.3h0s0,2.3,0,2.3h0ZM320.7,247.7v-2.3h1.7c0,0,0,2.2,0,2.2h-1.7ZM322.4,247.6v-2.3h0s0,2.3,0,2.3h0ZM322.5,247.6v-2.3h0s0,2.3,0,2.3h0ZM323.6,247.6h-.9s0-2.2,0-2.2h.9s0,2.2,0,2.2ZM323.6,245.2l-9.2.4s0,0,0,0v6.3s0,0,0,0c0,0,0,0,0,0h0l9.2-.3h0c0,0-9.4.4-9.4.4v-6.7l9.4-.4h0ZM323.6,245l-9.4.4h0s9.5-.4,9.5-.4h0ZM323.6,244.9l-9.8.4v-6l9.8-.5v6.1ZM323.6,238.6h-.9s0-3.7,0-3.7h.9c0,0,0,3.7,0,3.7ZM323.6,234.8l-9.2.5v-.2l9.2-.5v.2ZM322.6,234.9v3.8h0s0-3.8,0-3.8h0ZM322.5,234.9v3.8h0s0-3.8,0-3.8h0ZM322.3,234.9v3.8h-1.7c0,0,0-3.7,0-3.7h1.7ZM320.6,235v3.8h0s0-3.8,0-3.8h0ZM320.4,235v3.8h0s0-3.8,0-3.8h0ZM320.3,235v3.8h-1.7c0,0,0-3.7,0-3.7h1.7ZM318.6,235.1v3.7h0s0-3.7,0-3.7h0ZM318.4,235.1v3.7h0s0-3.7,0-3.7h0ZM318.3,235.2v3.7h-1.7c0,0,0-3.6,0-3.6h1.7ZM316.6,235.3v3.7h0s0-3.7,0-3.7h0ZM316.4,235.3v3.7h0s0-3.7,0-3.7h0ZM316.3,235.3v3.7h-1.7c0,0,0-3.6,0-3.6h1.7ZM314.5,235.4v3.7h0s0-3.7,0-3.7h0ZM314.4,235v-2.2h0s0,2.2,0,2.2h0ZM314.6,235v-2.2h1.7c0-.1,0,2.1,0,2.1h-1.7ZM316.3,234.9v-2.2h0s0,2.2,0,2.2h0ZM316.5,234.9v-2.2h0s0,2.2,0,2.2h0ZM316.6,234.9v-2.2h1.6c0-.1,0,2.1,0,2.1h-1.6ZM318.3,234.8v-2.2h0s0,2.2,0,2.2h0ZM318.5,234.8v-2.2h0s0,2.2,0,2.2h0ZM318.6,234.8v-2.2h1.7c0-.1,0,2.1,0,2.1h-1.7ZM320.4,234.7v-2.3h0s0,2.2,0,2.2h0ZM320.5,234.7v-2.3h0s0,2.2,0,2.2h0ZM320.7,234.7v-2.3h1.7c0-.1,0,2.2,0,2.2h-1.7ZM322.4,234.6v-2.3h0s0,2.3,0,2.3h0ZM322.5,234.6v-2.3h0s0,2.3,0,2.3h0ZM323.6,234.5h-.9c0,0,0-2.2,0-2.2h.9c0,0,0,2.2,0,2.2ZM323.6,232.2l-9.2.6s0,0,0,0v6.3s0,0,0,0c0,0,0,0,0,0h0l9.2-.5h0c0,0-9.4.6-9.4.6v-6.7l9.4-.6v.2ZM323.6,231.9l-9.8.6v-6l9.8-.7v6ZM314.1,219.7l2.5-.2-2.4.2h0ZM323.6,225.6h-.9c0,0,0-3.7,0-3.7h.9c0,0,0,3.7,0,3.7ZM323.6,221.7l-9.2.7v-.2l9.2-.7h0ZM322.6,221.9v3.8h-.1s0-3.8,0-3.8h.1ZM322.5,221.9v3.8h0s0-3.8,0-3.8h0ZM322.3,221.9v3.8h-1.7c0,.1,0-3.6,0-3.6h1.7ZM320.6,222v3.8h0s0-3.7,0-3.7h0ZM320.4,222v3.8h0s0-3.7,0-3.7h0ZM320.3,222v3.8h-1.6c0,.1,0-3.6,0-3.6h1.6ZM318.6,222.2v3.7h0s0-3.7,0-3.7h0ZM318.4,222.2v3.7h0s0-3.7,0-3.7h0ZM318.3,222.2v3.7h-1.6c0,.1,0-3.6,0-3.6h1.6ZM316.6,222.3v3.7h0s0-3.7,0-3.7h0ZM316.4,222.3v3.7h0s0-3.7,0-3.7h0ZM316.3,222.3v3.7h-1.7c0,.1,0-3.6,0-3.6h1.7ZM314.5,222.5v3.7h0s0-3.7,0-3.7h0ZM314.4,222.2v-2.3h0s0,2.2,0,2.2h0ZM314.6,222.1v-2.3h1.7c0-.1,0,2.1,0,2.1h-1.7ZM316.3,222v-2.3h0s0,2.3,0,2.3h0ZM316.5,222v-2.3h0s0,2.3,0,2.3h0ZM316.6,222v-2.3h1.6c0-.1,0,2.1,0,2.1h-1.6ZM318.3,221.9v-2.3h0s0,2.3,0,2.3h0ZM318.5,221.9v-2.3h0s0,2.3,0,2.3h0ZM318.6,221.9v-2.3h1.6c0-.1,0,2.2,0,2.2h-1.6ZM320.4,221.7v-2.3h0s0,2.3,0,2.3h0ZM320.5,221.7v-2.3h0s0,2.3,0,2.3h0ZM320.7,221.7v-2.3h1.7c0-.1,0,2.2,0,2.2h-1.7ZM322.4,221.6v-2.3h0s0,2.3,0,2.3h0ZM322.5,221.6v-2.3h0s0,2.3,0,2.3h0ZM323.6,221.5h-.9c0,0,0-2.2,0-2.2h.9c0,0,0,2.2,0,2.2ZM323.6,219.1l-9.2.7s0,0,0,0v6.4s0,0,0,0c0,0,0,0,0,0h0l9.2-.6h0c0,.1-9.4.8-9.4.8v-6.7l9.4-.8v.2ZM323.6,218.8l-9.8.8v-6.1l9.8-.9v6.2ZM323.6,212.5h-.9c0,0,0-3.7,0-3.7h.9c0,0,0,3.7,0,3.7ZM323.6,208.7l-9.2.9v-.2l9.2-.8v.2ZM322.6,208.8v3.7h0s0-3.7,0-3.7h0ZM322.5,208.8v3.7h0s0-3.7,0-3.7h0ZM322.3,208.8v3.7h-1.6c0,.1,0-3.6,0-3.6l1.6-.2ZM320.6,209v3.7h0s0-3.7,0-3.7h0ZM320.4,209v3.7h0s0-3.7,0-3.7h0ZM320.3,209v3.7h-1.6c0,.1,0-3.6,0-3.6l1.6-.2ZM318.6,209.2v3.7h0s0-3.7,0-3.7h0ZM318.4,209.2v3.7h0s0-3.7,0-3.7h0ZM318.3,209.2v3.7h-1.6c0,.1,0-3.6,0-3.6l1.6-.2ZM316.6,209.4v3.7h0s0-3.7,0-3.7h0ZM316.4,209.4v3.7h0s0-3.7,0-3.7h0ZM316.3,209.4v3.7l-1.7.2v-3.7l1.7-.2ZM314.5,209.6v3.7h0s0-3.7,0-3.7h0ZM314.4,209.3v-2.2h0s0,2.2,0,2.2h0ZM314.6,209.2v-2.2l1.7-.2v2.2l-1.7.2ZM316.3,209.1v-2.2h0s0,2.2,0,2.2h0ZM316.5,209.1v-2.2h0s0,2.2,0,2.2h0ZM316.6,209.1v-2.2l1.7-.2v2.3l-1.7.2ZM318.3,208.9v-2.3h0s0,2.3,0,2.3h0ZM318.5,208.9v-2.3h0s0,2.3,0,2.3h0ZM318.6,208.9v-2.3l1.6-.2v2.3l-1.6.2ZM320.4,208.7v-2.3h0s0,2.3,0,2.3h0ZM320.5,208.7v-2.3h0s0,2.3,0,2.3h0ZM320.7,208.7v-2.3l1.7-.2v2.3l-1.7.2ZM322.4,208.5v-2.3h0s0,2.3,0,2.3h0ZM322.5,208.5v-2.3h0s0,2.3,0,2.3h0ZM323.6,208.4h-.9c0,0,0-2.2,0-2.2h.9c0,0,0,2.2,0,2.2ZM323.6,206l-9.2.9s0,0,0,0v6.3s0,0,0,0c0,0,0,0,0,0h0l9.2-.8h0s-9.4.9-9.4.9v-6.6l9.4-.9v.2ZM323.6,205.8l-9.4.9h-.2s9.6-1,9.6-1h0ZM323.6,205.7l-9.8,1v-6l9.8-1.1v6.1ZM323.6,199.4h-.9c0,0,0-3.6,0-3.6h.9c0-.1,0,3.6,0,3.6ZM323.6,195.6l-9.2,1v-.2l9.2-1h0ZM322.6,195.8v3.7h0s0-3.7,0-3.7h0ZM322.5,195.8v3.7h0s0-3.7,0-3.7h0ZM322.3,195.8v3.7l-1.7.2v-3.7l1.7-.2ZM320.6,196v3.7h-.1s0-3.7,0-3.7h.1ZM320.4,196v3.7h0s0-3.7,0-3.7h0ZM320.3,196v3.7l-1.6.2v-3.7l1.6-.2ZM318.6,196.2v3.7h0s0-3.7,0-3.7h0ZM318.4,196.2v3.7h0s0-3.7,0-3.7h0ZM318.3,196.2v3.7l-1.6.2v-3.7l1.6-.2ZM316.5,196.4v3.7h0s0-3.7,0-3.7h0ZM316.4,196.5v3.7h0s0-3.7,0-3.7h0ZM316.3,196.5v3.7l-1.7.2v-3.7l1.7-.2ZM314.5,196.7v3.7h0s0-3.7,0-3.7h0ZM314.4,196.3v-2.2h0s0,2.2,0,2.2h0ZM314.6,196.3v-2.2l1.7-.2v2.2l-1.7.2ZM316.3,196.1v-2.2h0s0,2.2,0,2.2h0ZM316.5,196.1v-2.2h0s0,2.2,0,2.2h0ZM316.6,196.1v-2.2l1.6-.2v2.3l-1.6.2ZM318.3,195.9v-2.3h0s0,2.3,0,2.3h0ZM318.5,195.9v-2.3h0s0,2.3,0,2.3h0ZM318.6,195.9v-2.3l1.7-.2v2.3l-1.7.2ZM320.4,195.7v-2.3h0s0,2.3,0,2.3h0ZM320.5,195.7v-2.3h0s0,2.3,0,2.3h0ZM320.7,195.7v-2.3l1.7-.2v2.3l-1.7.2ZM322.4,195.5v-2.3h0s0,2.3,0,2.3h0ZM322.5,195.5v-2.3h0s0,2.3,0,2.3h0ZM323.6,195.3h-.9c0,0,0-2.2,0-2.2h.9c0-.1,0,2.2,0,2.2ZM323.6,192.9l-9.2,1.1s0,0,0,0v6.4s0,0,0,0c0,0,0,0,0,0h0l9.2-1h0c0,0-9.4,1.1-9.4,1.1v-6.6l9.4-1.1h0ZM323.6,192.7l-9.4,1.1h-.2s9.6-1.2,9.6-1.2h0ZM323.6,192.6l-9.8,1.2v-4.5l9.8-1.2v4.6ZM325.4,275.6h-1.7v-87.7l1.7-.2v87.9ZM337.7,174.8s0,0-.1,0,0,0,0,0h0c-.4-.1-.7-.6-.7-1.3s.4-1.4,1-1.5c0,0,0,0,.1,0s0,0,0,0h0c.4.1.7.6.7,1.3s-.4,1.4-1,1.5ZM337.8,174.9c.6-.2,1-.8,1-1.6s-.2-1-.5-1.2c.4.1.6.6.6,1.2s-.4,1.4-1,1.5c0,0,0,0-.1,0ZM338.1,174.9v2.7h-.1s0-2.6,0-2.6c0,0,0,0,0,0,0,0,0,0,.1,0ZM334.9,175.1c0,.5-.3,1-.7,1.1.3-.2.6-.6.6-1.1s-.1-.6-.3-.8c.2.1.4.4.4.8ZM334.5,176.2v1.8h-.1s0-1.8,0-1.8c0,0,0,0,.1,0ZM334.1,173.5c0,0-.1,0-.2,0s0,0,0,0h0c-.5-.1-.9-.8-.9-1.7s.6-1.9,1.3-2c0,0,0,0,.1,0s0,0,0,0h0c.5.1.9.8.9,1.6s-.5,1.8-1.3,2ZM334.1,173.5c.8-.2,1.3-1.1,1.3-2.1s-.3-1.3-.7-1.6c.5.1.9.8.9,1.6s-.5,1.8-1.3,2c0,0-.2,0-.2,0ZM334.5,173.5v.7s0,0,0,0c0,0,0,0,0,0h-.1s0,0,0,0v-.6s0,0,0,0c0,0,0,0,.1,0ZM334.1,176.2s0,0,0,0,0,0,0,0h0c-.3,0-.5-.4-.5-.9s.3-1,.7-1.1c0,0,0,0,0,0s0,0,0,0h0c.3,0,.5.4.5.9s-.3,1-.7,1.1ZM329.3,275.6h-3.9v-87.9l3.9.5v87.4ZM339.7,275.6h-10.3v-28.1l10.3-.4v28.5ZM339.7,247l-10.3.4v-22.8l10.3-.8v23.2ZM339.7,223.8l-10.3.8v-22.8l10.3-1.1v23.1ZM339.7,200.6l-10.3,1.1v-13.5s0,0,0,0l-1.8-.2v-8.8l12.1-1.7v23.2ZM351.4,275.6h-11.7v-12.7l11.7.2v12.4ZM351.4,263.1l-11.7-.2v-12.8l11.7.5v12.6ZM351.4,250.4l-11.7-.5v-12.8l11.7.7v12.6ZM351.4,237.8l-11.7-.7v-12.8l11.7.9v12.6ZM351.4,225.1l-11.7-.9v-12.8l11.7,1.2v12.6ZM351.4,212.4l-11.7-1.2v-12.8l11.7,1.4v12.6ZM351.4,199.8l-11.7-1.4v-12.8l11.7,1.6v12.6ZM353.9,275.6h-2.4v-12.4h2.4v12.4ZM353.9,263.1h-2.4v-12.6h2.4v12.6ZM353.9,250.5h-2.4v-12.7h2.4v12.7ZM353.9,237.9h-2.4v-12.7l2.4.2v12.5ZM353.9,225.3l-2.4-.2v-12.6l2.4.2v12.5ZM353.9,212.7l-2.4-.2v-12.6l2.4.3v12.5ZM353.9,200.1l-2.4-.3v-12.6l2.4.3v12.5ZM354.7,275.6h-.8v-12.4h.8v12.4ZM354.7,263.1h-.8v-12.5h.8v12.5ZM354.7,250.6h-.8v-12.6h.8v12.6ZM354.7,238h-.8v-12.6h.8v12.6ZM354.7,225.4h-.8v-12.6h.8v12.6ZM354.7,212.8h-.8v-12.6h.8v12.6ZM354.7,200.2h-.8v-12.6h.8v12.6ZM354.7,187.6l-15-2.1v-8.1l15,2.3v7.9ZM431.8,156.4v4.7l-11.1-2.3v-4.8l11.1,2.4ZM420.5,261.3v-3.2l10,.3v3.2l-9.7-.3h-.2ZM420.7,261.3v4.8l-11.7.2v-4.7l11.7-.2ZM420.7,261.3l11.1.3v4.7s-11.1-.2-11.1-.2v-4.8ZM420.5,258h-6.6c0,.1,6.9,0,6.9,0l10,.3h-.3s-10-.3-10-.3ZM420.7,253.1v4.8l-11.6.3h-.1v-4.7l11.7-.3ZM420.5,253v-3.2l10,.4v3.2l-9.7-.4h-.2ZM420.7,257.9v-4.8l11.1.4v4.7s-11.1-.4-11.1-.4ZM420.4,249.7l-10.3.3h-.2s10.8-.4,10.8-.4l10.4.5h-.6s-10-.4-10-.4ZM420.7,244.8v4.8l-11.6.4h0v-4.7l11.7-.5ZM420.5,244.8v-3.2l10,.6v3.1l-9.7-.5h-.2ZM420.7,249.6v-4.8l11.1.6v4.7s-11.1-.5-11.1-.5ZM420.4,241.5l-10.3.4h-.5s11.1-.5,11.1-.5l10.5.6h-.7s-10-.5-10-.5ZM420.7,236.6v4.8l-11.7.5h0v-4.7l11.7-.6ZM420.5,236.5v-3.2l10,.7v3.1l-9.7-.7h-.2ZM420.7,241.4v-4.8l11.1.8v4.7s-11.1-.7-11.1-.7ZM420.5,233.3h0l-10.3.6h-.6c0,0,11.2-.7,11.2-.7l10.6.8h-.8c0,0-10-.7-10-.7ZM429.9,226.2l-8.6-.8s0,0,0,0c0,0,0,0,0,0v2.9s0,0,0,0l7.2.6-7.7-.6h-.2s0-3.1,0-3.1l10,.8v3.1h-.6s0,0,0,0c0,0,0,0,0,0v-2.8s0,0,0,0ZM429.8,226.2v2.7h-.1v-2.7h.1ZM429.6,226.2v2.7h-1.3v-2.8h1.3ZM428.3,226.1v2.7h0v-2.7h0ZM428.1,226.1v2.7h-.1v-2.7h.1ZM427.9,226.1v2.7l-1.9-.2v-2.7l1.9.2ZM425.9,225.9v2.7h0v-2.8h0ZM425.8,225.9v2.7h-.1v-2.8h.1ZM425.6,225.8v2.7l-1.9-.2v-2.8l1.9.2ZM423.6,225.6v2.8h-.1v-2.8h.1ZM423.4,225.6v2.8h-.1v-2.8h.1ZM423.2,225.6v2.8l-1.9-.2v-2.8l1.9.2ZM420.7,228.3v4.8l-11.7.6h0v-4.7l11.7-.7ZM420.7,233.1v-4.8l11.1.9v4.7s-11.1-.8-11.1-.8ZM420.5,225.1h0l-10.3.6h-.7c0,0,11.3-.8,11.3-.8l10.7,1h-.9c0,0-10-.8-10-.8ZM420.7,220.1v4.8l-11.7.8h0v-4.7l11.7-.8ZM420.5,220v-3.1l10,1v3l-9.7-1h-.2ZM420.7,224.8v-4.8l11.1,1.1v4.7s-11.1-1-11.1-1ZM420.5,216.8h0l-10.3.8h-.7c0,0,11.3-.9,11.3-.9l10.7,1.1h-.9c0,0-10-.9-10-.9ZM420.7,211.8v4.8l-11.7.9h0v-4.7l11.7-1ZM416.6,212l-2.5.2v-2.7l2.5-.2v2.7ZM416.7,212v-2.8h.2s0,2.8,0,2.8h-.2ZM416.9,212v-2.7h0v2.7h0ZM417.1,212v-2.7l2.7-.2v2.7l-2.7.2ZM429.9,209.9l-8.6-.9s0,0,0,0c0,0,0,0,0,0v2.8h-.5c0,0,0,0,0,0h-.2s0-3.1,0-3.1l10,1.1v3h-.5v-2.9s0,0,0,0ZM429.8,210v2.8h-.1v-2.7h.1ZM428.5,209.8h1.2c0,.1,0,.1,0,.1h-1.1ZM429.6,210v2.7h-1.3v-2.9l1.3.2ZM428.3,209.8v2.8h-.1v-2.8h.1ZM428.1,209.8v2.8h-.1v-2.7h.1ZM426.5,209.6l1.4.2h0s-1.4-.2-1.4-.2ZM427.9,209.9v2.7l-1.9-.2v-2.7l1.9.2ZM425.9,209.6v2.8h-.1v-2.8h.1ZM425.8,209.5v2.8h-.1v-2.7h.1ZM425.6,209.6v2.7l-1.9-.2v-2.7l1.9.2ZM423.5,209.3v2.8h-.1v-2.8h.1ZM423.4,209.3v2.8h-.1v-2.7h.1ZM423.2,209.3v2.7l-1.9-.2v-2.7l1.9.2ZM420.7,216.6v-4.8l11.1,1.2v4.7s-11.1-1.1-11.1-1.1ZM420.5,208.6s0,0,0,0l-10.3.9h-.8c0-.1,11.4-1.1,11.4-1.1l10.8,1.3h-1c0,0-10-1.1-10-1.1ZM420.7,203.6v4.8l-11.7,1h0v-4.7l11.7-1.1ZM410.9,204.4v-2.8h0v2.8h0ZM411.1,201.6l2.6-.2h0s-2.6.2-2.6.2ZM413.7,201.4v2.7l-2.6.2v-2.7l2.6-.2ZM413.7,204.1v-2.8h.1s0,2.8,0,2.8h-.1ZM414,204.1v-2.8h0v2.8h0ZM414.1,204.1v-2.7l2.5-.2v2.8l-2.5.2ZM416.7,203.9v-2.8h.1s0,2.8,0,2.8h-.1ZM416.9,203.8v-2.8h0v2.8h0ZM417.1,203.8v-2.8l2.7-.3v2.8l-2.7.2ZM429.9,201.9l-8.6-1.1s0,0,0,0c0,0,0,0,0,0v2.8h-.5c0,0,0,0,0,0h-.2s0-3,0-3l10,1.3v3h-.5v-2.9s0,0,0,0ZM429.8,201.9v2.7h-.1v-2.7h.1ZM429.6,202v2.7l-1.3-.2v-2.7l1.3.2ZM428.2,201.7v2.7h0v-2.8h0ZM428.1,201.7v2.7h-.1v-2.7h.1ZM427.9,201.7v2.7l-1.9-.2v-2.7l1.9.2ZM425.9,201.4v2.7h-.1v-2.8h.1ZM425.8,201.4v2.7h-.1v-2.7h.1ZM425.6,201.4v2.7l-1.9-.2v-2.7l1.9.3ZM423.5,201.1v2.8h-.1v-2.8h.1ZM423.4,201.1v2.7h-.1v-2.7h.1ZM423.2,201.1v2.7l-1.9-.2v-2.7l1.9.2ZM420.7,208.3v-4.8l11.1,1.4v4.7s-11.1-1.3-11.1-1.3ZM420.5,200.4s0,0,0,0l-10.3,1h-.8c0-.1,11.4-1.2,11.4-1.2l10.8,1.4h-1.1c0,0-10-1.2-10-1.2ZM420.7,195.3v4.8l-11.7,1.1h0v-4.7l11.7-1.2ZM410.9,196.2v-2.8h0v2.7h0ZM411.1,196.2v-2.7l2.6-.3v2.7l-2.6.3ZM413.7,196v-2.8h.1s0,2.8,0,2.8h-.1ZM414,195.9v-2.8h.1v2.8h-.1ZM414.1,195.9v-2.7l2.5-.3v2.7l-2.5.3ZM416.7,195.6v-2.8h.1s0,2.8,0,2.8h-.1ZM416.9,195.6v-2.8h0v2.8h0ZM417.1,195.6v-2.7l2.7-.3v2.7l-2.7.3ZM429.9,193.8l-8.6-1.2s0,0,0,0c0,0,0,0,0,0v2.7h-.5c0,0,0,0,0,0h-.2s0-3,0-3l10,1.4v2.9h-.5v-2.8s0,0,0,0ZM429.8,193.8v2.7h-.1v-2.6h.1ZM428.3,193.6h0s1.4.2,1.4.2h0s-1.4-.2-1.4-.2ZM429.6,193.9v2.6l-1.3-.2v-2.6l1.3.2ZM428.3,193.6v2.7h0v-2.7h0ZM428.1,193.6v2.7h-.1v-2.7h.1ZM427.1,193.4h.8c0,.1,0,.1,0,.1h-.8ZM427.9,193.6v2.6l-1.9-.3v-2.6l1.9.3ZM425.9,193.3v2.7h0v-2.7h0ZM425.8,193.3v2.7h-.1v-2.7h.1ZM425.6,193.3v2.6l-1.9-.3v-2.7l1.9.3ZM423.5,192.9v2.7h0v-2.7h0ZM423.4,192.9v2.7h-.1v-2.7h.1ZM423.2,192.9v2.7l-1.9-.3v-2.7l1.9.3ZM420.7,200.1v-4.8l11.1,1.6v4.7l-11.1-1.5ZM420.5,192.2s0,0,0,0l-10.3,1.1h-.9c0-.1,11.5-1.3,11.5-1.3l10.9,1.6h-1.1c0,.1-10-1.3-10-1.3ZM420.7,187.1v4.8l-11.7,1.2h0v-4.7l11.7-1.3ZM410.9,188.1v-2.7h0v2.7h0ZM411.1,185.3h0s2.6-.3,2.6-.3h0s-2.6.3-2.6.3ZM413.7,185.1v2.7l-2.6.3v-2.7l2.6-.3ZM413.7,187.8v-2.8h.1s0,2.7,0,2.7h-.1ZM414,187.7v-2.7h0v2.7h0ZM414.1,185h0s1.8-.2,1.8-.2l-1.8.2ZM416.6,184.7v2.7l-2.5.3v-2.7l2.5-.3ZM416.7,187.4v-2.8h.1s0,2.8,0,2.8h-.1ZM416.9,187.4v-2.8h0v2.7h0ZM417.1,187.4v-2.7l2.7-.3v2.7l-2.7.3ZM429.9,185.7l-8.6-1.4s0,0,0,0c0,0,0,0,0,0v2.7h-.5c0,0,0,0,0,0h-.2s0-3,0-3l9.9,1.6v2.9h-.5v-2.8s0,0,0,0ZM429.8,185.8v2.6h-.1v-2.6h.1ZM428.8,185.6h.9c0,.1,0,.1,0,.1h-.9ZM429.6,185.8v2.6l-1.3-.2v-2.6l1.3.2ZM428.3,185.5v2.7h0v-2.7h0ZM428.1,185.5v2.6h-.1v-2.6h.1ZM426,185.1h0s1.9.3,1.9.3h0s-1.9-.3-1.9-.3ZM427.9,185.5v2.6l-1.9-.3v-2.6l1.9.3ZM425.9,185.1v2.7h0v-2.7h0ZM425.8,185.1v2.7h-.1v-2.6h.1ZM423.6,184.8h0s2,.3,2,.3h0s-2-.3-2-.3ZM425.6,185.1v2.6l-1.9-.3v-2.6l1.9.3ZM423.5,184.7v2.7h0v-2.7h0ZM423.4,184.7v2.7h-.1v-2.6h.1ZM421.3,184.4l1.9.3h0s-1.9-.3-1.9-.3ZM423.2,184.8v2.6l-1.9-.3v-2.6l1.9.3ZM420.7,191.8v-4.8l11.1,1.7v4.7l-11.1-1.6ZM420.5,183.9s0,0,0,0l-10.3,1.2-.9-.2,11.5-1.3,10.9,1.8h-1.1c0,.1-10-1.5-10-1.5ZM420.7,178.8v4.8l-11.7,1.4v-4.7l11.7-1.4ZM410.9,179.9v-2.7h0s0,2.7,0,2.7h0ZM411.1,177.2h0s2.6-.3,2.6-.3h0s-2.6.3-2.6.3ZM413.7,176.9v2.6l-2.6.3v-2.6s2.6-.3,2.6-.3ZM413.7,179.6v-2.7h.2s0,2.7,0,2.7h-.2ZM414,179.5v-2.7h0v2.7h0ZM414.1,176.8h0s2.5-.3,2.5-.3h0s-2.5.3-2.5.3ZM416.6,176.6v2.7l-2.5.3v-2.7l2.5-.3ZM416.7,179.2v-2.7h.2s0,2.7,0,2.7h-.2ZM416.9,179.2v-2.7h0v2.7h0ZM417.1,176.5h0s2.7-.4,2.7-.4h0s-2.7.4-2.7.4ZM419.8,176.2v2.7l-2.7.3v-2.6l2.7-.3ZM429.9,177.6l-6.5-1.1h0l-2.2-.4s0,0,0,0c0,0,0,0,0,0v2.7h-.5c0,0,0,0,0,0h-.2s0-2.9,0-2.9l10,1.7v2.8h-.5v-2.8s0,0,0,0ZM428.3,177.4h0s1.4.2,1.4.2h0s-1.4-.2-1.4-.2ZM429.7,177.7v2.5l-1.3-.2v-2.6l1.3.2ZM429.7,177.7h.1s0,2.6,0,2.6h-.1v-2.6ZM428.3,177.3v2.7h-.1v-2.7h.1ZM426,177h0s2,.3,2,.3h0s-1.9-.3-1.9-.3ZM427.9,177.4v2.5l-1.9-.3v-2.6l1.9.3ZM428,177.4h.1s0,2.6,0,2.6h-.1v-2.6ZM425.9,176.9v2.7h0v-2.7h0ZM423.6,176.6h0s2,.3,2,.3h0s-2-.3-2-.3ZM425.6,177v2.6l-1.9-.3v-2.6l1.9.3ZM425.6,177h.1s0,2.6,0,2.6h-.1v-2.6ZM423.5,176.5v2.7h-.1v-2.7h.1ZM421.3,176.2h0s2,.3,2,.3h0s-1.9-.3-1.9-.3ZM423.2,176.6v2.6l-1.9-.3v-2.6l1.9.3ZM423.2,176.6h.1s0,2.6,0,2.6h-.1v-2.6ZM420.7,183.6v-4.8l11.1,1.9v4.7l-11.1-1.8ZM420.5,175.7s0,0,0,0l-10.3,1.3-.9-.2,11.5-1.4,10.9,1.9h-1.1c0,.1-10-1.6-10-1.6ZM420.7,170.6v4.8l-11.7,1.5v-4.7l11.7-1.5ZM410.9,171.8v-2.7h0v2.7h0ZM411.1,169.1h0s2.6-.4,2.6-.4h0s-2.6.4-2.6.4ZM413.7,168.8v2.6l-2.6.3v-2.6l2.6-.3ZM413.7,171.4v-2.7h.1s0,2.7,0,2.7h-.1ZM414,171.4v-2.7h0v2.7h0ZM414.1,168.7h0s2.6-.3,2.6-.3h0l-2.5.3ZM416.6,168.4v2.6l-2.5.3v-2.6l2.5-.3ZM416.7,171v-2.7h.1s0,2.7,0,2.7h-.1ZM416.9,171v-2.7h0v2.7h0ZM417.1,170.9v-2.6l2.7-.4v2.6l-2.7.4ZM429.9,169.5l-1.8-.3h0l-4.7-.9h0l-2.2-.4s0,0,0,0c0,0,0,0,0,0v2.7h-.5c0,0,0,0,0,0h-.2s0-2.9,0-2.9l10,1.9v2.8h-.5v-2.8s0,0,0,0ZM428.3,169.3h0s1.4.2,1.4.2h0s-1.4-.2-1.4-.2ZM429.7,169.6v2.5l-1.3-.2v-2.5l1.3.2ZM429.7,169.6h.1s0,2.6,0,2.6h-.1v-2.6ZM428.2,169.3v2.6h0v-2.6h0ZM426,168.8h0s2,.4,2,.4h0s-1.9-.4-1.9-.4ZM427.9,169.3v2.5l-1.9-.3v-2.5l1.9.4ZM428,169.3h.1s0,2.6,0,2.6h-.1v-2.6ZM425.9,168.8v2.6h-.1v-2.6h.1ZM423.6,168.4h0s2,.4,2,.4h0s-2-.4-2-.4ZM425.6,168.8v2.5l-1.9-.4v-2.5l1.9.4ZM425.6,168.8h.1s0,2.6,0,2.6h-.1v-2.6ZM423.5,168.4v2.6h-.1v-2.7h.1ZM421.3,168h0s2,.4,2,.4h0s-1.9-.4-1.9-.4ZM423.2,168.4v2.5l-1.9-.4v-2.5l1.9.4ZM423.2,168.4h.1s0,2.6,0,2.6h-.1v-2.6ZM420.7,175.3v-4.8l11.1,2.1v4.7l-11.1-2ZM420.5,167.5s0,0,0,0l-10.3,1.4-.9-.2,11.5-1.6,10.9,2.1-1.2.2-10-1.9ZM420.7,162.3v4.8l-11.7,1.6v-4.7l11.7-1.7ZM410.9,163.6v-2.6h0v2.6h0ZM413.7,160.6v2.6l-2.6.4v-2.6l2.6-.4ZM411.2,160.9l2.5-.4h0s-2.5.4-2.5.4ZM413.7,163.2v-2.7h.2s0,2.7,0,2.7h-.2ZM414,163.2v-2.7h0v2.6h0ZM416.6,160.2v2.6l-2.5.4v-2.6l2.5-.4ZM415.6,160.3l1.1-.2h0s-1.1.2-1.1.2ZM416.7,162.8v-2.7h.1s0,2.7,0,2.7h-.1ZM416.9,162.8v-2.7h0v2.7h0ZM417.1,162.7v-2.6l2.7-.4v2.6l-2.7.4ZM429.9,161.4l-1.8-.4h0l-2.3-.5h0l-4.6-.9s0,0,0,0c0,0,0,0,0,0v2.6h-.5c0,0,0,0,0,0h-.2s0-2.9,0-2.9l10,2v2.8h-.5v-2.7s0,0,0,0ZM429.8,161.5v2.5h-.1v-2.5h.1ZM428.3,161.2h0s1.4.3,1.4.3h0s-1.4-.3-1.4-.3ZM429.6,161.5v2.5l-1.3-.3v-2.5l1.3.3ZM428.3,161.2v2.6h-.1v-2.6h.1ZM428.1,161.1v2.5h-.1v-2.5h.1ZM426,160.7h0s1.9.4,1.9.4h0s-1.9-.4-1.9-.4ZM427.9,161.2v2.5l-1.9-.4v-2.5l1.9.4ZM425.9,160.7v2.6h-.1v-2.6h.1ZM425.8,160.7v2.6h-.1v-2.5h.1ZM423.6,160.2h0s2,.4,2,.4h0s-2-.4-2-.4ZM425.6,160.7v2.5l-1.9-.4v-2.5l1.9.4ZM423.5,160.2v2.6h0v-2.6h0ZM421.3,159.8h0s2,.4,2,.4h0s-1.9-.4-1.9-.4ZM423.2,160.2v2.5l-1.9-.4v-2.5l1.9.4ZM423.2,160.2h.1s0,2.5,0,2.5h-.1v-2.5ZM420.7,167.1v-4.8l11.1,2.2v4.7l-11.1-2.1ZM420.5,159.3s0,0,0,0l-10.8,1.6-.8-.2h0s11.9-1.8,11.9-1.8l10.9,2.2-1.2.2-10-2ZM398.2,260.6v-.2l7.5.2h0s0,0,0,0c0,0,0,0,0,0v-2.9s0,0,0,0l-7.5-.2v-.2l7.9.3v3.3l-7.6-.2h-.4ZM398.5,260.7v5h-.3v-5h.3ZM398.2,260.4v-2.9h1.9v3h-1.9ZM400.2,260.4v-2.9h.1v2.9h-.1ZM400.4,260.5v-2.9h.1v2.9h-.1ZM400.6,260.5v-2.9h2.1v3h-2.1ZM402.8,260.5v-2.9h.1v2.9h-.1ZM403,260.5v-2.9h.1v2.9h-.1ZM403.2,260.5v-2.9h2.2v2.9h-2.2ZM405.5,260.6v-2.9h.1v2.9h-.1ZM405.6,252.2h0s0,0,0,0c0,0,0,0,0,0v-2.9s0,0,0,0l-7.5-.3v-.2l7.9.4v3.3l-7.6-.3h-.4s0-.1,0-.1l7.5.3ZM398.2,251.8v-2.9h1.9v3h-1.9ZM400.2,251.9v-2.9h.1v2.9h-.1ZM400.4,251.9v-2.9h.1v2.9h-.1ZM400.6,251.9v-2.9h2.1v3h-2.1ZM402.8,252v-2.9h.1v2.9h-.1ZM403,252v-2.9h.1v2.9h-.1ZM403.2,252v-2.9h2.2v3h-2.2ZM405.5,252.1v-2.9h.1v2.9h-.1ZM405.6,243.7h0s0,0,0,0c0,0,0,0,0,0v-2.9s0,0,0,0l-7.5-.4v-.2l8,.5v3.3l-7.6-.4s0,0,0,0h-.4s0,0,0,0l7.4.4ZM398.2,243.3v-2.9h1.9v3h-1.9ZM400.2,243.4v-2.9h.1v2.9h-.1ZM400.4,243.4v-2.9h.1v2.9h-.1ZM400.6,243.4v-2.9h2.1v3h-2.1ZM402.8,243.5v-2.9h.1v2.9h-.1ZM403,243.5v-2.9h.1v2.9h-.1ZM403.2,243.5v-2.9h2.2v3h-2.2ZM405.5,243.7v-2.9h.1v2.9h-.1ZM405.6,235.3s0,0,0,0c0,0,0,0,0,0,0,0,0,0,0,0v-2.9s0,0,0,0l-7.5-.6v-.2l7.9.6v3.2l-7.6-.5h-.4s0,0,0,0l7.4.5ZM398.2,234.7v-2.9h1.9v3h-1.9ZM400.2,234.8v-2.9h.1v2.9h-.1ZM400.4,234.8v-2.9h.1v2.9h-.1ZM400.6,234.8v-2.9l2.1.2v2.9h-2.1ZM402.8,235v-2.9h.1v2.9h-.1ZM403,235v-2.9h.1v2.9h-.1ZM403.2,235v-2.9l2.2.2v2.9l-2.2-.2ZM405.5,235.2v-2.9h.1v2.9h-.1ZM405.6,198.4l-7.5-1v-.2l7.9,1v3.1h-.5v-2.9s0,0,0,0ZM405.6,198.5v2.8h-.1v-2.8h.1ZM405.4,198.5v2.8l-2.2-.3v-2.8l2.2.3ZM403.1,198.1v2.8h-.1v-2.9h.1ZM402.9,198.1v2.8h-.1v-2.8h.1ZM402.7,198.1v2.8l-2.1-.3v-2.8l2.1.3ZM400.5,197.8v2.9h-.1v-2.9h.1ZM400.3,197.8v2.8h-.1v-2.8h.1ZM400.1,197.8v2.8l-1.5-.2s0,0,0,0h-.4s0-2.9,0-2.9l1.9.3ZM398.5,200.5v5h-.3s0-5,0-5h.3ZM398.5,205.5l9.9,1.2-2.2.2v-.2s0,0,0,0l-8-.9h0c0-.1.4-.2.4-.2ZM406.1,206.7v3.1h-.4v-3s0,0,0,0l-7.5-.9v-.2l7.9.9ZM405.6,206.9v2.9h-.1v-2.8h.1ZM405.4,206.9v2.8l-2.2-.3v-2.8l2.2.3ZM403.1,206.6v2.9h-.1v-2.9h.1ZM402.9,206.6v2.9h-.1v-2.9h.1ZM402.7,206.6v2.8l-2.1-.2v-2.8l2.1.2ZM400.5,206.3v2.9h-.1v-2.9h.1ZM400.3,206.3v2.9h-.1v-2.9h.1ZM400.1,206.3v2.8l-1.6-.2s0,0,0,0h-.4s0-2.9,0-2.9l1.9.2ZM398.5,209.1v5h-.3s0-5,0-5h.3ZM398.5,214.1l9.8,1-2.2.2v-.2s0,0,0,0l-8-.8h0c0-.1.4-.2.4-.2ZM406.1,215.2v3.1h-.5v-3s0,0,0,0l-7.5-.8v-.2l7.9.8ZM405.6,215.4v2.9h-.1v-2.9h.1ZM405.4,215.4v2.9l-2.2-.2v-2.9l2.2.2ZM403.1,215.1v2.9h-.1v-2.9h.1ZM402.9,215.1v2.9h-.1v-2.9h.1ZM402.7,215.1v2.9l-2.1-.2v-2.9l2.1.2ZM400.5,214.9v2.9h-.1v-2.9h.1ZM400.3,214.8v2.9h-.1v-2.9h.1ZM400.1,214.8v2.9l-1.6-.2s0,0,0,0h-.4s0-3,0-3l1.9.2ZM398.5,217.7v5h-.3s0-5,0-5h.3ZM398.5,222.7l9.8.9h-2.1c0,.1,0,0,0,0,0,0,0,0,0,0l-8-.7h0c0,0,.4-.1.4-.1ZM406.1,223.6v3.2h-.5s0,0,0,0c0,0,0,0,0,0v-2.9s0,0,0,0l-7.5-.7v-.2l7.9.7ZM405.6,223.9v2.9h-.1v-2.9h.1ZM405.4,223.8v2.9l-2.2-.2v-2.9l2.2.2ZM403.1,223.6v2.9h-.1v-2.9h.1ZM402.9,223.6v2.9h-.1v-2.9h.1ZM402.7,223.6v2.9l-2.1-.2v-2.9l2.1.2ZM400.5,223.4v2.9h-.1v-2.9h.1ZM400.3,223.4v2.9h-.1v-2.9h.1ZM400.1,223.4v2.9l-1.9-.2v-2.9l1.9.2ZM404.8,226.7l-6.2-.5h-.4s0,0,0,0l6.6.6ZM398.5,226.3v5h-.3s0-5,0-5h.3ZM398.5,231.4l9.7.7h-2c0,.1,0,0,0,0,0,0,0,0,0,0l-8-.6h0c0,0,.4,0,.4,0ZM398.5,234.9v5h-.3s0-5,0-5h.3ZM398.5,240l9.6.6h-1.9c0,.1,0,0,0,0,0,0,0,0,0,0l-8-.5h0s.4,0,.4,0ZM398.5,243.5v5h-.3s0-5,0-5h.3ZM398.5,248.6l9.3.4h-1.7c0,0,0,0,0,0,0,0,0,0,0,0l-8-.4h0s.4,0,.4,0ZM406.1,257.4l-7.7-.2h.1s8.9.3,8.9.3h-1.3s0,0,0,0c0,0,0,0,0,0ZM398.5,252.1v5h-.3s0-5,0-5h.3ZM398.6,260.7l10.1.3v4.9l-10.1-.2v-5ZM408.4,260.9h-2.2v-3.3h2.2c0,0,0,3.3,0,3.3ZM398.6,257.1v-5l10.1.4v4.9l-10.1-.3ZM408.4,252.4h-2.3v-3.3h2.3c0,0,0,3.3,0,3.3ZM398.6,248.5v-5l10.1.5v4.9l-10.1-.5ZM408.4,243.9h-2.2v-3.2h2.2c0-.1,0,3.2,0,3.2ZM398.6,239.9v-5l10.1.7v4.9l-10.1-.6ZM408.4,235.5l-2.2-.2v-3.1h2.2c0-.1,0,3.2,0,3.2ZM398.6,231.3v-5l10.1.8v4.9l-10.1-.8ZM408.4,227l-2.2-.2v-3l2.2-.2v3.4ZM398.6,222.7v-5l10.1,1v4.9l-10.1-.9ZM408.4,218.6l-2.2-.2v-2.9l2.2-.2v3.3ZM398.6,214.1v-5l10.1,1.1v4.9l-10.1-1.1ZM408.4,210.1l-2.2-.3v-2.9l2.2-.2v3.3ZM398.6,205.5v-5l10.1,1.3v4.9l-10.1-1.2ZM406.2,201.4v-2.8l2.2-.2v3.3l-2.2-.3ZM406.2,198.5v-.2s0,0,0,0l-8-1.1v-.2h.4s9.9,1.3,9.9,1.3l-2.3.2ZM405.6,189.9l-7.5-1.1v-.2l7.9,1.2v3.1h-.5v-2.9s0,0,0,0ZM405.6,190v2.8h-.1v-2.8h.1ZM405.4,190v2.7l-2.2-.3v-2.7l2.2.3ZM403.1,189.6v2.8h-.1v-2.8h.1ZM402.9,189.6v2.8h-.1v-2.8h.1ZM402.7,189.6v2.8l-2.1-.3v-2.8l2.1.3ZM400.5,189.2v2.8h-.1v-2.8h.1ZM400.3,189.2v2.8h-.1v-2.8h.1ZM400.1,189.2v2.8l-1.6-.2s0,0,0,0h-.4s0-2.8,0-2.8l1.9.3ZM398.5,191.9v5h-.3s0-5,0-5h.3ZM398.6,196.9v-5l10.1,1.4v4.9l-10.1-1.4ZM406.2,192.9v-2.8l2.2-.3v3.3l-2.2-.3ZM406.2,190v-.3s0,0,0,0l-8-1.2v-.2h.4s9.9,1.4,9.9,1.4l-2.3.3ZM405.6,181.4l-7.5-1.2v-.2l7.9,1.3v3h-.5v-2.9s0,0,0,0ZM405.6,181.5v2.7h-.1v-2.7h.1ZM405.4,181.5v2.7l-2.2-.3v-2.7l2.2.4ZM403.1,181.1v2.8h-.1v-2.8h.1ZM402.9,181.1v2.8h-.1v-2.7h.1ZM402.7,181.1v2.7l-2.1-.3v-2.7l2.1.3ZM400.5,180.7v2.8h-.1v-2.8h.1ZM400.3,180.7v2.8h-.1v-2.8h.1ZM400.1,180.6h0s-2-.3-2-.3h0s2,.3,2,.3ZM400.1,180.7v2.7l-1.6-.2s0,0,0,0h-.4s0-2.8,0-2.8l1.9.3ZM398.5,183.2v5h-.3s0-5,0-5h.3ZM398.6,188.2v-5l10.1,1.6v4.9l-10.1-1.5ZM408.4,184.7l-2.2-.3v-2.7l2.2-.3v3.3ZM406.2,181.6v-.3s0,0,0,0l-8-1.3v-.2h.4c0,0,10,1.6,10,1.6l-2.3.3ZM405.6,173l-7.5-1.3v-.2l7.9,1.4v3h-.5v-2.9s0,0,0,0ZM405.6,173.1v2.7h-.1v-2.7h.1ZM403.2,172.6l2.2.4h0s-2.2-.4-2.2-.4ZM405.4,173.1v2.7l-2.2-.4v-2.7l2.2.4ZM403.1,172.6v2.8h-.1v-2.8h.1ZM402.9,172.6v2.7h-.1v-2.7h.1ZM400.6,172.2h0s2.2.4,2.2.4h0s-2.1-.4-2.1-.4ZM402.7,172.6v2.7l-2.1-.4v-2.7l2.1.4ZM400.5,172.1v2.8h-.1v-2.8h.1ZM400.3,172.1v2.8h-.1v-2.7h.1ZM400.2,172.1h0s-2-.3-2-.3h0s2,.3,2,.3ZM400.1,172.2v2.7l-1.6-.3s0,0,0,0h-.4c0,0,0-2.8,0-2.8l1.9.3ZM398.5,174.7v5h-.3c0,0,0-4.9,0-4.9h.3ZM398.6,179.7v-5l10.1,1.7v4.9l-10.1-1.6ZM408.4,176.3l-2.2-.4v-2.6l2.2-.3v3.3ZM406.2,173.2v-.3s0,0,0,0l-8-1.4v-.2h.4c0,0,10,1.7,10,1.7l-2.3.3ZM405.6,164.5l-7.5-1.4v-.2l7.9,1.5v2.9h-.5v-2.8s0,0,0,0ZM405.6,164.6v2.7h-.1v-2.7h.1ZM405.4,164.6v2.6l-2.2-.4v-2.6l2.2.4ZM403.2,164.1h0s.6.1.6.1h-.6ZM403.1,164.1v2.7h-.1v-2.7h.1ZM402.9,164.1v2.7h-.1v-2.7h.1ZM400.6,163.6h0s2.2.4,2.2.4h0s-2.2-.4-2.2-.4ZM402.7,164.1v2.6l-2.1-.4v-2.6l2.1.4ZM400.5,163.6v2.7h-.1v-2.8h.1ZM400.3,163.6v2.7h-.1v-2.7h.1ZM400.2,163.5h0s-2-.4-2-.4h0s2,.4,2,.4ZM400.1,163.6v2.6l-1.6-.3s0,0,0,0h-.4c0,0,0-2.7,0-2.7l1.9.4ZM398.5,166v5h-.3c0,0,0-4.9,0-4.9h.3ZM398.6,171v-5l10.1,1.9v4.9l-10.1-1.8ZM408.4,167.8l-2.2-.4v-2.6l2.2-.3v3.3ZM406.2,164.7v-.3s0,0,0,0l-8-1.5v-.3h.4c0,0,10,1.8,10,1.8l-2.4.3ZM406.2,155.9l-8-1.6v-.4l10.3,2.1-2.3.3v-.4s0,0,0,0ZM406.1,156v2.9h-.5v-2.8s0,0,0,0l-7.5-1.5v-.2l7.9,1.6ZM405.6,156.1v2.6h-.1v-2.6h.1ZM404.9,156h.5c0,.1,0,.1,0,.1h-.5ZM405.4,156.1v2.6l-2.2-.4v-2.6l2.2.5ZM403.1,155.6v2.7h-.1v-2.7h.1ZM402.9,155.6v2.7h-.1v-2.6h.1ZM400.6,155.1h0s2.2.4,2.2.4h0s-2.2-.4-2.2-.4ZM402.7,155.6v2.6l-2.1-.4v-2.6l2.1.4ZM400.5,155.1v2.7h-.1v-2.7h.1ZM400.3,155v2.7h-.1v-2.7h.1ZM400.2,155h0s-2-.4-2-.4h0s2,.4,2,.4ZM400.1,155.1v2.6l-1.6-.3s0,0,0,0h-.4c0,0,0-2.7,0-2.7l1.9.4ZM398.5,157.4v5h-.3c0,0,0-4.9,0-4.9h.3ZM398.6,162.4v-5l10.1,2v4.9l-10.1-1.9ZM406.2,158.9v-2.5l2.5-.4h0s0,0,0,0c0,0,0,0,0,0,0,0,0,0,0,0h0c0-.1,11.9-1.9,11.9-1.9v4.8l-11.9,1.7v-1.1s0,0,0,0l-2.6-.5ZM419.6,148.6l4.6,1v2l-4.6-1v-2ZM414.9,149.3l4.6-.7v2h-.2v-.6s0,0,0,0l-2.8-.6s0,0,0,0l-1.5.2h0v-.2ZM419.3,150v.5l-2.7-.6v-.5l2.7.6ZM416.5,149.4v.5l-1.3-.3,1.3-.2ZM413.9,133.7h.5v15.7h-.5v-15.7ZM408.3,148.2l22.3,4.9v3l-9.9-2.1s0,0,0,0l-11.9,1.8v-4.8s0,0,0,0h-.5v-2.8ZM408.2,148.2v2.7l-7.1-1.5,7.1-1.1ZM408.7,151v4.9l-25.4-5.2v-5.1l25.4,5.4ZM393,260.5l-9.7-.3h-.1s0-3.5,0-3.5l9.3.3h.5s0,3.5,0,3.5ZM394,260.6v5l-10.6-.2v-5.1s10.6.3,10.6.3ZM369.1,153.1h0s0,0,0,0h-.1s0,0,0,0ZM369.1,153.2v110h-.1v-110h.1ZM368.8,146.2l2.4-.4v1.9l-2.1.4s0,0,0,0v.7h-.3c0,0,0-2.5,0-2.5ZM368.7,146.1h0s2.5-.4,2.5-.4h0s-2.5.4-2.5.4ZM382.2,151.6s0,0,0,0l-2.8.5h0s-8.2,1.4-8.2,1.4c0,0,0,0,0,0v2.8h-.7c0,.1,0-2.9,0-2.9l12.7-2.1v3.1h-.9c0,.1,0-2.7,0-2.7,0,0,0,0,0,0ZM379.6,152.1h0s2.6-.4,2.6-.4h0s-2.5.4-2.5.4ZM382.1,151.8v2.8l-2.5.4v-2.7l2.5-.4ZM379.5,152.2v2.8h-.1s0-2.8,0-2.8h.1ZM379.4,152.1v2.8h-.2s0-2.8,0-2.8h.2ZM376.6,152.6h0s2.6-.4,2.6-.4h0s-2.6.4-2.6.4ZM379.1,152.3v2.7l-2.5.4v-2.7l2.5-.4ZM376.5,152.7v2.7h-.1s0-2.8,0-2.8h.1ZM376.3,152.6v2.8h-.2s0-2.8,0-2.8h.2ZM373.6,153.1h0s2.5-.4,2.5-.4h0s-2.5.4-2.5.4ZM376.1,152.8v2.7l-2.5.4v-2.7l2.5-.4ZM373.6,153.2v2.7h-.1s0-2.8,0-2.8h.1ZM373.4,153.1v2.8h-.2s0-2.8,0-2.8h.2ZM371.4,153.5h0s1.8-.3,1.8-.3h0s-1.8.3-1.8.3ZM373.2,153.2v2.7l-1.8.3v-2.7l1.8-.3ZM371.3,153.5v2.7h-.1s0-2.8,0-2.8h.1ZM383.3,154.4v5.1l-14.1,2.2v-5l14.1-2.3ZM391.9,153.2l-8.1-1.7s0,0,0,0c0,0,0,0,0,0v2.8h-.4c0,0,0,0,0,0h-.1s0-3,0-3l9.8,2v3l-1.1-.2v-2.8s0,0,0,0ZM389.3,152.8h0s2.4.5,2.4.5h0s-2.3-.5-2.3-.5ZM391.6,153.4v2.6l-2.3-.5v-2.7l2.3.5ZM391.7,153.3h.1s0,2.7,0,2.7h-.1v-2.7ZM389.3,152.8v2.8h-.1v-2.8h.1ZM386.7,152.2h0s2.3.5,2.3.5h0s-2.3-.5-2.3-.5ZM388.9,152.8v2.7l-2.2-.4v-2.7l2.2.5ZM389,152.8h.1s0,2.7,0,2.7h-.1v-2.7ZM386.6,152.2v2.8h-.1v-2.8h.1ZM383.8,151.7h0s2.5.5,2.5.5h0s-2.4-.5-2.4-.5ZM386.2,152.2v2.7l-2.4-.5v-2.7l2.4.5ZM386.3,152.2h.1s0,2.7,0,2.7h-.1v-2.7ZM382.2,160.4s0,0,0,0l-11,1.7s0,0,0,0v2.9h-.7c0,.1,0-3,0-3l12.7-1.9v3.1h-.9c0,.1,0-2.8,0-2.8,0,0,0,0,0,0ZM379.6,160.9h0s2.5-.4,2.5-.4h0s-2.5.4-2.5.4ZM382.1,160.5v2.8l-2.5.4v-2.8l2.5-.4ZM379.5,160.9v2.8h-.1s0-2.8,0-2.8h.1ZM379.4,160.9v2.9h-.2s0-2.9,0-2.9h.2ZM376.6,161.3h0s2.6-.4,2.6-.4h0s-2.6.4-2.6.4ZM379.1,161v2.8l-2.5.4v-2.8l2.5-.4ZM376.5,161.4v2.8h-.1s0-2.8,0-2.8h.1ZM376.3,161.3v2.9h-.2s0-2.8,0-2.8h.2ZM373.6,161.8h0s2.5-.4,2.5-.4h0s-2.5.4-2.5.4ZM376.1,161.5v2.8l-2.5.4v-2.8l2.5-.4ZM373.6,161.8v2.8h-.1s0-2.8,0-2.8h.1ZM373.4,164.6h-.2s0-2.8,0-2.8h.2s0,2.8,0,2.8ZM373.2,161.9v2.8l-1.8.3v-2.8l1.8-.3ZM371.3,162.2v2.8h-.1s0-2.8,0-2.8h.1ZM383.3,163.3v5.1l-14.1,2v-5l14.1-2.1ZM382.2,169.2s0,0,0,0l-11,1.6s0,0,0,0v2.9h-.7c0,0,0-3,0-3l12.7-1.8v3.2h-.9c0,.1,0-2.8,0-2.8,0,0,0,0,0,0ZM379.6,169.6h0s2.5-.4,2.5-.4h0s-2.5.4-2.5.4ZM382.1,169.3v2.8l-2.5.3v-2.8l2.5-.4ZM379.6,169.7v2.8h-.1s0-2.9,0-2.9h.1ZM379.4,169.6v2.9h-.2s0-2.9,0-2.9h.2ZM379.1,169.7v2.8l-2.6.3v-2.8l2.6-.4ZM376.5,170.1v2.8h-.1s0-2.9,0-2.9h.1ZM376.3,170.1v2.9h-.1s0-2.9,0-2.9h.1ZM373.7,170.4l2.4-.3h0s-2.4.3-2.4.3ZM376.1,170.2v2.8l-2.5.3v-2.8l2.5-.3ZM373.6,170.5v2.8h-.1s0-2.8,0-2.8h.1ZM373.4,170.5v2.9h-.1s0-2.9,0-2.9h.1ZM373.2,170.6v2.8l-1.8.2v-2.8l1.8-.3ZM371.3,170.8v2.8h-.1s0-2.8,0-2.8h.1ZM383.3,172.1v5.1l-14.1,1.8v-5l14.1-1.9ZM382.2,178s0,0,0,0l-11,1.4s0,0,0,0v2.9h-.7c0,0,0-3,0-3l12.7-1.6v3.2h-.9c0,.1,0-2.9,0-2.9,0,0,0,0,0,0ZM382.1,178.1v2.9l-2.5.3v-2.9l2.5-.3ZM379.6,178.4v2.9h-.1s0-2.9,0-2.9h.1ZM379.4,178.4v2.9h-.2s0-2.9,0-2.9h.2ZM376.6,178.8l2.6-.3v2.9l-2.6.3v-2.8ZM376.6,178.7h0s0,0,0,0ZM376.5,178.8v2.9h-.1s0-2.9,0-2.9h.1ZM376.3,178.8v2.9h-.1s0-2.9,0-2.9h.1ZM376.1,178.9v2.8l-2.5.3v-2.8l2.5-.3ZM373.6,179.2v2.8h-.1s0-2.9,0-2.9h.1ZM373.4,179.2v2.9h-.2s0-2.9,0-2.9h.2ZM373.2,179.2v2.8l-1.8.2v-2.8l1.8-.2ZM371.3,179.5v2.8h-.1s0-2.9,0-2.9h.1ZM383.3,180.9v5.1l-14.1,1.7v-5l14.1-1.8ZM382.2,186.7s0,0,0,0l-11,1.3s0,0,0,0v3h-.7c0,0,0-3.1,0-3.1l12.7-1.5v3.2h-.9c0,.1,0-2.9,0-2.9,0,0,0,0,0,0ZM381.7,186.8h.4s0,0,0,0h-.4ZM382.1,186.9v2.9l-2.5.3v-2.9l2.5-.3ZM379.6,187.2v2.9h-.1s0-2.9,0-2.9h.1ZM379.4,187.1v3h-.2s0-2.9,0-2.9h.2ZM379.1,187.2v2.9l-2.5.3v-2.9l2.5-.3ZM376.5,187.5v2.9h-.1s0-2.9,0-2.9h.1ZM376.3,187.5v3h-.2s0-2.9,0-2.9h.2ZM376.1,187.6v2.9l-2.5.3v-2.9l2.5-.3ZM373.6,187.9v2.9h-.1s0-2.9,0-2.9h.1ZM373.4,187.8v2.9h-.2s0-2.9,0-2.9h.2ZM373.2,187.9v2.9l-1.8.2v-2.9l1.8-.2ZM371.3,188.1v2.9h-.1s0-2.9,0-2.9h.1ZM383.3,189.7v5.1l-14.1,1.5v-5l14.1-1.6ZM382.2,195.5s0,0,0,0l-2.7.3s0,0,0,0l-8.2.9s0,0,0,0v3h-.7c0,0,0-3.1,0-3.1h0l12.7-1.3v3.2h-.9c0,0,0-2.9,0-2.9,0,0,0,0,0,0ZM382.1,195.6v2.9l-2.5.3v-2.9l2.5-.3ZM379.5,195.9v3h-.1s0-3,0-3h.1ZM379.4,195.9v3h-.2s0-3,0-3h.2ZM379.1,196v2.9l-2.5.3v-2.9l2.5-.3ZM376.5,196.2v2.9h-.1s0-3,0-3h.1ZM376.3,196.2v3h-.2s0-3,0-3h.2ZM376.1,196.3v2.9l-2.5.3v-2.9l2.5-.3ZM373.6,196.5v2.9h-.1s0-2.9,0-2.9h.1ZM373.4,196.5v3h-.2s0-3,0-3h.2ZM373.2,196.6v2.9l-1.8.2v-2.9l1.8-.2ZM371.3,196.8v2.9h-.1s0-2.9,0-2.9h.1ZM383.3,198.5v5.1l-14.1,1.3v-5l14.1-1.4ZM382.2,204.3s0,0,0,0l-11,1.1s0,0,0,0v3s0,0,0,0h-.7c0,0,0-3.2,0-3.2l12.7-1.2v3.3h-.9c0,0,0,0,0,0v-3.1s0,0,0,0ZM382.1,204.4v3l-2.5.2v-3l2.5-.2ZM379.5,204.6v3h-.1s0-3,0-3h.1ZM379.4,204.6v3h-.2s0-3,0-3h.2ZM379.1,204.7v3l-2.6.2v-3l2.6-.2ZM376.5,204.9v3h-.1s0-2.9,0-2.9h.1ZM376.3,204.9v3h-.1s0-2.9,0-2.9h.1ZM376.1,204.9v3l-2.5.2v-2.9l2.5-.2ZM373.6,205.2v2.9h-.1s0-2.9,0-2.9h.1ZM373.4,205.2v2.9h-.1s0-2.9,0-2.9h.1ZM373.2,205.2v2.9l-1.8.2v-2.9l1.8-.2ZM371.3,205.4v2.9h-.1s0-2.9,0-2.9h.1ZM383.3,207.4v5.1l-14.1,1.2v-5l14.1-1.3ZM383.3,216.2v5.1l-14.1,1v-5l14.1-1.1ZM370.4,217.1v-3.3l12.7-1.1v3.3l-12.7,1ZM383.3,225v5.1l-14.1.9v-5l14.1-1ZM370.4,225.8v-3.3l12.7-.9v3.4l-12.7.9ZM383.3,233.8v5.1l-14.1.7v-5l14.1-.8ZM370.4,234.5v-3.3l12.7-.8v3.4l-12.7.7ZM383.3,242.7v5.1l-14.1.5v-5l14.1-.6ZM370.4,243.1v-3.4l12.7-.6v3.4l-12.7.6ZM383.3,251.5v5.1l-14.1.4v-5l14.1-.5ZM370.4,251.8v-3.4l12.7-.5v3.4l-12.7.4ZM370.4,257h0s13-.3,13-.3l8.2.3-8.4-.2-12.7.3ZM383.1,256.8v3.5l-12.7.3v-3.4l12.7-.3ZM370.4,251.8h-1.2s0-3.5,0-3.5h1.2v3.5ZM370.4,243.1h-1.2c0,0,0-3.5,0-3.5h1.2v3.5ZM370.4,234.5h-1.2c0,0,0-3.4,0-3.4h1.2v3.4ZM370.4,225.8h-1.2c0,0,0-3.4,0-3.4h1.2v3.4ZM370.4,217.1h-1.2c0,0,0-3.4,0-3.4h1.2v3.4ZM370.4,208.4h-1.2c0,.1,0-3.4,0-3.4h1.2v3.4ZM370.4,199.8h-1.2c0,.1,0-3.3,0-3.3h1.2v3.3ZM370.4,191.1h-1.2c0,.1,0-3.4,0-3.4l1.2.2v3.2ZM370.4,182.4l-1.2.2v-3.5l1.2.2v3.2ZM370.4,173.8l-1.2.2v-3.5l1.2.2v3.1ZM370.4,165.1l-1.2.2v-3.5l1.2.2v3.1ZM370.4,156.4l-1.2.2v-3.4h.2c0,0,1,.1,1,.1v3.1ZM369.2,257h1.2v3.5h-1.2s0-3.5,0-3.5ZM369.2,260.6l14.1-.3v5.1l-14.1.2v-5ZM383.4,256.6v-5.1s10.6.4,10.6.4v5l-10.6-.3ZM393,251.8l-9.7-.4h-.1s0-3.4,0-3.4l9.3.4h.5s0,3.4,0,3.4ZM392.5,248.3l-9.3-.4-12.7.5h-.5s13.4-.5,13.4-.5l9.8.5h-.7ZM383.4,247.8v-5.1s10.6.6,10.6.6v5l-10.6-.5ZM393,243.1l-9.7-.5h-.1s0-3.4,0-3.4l9.3.6h.5s0,3.4,0,3.4ZM392.5,239.7l-9.3-.6h0l-12.7.6h-.7c0,0,13.6-.7,13.6-.7l10,.6h-.9ZM383.4,238.9v-5.1s10.6.7,10.6.7v5l-10.6-.7ZM393,234.4l-9.7-.7h-.1s0-3.4,0-3.4l9.3.7h.5s0,3.3,0,3.3ZM392.5,231l-9.3-.7h0l-12.7.8h-.8c0,0,13.7-.9,13.7-.9l10.2.8h-1ZM383.4,230.1v-5.1s10.6.9,10.6.9v5l-10.6-.8ZM386.2,225.1l-2.4-.2v-3l2.4.2v3ZM386.2,225.1v-3h.1v3h-.1ZM386.5,225.1v-3h.1v3h-.1ZM386.7,225.1v-3l2.2.2v2.9l-2.2-.2ZM389,225.4v-2.9h.1v3h-.1ZM389.2,225.4v-2.9h.1v3h-.1ZM389.3,225.4v-2.9l2.3.2v2.9l-2.3-.2ZM391.7,225.6v-2.9h.1v2.9h-.1ZM393,225.7h-1.1v-3.1s0,0,0,0l-8.1-.8s0,0,0,0c0,0,0,0,0,0v3s0,0,0,0h1.7c0,.1-2.1,0-2.1,0h-.1s0-3.3,0-3.3l9.3.8h.5s0,3.3,0,3.3ZM392.5,222.4l-9.3-.8h0l-12.7.9h-.8c0,0,13.7-1,13.7-1l10.3.9h-1.1ZM383.4,221.3v-5.1s8.5.8,8.5.8h0s0,0,0,0l2.1.2v5l-10.6-.9ZM383.8,216.1v-3l2.4.3v3l-2.4-.2ZM386.2,216.4v-3h.1v3h-.1ZM386.4,216.4v-3h.1v3h-.1ZM386.7,216.4v-3l2.2.2v2.9l-2.2-.2ZM389,216.6v-2.9h.1v3h-.1ZM389.2,216.7v-2.9h.1v3h-.1ZM389.4,216.7v-2.9l2.3.2v2.9s-2.3-.2-2.3-.2ZM391.7,214h.1v2.9h-.1s0-2.9,0-2.9ZM393,217.1h-1.1v-3.1s0,0,0,0l-8.1-.9s0,0,0,0c0,0,0,0,0,0v3s0,0,0,0h-.4s0,0,0,0h-.1s0-3.3,0-3.3l9.3,1s0,0,0,0h.5s0,3.3,0,3.3ZM392.5,213.7l-9.3-1h0l-12.7,1.1h-.9c0-.1,13.8-1.2,13.8-1.2l10.3,1.1h-1.2ZM383.4,212.5v-5.1s10.6,1.2,10.6,1.2v5l-10.6-1.1ZM383.8,207.3v-3l2.4.3v3l-2.4-.3ZM386.2,207.6v-3h.1v3h-.1ZM386.5,207.6v-3h.1v3h-.1ZM386.6,207.7v-3l2.2.3v3l-2.2-.2ZM389,207.9v-3h.1v3h-.1ZM389.2,207.9v-3h.1v3h-.1ZM389.3,208v-3l2.3.3v2.9l-2.3-.3ZM391.7,208.2v-2.9h.1v3h-.1ZM393,208.4h-1.1v-3.1s0,0,0,0l-8.1-.9s0,0,0,0c0,0,0,0,0,0v3h-.4s0,0,0,0h-.1s0-3.3,0-3.3l9.3,1.1h.5s0,3.2,0,3.2ZM392.5,205.1l-9.3-1.1s0,0,0,0l-12.7,1.2h-.9c0-.1,13.8-1.4,13.8-1.4l10.3,1.2h-1.2ZM383.4,203.7v-5.1s10.6,1.4,10.6,1.4v5l-10.6-1.3ZM386.2,195.9v2.9l-2.4-.3v-2.9l2.4.3ZM383.8,195.5h0s1.1.2,1.1.2l-1.1-.2ZM386.2,198.8v-2.9h.1s0,2.9,0,2.9h-.1ZM386.5,198.9v-3h.1v3h-.1ZM386.7,198.9v-2.9l2.2.3v2.9l-2.2-.3ZM389,199.2v-2.9h.1s0,2.9,0,2.9h-.1ZM389.2,199.2v-2.9h.1v3h-.1ZM389.4,199.2v-2.9l2.3.3v2.9l-2.3-.3ZM391.7,199.5v-2.9h.1s0,2.9,0,2.9h-.1ZM393,199.7h-1.1v-3.1s0,0,0,0l-8.1-1.1s0,0,0,0c0,0,0,0,0,0v3h-.4c0,0,0,0,0,0h-.1s0-3.2,0-3.2l9.3,1.2s0,0,0,0h.5c0,0,0,3.2,0,3.2ZM392.5,196.4l-9.3-1.2s0,0,0,0l-12.7,1.3h-1c0-.1,13.8-1.6,13.8-1.6l10.4,1.4h-1.2ZM383.4,194.8v-5.1s10.6,1.5,10.6,1.5v5l-10.6-1.4ZM386.2,187.2v2.8l-2.4-.3v-2.8l2.4.4ZM385.3,187h.9c0,.1,0,.1,0,.1h-.9ZM386.2,190v-2.8h.1s0,2.8,0,2.8h-.1ZM386.4,190.1v-2.9h.1v2.9h-.1ZM386.7,190.1v-2.8l2.2.3v2.8l-2.2-.3ZM388.9,190.4v-2.8h.1s0,2.8,0,2.8h-.1ZM389.2,190.5v-2.9h.1v2.9h-.1ZM391.6,188v2.8l-2.3-.3v-2.8l2.3.3ZM390.4,187.7l1.3.2h0s-1.3-.2-1.3-.2ZM391.7,190.8v-2.8h.1s0,2.8,0,2.8h-.1ZM393,191l-1.1-.2v-2.9s0,0,0,0l-8.1-1.2s0,0,0,0c0,0,0,0,0,0v2.9h-.4c0,0,0,0,0,0h-.1s0-3.2,0-3.2l9.3,1.4s0,0,0,0h.5c0,0,0,3.2,0,3.2ZM392.5,187.7l-9.3-1.4s0,0,0,0l-12.7,1.5-1-.2,13.9-1.6,10.4,1.5-1.3.2ZM383.4,186v-5.1s10.6,1.6,10.6,1.6v5l-10.6-1.5ZM386.2,178.5v2.8l-2.4-.4v-2.8l2.4.4ZM383.8,178h0s2.4.4,2.4.4h0s-2.4-.4-2.4-.4ZM386.2,181.3v-2.8h.1s0,2.8,0,2.8h-.1ZM386.5,181.3v-2.9h.1v2.9h-.1ZM388.9,178.9v2.8l-2.2-.3v-2.8l2.2.4ZM386.7,178.5h0s2.3.4,2.3.4h0s-2.3-.4-2.3-.4ZM389,181.7v-2.8h.1s0,2.8,0,2.8h-.1ZM389.2,181.7v-2.9h.1v2.9h-.1ZM391.6,179.3v2.8l-2.3-.4v-2.8l2.3.4ZM389.4,178.9h0s2.3.4,2.3.4h0s-2.3-.4-2.3-.4ZM391.7,182.1v-2.8h.1s0,2.8,0,2.8h-.1ZM393,182.3l-1.1-.2v-2.9s0,0,0,0l-8.1-1.3s0,0,0,0c0,0,0,0,0,0v2.9h-.4c0,0,0,0,0,0h-.1s0-3.2,0-3.2l9.3,1.5s0,0,0,0h.5c0,0,0,3.1,0,3.1ZM392.5,179.1l-9.3-1.5s0,0,0,0l-12.7,1.6h-1c0-.1,13.9-2,13.9-2l10.4,1.7h-1.3ZM383.4,177.2v-5.1s10.6,1.8,10.6,1.8v5l-10.6-1.7ZM386.2,169.7v2.8l-2.4-.4v-2.8l2.4.4ZM383.8,169.2h0s2.4.4,2.4.4h0s-2.4-.4-2.4-.4ZM386.3,172.5v-2.8h.1s0,2.8,0,2.8h-.1ZM386.5,172.5v-2.8h.1v2.9h-.1ZM388.9,170.2v2.7l-2.2-.4v-2.8l2.2.4ZM386.7,169.7l2.2.4h0s-2.2-.4-2.2-.4ZM389,172.9v-2.8h.1s0,2.8,0,2.8h-.1ZM389.2,173v-2.8h.1v2.8h-.1ZM389.4,173v-2.8l2.3.4v2.7l-2.3-.4ZM391.7,173.4v-2.7h.1s0,2.8,0,2.8h-.1ZM393,173.6l-1.1-.2v-2.8s0,0,0,0l-8.1-1.4s0,0,0,0c0,0,0,0,0,0v2.9h-.4c0,0,0,0,0,0h-.1s0-3.1,0-3.1l9.3,1.6s0,0,0,0h.5c0,0,0,3.1,0,3.1ZM392.5,170.4l-9.3-1.6s0,0,0,0l-12.7,1.8-1-.2,13.9-2,10.5,1.8-1.3.2ZM383.4,168.4v-5.1s10.6,2,10.6,2v5l-10.6-1.9ZM386.2,161v2.7l-2.4-.4v-2.7l2.4.5ZM383.8,160.4h0s2.4.5,2.4.5h0s-2.4-.5-2.4-.5ZM386.2,163.7v-2.7h.1s0,2.8,0,2.8h-.1ZM386.5,163.7v-2.8h.1v2.8h-.1ZM388.9,161.5v2.7l-2.2-.4v-2.7l2.2.4ZM386.7,161h0s2.3.4,2.3.4h0s-2.3-.4-2.3-.4ZM389,164.2v-2.7h.1s0,2.7,0,2.7h-.1ZM389.2,164.2v-2.8h.1v2.8h-.1ZM391.6,162v2.7l-2.3-.4v-2.7l2.3.4ZM389.4,161.5h0s2.4.4,2.4.4h0s-2.3-.4-2.3-.4ZM391.7,164.7v-2.7h.1s0,2.7,0,2.7h-.1ZM393,165l-1.1-.2v-2.8s0,0,0,0l-2.8-.5h0l-5.4-1s0,0,0,0c0,0,0,0,0,0v2.8h-.4c0,0,0,0,0,0h-.1s0-3.1,0-3.1l9.3,1.8s0,0,0,0h.5c0,0,0,3.1,0,3.1ZM392.5,161.8l-9.3-1.8s0,0,0,0l-12.7,1.9-1.1-.2,14-2.1,10.5,2-1.3.2ZM383.4,159.5v-5.1s10.6,2.1,10.6,2.1v5l-10.6-2ZM383.2,151.2s0,0,0,0l-12.7,2.1-1.1-.2,14-2.3,10.9,2.3-1.2.2-9.9-2ZM383.4,130.1h.4s0,7.3,0,7.3h-.4v-7.3ZM383.1,137.3l10.3,2.4v8l-10.1-2.1s0,0,0,0h-.2s0-8.2,0-8.2ZM383.3,145.6v5.1l-14.1,2.3v-5l14.1-2.4ZM381,123.3h.6s0,14.2,0,14.2h-.6c0,.1,0-14.2,0-14.2ZM383,137.3v8.3l-11.4,2v-8.1l11.4-2.1ZM367.4,137.7l4.4,1v.6h-.2s0,0,0,0v.5l-4.1.7v-2.9ZM371.5,139.9v7.6h-.2s0-1.9,0-1.9c0,0,0,0,0,0,0,0,0,0,0,0l-2.7.5s0,0,0,0v2.7s0,0,0,0c0,0,0,0,0,0s0,0,0,0h.5c0-.1,0,1.9,0,1.9l-2.1.4v-10.3l4.4-.8ZM368.7,146.2v2.6h-.1s0-2.6,0-2.6h.1ZM354.8,275.6v-133.1l10.8-2v73.6s0,61.5,0,61.5h-10.9ZM367,275.6h-1.2v-71.3s0-63.8,0-63.8l1.3.3v134.8ZM365.7,140.4s0,0,0,0,0,0,0,0l-4.2.8v-2.4l5.8-1.1v2.9h-.3c0,0-1.3-.2-1.3-.2ZM370.4,275.6h-3.3v-124.4l2.1-.4v2.3h-.2s0,0,0,0h0v110.1s0,0,0,0h.2v2.4s0,0,0,0c0,0,0,0,0,0h1.2s0,9.9,0,9.9ZM383.1,275.6h-12.7v-9.9l12.7-.2v10.1ZM393,275.6h-9.8v-10.1h.1s9.7.2,9.7.2v9.9ZM394.4,275.6h-1.4v-9.9h1s0,0,0,0c0,0,0,0,0,0v-5.1s0,0,0,0h-1v-3.5h1s0,0,0,0c0,0,0,0,0,0v-5.1s0,0,0,0h-1v-3.5h1s0,0,0,0c0,0,0,0,0,0v-5.1s0,0,0,0h-1v-3.5h1s0,0,0,0,0,0,0,0v-5.1s0,0,0,0h-1v-3.4h1c0,0,0,0,0,0,0,0,0,0,0,0v-5.1s0,0,0,0h-1v-3.4h1c0,0,0,0,0,0,0,0,0,0,0,0v-5.1s0,0,0,0h-1v-3.4h1c0,0,0,0,0,0,0,0,0,0,0,0v-5.1s0,0,0,0h-1v-3.4h1c0,0,0,0,0,0,0,0,0,0,0,0v-5.1s0,0,0,0h-1v-3.4h1c0-.1,0-.1,0-.1,0,0,0,0,0,0v-5.1s0,0,0,0h-1v-3.4h1c0-.1,0-.1,0-.1,0,0,0,0,0,0v-5.1s0,0,0,0h-1v-3.4h1c0-.1,0-.1,0-.1,0,0,0,0,0,0v-5.1s0,0,0,0l-1-.2v-3.2h1c0-.1,0-.1,0-.1,0,0,0,0,0,0v-5.1s0,0,0,0l-1-.2v-3.2h1c0-.1,0-.1,0-.1,0,0,0,0,0,0v-5.1s0,0,0,0l-1-.2v-3l1.4-.2v122.5ZM398.1,275.6h-3.6v-122.5l3.6.7v121.7ZM406.1,275.6h-7.9v-9.8h.4s7.6.1,7.6.1v9.7ZM408.4,275.6h-2.2v-9.7h2.2v9.7ZM410.2,275.6h-1.7v-9.6h.3s0,0,0,0c0,0,0,0,0,0,0,0,0,0,0,0v-5s0,0,0,0h-.3v-3.4h.3s0,0,0,0c0,0,0,0,0,0v-5s0,0,0,0h-.3v-3.4h.3s0,0,0,0c0,0,0,0,0,0v-5s0,0,0,0h-.3v-3.4h.3s0,0,0,0c0,0,0,0,0,0v-5s0,0,0,0h-.3v-3.4h.3s0,0,0,0c0,0,0,0,0,0v-5s0,0,0,0h-.3v-3.4h.3s0,0,0,0c0,0,0,0,0,0v-5s0,0,0,0h-.3v-3.4h.3s0,0,0,0c0,0,0,0,0,0v-5s0,0,0,0h-.3v-3.4h.3s0,0,0,0c0,0,0,0,0,0v-5s0,0,0,0h-.3v-3.4h.3s0,0,0,0c0,0,0,0,0,0v-5s0,0,0,0h-.3v-3.4h.3s0,0,0,0c0,0,0,0,0,0v-5s0,0,0,0h-.3v-3.4h.3s0,0,0,0c0,0,0,0,0,0v-5s0,0,0,0h-.3v-3.4h.3s0,0,0,0c0,0,0,0,0,0v-5s0,0,0,0h-.3v-3.4h.3s0,0,0,0c0,0,0,0,0,0v-3.7l.8.2s0,0,0,0l10.8-1.6v2.9h-.6c0,0,0-2.6,0-2.6,0,0,0,0,0,0,0,0,0,0,0,0l-8.9,1.3s0,0,0,0v2.7l-1.9.3s0,0,0,0v4.8s0,0,0,0c0,0,0,0,0,0h0s1.2.2,1.2.2c0,0,0,0,0,0l10.3-1.4v2.9h-.6c0,0,0-2.7,0-2.7,0,0,0,0,0,0,0,0,0,0,0,0l-5.9.8h0l-3,.4s0,0,0,0v2.7l-1.9.3s0,0,0,0v4.8s0,0,0,0c0,0,0,0,0,0h0s1.2.2,1.2.2c0,0,0,0,0,0l10.3-1.3v3h-.6c0,0,0-2.7,0-2.7,0,0,0,0,0,0,0,0,0,0,0,0l-2.9.4h0l-6,.7s0,0,0,0v2.8l-1.9.2s0,0,0,0v4.8s0,0,0,0c0,0,0,0,0,0h0s1.2.2,1.2.2c0,0,0,0,0,0l10.3-1.2v3h-.6c0,0,0-2.7,0-2.7,0,0,0,0,0,0,0,0,0,0,0,0l-8.9,1s0,0,0,0v2.8l-1.9.2s0,0,0,0v4.8s0,0,0,0c0,0,0,0,0,0h0s1.2.2,1.2.2c0,0,0,0,0,0l10.3-1.1v3h-.6c0,0,0-2.8,0-2.8,0,0,0,0,0,0,0,0,0,0,0,0l-8.9.9s0,0,0,0v2.8l-1.9.2s0,0,0,0v4.8s0,0,0,0c0,0,0,0,0,0h0s1.2.1,1.2.1h0l10.3-1v3.1h-.6s0-2.8,0-2.8c0,0,0,0,0,0,0,0,0,0,0,0l-8.9.8s0,0,0,0v2.8l-1.9.2s0,0,0,0v4.8s0,0,0,0,0,0,0,0h0s1.2.1,1.2.1h0l10.3-.9v3.1h-.6s0,0,0,0v-2.9s0,0,0,0c0,0,0,0,0,0l-8.9.7s0,0,0,0v2.8s0,0,0,0c0,0,0,0,0,0h0l4.5-.4-6.5.5s0,0,0,0v4.8s0,0,0,0c0,0,0,0,0,0h0s1.1.1,1.1.1h0l10.3-.8v3.1l-11.5.8s0,0,0,0v4.8s0,0,0,0c0,0,0,0,0,0h0s1.1.1,1.1.1c0,0,0,0,0,0l10.3-.6v3.1l-11.5.7s0,0,0,0v4.8s0,0,0,0c0,0,0,0,0,0h0s1.1.1,1.1.1h0l10.3-.6v3.2l-11.5.6s0,0,0,0v4.8s0,0,0,0c0,0,0,0,0,0h0s1.1,0,1.1,0h0l10.3-.4v3.2l-11.5.5s0,0,0,0v4.8s0,0,0,0c0,0,0,0,0,0h.1s1.1,0,1.1,0l10.3-.3v3.2l-11.5.3s0,0,0,0v4.8s0,0,0,0c0,0,0,0,0,0h.2s1,0,1,0l10.3-.2v3.2l-11.5.2s0,0,0,0v4.8s0,0,0,0c0,0,0,0,0,0h1.3s0,9.2,0,9.2ZM414,209.5v2.7h0s0-2.7,0-2.7h0ZM413.9,209.5v2.8h-.1s0-2.7,0-2.7h.1ZM413.7,209.5v2.7l-2.6.2v-2.7l2.6-.2ZM411,209.7v2.7h0s0-2.7,0-2.7h0ZM420.4,275.6h-10.1v-9.2l10.1-.2v9.4ZM430.4,275.6h-10v-9.4h.2s9.7.2,9.7.2v9.2ZM432.1,275.6h-1.6v-9.2h1.3s0,0,0,0,0,0,0,0v-4.7s0,0,0,0h-1.4v-3.2h1.3s0,0,0,0c0,0,0,0,0,0v-4.7s0,0,0,0h-1.4v-3.2h1.3c0,0,0,0,0,0,0,0,0,0,0,0v-4.7s0,0,0,0h-1.4v-3.2h1.3c0,0,0,0,0,0,0,0,0,0,0,0v-4.7s0,0,0,0h-1.4v-3.2h1.3c0,0,0,0,0,0,0,0,0,0,0,0v-4.7s0,0,0,0h-1.4v-3.2h1.3c0,0,0,0,0,0,0,0,0,0,0,0v-4.7s0,0,0,0h-1.4v-3.2h1.3c0-.1,0-.1,0-.1,0,0,0,0,0,0v-4.7s0,0,0,0l-1.4-.2v-3h1.3c0-.1,0-.1,0-.1,0,0,0,0,0,0v-4.7s0,0,0,0l-1.4-.2v-3h1.4c0-.1,0-.1,0-.1,0,0,0,0,0,0v-4.8s0,0,0,0l-1.4-.2v-2.9h1.4c0-.1,0-.1,0-.1,0,0,0,0,0,0v-4.8s0,0,0,0l-1.4-.2v-2.9l1.4-.2h0s0,0,0,0c0,0,0,0,0,0v-4.8s0,0,0,0l-1.4-.2v-2.8l1.4-.2h0s0,0,0,0c0,0,0,0,0,0v-4.8s0,0,0,0l-1.4-.3v-2.8l1.4-.2h0s0,0,0,0c0,0,0,0,0,0v-4.8s0,0,0,0l-1.4-.3v-2.8l1.4-.2h0s0,0,0,0c0,0,0,0,0,0v-3.8h.2s0,0,0,0v118.2ZM433.3,275.6h-1.1v-118.2l1.1-.2v118.3ZM441.8,275.6h-8.5v-118.3l8.5,1.8v116.6ZM450.5,181.2s0,0-.1,0,0,0,0,0h0c-.4,0-.7-.6-.7-1.2s.5-1.3,1-1.4c0,0,0,0,.1,0s0,0,0,0h0c.4,0,.8.6.8,1.2s-.4,1.3-1,1.4ZM450.6,181.2c.6-.2,1-.8,1-1.5s-.2-.9-.5-1.1c.4.1.7.6.7,1.1s-.4,1.3-1,1.4c0,0,0,0-.1,0ZM450.8,181.2v2.8h-.1s0-2.8,0-2.8c0,0,0,0,0,0,0,0,0,0,0,0ZM447.7,181.5c0,.5-.3.9-.7,1,.4-.2.6-.5.6-1s-.1-.5-.3-.7c.2.1.4.4.4.7ZM447.1,182.5v1.9h-.1s0-1.9,0-1.9c0,0,0,0,.1,0ZM446.7,179.8c0,0-.1,0-.2,0s0,0,0,0h0c-.5-.1-1-.8-1-1.5s.6-1.7,1.3-1.8c0,0,0,0,.1,0s0,0,0,0h0c.6.1,1,.7,1,1.5s-.5,1.7-1.3,1.8ZM446.8,179.9c.8-.2,1.3-1,1.3-1.9s-.3-1.2-.7-1.4c.5.1.9.8.9,1.5s-.5,1.7-1.3,1.8c0,0-.2,0-.2,0ZM447.1,179.9v.7h-.1s0,0,0,0v-.7s0,0,0,0c0,0,0,0,0,0ZM446.8,182.5s0,0,0,0,0,0,0,0h0c-.3,0-.5-.4-.5-.8s.3-.9.7-1c0,0,0,0,0,0s0,0,0,0h0c.3,0,.5.4.5.8s-.3.9-.7,1ZM443,275.6h-1.1v-82l1.1.2v81.9ZM454.2,275.6h-11.2v-26.3l11.2-.4v26.6ZM454.2,248.9l-11.2.4v-21.4l11.2-.7v21.7ZM454.2,227.1l-11.2.7v-21.4l11.2-1v21.7ZM454.2,205.4l-11.2,1v-12.7s0,0,0,0l-1.1-.2v-8.4l12.3-1.4v21.6ZM463.4,275.6h-9v-11.8l9,.2v11.6ZM463.4,263.9l-9-.2v-12l9,.4v11.8ZM463.4,252.1l-9-.4v-12l9,.6v11.8ZM463.4,240.2l-9-.6v-12l9,.8v11.8ZM463.4,228.3l-9-.8v-12l9,1v11.8ZM463.4,216.4l-9-1v-12l9,1.2v11.8ZM463.4,204.6l-9-1.2v-12l9,1.4v11.8ZM465.3,275.6h-1.8v-11.6h1.8v11.6ZM465.3,264h-1.8v-11.8h1.8v11.8ZM465.3,252.1h-1.8v-11.9h1.8v11.9ZM465.3,240.3h-1.8v-11.9l1.8.2v11.7ZM465.3,228.5l-1.8-.2v-11.8l1.8.2v11.8ZM465.3,216.7l-1.8-.2v-11.8l1.8.2v11.8ZM465.3,204.8l-1.8-.2v-11.8l1.8.3v11.8ZM474,275.6h-8.6v-11.5l8.6.2v11.3ZM474,264.2l-8.6-.2v-11.7l8.6.4v11.6ZM474,252.5l-8.6-.4v-11.8l8.6.6v11.6ZM474,240.9l-8.6-.6v-11.7l8.6.8v11.6ZM474,229.3l-8.6-.8v-11.8l8.6,1v11.6ZM474,217.6l-8.6-1v-11.8l8.6,1.2v11.6ZM474,206l-8.6-1.2v-11.7l8.6,1.4v11.6ZM474,194.4l-19.7-3.1v-7.6l19.7,3.4v7.3ZM484.7,275.6h-10.6v-51.3l10.6-.7v51.9ZM505,275.6h-20.3v-51.9l20.3,2.1v49.8Z" fill="#e1dfd8"/>
              <path d="M371.2,260.3h0l11-.2s0,0,0,0v-3.1s0,0,0,0c0,0,0,0,0,0l-11,.3s0,0,0,0v3s0,0,0,0c0,0,0,0,0,0ZM379.6,257.1h2.5c0,0,0,2.9,0,2.9h-2.5c0,0,0-2.9,0-2.9ZM379.4,257.1h.1s0,3,0,3h-.1s0-3,0-3ZM379.2,257.1h.2s0,3,0,3h-.2s0-3,0-3ZM376.6,257.2h2.5c0,0,0,2.9,0,2.9h-2.5c0,0,0-2.9,0-2.9ZM376.4,257.2h.1s0,3,0,3h-.1s0-3,0-3ZM376.2,257.2h.1s0,3,0,3h-.1s0-3,0-3ZM373.6,257.2h2.5c0,0,0,2.9,0,2.9h-2.5c0,0,0-2.9,0-2.9ZM373.5,257.3h.1s0,3,0,3h-.1s0-3,0-3ZM373.2,257.3h.2s0,3,0,3h-.2s0-3,0-3ZM371.4,257.3h1.8s0,2.9,0,2.9h-1.8s0-2.9,0-2.9ZM371.2,257.3h.1s0,2.9,0,2.9h-.1s0-2.9,0-2.9Z" fill="#e1dfd8"/>
              <path d="M391.9,257.2l-8.1-.3s0,0,0,0c0,0,0,0,0,0v3s0,0,0,0l8.1.2h0s0,0,0,0c0,0,0,0,0,0v-3s0,0,0,0ZM386.2,260.1h-2.4v-3h2.4v3ZM386.4,260.1h-.1v-3h.1v3ZM386.6,260.1h-.1v-3h.1v3ZM388.9,260.1h-2.2v-3h2.2v3ZM389.1,260.1h-.1v-3h.1v3ZM389.3,260.2h-.1v-3h.1v3ZM391.6,260.2h-2.3v-3h2.3v3ZM391.9,260.2h-.1v-2.9h.1v2.9Z" fill="#e1dfd8"/>
              <path d="M382.1,248.2l-11,.4s0,0,0,0v3s0,0,0,0,0,0,0,0h0l11-.3s0,0,0,0v-3.1s0,0,0,0c0,0,0,0,0,0ZM371.3,251.6h-.1s0-2.9,0-2.9h.1s0,2.9,0,2.9ZM373.2,251.5h-1.8c0,0,0-2.9,0-2.9h1.8c0,0,0,2.9,0,2.9ZM373.4,251.5h-.2s0-2.9,0-2.9h.2s0,2.9,0,2.9ZM373.6,251.5h-.1s0-2.9,0-2.9h.1s0,2.9,0,2.9ZM376.1,251.4h-2.5c0,0,0-2.9,0-2.9h2.5c0,0,0,2.9,0,2.9ZM376.3,251.4h-.2s0-2.9,0-2.9h.2s0,2.9,0,2.9ZM376.5,251.4h-.1s0-3,0-3h.1s0,3,0,3ZM379.1,251.3h-2.5c0,0,0-2.9,0-2.9h2.5c0,0,0,2.9,0,2.9ZM379.4,251.3h-.2s0-3,0-3h.2s0,3,0,3ZM379.6,251.3h-.1s0-3,0-3h.1s0,3,0,3ZM382.1,251.2h-2.5c0,0,0-2.9,0-2.9h2.5c0,0,0,2.9,0,2.9Z" fill="#e1dfd8"/>
              <path d="M391.9,248.6l-8.1-.4s0,0,0,0c0,0,0,0,0,0v3s0,0,0,0l8.1.3h0s0,0,0,0c0,0,0,0,0,0v-3s0,0,0,0ZM386.2,251.3h-2.4v-3.1h2.4v3.1ZM386.4,251.3h-.1v-3h.1v3ZM386.6,251.3h-.1v-3h.1v3ZM388.9,251.4h-2.2v-3h2.2v3ZM389.1,251.4h-.1v-2.9h.1v2.9ZM389.3,251.4h-.1v-2.9h.1v2.9ZM391.6,251.5h-2.3v-3h2.3v3ZM391.9,251.6h-.1v-2.9h.1v2.9Z" fill="#e1dfd8"/>
              <path d="M382.1,239.4l-11,.5s0,0,0,0v3s0,0,0,0c0,0,0,0,0,0h0l11-.5s0,0,0,0v-3.1s0,0,0,0c0,0,0,0,0,0ZM371.3,242.9h-.1s0-2.9,0-2.9h.1s0,2.9,0,2.9ZM373.2,242.8h-1.8c0,0,0-2.8,0-2.8h1.8c0,0,0,2.8,0,2.8ZM373.4,242.8h-.1s0-2.9,0-2.9h.1s0,2.9,0,2.9ZM373.6,242.8h-.1s0-2.9,0-2.9h.1s0,2.9,0,2.9ZM376.1,242.7h-2.5c0,.1,0-2.8,0-2.8h2.5c0-.1,0,2.8,0,2.8ZM376.3,242.7h-.1s0-2.9,0-2.9h.1s0,2.9,0,2.9ZM376.5,242.7h-.1s0-2.9,0-2.9h.1s0,2.9,0,2.9ZM379.1,242.6h-2.5c0,.1,0-2.8,0-2.8h2.5c0-.1,0,2.8,0,2.8ZM379.4,242.6h-.2s0-3,0-3h.2s0,3,0,3ZM379.5,242.6h-.1s0-3,0-3h.1s0,3,0,3ZM382.1,242.5h-2.5c0,.1,0-2.9,0-2.9h2.5c0-.1,0,2.9,0,2.9Z" fill="#e1dfd8"/>
              <path d="M391.9,239.9l-8.1-.5s0,0,0,0c0,0,0,0,0,0v3s0,0,0,0l8.1.5h0s0,0,0,0c0,0,0,0,0,0v-3s0,0,0,0ZM386.2,242.6h-2.4v-3.1h2.4v3.1ZM386.4,242.6h-.1v-3h.1v3ZM386.6,242.6h-.1v-3h.1v3ZM388.9,242.7h-2.2v-3.1h2.2v3.1ZM389.1,242.7h-.1v-3h.1v3ZM389.3,242.8h-.1v-2.9h.1v2.9ZM391.6,242.9h-2.3v-3.1h2.3v3.1ZM391.9,242.9h-.1v-2.9h.1v2.9Z" fill="#e1dfd8"/>
              <path d="M382.1,230.6l-11,.7s0,0,0,0v3s0,0,0,0c0,0,0,0,0,0s0,0,0,0l11-.6s0,0,0,0v-3.1s0,0,0,0c0,0,0,0,0,0ZM371.3,234.3h-.1s0-2.9,0-2.9h.1s0,2.9,0,2.9ZM373.2,234.2h-1.8c0,0,0-2.8,0-2.8h1.8c0-.1,0,2.8,0,2.8ZM373.4,234.2h-.1s0-2.9,0-2.9h.1s0,2.9,0,2.9ZM373.6,234.2h-.1s0-2.9,0-2.9h.1s0,2.9,0,2.9ZM376.1,234h-2.5c0,.1,0-2.8,0-2.8l2.5-.2v3ZM376.3,234h-.2s0-2.9,0-2.9h.2s0,2.9,0,2.9ZM376.5,234h-.1s0-2.9,0-2.9h.1s0,2.9,0,2.9ZM379.1,233.8h-2.6c0,.1,0-2.8,0-2.8l2.6-.2v3ZM379.4,233.8h-.1s0-3,0-3h.1s0,3,0,3ZM379.5,233.8h-.1s0-3,0-3h.1s0,3,0,3ZM382.1,233.7h-2.5c0,.1,0-2.8,0-2.8l2.5-.2v3Z" fill="#e1dfd8"/>
              <path d="M391.9,231.3l-8.1-.6s0,0,0,0c0,0,0,0,0,0v3s0,0,0,0l8.1.6h0s0,0,0,0c0,0,0,0,0,0v-3s0,0,0,0ZM386.2,233.8l-2.4-.2v-3l2.4.2v3ZM386.4,233.9h-.1v-3h.1v3ZM386.6,233.9h-.1v-3h.1v3ZM388.9,234l-2.2-.2v-3l2.2.2v2.9ZM389.1,234.1h-.1v-3h.1v3ZM389.3,234.1h-.1v-3h.1v3ZM391.6,234.2l-2.3-.2v-2.9l2.3.2v2.9ZM391.9,234.3h-.1v-2.9h.1v2.9Z" fill="#e1dfd8"/>
              <path d="M382.1,221.8l-11,.8s0,0,0,0v3s0,0,0,0c0,0,0,0,0,0h0l11-.7s0,0,0,0v-3.1s0,0,0,0c0,0,0,0,0,0ZM371.3,225.6h-.1s0-2.9,0-2.9h.1s0,2.9,0,2.9ZM373.2,225.5h-1.8c0,.1,0-2.8,0-2.8h1.8c0-.1,0,2.8,0,2.8ZM373.4,225.5h-.1s0-2.9,0-2.9h.1s0,2.9,0,2.9ZM373.6,225.5h-.1s0-2.9,0-2.9h.1s0,2.9,0,2.9ZM376.1,225.3l-2.5.2v-2.9l2.5-.2v3ZM376.3,225.3h-.1s0-2.9,0-2.9h.1s0,2.9,0,2.9ZM376.5,225.3h-.1s0-2.9,0-2.9h.1s0,2.9,0,2.9ZM379.1,225.1l-2.6.2v-3l2.6-.2v3ZM379.4,225.1h-.1s0-3,0-3h.1s0,3,0,3ZM379.5,225.1h-.1s0-3,0-3h.1s0,3,0,3ZM382.1,224.9l-2.5.2v-3l2.5-.2v3Z" fill="#e1dfd8"/>
              <path d="M382.1,213.1l-11,.9s0,0,0,0v3s0,0,0,0c0,0,0,0,0,0h0l11-.8s0,0,0,0v-3.1s0,0,0,0c0,0,0,0,0,0ZM371.3,217h-.1s0-2.9,0-2.9h.1s0,2.9,0,2.9ZM373.2,216.8h-1.8c0,.1,0-2.8,0-2.8h1.8c0-.1,0,2.8,0,2.8ZM373.4,216.8h-.2s0-2.9,0-2.9h.2s0,2.9,0,2.9ZM373.6,216.8h-.1s0-2.9,0-2.9h.1s0,2.9,0,2.9ZM376.1,216.6l-2.5.2v-2.9l2.5-.2v3ZM376.3,216.6h-.1s0-2.9,0-2.9h.1s0,2.9,0,2.9ZM376.5,216.6h-.1s0-2.9,0-2.9h.1s0,2.9,0,2.9ZM379.1,216.4l-2.5.2v-3l2.5-.2v3ZM379.4,216.3h-.2s0-3,0-3h.2s0,3,0,3ZM379.5,216.3h-.1s0-3,0-3h.1s0,3,0,3ZM382.1,216.1l-2.5.2v-3l2.5-.2v3Z" fill="#e1dfd8"/>
              <path d="M410.9,261.3h0l8.9-.2s0,0,0,0v-2.9s0,0,0,0c0,0,0,0,0,0l-8.9.2s0,0,0,0v2.8s0,0,0,0c0,0,0,0,0,0ZM417.1,258.4h2.7c0,0,0,2.7,0,2.7h-2.7s0-2.7,0-2.7ZM416.9,258.4h0s0,2.8,0,2.8h0s0-2.8,0-2.8ZM416.7,258.4h.1s0,2.8,0,2.8h-.1s0-2.8,0-2.8ZM414.1,258.4h2.5c0,0,0,2.7,0,2.7h-2.5s0-2.7,0-2.7ZM414,258.4h0s0,2.8,0,2.8h0s0-2.8,0-2.8ZM413.7,258.4h.1s0,2.8,0,2.8h-.1s0-2.8,0-2.8ZM411.1,258.5h2.6c0,0,0,2.7,0,2.7h-2.6s0-2.7,0-2.7ZM410.9,258.5h0s0,2.7,0,2.7h0s0-2.7,0-2.7Z" fill="#e1dfd8"/>
              <path d="M421.2,261.1l8.6.2h0s0,0,0,0c0,0,0,0,0,0v-2.8s0,0,0,0l-8.6-.3s0,0,0,0c0,0,0,0,0,0v2.9s0,0,0,0ZM429.7,258.6h.1v2.7h-.1v-2.7ZM428.3,258.5h1.3v2.8h-1.3v-2.8ZM428.2,258.5h.1v2.7h-.1v-2.7ZM427.9,258.5h.1v2.7h-.1v-2.7ZM426,258.4h1.9v2.8h-1.9v-2.8ZM425.8,258.4h.1v2.7h-.1v-2.7ZM425.6,258.4h.1v2.8h-.1v-2.8ZM423.6,258.4h1.9v2.8h-1.9v-2.8ZM423.4,258.4h.1v2.8h-.1v-2.8ZM423.2,258.4h.1v2.8h-.1v-2.8ZM421.3,258.3h1.9v2.8h-1.9v-2.8Z" fill="#e1dfd8"/>
              <path d="M410.9,253.2h0l8.9-.2s0,0,0,0v-2.9s0,0,0,0c0,0,0,0,0,0l-8.9.3s0,0,0,0v2.8s0,0,0,0c0,0,0,0,0,0ZM417.1,250.2h2.7c0,0,0,2.7,0,2.7h-2.7c0,0,0-2.7,0-2.7ZM416.9,250.2h0s0,2.8,0,2.8h0s0-2.8,0-2.8ZM416.7,250.2h.1s0,2.8,0,2.8h-.1s0-2.8,0-2.8ZM414.1,250.3h2.5c0,0,0,2.7,0,2.7h-2.5c0,0,0-2.7,0-2.7ZM414,250.3h0s0,2.8,0,2.8h0s0-2.8,0-2.8ZM413.7,250.3h.2s0,2.8,0,2.8h-.2s0-2.8,0-2.8ZM411.1,250.4h2.6c0,0,0,2.7,0,2.7h-2.6c0,0,0-2.7,0-2.7ZM410.9,250.4h0s0,2.7,0,2.7h0s0-2.7,0-2.7Z" fill="#e1dfd8"/>
              <path d="M421.2,252.9l8.6.3h0s0,0,0,0c0,0,0,0,0,0v-2.8s0,0,0,0l-8.6-.4s0,0,0,0c0,0,0,0,0,0v2.9s0,0,0,0ZM429.7,250.5h.1v2.7h-.1v-2.7ZM428.3,250.4h1.3v2.8h-1.3v-2.8ZM428.2,250.4h0v2.7h0v-2.7ZM428,250.4h.1v2.7h-.1v-2.7ZM426,250.3h1.9v2.8h-1.9v-2.8ZM425.8,250.3h.1v2.7h-.1v-2.7ZM425.6,250.3h.1v2.8h-.1v-2.8ZM423.6,250.2h1.9v2.8h-1.9v-2.8ZM423.4,250.2h0v2.8h0v-2.8ZM423.2,250.2h.1v2.8h-.1v-2.8ZM421.3,250.1h1.9v2.9h-1.9v-2.9Z" fill="#e1dfd8"/>
              <path d="M410.9,245h0l8.9-.3s0,0,0,0v-2.9s0,0,0,0c0,0,0,0,0,0l-8.9.4s0,0,0,0v2.8s0,0,0,0c0,0,0,0,0,0ZM417.1,242h2.7c0-.1,0,2.7,0,2.7h-2.7c0,0,0-2.7,0-2.7ZM416.9,242h0s0,2.8,0,2.8h0s0-2.8,0-2.8ZM416.7,242h.1s0,2.8,0,2.8h-.1s0-2.8,0-2.8ZM414.1,242.1h2.5c0,0,0,2.7,0,2.7h-2.5c0,0,0-2.7,0-2.7ZM414,242.1h0s0,2.8,0,2.8h0s0-2.8,0-2.8ZM413.7,242.1h.1s0,2.8,0,2.8h-.1s0-2.8,0-2.8ZM411.1,242.2h2.6c0-.1,0,2.7,0,2.7h-2.6c0,0,0-2.7,0-2.7ZM410.9,242.2h0s0,2.7,0,2.7h0s0-2.7,0-2.7Z" fill="#e1dfd8"/>
              <path d="M421.2,244.7l8.6.5h0s0,0,0,0c0,0,0,0,0,0v-2.8s0,0,0,0l-8.6-.5s0,0,0,0c0,0,0,0,0,0v2.8s0,0,0,0ZM429.7,242.4h.1v2.7h-.1v-2.7ZM428.3,242.3h1.3v2.8h-1.3v-2.8ZM428.2,242.3h.1v2.7h-.1v-2.7ZM428,242.3h.1v2.7h-.1v-2.7ZM426,242.2h1.9v2.8h-1.9v-2.8ZM425.8,242.1h.1v2.8h-.1v-2.8ZM425.6,242.1h.1v2.8h-.1v-2.8ZM423.6,242h1.9v2.9h-1.9v-2.9ZM423.4,242h.1v2.8h-.1v-2.8ZM423.2,242h.1v2.8h-.1v-2.8ZM421.3,241.9h1.9v2.9h-1.9v-2.9Z" fill="#e1dfd8"/>
              <path d="M410.9,236.9h0l8.9-.4s0,0,0,0v-2.9s0,0,0,0c0,0,0,0,0,0l-8.9.5s0,0,0,0v2.8s0,0,0,0c0,0,0,0,0,0ZM417.1,233.8h2.7c0-.1,0,2.6,0,2.6h-2.7c0,.1,0-2.6,0-2.6ZM416.9,233.8h0s0,2.8,0,2.8h0s0-2.8,0-2.8ZM416.7,233.8h.1s0,2.8,0,2.8h-.1s0-2.8,0-2.8ZM414.1,234h2.5c0-.1,0,2.6,0,2.6h-2.5c0,.1,0-2.6,0-2.6ZM413.9,234h.1s0,2.8,0,2.8h-.1s0-2.8,0-2.8ZM413.7,234h.1s0,2.8,0,2.8h-.1s0-2.8,0-2.8ZM411.1,234.1h2.6c0-.1,0,2.6,0,2.6h-2.6c0,.1,0-2.6,0-2.6ZM410.9,234.1h0s0,2.7,0,2.7h0s0-2.7,0-2.7Z" fill="#e1dfd8"/>
              <path d="M421.2,236.5l8.6.6h0s0,0,0,0c0,0,0,0,0,0v-2.8s0,0,0,0l-8.6-.7s0,0,0,0c0,0,0,0,0,0v2.9s0,0,0,0ZM429.7,234.3h.1v2.7h-.1v-2.7ZM428.3,234.2h1.3v2.8h-1.3v-2.8ZM428.1,234.2h.1v2.7h-.1v-2.7ZM428,234.2h.1v2.7h-.1v-2.7ZM426,234h1.9v2.9h-1.9v-2.9ZM425.8,234h.1v2.8h-.1v-2.8ZM425.6,234h.1v2.8h-.1v-2.8ZM423.6,233.8l1.9.2v2.7h-1.9v-2.9ZM423.4,233.8h0v2.8h0v-2.8ZM423.2,233.8h.1v2.8h-.1v-2.8ZM421.3,233.7h1.9v2.9h-1.9v-2.9Z" fill="#e1dfd8"/>
              <path d="M410.9,228.8h0l8.9-.5s0,0,0,0v-2.9s0,0,0,0c0,0,0,0,0,0l-8.9.5s0,0,0,0v2.8s0,0,0,0c0,0,0,0,0,0ZM417.1,225.6l2.7-.2v2.8l-2.7.2v-2.8ZM416.9,225.6h0s0,2.8,0,2.8h0s0-2.8,0-2.8ZM416.7,225.6h.1s0,2.8,0,2.8h-.1s0-2.8,0-2.8ZM414.1,225.8l2.5-.2v2.8h-2.5c0,.1,0-2.6,0-2.6ZM413.9,225.8h0s0,2.8,0,2.8h0s0-2.8,0-2.8ZM413.7,225.8h.1s0,2.8,0,2.8h-.1s0-2.8,0-2.8ZM411.1,226l2.6-.2v2.8h-2.6c0,.1,0-2.6,0-2.6ZM410.9,226h0s0,2.7,0,2.7h0s0-2.7,0-2.7Z" fill="#e1dfd8"/>
              <path d="M410.9,220.7h0l8.9-.6s0,0,0,0v-2.9s0,0,0,0c0,0,0,0,0,0l-8.9.6s0,0,0,0v2.8s0,0,0,0c0,0,0,0,0,0ZM417.1,217.4l2.7-.2v2.7l-2.7.2v-2.7ZM416.9,217.4h0v2.8h0s0-2.8,0-2.8ZM416.7,217.4h.1s0,2.8,0,2.8h-.1s0-2.8,0-2.8ZM414.1,217.7l2.5-.2v2.7l-2.5.2v-2.7ZM414,217.6h0v2.7h0s0-2.7,0-2.7ZM413.7,217.6h.2s0,2.7,0,2.7h-.2s0-2.7,0-2.7ZM411.1,217.9l2.6-.2v2.7l-2.6.2v-2.7ZM410.9,217.8h0v2.7h0s0-2.7,0-2.7Z" fill="#e1dfd8"/>
              <path d="M421.2,220l8.6.8s0,0,0,0c0,0,0,0,0,0,0,0,0,0,0,0v-2.8s0,0,0,0l-8.6-.9s0,0,0,0c0,0,0,0,0,0v2.8s0,0,0,0ZM429.7,218.1h.1s0,2.7,0,2.7h-.1v-2.7ZM428.3,218l1.3.2v2.7h-1.3v-2.8ZM428.1,217.9h0v2.7h0v-2.7ZM428,218h.1s0,2.7,0,2.7h-.1v-2.7ZM427.9,217.9h0s-.1,0-.1,0h.1ZM426,217.8l1.9.2v2.7l-1.9-.2v-2.7ZM425.8,217.7h.1v2.8h-.1v-2.8ZM425.6,217.7h.1s0,2.7,0,2.7h-.1v-2.7ZM423.6,217.5l1.9.2v2.7l-1.9-.2v-2.7ZM423.5,217.4h0v2.8h0v-2.8ZM423.2,217.5h.1s0,2.7,0,2.7h-.1v-2.7ZM423.2,217.4h0s-.7,0-.7,0h.8ZM421.3,217.3l1.9.2v2.7l-1.9-.2v-2.7Z" fill="#e1dfd8"/>
              <path d="M335.5,207.5h0l2.4-.2s0,0,0,0v-1.4s0,0,0,0c0,0,0,0,0,0l-2.4.3s0,0,0,0v1.3s0,0,0,0c0,0,0,0,0,0ZM337.9,207.2l-1.8.2v-1.1l1.8-.2v1.2ZM337.9,205.9h0c0,0-1.9.2-1.9.2h-.2s2-.2,2-.2ZM335.6,206.2h.5v1.2h-.5s0-1.2,0-1.2Z" fill="#e1dfd8"/>
              <path d="M335.5,233.9h2.4c0-.1,0-.2,0-.2v-1.4s0,0,0,0c0,0,0,0,0,0l-2.4.2s0,0,0,0v1.3s0,0,0,0,0,0,0,0ZM337.9,233.7h-1.8c0,.1,0-1.1,0-1.1h1.8c0-.1,0,1.1,0,1.1ZM337.9,232.4h0s-1.8.1-1.8.1h0s1.9-.1,1.9-.1ZM335.6,232.5h.5v1.2h-.5s0-1.2,0-1.2Z" fill="#e1dfd8"/>
              <path d="M335.5,260.3h2.4c0,0,0,0,0-.1v-1.4s0,0,0,0c0,0,0,0,0,0h-2.4c0,0,0,0,0,.1v1.4s0,0,0,0c0,0,0,0,0,0ZM336.1,258.9h1.8c0,0,0,1.2,0,1.2h-1.8c0,0,0-1.2,0-1.2ZM335.6,258.9h.5s0,1.3,0,1.3h-.5s0-1.3,0-1.3Z" fill="#e1dfd8"/>
              <path d="M342.1,191.2l4.2.5h0s0,0,0,0c0,0,0,0,0,0v-2.7s0,0,0,0l-4.2-.6s0,0,0,0c0,0,0,0,0,0v2.7s0,0,0,0ZM346.3,191.7h-.4v-2.5h.4c0,0,0,2.5,0,2.5ZM344.5,188.9l1.5.2h-.2s-1.3-.2-1.3-.2h0ZM344.5,189l1.2.2v2.5l-1.2-.2v-2.5ZM344,188.8h.5v2.7h-.5v-2.7ZM343.9,191.4h-.4v-2.5h.4c0,0,0,2.5,0,2.5ZM342.2,188.5l1.5.2h-.3s-1.3-.1-1.3-.1h0ZM342.2,188.7l1.2.2v2.5l-1.2-.2v-2.5Z" fill="#e1dfd8"/>
              <path d="M342.1,204.1l4.2.5s0,0,0,0c0,0,0,0,0,0,0,0,0,0,0,0v-2.7s0,0,0,0l-4.2-.5s0,0,0,0c0,0,0,0,0,0v2.7s0,0,0,0ZM346.3,204.5h-.4v-2.5h.4c0,0,0,2.5,0,2.5ZM344.5,201.7l1.5.2h-.2s-1.3-.1-1.3-.1h0ZM344.5,201.8h1.2v2.6h-1.2v-2.6ZM344,201.6h.5v2.7h-.5v-2.7ZM343.9,204.2h-.4v-2.5h.4c0,0,0,2.5,0,2.5ZM342.2,201.4l1.5.2h-.2s-1.3-.1-1.3-.1h0ZM342.2,201.5l1.2.2v2.5h-1.2v-2.6Z" fill="#e1dfd8"/>
              <path d="M342.1,216.9l4.2.4h0s0,0,0,0c0,0,0,0,0,0v-2.7s0,0,0,0l-4.2-.4s0,0,0,0c0,0,0,0,0,0v2.7s0,0,0,0ZM346.2,217.2h-.4v-2.5h.4c0,0,0,2.5,0,2.5ZM344.5,214.5h1.5c0,.1-.2.2-.2.2h-1.3v-.2ZM344.5,214.6h1.2v2.6h-1.2v-2.6ZM344,214.4h.5v2.7h-.5v-2.7ZM343.9,217h-.4v-2.5h.4c0,0,0,2.5,0,2.5ZM342.1,214.2h1.5c0,.1-.2.2-.2.2h-1.3v-.2ZM342.1,214.3h1.3v2.6h-1.3v-2.6Z" fill="#e1dfd8"/>
              <path d="M342.1,229.8l4.2.3h0s0,0,0,0c0,0,0,0,0,0v-2.6s0,0,0,0l-4.2-.3s0,0,0,0c0,0,0,0,0,0v2.7s0,0,0,0ZM346.3,230h-.5v-2.5h.5c0,0,0,2.5,0,2.5ZM344.5,227.3h1.4c0,.1-.1.1-.1.1h-1.2ZM344.5,227.3h1.2v2.6h-1.2v-2.6ZM344,227.2h.5v2.6h-.5v-2.6ZM343.9,229.8h-.4v-2.5h.4c0,0,0,2.5,0,2.5ZM342.2,227.1h1.4c0,.1-.1.1-.1.1h-1.3ZM342.2,227.2h1.2v2.6h-1.2v-2.6Z" fill="#e1dfd8"/>
              <path d="M342.1,242.6l4.2.2h0s0,0,0,0c0,0,0,0,0,0v-2.6s0,0,0,0l-4.2-.2s0,0,0,0c0,0,0,0,0,0v2.7s0,0,0,0ZM345.8,240.2h.4s0,2.5,0,2.5h-.4v-2.5ZM344.5,240.1h1.3c0,0,0,0,0,0h-1.3ZM344.5,240.1h1.2v2.6h-1.2v-2.6ZM344,240h.5v2.6h-.5v-2.6ZM343.9,242.6h-.4v-2.5h.4c0,0,0,2.5,0,2.5ZM342.2,239.9h1.4c0,0,0,0,0,0h-1.3ZM342.2,240h1.2v2.6h-1.2v-2.6Z" fill="#e1dfd8"/>
              <path d="M342.1,255.4h4.2c0,.1,0,.1,0,.1,0,0,0,0,0,0,0,0,0,0,0,0v-2.6s0,0,0,0l-4.2-.2s0,0,0,0c0,0,0,0,0,0v2.7s0,0,0,0ZM345.8,252.9h.4v2.6h-.4v-2.6ZM344.5,252.9h1.2v2.6h-1.2v-2.6ZM344,252.8h.5v2.6h-.5v-2.6ZM343.5,252.8h.4v2.6h-.4v-2.6ZM342.2,252.8h1.2v2.6h-1.2v-2.6Z" fill="#e1dfd8"/>
              <path d="M342.1,268.3h4.2s0,0,0,0c0,0,0,0,0,0,0,0,0,0,0,0v-2.7s0,0,0,0h-4.2s0,0,0,0c0,0,0,0,0,0v2.7s0,0,0,0ZM345.8,265.7h.4v2.6h-.4v-2.6ZM344.5,265.6h1.2v2.6h-1.2v-2.6ZM344,265.6h.5v2.6h-.5v-2.6ZM343.5,265.6h.4v2.6h-.4v-2.6ZM342.1,265.6h1.2v2.6h-1.2v-2.6Z" fill="#e1dfd8"/>
              <path d="M352.2,198.3h1.1c0,.1,0,.1,0,.1,0,0,0,0,0,0,0,0,0,0,0,0v-9.9s0,0,0,0l-1.1-.2s0,0,0,0c0,0,0,0,0,0v10s0,0,0,0ZM353.2,198.4h-.2v-9.8h.2s0,9.8,0,9.8ZM352.2,188.4h.8c0,.1,0,.1,0,.1h-.7ZM352.2,188.5h.7v9.9h-.7v-9.9Z" fill="#e1dfd8"/>
              <path d="M352.2,211h1.1c0,0,0,0,0,0,0,0,0,0,0,0,0,0,0,0,0,0v-9.9s0,0,0,0h-1.1c0-.1,0-.1,0-.1,0,0,0,0,0,0v10s0,0,0,0ZM353,201.2h.2s0,9.8,0,9.8h-.2v-9.8ZM353,201.1h0s-.4,0-.4,0h.4ZM352.2,201.1h.7v9.9h-.7v-9.9Z" fill="#e1dfd8"/>
              <path d="M352.2,223.6h1.1c0,0,0,0,0,0,0,0,0,0,0,0,0,0,0,0,0,0v-9.9s0,0,0,0h-1.1c0-.1,0-.1,0,0,0,0,0,0,0,0v10s0,0,0,0ZM353,213.8h.2s0,9.8,0,9.8h-.2v-9.8ZM352.2,213.7h.5c0,0-.5,0-.5,0h0ZM352.2,213.7h.7v9.9h-.7v-9.9Z" fill="#e1dfd8"/>
              <path d="M352.2,236.3h1.1c0,0,0,0,0,0,0,0,0,0,0,0,0,0,0,0,0,0v-9.9s0,0,0,0h-1.1c0,0,0,0,0,0,0,0,0,0,0,0v10s0,0,0,0ZM353,226.4h.2s0,9.8,0,9.8h-.2v-9.8ZM352.2,226.4h.7v9.9h-.7v-9.9Z" fill="#e1dfd8"/>
              <path d="M352.2,248.9h1.1s0,0,0,0c0,0,0,0,0,0,0,0,0,0,0,0v-9.9s0,0,0,0h-1.1c0,0,0,0,0,0,0,0,0,0,0,0v9.9s0,0,0,0ZM353,239h.2v9.9h-.2v-9.9ZM352.2,239h.7v9.9h-.7v-9.9Z" fill="#e1dfd8"/>
              <path d="M352.2,261.5h1.1s0,0,0,0c0,0,0,0,0,0v-9.9s0,0,0,0h-1.1s0,0,0,0c0,0,0,0,0,0v9.9s0,0,0,0ZM353,251.6h.2v9.9h-.2v-9.9ZM352.2,251.6h.7v9.9h-.7v-9.9Z" fill="#e1dfd8"/>
              <path d="M352.2,274.2h1.1s0,0,0,0v-9.9s0,0,0,0h-1.1s0,0,0,0c0,0,0,0,0,0v9.9s0,0,0,0ZM353,264.3h.2v9.9h-.2v-9.9ZM352.2,264.3h.7v9.9h-.7v-9.9Z" fill="#e1dfd8"/>
              <path d="M449.7,211.9h0l2.6-.2s0,0,0,0v-1.3s0,0,0,0c0,0,0,0,0,0l-2.6.2s0,0,0,0v1.2s0,0,0,0c0,0,0,0,0,0ZM452.4,211.6h-2.2c0,.1,0-.9,0-.9l2.2-.2v1.1ZM452.4,210.4h0s-2.2.2-2.2.2h0s2.3-.2,2.3-.2ZM449.8,210.6h.4v1.1h-.4s0-1.1,0-1.1Z" fill="#e1dfd8"/>
              <path d="M449.8,236.6h2.6c0-.1,0-.1,0-.2v-1.3s0,0,0,0,0,0,0,0h-2.6c0,.1,0,.2,0,.2v1.2s0,0,0,0c0,0,0,0,0,0ZM450.2,235.4h2.1c0-.1,0,1,0,1h-2.1c0,0,0-1,0-1ZM450.2,235.3h0s0,0,0,0ZM449.8,235.3h.4v1.1h-.4s0-1.1,0-1.1Z" fill="#e1dfd8"/>
              <path d="M449.8,261.3h2.6s0,0,0,0v-1.3s0,0,0,0c0,0,0,0,0,0h-2.6c0,0,0,0,0,.1v1.2s0,0,0,0c0,0,0,0,0,0ZM450.2,260h2.1c0,0,0,1.1,0,1.1h-2.1s0-1.1,0-1.1ZM449.8,260h.4s0,1.2,0,1.2h-.4s0-1.2,0-1.2Z" fill="#e1dfd8"/>
              <path d="M456.1,196.6l3.2.5s0,0,0,0c0,0,0,0,0,0,0,0,0,0,0,0v-2.5s0,0,0,0l-3.2-.5s0,0,0,0c0,0,0,0,0,0v2.5s0,0,0,0ZM459.3,197h-.5v-2.3h.5c0,0,0,2.3,0,2.3ZM458,194.4l1.1.2h-.3s-.8-.1-.8-.1h0ZM458,194.6h.7v2.4h-.7v-2.4ZM457.6,194.4h.4v2.5h-.4v-2.5ZM457.5,196.8h-.5v-2.3h.5c0,0,0,2.3,0,2.3ZM456.2,194.1l1.1.2h-.3s-.8,0-.8,0h0ZM456.2,194.3h.8v2.4h-.8v-2.4Z" fill="#e1dfd8"/>
              <path d="M469.2,198.6l3.1.4s0,0,0,0c0,0,0,0,0,0,0,0,0,0,0,0v-2.4s0,0,0,0l-3.1-.5s0,0,0,0c0,0,0,0,0,0v2.5s0,0,0,0ZM472.3,199h-.5v-2.3h.5c0,0,0,2.3,0,2.3ZM471,196.4l1,.2h-.3s-.7-.1-.7-.1h0ZM471,196.5h.7v2.4h-.7v-2.4ZM470.6,196.3h.4v2.4h-.4v-2.4ZM470.5,198.7h-.4v-2.3h.4c0,0,0,2.3,0,2.3ZM469.3,196.1l1.1.2h-.3s-.8,0-.8,0h0ZM469.3,196.3h.7v2.4h-.7v-2.4Z" fill="#e1dfd8"/>
              <path d="M456.1,208.7l3.2.4h0s0,0,0,0c0,0,0,0,0,0v-2.5s0,0,0,0l-3.2-.4s0,0,0,0c0,0,0,0,0,0v2.5s0,0,0,0ZM459.3,209h-.5v-2.3h.5c0,0,0,2.3,0,2.3ZM458,206.4h1.1c0,.1-.2.2-.2.2h-.8v-.2ZM458,206.5h.8v2.4h-.8v-2.4ZM457.6,206.3h.4v2.5h-.4v-2.5ZM457.5,208.8h-.5v-2.4h.5c0,0,0,2.4,0,2.4ZM456.2,206.2h1.1c0,.1-.2.2-.2.2h-.8v-.2ZM456.2,206.3h.8v2.4h-.8v-2.4Z" fill="#e1dfd8"/>
              <path d="M469.2,210.3l3.1.4s0,0,0,0c0,0,0,0,0,0,0,0,0,0,0,0v-2.4s0,0,0,0l-3.1-.4s0,0,0,0c0,0,0,0,0,0v2.5s0,0,0,0ZM472.3,210.6h-.4v-2.3h.4c0,0,0,2.3,0,2.3ZM471,208.1h1c0,.1-.2.2-.2.2h-.8v-.2ZM471,208.2h.7v2.3h-.7v-2.3ZM470.6,208h.4v2.4h-.4v-2.4ZM470.5,210.4h-.4v-2.3h.4s0,2.3,0,2.3ZM469.3,207.9h1c0,.1-.2.2-.2.2h-.8v-.2ZM469.3,208h.8v2.4h-.8v-2.4Z" fill="#e1dfd8"/>
              <path d="M456.1,220.7l3.2.3h0s0,0,0,0c0,0,0,0,0,0v-2.5s0,0,0,0l-3.2-.4s0,0,0,0c0,0,0,0,0,0v2.5s0,0,0,0ZM459.3,220.9h-.5v-2.3h.5s0,2.3,0,2.3ZM458,218.4h1c0,.1-.2.1-.2.1h-.8ZM458,218.5h.8v2.4h-.8v-2.4ZM457.6,218.3h.4v2.5h-.4v-2.5ZM457.5,220.7h-.5v-2.3h.5c0,0,0,2.3,0,2.3ZM456.2,218.2h1.1c0,.1-.2.1-.2.1h-.8ZM456.2,218.3h.8v2.4h-.8v-2.4Z" fill="#e1dfd8"/>
              <path d="M469.2,222l3.1.3h0s0,0,0,0c0,0,0,0,0,0v-2.4s0,0,0,0l-3.1-.3s0,0,0,0c0,0,0,0,0,0v2.5s0,0,0,0ZM472.2,222.3h-.4v-2.3h.4s0,2.3,0,2.3ZM471,219.8h.9c0,.1-.2.1-.2.1h-.8ZM471,219.9h.7v2.3h-.7v-2.3ZM470.6,219.7h.4v2.4h-.4v-2.4ZM470.5,222.1h-.4v-2.3h.4c0,0,0,2.3,0,2.3ZM469.3,219.6h1c0,.1-.2.1-.2.1h-.8ZM469.3,219.7h.7v2.3h-.7v-2.3Z" fill="#e1dfd8"/>
              <path d="M456.1,232.7l3.2.2h0s0,0,0,0c0,0,0,0,0,0v-2.5s0,0,0,0l-3.2-.3s0,0,0,0c0,0,0,0,0,0v2.5s0,0,0,0ZM459.3,232.9h-.5v-2.4h.5s0,2.4,0,2.4ZM458,230.4h.9c0,0-.1,0-.1,0h-.8ZM458,230.5h.8v2.4h-.8v-2.4ZM457.6,230.3h.4v2.5h-.4v-2.5ZM457.5,232.8h-.5v-2.4h.5c0,0,0,2.4,0,2.4ZM456.2,230.2h1c0,0-.2.1-.2.1h-.8ZM456.2,230.3h.8v2.4h-.8v-2.4Z" fill="#e1dfd8"/>
              <path d="M469.2,233.8l3.1.2h0s0,0,0,0c0,0,0,0,0,0v-2.4s0,0,0,0l-3.1-.3s0,0,0,0c0,0,0,0,0,0v2.5s0,0,0,0ZM472.3,233.9h-.4v-2.3h.4s0,2.3,0,2.3ZM471,231.5h.9c0,0,0,0,0,0h-.8ZM471,231.6h.7v2.3h-.7v-2.3ZM470.6,231.4h.4v2.4h-.4v-2.4ZM470.5,233.8h-.4v-2.3h.4c0,0,0,2.3,0,2.3ZM469.3,231.3h.9c0,0-.2.1-.2.1h-.8ZM469.3,231.4h.8v2.3h-.8v-2.3Z" fill="#e1dfd8"/>
              <path d="M456.1,244.8l3.2.2h0s0,0,0,0c0,0,0,0,0,0v-2.5s0,0,0,0l-3.2-.2s0,0,0,0c0,0,0,0,0,0v2.5s0,0,0,0ZM458.9,242.5h.5s0,2.4,0,2.4h-.5v-2.4ZM458,242.4h.8v2.4h-.8v-2.4ZM457.6,242.3h.4v2.4h-.4v-2.4ZM457,242.4h.5s0,2.4,0,2.4h-.5v-2.4ZM456.2,242.3h.8v2.4h-.8v-2.4Z" fill="#e1dfd8"/>
              <path d="M469.2,245.5l3.1.2h0s0,0,0,0c0,0,0,0,0,0v-2.4s0,0,0,0l-3.1-.2s0,0,0,0c0,0,0,0,0,0v2.4s0,0,0,0ZM471.8,243.3h.4s0,2.3,0,2.3h-.4v-2.3ZM471,243.3h.7v2.3h-.7v-2.3ZM470.6,243.2h.4v2.4h-.4v-2.4ZM470.1,243.2h.4s0,2.3,0,2.3h-.4v-2.3ZM469.3,243.2h.7v2.3h-.7v-2.3Z" fill="#e1dfd8"/>
              <path d="M456.1,256.8h3.2c0,0,0,0,0,0,0,0,0,0,0,0v-2.5s0,0,0,0h-3.2c0-.1,0-.1,0-.1,0,0,0,0,0,0v2.5s0,0,0,0ZM458.9,254.4h.5v2.4h-.5v-2.4ZM458,254.4h.8v2.4h-.8v-2.4ZM457.6,254.3h.4v2.4h-.4v-2.4ZM457,254.3h.5v2.4h-.5v-2.4ZM456.2,254.3h.8v2.5h-.8v-2.5Z" fill="#e1dfd8"/>
              <path d="M469.2,257.3h3.1c0,0,0,0,0,0s0,0,0,0v-2.4s0,0,0,0h-3.1c0-.1,0-.1,0-.1,0,0,0,0,0,0v2.4s0,0,0,0ZM471.8,254.9h.4v2.3h-.4v-2.3ZM471,254.9h.7v2.3h-.7v-2.3ZM470.6,254.9h.4v2.3h-.4v-2.3ZM470.1,254.9h.4v2.4h-.4v-2.4ZM469.3,254.8h.8v2.4h-.8v-2.4Z" fill="#e1dfd8"/>
              <path d="M456.1,268.8h3.2s0,0,0,0c0,0,0,0,0,0v-2.5s0,0,0,0h-3.2c0,0,0,0,0,0,0,0,0,0,0,0v2.5s0,0,0,0ZM458.9,266.3h.5v2.4h-.5v-2.4ZM458,266.3h.8v2.4h-.8v-2.4ZM457.6,266.3h.4v2.4h-.4v-2.4ZM457,266.3h.5v2.4h-.5v-2.4ZM456.2,266.3h.8v2.4h-.8v-2.4Z" fill="#e1dfd8"/>
              <path d="M469.2,269h3.1s0,0,0,0c0,0,0,0,0,0v-2.4s0,0,0,0h-3.1c0,0,0,0,0,0,0,0,0,0,0,0v2.4s0,0,0,0ZM471.8,266.6h.4v2.3h-.4v-2.3ZM471,266.6h.7v2.3h-.7v-2.3ZM470.6,266.6h.4v2.3h-.4v-2.3ZM470.1,266.6h.4v2.4h-.4v-2.4ZM469.3,266.6h.8v2.4h-.8v-2.4Z" fill="#e1dfd8"/>
              <path d="M463.9,203.2h.8c0,.1,0,.1,0,.1,0,0,0,0,0,0,0,0,0,0,0,0v-9.3s0,0,0,0h-.8c0-.1,0-.1,0-.1,0,0,0,0,0,0v9.3s0,0,0,0ZM464.7,203.3h-.2v-9.2h.2s0,9.2,0,9.2ZM464,193.9h.5c0,0,0,0,0,0h-.5ZM464,194h.5v9.2h-.5v-9.2Z" fill="#e1dfd8"/>
              <path d="M463.9,215.1h.8c0,0,0,0,0,0,0,0,0,0,0,0,0,0,0,0,0,0v-9.3s0,0,0,0h-.8c0-.1,0-.1,0,0,0,0,0,0,0,0v9.3s0,0,0,0ZM464.7,215.1h-.2v-9.2h.2s0,9.2,0,9.2ZM464,205.7h.5c0,0,0,0,0,0h-.5ZM464,205.8h.5v9.2h-.5v-9.2Z" fill="#e1dfd8"/>
              <path d="M463.9,226.9h.8q0,0,0,0s0,0,0,0c0,0,0,0,0,0v-9.3s0,0,0,0h-.8c0-.1,0-.1,0-.1,0,0,0,0,0,0v9.3s0,0,0,0ZM464.5,217.7h.2s0,9.2,0,9.2h-.2v-9.2ZM464,217.7h.5v9.2h-.5v-9.2Z" fill="#e1dfd8"/>
              <path d="M463.9,238.8h.8s0,0,0,0c0,0,0,0,0,0,0,0,0,0,0,0v-9.3s0,0,0,0h-.8c0,0,0,0,0,0,0,0,0,0,0,0v9.3s0,0,0,0ZM464.5,229.5h.2v9.2h-.2v-9.2ZM464,229.5h.5v9.3h-.5v-9.3Z" fill="#e1dfd8"/>
              <path d="M463.9,250.6h.8s0,0,0,0c0,0,0,0,0,0s0,0,0,0v-9.3s0,0,0,0h-.8s0,0,0,0c0,0,0,0,0,0v9.3s0,0,0,0ZM464.5,241.3h.2v9.3h-.2v-9.3ZM464,241.3h.5v9.3h-.5v-9.3Z" fill="#e1dfd8"/>
              <path d="M463.9,262.5h.8s0,0,0,0c0,0,0,0,0,0s0,0,0,0v-9.3s0,0,0,0h-.8s0,0,0,0c0,0,0,0,0,0v9.3s0,0,0,0ZM464.5,253.2h.2v9.2h-.2v-9.2ZM464,253.2h.5v9.3h-.5v-9.3Z" fill="#e1dfd8"/>
              <path d="M463.9,274.3h.8s0,0,0,0c0,0,0,0,0,0,0,0,0,0,0,0v-9.3s0,0,0,0h-.8s0,0,0,0c0,0,0,0,0,0v9.3s0,0,0,0ZM464.5,265h.2v9.3h-.2v-9.3ZM464.4,265v9.2h-.5s0-9.3,0-9.3h.5Z" fill="#e1dfd8"/>
            </g>
            <path d="M380,94.3c0,3.9,2.3,9.5,5.5,15.1,6.5,11.7,16.4,23.9,16.4,23.9,0,0,21.9-26.9,21.9-39,0-6.9-3.2-13-8.1-17-3.8-3.1-8.6-4.9-13.8-4.9-12.1,0-21.9,9.8-21.9,21.9ZM399.7,104c-4.6-1-8-5.1-8-10,0-5.7,4.6-10.2,10.2-10.2s7.9,2.6,9.5,6.3c.5,1.2.8,2.5.8,3.9,0,5.7-4.6,10.2-10.2,10.2s-1.5,0-2.2-.3Z" fill="#60af3f"/>
            <g clip-path="url(#clippath)">
              <image width="2000" height="1121" transform="translate(430.1 89.7) rotate(-180) scale(.3 -.3)" xlink:href="../../Chatori Gali/Wall Design/reference/smartphone-with-green-screen-displays-various-food-items-including-burgers-sandwiches-image-is-set-against-soft-orange-background.png"/>
            </g>
          </g>
          <g>
            <circle cx="425.6" cy="175.1" r="3.3" fill="#4f2b0b"/>
            <path d="M420.8,175c0,2.6,4.8,8.5,4.8,8.5,0,0,4.8-5.9,4.8-8.5s-2.1-4.8-4.8-4.8-4.8,2.1-4.8,4.8ZM423.3,175c0-1.2,1-2.2,2.2-2.2,1.2,0,2.2,1,2.2,2.2s-1,2.2-2.2,2.2-2.2-1-2.2-2.2Z" fill="#ffb000"/>
          </g>
          <g>
            <circle cx="403.3" cy="248.1" r="3.3" fill="#4f2b0b"/>
            <path d="M398.5,248.1c0,2.6,4.8,8.5,4.8,8.5,0,0,4.8-5.9,4.8-8.5s-2.1-4.8-4.8-4.8c-2.6,0-4.8,2.1-4.8,4.8ZM401,248c0-1.2,1-2.2,2.2-2.2,1.2,0,2.2,1,2.2,2.2s-1,2.2-2.2,2.2-2.2-1-2.2-2.2Z" fill="#ffb000"/>
          </g>
          <g>
            <circle cx="415.6" cy="211.3" r="2.1" fill="#4f2b0b"/>
            <path d="M412.5,211.2c0,1.7,3,5.4,3,5.4,0,0,3-3.7,3-5.4s-1.4-3-3-3-3,1.4-3,3ZM414.2,211.2c0-.8.6-1.4,1.4-1.4s1.4.6,1.4,1.4-.6,1.4-1.4,1.4-1.4-.6-1.4-1.4Z" fill="#ffb000"/>
          </g>
          <g>
            <circle cx="374.9" cy="162.9" r="2.1" fill="#4f2b0b"/>
            <path d="M371.8,162.8c0,1.7,3,5.4,3,5.4,0,0,3-3.7,3-5.4,0-1.7-1.4-3-3-3-1.7,0-3,1.4-3,3ZM373.5,162.8c0-.8.6-1.4,1.4-1.4s1.4.6,1.4,1.4-.6,1.4-1.4,1.4-1.4-.6-1.4-1.4Z" fill="#ffb000"/>
          </g>
          <g>
            <circle cx="306.3" cy="202.4" r="1.7" fill="#4f2b0b"/>
            <path d="M303.9,202.3c0,1.3,2.4,4.3,2.4,4.3,0,0,2.4-3,2.4-4.3s-1.1-2.4-2.4-2.4-2.4,1.1-2.4,2.4ZM305.2,202.3c0-.6.5-1.1,1.1-1.1s1.1.5,1.1,1.1-.5,1.1-1.1,1.1-1.1-.5-1.1-1.1Z" fill="#ffb000"/>
          </g>
          <g>
            <circle cx="317.8" cy="238.7" r="2.1" fill="#4f2b0b"/>
            <path d="M314.7,238.7c0,1.7,3.1,5.5,3.1,5.5,0,0,3.1-3.8,3.1-5.5s-1.4-3.1-3.1-3.1-3.1,1.4-3.1,3.1ZM316.4,238.7c0-.8.6-1.5,1.5-1.5s1.5.6,1.5,1.5-.6,1.5-1.5,1.5-1.5-.6-1.5-1.5Z" fill="#ffb000"/>
          </g>
        </g>
        <path d="M123.5,112.8s0,0,.1,0c.2,0,.3-.1.4-.3,0,0,.2-.8.8-2.2,0-.2,0-.4-.2-.5-.2,0-.4,0-.5.2-.5,1.4-.8,2.2-.8,2.2,0,.2,0,.4.3.5ZM125.1,108.3s0,0,.1,0c.2,0,.3,0,.4-.2.3-.7.6-1.4.9-2.2,0-.2,0-.4-.2-.5-.2,0-.4,0-.5.2-.3.7-.6,1.5-.9,2.2,0,.2,0,.4.2.5ZM427.3,106.8c0,.1.2.2.3.2s.1,0,.2,0c.7-.3,1.4-.7,2.1-1,.2,0,.3-.3.2-.5,0-.2-.3-.3-.5-.2-.7.3-1.4.6-2.1,1-.2,0-.3.3-.2.5ZM431.5,104.9c0,.2.2.2.4.2s0,0,.1,0c.7-.3,1.4-.6,2.2-.8.2,0,.3-.3.2-.5,0-.2-.3-.3-.5-.2-.7.3-1.5.5-2.2.8-.2,0-.3.3-.2.5ZM126.9,104c0,0,.1,0,.2,0,.1,0,.3,0,.4-.2.3-.7.6-1.4,1-2.1,0-.2,0-.4-.2-.5-.2,0-.4,0-.5.2-.3.7-.7,1.4-1,2.1,0,.2,0,.4.2.5ZM435.9,103.3c0,.2.2.3.4.3s0,0,.1,0c.7-.2,1.5-.5,2.2-.7.2,0,.3-.3.3-.5,0-.2-.3-.3-.5-.3-.7.2-1.5.4-2.2.7-.2,0-.3.3-.3.5ZM440.3,102c0,.2.2.3.4.3s0,0,0,0c.7-.2,1.5-.4,2.2-.5.2,0,.3-.3.3-.5,0-.2-.3-.3-.5-.3-.8.2-1.5.3-2.3.5-.2,0-.3.3-.3.5ZM444.9,101c0,.2.2.3.4.3s0,0,0,0c.7-.1,1.5-.3,2.3-.4.2,0,.4-.2.3-.4,0-.2-.2-.4-.4-.3-.8.1-1.5.3-2.3.4-.2,0-.3.2-.3.5ZM449.4,100.2c0,.2.2.3.4.3s0,0,0,0c.8-.1,1.5-.2,2.3-.3.2,0,.4-.2.3-.4,0-.2-.2-.4-.4-.3-.8,0-1.6.2-2.3.3-.2,0-.4.2-.3.4ZM128.8,99.8c0,0,.1,0,.2,0,.1,0,.3,0,.3-.2.3-.7.7-1.4,1-2.1,0-.2,0-.4-.2-.5-.2,0-.4,0-.5.2-.4.7-.7,1.4-1,2.1,0,.2,0,.4.2.5ZM130.9,95.7c0,0,.1,0,.2,0,.1,0,.3,0,.3-.2.4-.7.7-1.4,1.1-2,.1-.2,0-.4-.2-.5-.2-.1-.4,0-.5.2-.4.7-.7,1.4-1.1,2.1,0,.2,0,.4.2.5ZM133.1,91.6c0,0,.1,0,.2,0,.1,0,.3,0,.3-.2.4-.7.8-1.3,1.2-2,.1-.2,0-.4-.1-.5-.2-.1-.4,0-.5.1-.4.7-.8,1.3-1.2,2-.1.2,0,.4.1.5ZM371.3,87.7c.4.6.9,1.3,1.3,1.9,0,.1.2.2.3.2s.2,0,.2,0c.2-.1.2-.4.1-.5-.4-.6-.9-1.3-1.3-1.9-.1-.2-.4-.2-.5,0-.2.1-.2.4,0,.5ZM135.5,87.6c0,0,.1,0,.2,0,.1,0,.3,0,.3-.2.4-.7.8-1.3,1.2-2,.1-.2,0-.4-.1-.5-.2-.1-.4,0-.5.1-.4.6-.8,1.3-1.2,2-.1.2,0,.4.1.5ZM368.5,83.9c.5.6.9,1.2,1.4,1.9,0,.1.2.2.3.2s.2,0,.2,0c.2-.1.2-.4,0-.5-.5-.6-.9-1.3-1.4-1.9-.1-.2-.4-.2-.5,0-.2.1-.2.4,0,.5ZM137.9,83.6c0,0,.1,0,.2,0,.1,0,.3,0,.3-.2.4-.6.9-1.3,1.3-1.9.1-.2,0-.4-.1-.5-.2-.1-.4,0-.5.1-.4.6-.9,1.3-1.3,1.9-.1.2,0,.4.1.5ZM365.7,80.3c.5.6,1,1.2,1.4,1.8,0,0,.2.1.3.1s.2,0,.2,0c.2-.1.2-.4,0-.5-.5-.6-1-1.2-1.4-1.8-.1-.2-.4-.2-.5,0-.2.1-.2.4,0,.5ZM140.5,79.8c0,0,.1,0,.2,0,.1,0,.2,0,.3-.2.4-.6.9-1.3,1.3-1.9.1-.2,0-.4,0-.5-.2-.1-.4,0-.5,0-.5.6-.9,1.3-1.4,1.9-.1.2,0,.4,0,.5ZM362.8,76.7c.5.6,1,1.2,1.5,1.8,0,0,.2.1.3.1s.2,0,.2,0c.2-.1.2-.4,0-.5-.5-.6-1-1.2-1.5-1.8-.1-.2-.4-.2-.5,0-.2.1-.2.4,0,.5ZM143.3,76c0,0,.2,0,.2,0s.2,0,.3-.2c.5-.6.9-1.2,1.4-1.8.1-.2.1-.4,0-.5-.2-.1-.4-.1-.5,0-.5.6-1,1.2-1.4,1.8-.1.2,0,.4,0,.5ZM359.7,73.2c.5.6,1,1.2,1.5,1.7,0,0,.2.1.3.1s.2,0,.3,0c.2-.1.2-.4,0-.5-.5-.6-1-1.2-1.5-1.7-.1-.2-.4-.2-.5,0-.2.1-.2.4,0,.5ZM146.1,72.4c0,0,.2,0,.2,0s.2,0,.3-.1c.5-.6,1-1.2,1.5-1.8.1-.2.1-.4,0-.5-.2-.1-.4-.1-.5,0-.5.6-1,1.2-1.5,1.8-.1.2-.1.4,0,.5ZM356.6,69.8c.5.6,1.1,1.1,1.6,1.7,0,0,.2.1.3.1s.2,0,.3-.1c.2-.1.2-.4,0-.5-.5-.6-1.1-1.1-1.6-1.7-.1-.2-.4-.2-.5,0-.2.1-.2.4,0,.5ZM149.1,68.8c0,0,.2,0,.3,0s.2,0,.3-.1c.5-.6,1-1.2,1.5-1.7.1-.2.1-.4,0-.5-.2-.1-.4-.1-.5,0-.5.6-1,1.2-1.5,1.7-.1.2-.1.4,0,.5ZM353.3,66.5c.5.5,1.1,1.1,1.6,1.6,0,0,.2.1.3.1s.2,0,.3-.1c.2-.1.2-.4,0-.5-.5-.6-1.1-1.1-1.7-1.6-.2-.2-.4-.1-.5,0-.2.2-.1.4,0,.5ZM152.2,65.3c0,0,.2.1.3.1s.2,0,.3-.1c.5-.6,1.1-1.1,1.6-1.7.1-.2.1-.4,0-.5-.2-.1-.4-.1-.5,0-.5.6-1.1,1.1-1.6,1.7-.1.2-.1.4,0,.5ZM349.9,63.4c.6.5,1.1,1,1.7,1.6,0,0,.2.1.3.1s.2,0,.3-.1c.1-.2.1-.4,0-.5-.6-.5-1.1-1.1-1.7-1.6-.2-.1-.4-.1-.5,0-.1.2-.1.4,0,.5ZM155.4,62c0,0,.2.1.3.1s.2,0,.3-.1c.5-.5,1.1-1.1,1.6-1.6.2-.1.2-.4,0-.5-.1-.2-.4-.2-.5,0-.6.5-1.1,1.1-1.7,1.6-.2.2-.2.4,0,.5ZM346.5,60.3c.6.5,1.2,1,1.7,1.5,0,0,.2,0,.3,0s.2,0,.3-.1c.1-.2.1-.4,0-.5-.6-.5-1.2-1-1.8-1.5-.2-.1-.4-.1-.5,0-.1.2-.1.4,0,.5ZM342.9,57.3c.6.5,1.2,1,1.8,1.5,0,0,.2,0,.2,0s.2,0,.3-.1c.1-.2.1-.4,0-.5-.6-.5-1.2-1-1.8-1.5-.2-.1-.4-.1-.5,0-.1.2-.1.4,0,.5ZM158.7,58.7c0,0,.2.1.3.1s.2,0,.3-.1c.6-.5,1.1-1.1,1.7-1.6.2-.1.2-.4,0-.5-.1-.2-.4-.2-.5,0-.6.5-1.1,1-1.7,1.6-.2.1-.2.4,0,.5ZM339.2,54.5c.6.5,1.2.9,1.8,1.4,0,0,.2,0,.2,0,.1,0,.2,0,.3-.2.1-.2,0-.4,0-.5-.6-.5-1.2-.9-1.9-1.4-.2-.1-.4,0-.5,0-.1.2,0,.4,0,.5ZM162.1,55.6c0,0,.2.1.3.1s.2,0,.3,0c.6-.5,1.2-1,1.8-1.5.2-.1.2-.4,0-.5-.1-.2-.4-.2-.5,0-.6.5-1.2,1-1.8,1.5-.2.1-.2.4,0,.5ZM335.5,51.8c.6.4,1.3.9,1.9,1.3,0,0,.1,0,.2,0,.1,0,.2,0,.3-.2.1-.2,0-.4,0-.5-.6-.5-1.3-.9-1.9-1.3-.2-.1-.4,0-.5,0-.1.2,0,.4,0,.5ZM165.7,52.6c0,0,.2.1.3.1s.2,0,.2,0c.6-.5,1.2-1,1.8-1.4.2-.1.2-.4,0-.5-.1-.2-.4-.2-.5,0-.6.5-1.2,1-1.8,1.4-.2.1-.2.4,0,.5ZM331.6,49.2c.6.4,1.3.8,1.9,1.3,0,0,.1,0,.2,0,.1,0,.2,0,.3-.2.1-.2,0-.4-.1-.5-.6-.4-1.3-.9-1.9-1.3-.2-.1-.4,0-.5.1-.1.2,0,.4.1.5ZM169.3,49.8c0,.1.2.2.3.2s.2,0,.2,0c.6-.5,1.2-.9,1.9-1.4.2-.1.2-.4,0-.5-.1-.2-.4-.2-.5,0-.6.4-1.3.9-1.9,1.4-.2.1-.2.4,0,.5ZM327.7,46.8c.7.4,1.3.8,2,1.2,0,0,.1,0,.2,0,.1,0,.3,0,.3-.2.1-.2,0-.4-.1-.5-.7-.4-1.3-.8-2-1.2-.2-.1-.4,0-.5.1-.1.2,0,.4.1.5ZM173.1,47.1c0,.1.2.2.3.2s.2,0,.2,0c.6-.4,1.3-.9,1.9-1.3.2-.1.2-.4.1-.5-.1-.2-.4-.2-.5-.1-.6.4-1.3.9-1.9,1.3-.2.1-.2.4,0,.5ZM323.7,44.5c.7.4,1.4.8,2,1.1,0,0,.1,0,.2,0,.1,0,.3,0,.3-.2.1-.2,0-.4-.1-.5-.7-.4-1.4-.8-2-1.1-.2-.1-.4,0-.5.2-.1.2,0,.4.2.5ZM177,44.5c0,.1.2.2.3.2s.1,0,.2,0c.6-.4,1.3-.8,2-1.2.2-.1.2-.3.1-.5-.1-.2-.3-.2-.5-.1-.7.4-1.3.8-2,1.2-.2.1-.2.4-.1.5ZM319.6,42.3c.7.3,1.4.7,2.1,1.1,0,0,.1,0,.2,0,.1,0,.3,0,.3-.2,0-.2,0-.4-.2-.5-.7-.4-1.4-.7-2.1-1.1-.2,0-.4,0-.5.2,0,.2,0,.4.2.5ZM180.9,42.1c0,.1.2.2.3.2s.1,0,.2,0c.7-.4,1.3-.8,2-1.1.2-.1.3-.3.2-.5-.1-.2-.3-.3-.5-.2-.7.4-1.4.8-2,1.1-.2.1-.2.3-.1.5ZM315.4,40.3c.7.3,1.4.7,2.1,1,0,0,.1,0,.2,0,.1,0,.3,0,.3-.2,0-.2,0-.4-.2-.5-.7-.3-1.4-.7-2.1-1-.2,0-.4,0-.5.2,0,.2,0,.4.2.5ZM185,39.8c0,.1.2.2.3.2s.1,0,.2,0c.7-.4,1.4-.7,2.1-1.1.2,0,.3-.3.2-.5,0-.2-.3-.3-.5-.2-.7.3-1.4.7-2.1,1.1-.2,0-.3.3-.2.5ZM311.2,38.4c.7.3,1.4.6,2.1.9,0,0,.1,0,.2,0,.1,0,.3,0,.4-.2,0-.2,0-.4-.2-.5-.7-.3-1.4-.6-2.1-.9-.2,0-.4,0-.5.2,0,.2,0,.4.2.5ZM189.1,37.7c0,.1.2.2.3.2s.1,0,.2,0c.7-.3,1.4-.7,2.1-1,.2,0,.3-.3.2-.5,0-.2-.3-.3-.5-.2-.7.3-1.4.6-2.1,1-.2,0-.3.3-.2.5ZM306.9,36.7c.7.3,1.4.6,2.2.8,0,0,0,0,.1,0,.2,0,.3,0,.4-.2,0-.2,0-.4-.2-.5-.7-.3-1.4-.6-2.2-.9-.2,0-.4,0-.5.2,0,.2,0,.4.2.5ZM193.4,35.8c0,.1.2.2.4.2s.1,0,.2,0c.7-.3,1.4-.6,2.1-.9.2,0,.3-.3.2-.5,0-.2-.3-.3-.5-.2-.7.3-1.4.6-2.1.9-.2,0-.3.3-.2.5ZM302.6,35.1c.7.3,1.5.5,2.2.8,0,0,0,0,.1,0,.2,0,.3,0,.4-.3,0-.2,0-.4-.2-.5-.7-.3-1.5-.5-2.2-.8-.2,0-.4,0-.5.2,0,.2,0,.4.2.5ZM298.2,33.7c.7.2,1.5.5,2.2.7,0,0,0,0,.1,0,.2,0,.3-.1.4-.3,0-.2,0-.4-.2-.5-.7-.2-1.5-.5-2.2-.7-.2,0-.4,0-.5.3,0,.2,0,.4.3.5ZM197.6,34c0,.2.2.2.4.2s0,0,.1,0c.7-.3,1.4-.5,2.2-.8.2,0,.3-.3.2-.5,0-.2-.3-.3-.5-.2-.7.3-1.5.5-2.2.8-.2,0-.3.3-.2.5ZM293.7,32.3c.7.2,1.5.4,2.2.6,0,0,0,0,.1,0,.2,0,.3-.1.4-.3,0-.2,0-.4-.3-.5-.7-.2-1.5-.4-2.2-.6-.2,0-.4,0-.5.3,0,.2,0,.4.3.5ZM202,32.5c0,.2.2.3.4.3s0,0,.1,0c.7-.2,1.5-.5,2.2-.7.2,0,.3-.3.3-.5,0-.2-.3-.3-.5-.3-.7.2-1.5.5-2.2.7-.2,0-.3.3-.2.5ZM289.3,31.2c.7.2,1.5.4,2.2.6,0,0,0,0,0,0,.2,0,.3-.1.4-.3,0-.2,0-.4-.3-.5-.7-.2-1.5-.4-2.3-.6-.2,0-.4,0-.5.3,0,.2,0,.4.3.5ZM206.4,31c0,.2.2.3.4.3s0,0,.1,0c.7-.2,1.5-.4,2.2-.6.2,0,.3-.3.3-.5,0-.2-.3-.3-.5-.3-.7.2-1.5.4-2.2.6-.2,0-.3.3-.3.5ZM284.8,30.2c.4,0,.7.2,1.1.2.4,0,.8.2,1.2.3,0,0,0,0,0,0,.2,0,.3-.1.4-.3,0-.2,0-.4-.3-.5-.4,0-.8-.2-1.2-.3-.4,0-.7-.2-1.1-.2-.2,0-.4,0-.5.3,0,.2,0,.4.3.5ZM210.9,29.8c0,.2.2.3.4.3s0,0,0,0c.7-.2,1.5-.4,2.2-.6.2,0,.3-.3.3-.5,0-.2-.3-.3-.5-.3-.8.2-1.5.4-2.3.6-.2,0-.3.3-.3.5ZM280.2,29.2c.8.1,1.5.3,2.3.4,0,0,0,0,0,0,.2,0,.3-.1.4-.3,0-.2,0-.4-.3-.5-.8-.2-1.5-.3-2.3-.5-.2,0-.4,0-.5.3,0,.2,0,.4.3.5ZM215.4,28.7c0,.2.2.3.4.3s0,0,0,0c.7-.2,1.5-.3,2.3-.5.2,0,.3-.2.3-.5,0-.2-.2-.3-.5-.3-.8.2-1.5.3-2.3.5-.2,0-.3.3-.3.5ZM275.7,28.4c.8.1,1.5.3,2.3.4,0,0,0,0,0,0,.2,0,.3-.1.4-.3,0-.2-.1-.4-.3-.5-.8-.1-1.5-.3-2.3-.4-.2,0-.4.1-.4.3,0,.2.1.4.3.4ZM219.9,27.8c0,.2.2.3.4.3s0,0,0,0c.8-.1,1.5-.3,2.3-.4.2,0,.4-.2.3-.4,0-.2-.2-.4-.4-.3-.8.1-1.5.3-2.3.4-.2,0-.3.2-.3.5ZM271.1,27.7c.8.1,1.5.2,2.3.3,0,0,0,0,0,0,.2,0,.4-.1.4-.3,0-.2-.1-.4-.3-.4-.8-.1-1.5-.2-2.3-.3-.2,0-.4.1-.4.3,0,.2.1.4.3.4ZM266.5,27.1c.8,0,1.5.2,2.3.3,0,0,0,0,0,0,.2,0,.4-.1.4-.3,0-.2-.1-.4-.3-.4-.8-.1-1.5-.2-2.3-.3-.2,0-.4.1-.4.3,0,.2.1.4.3.4ZM224.5,27c0,.2.2.3.4.3s0,0,0,0c.8-.1,1.5-.2,2.3-.3.2,0,.4-.2.3-.4,0-.2-.2-.4-.4-.3-.8,0-1.5.2-2.3.3-.2,0-.4.2-.3.4ZM261.5,26.2c0,.2.1.4.3.4.8,0,1.5.2,2.3.2,0,0,0,0,0,0,.2,0,.4-.1.4-.3,0-.2-.1-.4-.3-.4-.8,0-1.5-.2-2.3-.2-.2,0-.4.1-.4.3ZM229.1,26.4c0,.2.2.3.4.3s0,0,0,0c.8,0,1.5-.2,2.3-.2.2,0,.4-.2.3-.4,0-.2-.2-.4-.4-.3-.8,0-1.5.2-2.3.2-.2,0-.4.2-.3.4ZM256.9,25.8c0,.2.1.4.4.4.8,0,1.5.1,2.3.2h0c.2,0,.4-.2.4-.4,0-.2-.1-.4-.4-.4-.8,0-1.6-.1-2.3-.2-.2,0-.4.1-.4.4ZM233.7,25.9c0,.2.2.4.4.4s0,0,0,0c.8,0,1.5-.1,2.3-.2.2,0,.4-.2.4-.4,0-.2-.2-.4-.4-.4-.8,0-1.6.1-2.3.2-.2,0-.4.2-.4.4ZM252.3,25.6c0,.2.2.4.4.4.8,0,1.5,0,2.3.1,0,0,0,0,0,0,.2,0,.4-.2.4-.4,0-.2-.2-.4-.4-.4-.8,0-1.6,0-2.3-.1-.2,0-.4.2-.4.4ZM238.4,25.6c0,.2.2.4.4.4h0c.8,0,1.5,0,2.3,0,.2,0,.4-.2.4-.4,0-.2-.2-.4-.4-.4-.8,0-1.6,0-2.3,0-.2,0-.4.2-.4.4ZM247.6,25.4c0,.2.2.4.4.4.8,0,1.5,0,2.3,0h0c.2,0,.4-.2.4-.4,0-.2-.2-.4-.4-.4-.8,0-1.6,0-2.3,0h0c-.2,0-.4.2-.4.4ZM243,25.5c0,.2.2.4.4.4h0c.8,0,1.5,0,2.3,0,.2,0,.4-.2.4-.4s-.2-.4-.4-.4h0c-.8,0-1.6,0-2.3,0-.2,0-.4.2-.4.4Z" fill="#ff5050"/>
      </g>
    </g>
  </g>
</svg>