<svg xmlns="http://www.w3.org/2000/svg" width="46.132" height="46.131" viewBox="0 0 46.132 46.131">
  <g id="vendor" transform="translate(0 -0.009)">
    <path id="Path_129626" data-name="Path 129626" d="M46.132,35.238a1.352,1.352,0,0,0-1.351-1.351H43.338V10.048a4.061,4.061,0,0,0,2.7-3.822V1.36A1.352,1.352,0,0,0,44.69.009H1.442A1.352,1.352,0,0,0,.091,1.36V6.226a4.061,4.061,0,0,0,2.7,3.822V33.886H1.352a1.351,1.351,0,0,0-.36,2.653v8.249a1.351,1.351,0,0,0,2.7,0v-8.2H42.708v8.2a1.351,1.351,0,0,0,2.7,0V36.433A1.351,1.351,0,0,0,46.132,35.238ZM43.338,6.226a1.351,1.351,0,0,1-2.7,0V2.712h2.7Zm-5.406,0a1.351,1.351,0,0,1-2.7,0V2.712h2.7ZM29.824,2.712h2.7V6.228a1.351,1.351,0,0,1-2.7,0Zm-2.7,3.514a1.351,1.351,0,0,1-2.7,0h0V2.712h2.7ZM19.012,2.712h2.7V6.226h0a1.351,1.351,0,0,1-2.7,0Zm-2.7,3.514a1.351,1.351,0,0,1-2.7,0h0V2.712h2.7ZM8.2,2.712h2.7V6.226h0a1.351,1.351,0,0,1-2.7,0Zm-5.406,0H5.5V6.226a1.351,1.351,0,0,1-2.7,0Zm2.7,7.336a4.057,4.057,0,0,0,1.351-.8,4.045,4.045,0,0,0,5.406,0,4.045,4.045,0,0,0,5.406,0,4.045,4.045,0,0,0,5.406,0,4.045,4.045,0,0,0,5.406,0,4.045,4.045,0,0,0,5.406,0,4.045,4.045,0,0,0,5.406,0,4.058,4.058,0,0,0,1.351.8V33.886h-7.3V28.751a6.225,6.225,0,0,0-5.493-6.173,6.127,6.127,0,1,0-9.558,0,6.225,6.225,0,0,0-5.493,6.173v5.136H5.5V10.048Zm14.146,8.7a3.424,3.424,0,1,1,3.424,3.424A3.428,3.428,0,0,1,19.642,18.75Zm.811,6.487h5.226V28.48H20.453ZM19.1,31.183H27.03a1.352,1.352,0,0,0,1.351-1.351v-4.36a3.519,3.519,0,0,1,2.252,3.279v5.136H15.5V28.751a3.519,3.519,0,0,1,2.252-3.279v4.36A1.352,1.352,0,0,0,19.1,31.183Z"/>
    <path id="Path_129627" data-name="Path 129627" d="M118.839,438.718a1.353,1.353,0,0,1-1.351-1.351,1.352,1.352,0,0,0-1.351-1.352H94.061a1.352,1.352,0,0,0-1.351,1.352,1.353,1.353,0,0,1-1.351,1.351,1.352,1.352,0,0,0-1.351,1.352v1.441a1.351,1.351,0,0,0,2.7,0v-.321a4.075,4.075,0,0,0,2.471-2.471h19.834a4.075,4.075,0,0,0,2.471,2.471v.321a1.351,1.351,0,0,0,2.7,0v-1.441A1.351,1.351,0,0,0,118.839,438.718Z" transform="translate(-81.897 -396.722)"/>
  </g>
</svg>
