<?xml version="1.0" encoding="utf-8"?>
<!-- Generator: Adobe Illustrator 28.6.0, SVG Export Plug-In . SVG Version: 9.03 Build 54939)  -->
<svg version="1.1" id="Layer_1" xmlns="http://www.w3.org/2000/svg" xmlns:xlink="http://www.w3.org/1999/xlink" x="0px" y="0px"
	 viewBox="0 0 500 500" enable-background="new 0 0 500 500" xml:space="preserve">
<g>
	<g>
		<g>
			<path d="M182.06,206.35H158.2v5.77c0.1,0,0.19,0.05,0.29,0.15c0.09,0.1,0.18,0.14,0.25,0.14c-0.19,0-0.3-0.01-0.32-0.03
				c0-0.12,1.78-0.5,5.34-1.15c1.31-0.24,2.61-0.36,3.91-0.36c5.37,0,8.82,1.51,10.35,4.51c1.03,2.01,1.54,6.05,1.54,12.14v13.79
				c-0.5-0.19-2.4-0.97-5.7-2.33c0-0.76-0.16-1.25-0.47-1.47c-1.27,0.74-2.31,1.3-3.12,1.68c-2.58,1.22-5.58,1.83-8.99,1.83
				c-4.71,0-8.34-1.48-10.89-4.44c-1.24-1.43-1.86-3.03-1.86-4.8c0-1.98,0.98-3.95,2.94-5.91c3.8-3.8,8.51-5.7,14.15-5.7
				c3.42,0,6.16,0.79,8.24,2.37v-3.3c-1.05-1.34-2.07-2.23-3.06-2.69c-0.99-0.45-2.35-0.66-4.07-0.61
				c-3.85,0.07-7.37,0.78-10.57,2.11c-1.43,0.6-2.83,1.13-4.19,1.61v-2.66c0.31-0.26,0.76-0.66,1.36-1.19
				c0.1-0.12,0.16-0.19,0.18-0.22v-9.27h-7.34v-4.3h35.9V206.35z M173.86,229.06c0-1.05-1.25-1.99-3.76-2.83
				c-2.08-0.69-3.81-1.04-5.19-1.04c-5.04,0-9.08,1.82-12.11,5.44c-1.22,1.46-1.83,2.65-1.83,3.58c0.5,1.74,2.47,2.62,5.91,2.62
				c4.44,0,8.5-1.11,12.18-3.33C172.26,231.57,173.86,230.09,173.86,229.06z"/>
			<path d="M216.92,206.35h-23.86v5.77c0.1,0,0.19,0.05,0.29,0.15c0.09,0.1,0.18,0.14,0.25,0.14c-0.19,0-0.3-0.01-0.32-0.03
				c0-0.12,1.78-0.5,5.34-1.15c1.31-0.24,2.61-0.36,3.91-0.36c5.37,0,8.82,1.51,10.35,4.51c1.03,2.01,1.54,6.05,1.54,12.14v13.79
				c-0.5-0.19-2.4-0.97-5.7-2.33c0-0.76-0.16-1.25-0.47-1.47c-1.27,0.74-2.31,1.3-3.12,1.68c-2.58,1.22-5.58,1.83-8.99,1.83
				c-4.71,0-8.34-1.48-10.89-4.44c-1.24-1.43-1.86-3.03-1.86-4.8c0-1.98,0.98-3.95,2.94-5.91c3.8-3.8,8.51-5.7,14.15-5.7
				c3.42,0,6.16,0.79,8.24,2.37v-3.3c-1.05-1.34-2.07-2.23-3.06-2.69c-0.99-0.45-2.35-0.66-4.07-0.61
				c-3.85,0.07-7.37,0.78-10.57,2.11c-1.43,0.6-2.83,1.13-4.19,1.61v-2.66c0.31-0.26,0.76-0.66,1.36-1.19
				c0.1-0.12,0.16-0.19,0.18-0.22v-9.27h-7.34v-4.3h35.9V206.35z M208.71,229.06c0-1.05-1.25-1.99-3.76-2.83
				c-2.08-0.69-3.81-1.04-5.19-1.04c-5.04,0-9.08,1.82-12.11,5.44c-1.22,1.46-1.83,2.65-1.83,3.58c0.5,1.74,2.47,2.62,5.91,2.62
				c4.44,0,8.5-1.11,12.18-3.33C207.11,231.57,208.71,230.09,208.71,229.06z"/>
			<path d="M271.37,206.35h-11.75v5.02c3.25,1.2,5.59,2.76,7.02,4.7c1.48,2.01,2.22,4.72,2.22,8.14c0,4.93-1.97,9.16-5.91,12.69
				c-0.74,0.67-1.88,1.54-3.4,2.62c-1.89,1.34-3.08,2.01-3.58,2.01c-0.5,0-2.81-2.1-6.91-6.31c2.53-0.14,5.17-0.96,7.92-2.44
				c2.6-1.39,4.81-3.09,6.63-5.09c1.96-2.15,2.94-4.44,2.94-6.85c0-2.39-1.33-4.05-3.98-4.99c-1.29-0.45-2.57-0.66-3.83-0.61
				c-7.74,0.31-12.48,4.83-14.22,13.54l-7.34-3.01c0-2.01,0.78-4.25,2.33-6.73c0.57-0.91,0.87-1.42,0.89-1.54
				c0-1.12-1.61-1.68-4.84-1.68c-4.13,0-7.34,1.81-9.64,5.44c-1,1.6-1.5,3.2-1.5,4.8c0,3.34,1.54,6.51,4.62,9.49l6.81,6.59
				c-4.15-1.43-8.01-3.51-11.57-6.23c-4.75-3.63-7.13-7.52-7.13-11.68c0-5.25,2.65-9.17,7.95-11.75c2.32-1.12,4.7-1.68,7.16-1.68
				c3.15,0,6.31,0.94,9.46,2.83c1.19,0.72,1.89,1.1,2.08,1.15c1.81-0.79,3.81-1.64,5.98-2.55c1.15-0.48,2.3-0.8,3.48-0.97v-4.89
				h-37.19v-4.3h55.31V206.35z"/>
			<path d="M308.81,206.35h-7.49v10.04c1.58,1.46,2.53,2.41,2.87,2.84c0.6,0.77,1.21,1.96,1.83,3.56h-4.69
				c0-2.6-0.74-4.63-2.21-6.09c-1.47-1.46-3.52-2.19-6.13-2.19c-2.73,0-5.28,0.75-7.65,2.25c-2.28,1.43-4.11,3.36-5.5,5.79
				c-1.32,2.31-1.98,4.55-1.98,6.72c0,2.55,0.92,4.49,2.76,5.83c1.62,1.19,3.76,1.79,6.41,1.79c4.42,0,7.5-1.22,9.24-3.65h7.63
				c-0.64,2.58-3.02,4.75-7.13,6.52c-1.84,0.79-3.55,1.18-5.12,1.18c-3.08,0-6.19-0.87-9.31-2.62c-2.99-1.65-5.45-3.77-7.38-6.36
				c-1.93-2.59-2.9-5.15-2.9-7.68c0-1.91,0.85-4.07,2.54-6.49c3.56-5.06,7.89-7.59,13-7.59c3.37,0,6.03,0.7,7.99,2.11v-5.98H270.3
				v-4.3h38.51V206.35z"/>
			<path d="M347.64,206.35h-28.91v10.82c2.6-2.84,5.02-4.67,7.24-5.48c1.24-0.45,2.64-0.68,4.19-0.68c5.83,0,10.19,2.87,13.08,8.6
				c1.27,2.51,1.9,4.98,1.9,7.41c0,4.44-1.83,8.46-5.48,12.04c-1.22,1.2-2.13,2.02-2.72,2.47l-5.88-3.51
				c1.48-1.55,3.16-3.46,5.05-5.73c2.13-2.55,3.2-5.78,3.22-9.67c0.02-2.32-0.5-4.25-1.58-5.8c-1.22-1.81-2.94-2.7-5.16-2.65
				c-2.05,0.05-4.25,0.83-6.59,2.33c-2.1,1.34-3.85,2.94-5.23,4.8c-1.5,2.01-2.26,3.94-2.26,5.8v14.22l-6.7-3.59v-31.38h-3.94v-4.3
				h3.94c0-7.01-1.83-13-5.48-17.96c-2.2-2.98-4.23-5.08-6.09-6.29l7.24-0.07c4.01,2.19,7.2,6.93,9.57,14.2
				c1.12,3.46,1.68,6.83,1.68,10.12h28.91V206.35z"/>
			<path d="M359.35,198.32c-0.1,0.1-0.37,0.14-0.82,0.14c-0.38,0-0.72-0.05-1-0.14l-2.33-4.76c-0.96-1.5-2.25-2.53-3.89-3.06
				c-1.64-0.54-2.65-1.13-3.03-1.77c-0.36-1.1-1.05-2.78-2.08-5.05v-0.82h1.4c1.84,0.57,3.33,1.11,4.48,1.61
				c1.89,0.84,3.15,1.8,3.8,2.9c0.36,0.6,0.91,2.13,1.65,4.59c0.69,2.32,1.28,3.93,1.76,4.84
				C359.33,197.21,359.35,197.73,359.35,198.32z M361.47,206.35h-14.58v-4.3h14.58V206.35z M357.38,241.78l-6.02-3.33v-27.66h6.02
				V241.78z"/>
		</g>
		<g>
			<path fill="#F4E349" d="M262.81,159.79c-0.11,0.87-0.45,1.77-0.26,2.53c0.21,0.81,0.93,1.49,1.43,2.23
				c0.41-0.72,1.03-1.4,1.18-2.17c0.14-0.7-0.23-1.5-0.52-3.01c9.13,0.39,17.94,0.77,26.92,1.16c-0.15,1.59-0.27,2.82-0.41,4.28
				c1.05,0,1.87,0,2.93,0c-0.09-1.3-0.17-2.43-0.29-4.04c4.93,0.54,9.73,1.02,14.51,1.62c2.45,0.31,4.9,0.77,7.31,1.31
				c0.99,0.22,1.89,0.84,2.83,1.28c-0.56,0.85-1.11,1.7-1.83,2.79c7.43,10.28,15.01,20.76,22.73,31.44
				c-2.46,0.71-4.27,0.81-5.89-1.63c-5.36-8.09-11.07-15.94-16.34-24.08c-2.55-3.93-6.01-5.62-10.38-5.84
				c-9.5-0.48-19.01-0.82-28.52-1.23c-2.86-0.12-5.72-0.28-9.19-0.45c0.32,11.02,0.63,21.84,0.96,32.94c-2.64,0-5.13,0-8.15,0
				c0.34-10.88,0.68-21.71,1.02-32.77c-0.92-0.04-1.68-0.12-2.43-0.11c-11.4,0.27-22.79,0.5-34.19,0.84
				c-8.28,0.25-14.02,3.82-16.63,12.15c-1.83,5.84-4.49,11.42-6.62,17.17c-0.69,1.86-1.56,2.67-3.64,2.59
				c-4.33-0.16-8.67-0.05-13.64-0.05c2.25-3.46,4.2-6.49,6.19-9.5c2.35-3.55,4.78-7.05,7.07-10.63c3.18-4.96,2.55-7.02-2.71-9.42
				c-1.17-0.54-2.3-1.16-3.42-1.79c-0.21-0.12-0.29-0.48-0.67-1.15c14.09-4.13,28.39-5.45,43.23-6.4c-0.18,1.32-0.54,2.35-0.39,3.31
				c0.11,0.72,0.88,1.34,1.36,2.01c0.44-0.61,1.16-1.17,1.27-1.83c0.16-1.01-0.11-2.08-0.23-3.54
				C245.99,159.79,254.25,159.79,262.81,159.79z"/>
			<path d="M278.98,204.18c-5.66,1.92-10.19,2.04-12.37,0.35C268.6,202.17,275.48,201.98,278.98,204.18z"/>
			<path d="M212.72,204.42c-4.48,0.36-8.38,1.73-12.68,0.52C202.02,202.58,208.91,202.29,212.72,204.42z"/>
			<path fill="none" stroke="#000000" stroke-width="0.6551" stroke-miterlimit="10" d="M313.65,153.4h-94.08
				c-0.9,0-1.63-0.73-1.63-1.63v-3.22c0-0.9,0.73-1.63,1.63-1.63h94.08c0.9,0,1.63,0.73,1.63,1.63v3.22
				C315.28,152.67,314.55,153.4,313.65,153.4z"/>
			<rect x="221.35" y="147.08" width="1.37" height="6.17"/>
			<rect x="242.84" y="147.08" width="1.37" height="6.17"/>
			<rect x="262.95" y="147.08" width="1.37" height="6.17"/>
			<rect x="284.44" y="147.08" width="1.37" height="6.17"/>
			<rect x="306.62" y="147.08" width="1.37" height="6.17"/>
			<polygon points="262.95,153.25 262.81,159.79 262.56,162.32 263.98,164.54 265.17,162.37 264.64,159.36 264.33,153.25 			"/>
			<polygon points="237.42,159.79 237.66,163.33 236.39,165.16 235.03,163.15 235.42,159.84 235.03,153.25 237.66,153.4 			"/>
			<polygon points="291.56,160.52 291.15,164.8 294.09,164.8 293.8,160.76 294.09,153.25 291.15,153.4 			"/>
		</g>
		<g>
			<path fill="#DB4B03" d="M333.92,257.07h-9.34v14.87c0,0.42,0.13,0.83,0.41,1.22c0.28,0.43,0.63,0.65,1.03,0.65
				c1.83,0,2.75-1.9,2.75-5.68l3.71,2.12c-1.42,3.14-3.61,4.7-6.57,4.69c-1.72-0.01-3.06-0.8-4.02-2.37
				c-0.42-0.68-0.63-1.35-0.63-2.03v-13.47h-3.86v-2.21h3.86v-6.18l3.32,2.3v3.88h9.34V257.07z"/>
			<path fill="#DB4B03" d="M354.25,257.07h-15.45v11.84c0,0.79,0.17,1.6,0.5,2.44c0.68,1.71,1.8,2.57,3.36,2.57
				c2.1,0,3.7-0.88,4.8-2.64c0.85-1.35,1.27-2.63,1.27-3.82v-7.35h3.75v15.72c-0.29-0.17-0.84-0.44-1.64-0.79l-2.1-0.94v-1.48
				c-1.46,1.06-2.7,1.73-3.74,2.01c-0.63,0.17-1.38,0.26-2.24,0.26c-2.74,0-4.88-1.2-6.42-3.6c-0.7-1.09-1.05-2.29-1.05-3.58v-10.64
				h-2.23v-2.21h21.2V257.07z"/>
			<path fill="#DB4B03" d="M382.12,257.07h-6.05v2.59c1.67,0.62,2.88,1.42,3.62,2.42c0.76,1.03,1.14,2.43,1.14,4.19
				c0,2.54-1.01,4.72-3.04,6.54c-0.38,0.35-0.97,0.79-1.75,1.35c-0.97,0.69-1.59,1.03-1.85,1.03c-0.26,0-1.45-1.08-3.56-3.25
				c1.3-0.07,2.66-0.49,4.08-1.26c1.34-0.71,2.48-1.59,3.41-2.62c1.01-1.11,1.51-2.28,1.51-3.53c0-1.23-0.68-2.09-2.05-2.57
				c-0.66-0.23-1.32-0.34-1.97-0.31c-3.99,0.16-6.43,2.49-7.33,6.98l-3.78-1.55c0-1.03,0.4-2.19,1.2-3.47
				c0.29-0.47,0.45-0.73,0.46-0.79c0-0.58-0.83-0.87-2.49-0.87c-2.13,0-3.78,0.94-4.96,2.81c-0.52,0.82-0.77,1.65-0.77,2.47
				c0,1.72,0.79,3.35,2.38,4.89l3.51,3.39c-2.14-0.74-4.13-1.81-5.96-3.21c-2.45-1.87-3.67-3.87-3.67-6.02
				c0-2.71,1.37-4.72,4.1-6.05c1.19-0.58,2.42-0.87,3.69-0.87c1.62,0,3.25,0.49,4.87,1.46c0.61,0.37,0.97,0.57,1.07,0.59
				c0.93-0.41,1.96-0.85,3.08-1.32c0.59-0.25,1.19-0.41,1.79-0.5v-2.52h-19.15v-2.21h28.49V257.07z"/>
			<path fill="#DB4B03" d="M401.29,257.07h-3.86v5.17c0.81,0.75,1.3,1.24,1.48,1.46c0.31,0.4,0.62,1.01,0.94,1.84h-2.42
				c0-1.34-0.38-2.39-1.14-3.14c-0.76-0.75-1.81-1.13-3.16-1.13c-1.41,0-2.72,0.39-3.94,1.16c-1.17,0.74-2.12,1.73-2.83,2.98
				c-0.68,1.19-1.02,2.35-1.02,3.47c0,1.31,0.47,2.31,1.42,3c0.84,0.61,1.94,0.92,3.3,0.92c2.28,0,3.86-0.63,4.76-1.88h3.93
				c-0.33,1.33-1.56,2.45-3.67,3.36c-0.95,0.41-1.83,0.61-2.64,0.61c-1.59,0-3.19-0.45-4.8-1.35c-1.54-0.85-2.8-1.94-3.8-3.28
				c-1-1.33-1.5-2.65-1.5-3.96c0-0.98,0.44-2.1,1.31-3.34c1.83-2.61,4.07-3.91,6.7-3.91c1.73,0,3.11,0.36,4.12,1.09v-3.08h-13.03
				v-2.21h19.84V257.07z"/>
			<path fill="#DB4B03" d="M421.18,257.07h-14.89v5.57c1.34-1.46,2.58-2.41,3.73-2.82c0.64-0.23,1.36-0.35,2.16-0.35
				c3,0,5.25,1.48,6.74,4.43c0.65,1.29,0.98,2.57,0.98,3.82c0,2.29-0.94,4.35-2.82,6.2c-0.63,0.62-1.1,1.04-1.4,1.27l-3.03-1.81
				c0.76-0.8,1.63-1.78,2.6-2.95c1.1-1.32,1.65-2.98,1.66-4.98c0.01-1.19-0.26-2.19-0.81-2.99c-0.63-0.93-1.51-1.39-2.66-1.37
				c-1.06,0.02-2.19,0.42-3.4,1.2c-1.08,0.69-1.98,1.51-2.69,2.47c-0.77,1.03-1.16,2.03-1.16,2.99v7.33l-3.45-1.85v-16.16h-2.03
				v-2.21h2.03c0-3.61-0.94-6.7-2.82-9.25c-1.13-1.54-2.18-2.62-3.14-3.24l3.73-0.04c2.07,1.13,3.71,3.57,4.93,7.32
				c0.58,1.78,0.87,3.52,0.87,5.21h14.89V257.07z"/>
			<path fill="#DB4B03" d="M427.1,252.94c-0.05,0.05-0.19,0.07-0.42,0.07c-0.2,0-0.37-0.02-0.52-0.07l-1.2-2.45
				c-0.49-0.78-1.16-1.3-2-1.58c-0.84-0.28-1.36-0.58-1.56-0.91c-0.18-0.57-0.54-1.43-1.07-2.6v-0.42h0.72
				c0.95,0.3,1.72,0.57,2.31,0.83c0.97,0.43,1.62,0.93,1.96,1.5c0.18,0.31,0.47,1.09,0.85,2.36c0.36,1.19,0.66,2.02,0.9,2.49
				C427.09,252.37,427.1,252.63,427.1,252.94z M428.19,257.07h-7.51v-2.21h7.51V257.07z M426.08,275.32l-3.1-1.72v-14.25h3.1V275.32
				z"/>
		</g>
		<g>
			<path d="M228.51,297.7l-4.22,1.3l0,0l0.43-0.13L228.51,297.7 M208.24,295.14c0,0.02,0,0.05,0,0.07V295.14 M214.95,294.25
				l-0.77,0.24h1.02L214.95,294.25 M212.15,291.59l-1.64,0.51c-1.15,0.35-1.96,1.29-2.2,2.39h2.5c-0.05-0.08-0.09-0.17-0.12-0.27
				c-0.21-0.68,0.17-1.4,0.85-1.61l1.27-0.39L212.15,291.59 M230.55,289.44l-7.92,2.44l6.06,5.76l7.92-2.44L230.55,289.44
				 M246.92,284.39l-8.68,2.68l6.06,5.76l-2.92,0.9l11.59-3.58L246.92,284.39 M262.52,279.57l-7.92,2.44l6.06,5.76l-0.97,0.3
				l8.89-2.74L262.52,279.57 M259.73,276.92l-39.89,12.3l0.66,0.63l7.92-2.44l-0.66-0.63l7.69-2.37l0.66,0.63l8.68-2.68l-0.66-0.63
				l7.69-2.37l0.66,0.63l7.92-2.44L259.73,276.92 M278.89,274.53l-8.68,2.68l6.06,5.76l8.68-2.68L278.89,274.53 M292.54,266.95
				c-0.31,0-0.63,0.05-0.95,0.14l-27.53,8.49l3.36-1.04l0.66,0.63l8.68-2.68l-0.66-0.63l7.69-2.37l0.66,0.63l7.23-2.23
				c0.13-0.04,0.25-0.06,0.38-0.06c0.55,0,1.06,0.35,1.23,0.91c0.21,0.68-0.17,1.4-0.85,1.61l-5.86,1.81l6.06,5.76l2.09-0.65
				c1.7-0.52,2.65-2.33,2.13-4.02l-1.24-4.03C295.19,267.83,293.91,266.95,292.54,266.95"/>
			
				<linearGradient id="SVGID_1_" gradientUnits="userSpaceOnUse" x1="38.5642" y1="122.346" x2="39.1371" y2="122.346" gradientTransform="matrix(15.3787 49.8574 49.8574 -15.3787 -6478.8657 232.7807)">
				<stop  offset="0" style="stop-color:#929497"/>
				<stop  offset="1" style="stop-color:#FFFFFF"/>
			</linearGradient>
			<path fill="url(#SVGID_1_)" d="M222.63,291.88l-7.69,2.37l0.25,0.24h5.72l2.97,3.91l-0.03,0.01l0.44,0.59l4.22-1.3l0.18-0.05
				L222.63,291.88 M219.84,289.22l-7.69,2.37l0.66,0.63l7.69-2.37L219.84,289.22"/>
			
				<linearGradient id="SVGID_00000150824992623396578680000016944984248290958221_" gradientUnits="userSpaceOnUse" x1="38.5567" y1="122.1053" x2="39.1297" y2="122.1053" gradientTransform="matrix(15.3795 49.8601 49.8601 -15.3795 -6451.3535 225.1186)">
				<stop  offset="0" style="stop-color:#929497"/>
				<stop  offset="1" style="stop-color:#FFFFFF"/>
			</linearGradient>
			<path fill="url(#SVGID_00000150824992623396578680000016944984248290958221_)" d="M238.24,287.06l-7.69,2.37l6.06,5.76l0,0
				l4.77-1.47l2.92-0.9L238.24,287.06 M235.45,284.41l-7.69,2.37l0.66,0.63l7.69-2.37L235.45,284.41"/>
			
				<linearGradient id="SVGID_00000030481377322908346590000013288211642651112858_" gradientUnits="userSpaceOnUse" x1="38.5641" y1="121.8678" x2="39.137" y2="121.8678" gradientTransform="matrix(15.3787 49.8574 49.8574 -15.3787 -6423.0527 215.5717)">
				<stop  offset="0" style="stop-color:#929497"/>
				<stop  offset="1" style="stop-color:#FFFFFF"/>
			</linearGradient>
			<path fill="url(#SVGID_00000030481377322908346590000013288211642651112858_)" d="M254.61,282.02l-7.69,2.37l6.06,5.76l6.72-2.07
				l0.97-0.3L254.61,282.02 M251.81,279.36l-7.69,2.37l0.66,0.63l7.69-2.37L251.81,279.36"/>
			
				<linearGradient id="SVGID_00000067952961817828779620000006246852355834173880_" gradientUnits="userSpaceOnUse" x1="38.5568" y1="121.6277" x2="39.1297" y2="121.6277" gradientTransform="matrix(15.3795 49.8601 49.8601 -15.3795 -6395.5723 207.9096)">
				<stop  offset="0" style="stop-color:#929497"/>
				<stop  offset="1" style="stop-color:#FFFFFF"/>
			</linearGradient>
			<path fill="url(#SVGID_00000067952961817828779620000006246852355834173880_)" d="M270.21,277.2l-7.69,2.37l6.06,5.76l7.69-2.37
				l0,0L270.21,277.2 M267.42,274.55l-3.36,1.04l-4.32,1.33l0.66,0.63l7.69-2.37L267.42,274.55"/>
			
				<linearGradient id="SVGID_00000053506402665035150210000002263204213711565241_" gradientUnits="userSpaceOnUse" x1="38.5568" y1="121.3825" x2="39.1297" y2="121.3825" gradientTransform="matrix(15.3795 49.8601 49.8601 -15.3795 -6366.9785 199.0876)">
				<stop  offset="0" style="stop-color:#929497"/>
				<stop  offset="1" style="stop-color:#FFFFFF"/>
			</linearGradient>
			<path fill="url(#SVGID_00000053506402665035150210000002263204213711565241_)" d="M286.58,272.15l-7.69,2.37l6.06,5.76l0,0
				l7.69-2.37l0,0L286.58,272.15 M283.79,269.5l-7.69,2.37l0.66,0.63l7.69-2.37L283.79,269.5"/>
			<path d="M212.81,292.22l-1.27,0.39c-0.68,0.21-1.06,0.93-0.85,1.61c0.03,0.1,0.07,0.19,0.12,0.27h3.36l0.77-0.24L212.81,292.22
				 M228.42,287.41l-7.92,2.44l2.13,2.03l7.92-2.44L228.42,287.41 M244.78,282.36l-8.68,2.68l2.13,2.03l8.68-2.68L244.78,282.36
				 M260.39,277.54l-7.92,2.44l2.13,2.03l7.92-2.44L260.39,277.54 M276.76,272.5l-8.68,2.68l2.13,2.03l8.68-2.68L276.76,272.5
				 M292.06,267.84c-0.13,0-0.25,0.02-0.38,0.06l-7.23,2.23l2.13,2.03l5.86-1.81c0.68-0.21,1.06-0.93,0.85-1.61
				C293.11,268.19,292.6,267.84,292.06,267.84"/>
			
				<linearGradient id="SVGID_00000121999940978825380670000004827516040765565088_" gradientUnits="userSpaceOnUse" x1="38.5642" y1="122.3111" x2="39.1371" y2="122.3111" gradientTransform="matrix(15.3787 49.8574 49.8574 -15.3787 -6478.8657 232.7807)">
				<stop  offset="0" style="stop-color:#95979A"/>
				<stop  offset="1" style="stop-color:#FFFFFF"/>
			</linearGradient>
			<polyline fill="url(#SVGID_00000121999940978825380670000004827516040765565088_)" points="220.5,289.85 212.81,292.22 
				214.95,294.25 222.63,291.88 220.5,289.85 			"/>
			
				<linearGradient id="SVGID_00000016796475078496909340000005242974908055357855_" gradientUnits="userSpaceOnUse" x1="38.5567" y1="122.0703" x2="39.1297" y2="122.0703" gradientTransform="matrix(15.3795 49.8601 49.8601 -15.3795 -6451.3535 225.1186)">
				<stop  offset="0" style="stop-color:#95979A"/>
				<stop  offset="1" style="stop-color:#FFFFFF"/>
			</linearGradient>
			<polyline fill="url(#SVGID_00000016796475078496909340000005242974908055357855_)" points="236.11,285.03 228.42,287.41 
				230.55,289.44 238.24,287.06 236.11,285.03 			"/>
			
				<linearGradient id="SVGID_00000034777051763473666060000017576040908395765438_" gradientUnits="userSpaceOnUse" x1="38.5641" y1="121.8329" x2="39.137" y2="121.8329" gradientTransform="matrix(15.3787 49.8574 49.8574 -15.3787 -6423.0527 215.5717)">
				<stop  offset="0" style="stop-color:#95979A"/>
				<stop  offset="1" style="stop-color:#FFFFFF"/>
			</linearGradient>
			<polyline fill="url(#SVGID_00000034777051763473666060000017576040908395765438_)" points="252.47,279.99 244.78,282.36 
				246.92,284.39 254.61,282.02 252.47,279.99 			"/>
			
				<linearGradient id="SVGID_00000088100461346167666020000003996712664278037897_" gradientUnits="userSpaceOnUse" x1="38.5568" y1="121.5928" x2="39.1297" y2="121.5928" gradientTransform="matrix(15.3795 49.8601 49.8601 -15.3795 -6395.5723 207.9096)">
				<stop  offset="0" style="stop-color:#95979A"/>
				<stop  offset="1" style="stop-color:#FFFFFF"/>
			</linearGradient>
			<polyline fill="url(#SVGID_00000088100461346167666020000003996712664278037897_)" points="268.08,275.17 260.39,277.54 
				262.52,279.57 270.21,277.2 268.08,275.17 			"/>
			
				<linearGradient id="SVGID_00000044877002091353075930000011776520532621063615_" gradientUnits="userSpaceOnUse" x1="38.5568" y1="121.3475" x2="39.1297" y2="121.3475" gradientTransform="matrix(15.3795 49.8601 49.8601 -15.3795 -6366.9785 199.0876)">
				<stop  offset="0" style="stop-color:#95979A"/>
				<stop  offset="1" style="stop-color:#FFFFFF"/>
			</linearGradient>
			<polyline fill="url(#SVGID_00000044877002091353075930000011776520532621063615_)" points="284.44,270.12 276.76,272.5 
				278.89,274.53 286.58,272.15 284.44,270.12 			"/>
		</g>
		<path fill="#E6326F" d="M148.09,282.14c0-0.45-0.16-0.83-0.47-1.14c-0.31-0.31-0.69-0.47-1.14-0.47h-15.7
			c-0.81,0-1.43,0.36-1.88,1.07l-20.26,31.27c-0.27,0.54-0.54,0.54-0.81,0L87.7,281.61c-0.45-0.72-1.07-1.07-1.88-1.07h-15.7
			c-0.45,0-0.83,0.16-1.14,0.47c-0.31,0.31-0.47,0.69-0.47,1.14v45.07c6.31,0.1,12.62,0.14,18.92,0.14v-13.54
			c0-0.36,0.09-0.56,0.27-0.6c0.18-0.04,0.36,0.07,0.54,0.34l8.8,13.77c7.58-0.05,15.16-0.16,22.73-0.31l8.6-13.46
			c0.18-0.27,0.36-0.4,0.54-0.4c0.18,0,0.27,0.18,0.27,0.54v13.12c6.31-0.15,12.62-0.33,18.92-0.53V282.14z"/>
		<g>
			<defs>
				<rect id="SVGID_00000132057146146198606070000013618947983735743671_" x="68.69" y="326.43" width="79.23" height="25.98"/>
			</defs>
			<clipPath id="SVGID_00000139976852771155697340000014582854203872887713_">
				<use xlink:href="#SVGID_00000132057146146198606070000013618947983735743671_"  overflow="visible"/>
			</clipPath>
			<g clip-path="url(#SVGID_00000139976852771155697340000014582854203872887713_)">
				<g>
					<g>
						<path fill="#E6326F" d="M89.64,316.92h0.77v-0.74H69.14v1.21h19.97C89.12,317.13,89.35,316.92,89.64,316.92z"/>
					</g>
					<g>
						<path fill="#E6326F" d="M127.65,317.39h19.97v-1.21h-21.26v0.74h0.77C127.41,316.92,127.65,317.13,127.65,317.39z"/>
					</g>
					<g>
						<path fill="#E6326F" d="M88.7,331.25H76.39v0.68h0.49v20.47h1.81l0,0h0.9h0.37h1.69h3.86h0.9l0,0h1.81v-20.47h0.49V331.25z
							 M77.95,338.71h1.33v1.23h-1.41C77.88,339.5,77.91,339.09,77.95,338.71z M78.19,337.49h1.09v1.06h-1.31
							C78.03,338.17,78.1,337.82,78.19,337.49z M78.66,336.28h0.62v1.06h-1.05C78.36,336.94,78.5,336.59,78.66,336.28z
							 M81.72,333.71v1.2h-1.06v-0.74C81.04,333.94,81.41,333.8,81.72,333.71z M82.55,333.54c0.01,0,0.16,0.01,0.39,0.06v1.31h-1.06
							v-1.24C82.27,333.56,82.54,333.54,82.55,333.54z M86.86,337.34h-1.33v-1.06h0.91C86.6,336.59,86.74,336.94,86.86,337.34z
							 M87.12,338.56h-1.59v-1.06h1.38C87,337.82,87.07,338.17,87.12,338.56z M81.88,337.34v-1.06h1.06v1.06H81.88z M82.94,337.49
							v1.06h-1.06v-1.06H82.94z M83.09,336.28h1.06v1.06h-1.06V336.28z M84.31,336.28h1.06v1.06h-1.06V336.28z M84.31,336.12v-1.06
							h1.06v1.06H84.31z M84.15,336.12h-1.06v-1.06h1.06V336.12z M82.94,336.12h-1.06v-1.06h1.06V336.12z M81.72,336.12h-1.06v-1.06
							h1.06V336.12z M81.72,336.28v1.06h-1.06v-1.06H81.72z M80.5,337.34h-1.06v-1.06h1.06V337.34z M80.5,337.49v1.06h-1.06v-1.06
							H80.5z M80.66,337.49h1.06v1.06h-1.06V337.49z M81.72,338.71v1.23h-1.06v-1.23H81.72z M81.88,338.71h1.06v1.23h-1.06V338.71z
							 M83.09,338.71h1.06v1.23h-1.06V338.71z M83.09,338.56v-1.06h1.06v1.06H83.09z M84.31,337.49h1.06v1.06h-1.06V337.49z
							 M85.53,336.12v-1.06h0.05c0.28,0.29,0.54,0.64,0.77,1.06H85.53z M85.37,334.9h-1.06v-0.81c0.35,0.19,0.71,0.43,1.06,0.76
							V334.9z M84.15,334.9h-1.06v-1.27c0.28,0.07,0.66,0.18,1.06,0.38V334.9z M80.5,334.9h-0.83c0.27-0.26,0.55-0.48,0.83-0.65
							V334.9z M79.52,335.06h0.99v1.06h-1.06v-0.98C79.47,335.11,79.49,335.09,79.52,335.06z M79.28,336.12h-0.54
							c0.16-0.3,0.35-0.57,0.54-0.8V336.12z M79.44,338.71h1.06v1.23h-1.06V338.71z M84.31,338.71h1.06v1.23h-1.06V338.71z
							 M85.53,338.71h1.61c0.05,0.38,0.08,0.79,0.08,1.23h-1.69V338.71z"/>
					</g>
					<g>
						<path fill="#E6326F" d="M91.64,303.81L91.64,303.81v4.91H91.5c-0.17,0-0.31,0.14-0.31,0.31c0,0.17,0.14,0.31,0.31,0.31h5.16
							c0.17,0,0.31-0.14,0.31-0.31c0-0.17-0.14-0.31-0.31-0.31h-0.14v-4.91l0,0c0.33,0,0.59-0.26,0.59-0.59
							c0-0.33-0.26-0.59-0.59-0.59l0,0v-0.4c0-1.26-2.44-4.22-2.44-4.22s-2.44,2.97-2.44,4.22v0.4l0,0c-0.33,0-0.59,0.26-0.59,0.59
							C91.05,303.54,91.32,303.81,91.64,303.81z M96.07,304.8v2.16h-0.66v-2.16c0-0.29,0.15-0.52,0.33-0.52
							C95.93,304.29,96.07,304.52,96.07,304.8z M94.6,304.8v2.16h-1.03v-2.16c0-0.29,0.23-0.52,0.52-0.52
							C94.36,304.29,94.6,304.52,94.6,304.8z M92.74,304.8v2.16h-0.66v-2.16c0-0.29,0.15-0.52,0.33-0.52
							C92.6,304.29,92.74,304.52,92.74,304.8z"/>
					</g>
					<g>
						<path fill="#E6326F" d="M150.6,326.43h-2.67v-0.36h-21.54l-0.09,0.36h-0.35l0.17-0.75h0.75c0.35,0,0.62-0.21,0.62-0.47
							s-0.28-0.47-0.62-0.47h0.94c0.34,0,0.62,0.21,0.62,0.47h20v-4.17l0.72-1.4h-1.17v-1.17h-20.85h-0.01l-0.46,1.17l-0.08,0.21
							v1.19v3.7h-0.94v-4.89l-0.05,0.12h-0.5l0.5-1.51h0.61c0.29,0,0.53-0.21,0.53-0.47c0-0.26-0.23-0.47-0.53-0.47h-0.76v-1.95
							h-0.46v-4.1l0.9-1.28l-6.66,0l0.9,1.29v4.1h-0.45v1.95h-0.77c-0.29,0-0.53,0.21-0.53,0.47c0,0.26,0.24,0.47,0.53,0.47h-1.03
							c-0.26,0-0.48-0.21-0.48-0.47c0-0.26,0.21-0.47,0.48-0.47h0.69v-1.95h0.41v-4.1l-0.4-0.64l-0.38-0.65h0.79v-0.42v-0.43h-0.13
							c-0.16,0-0.28-0.14-0.28-0.31c0-0.17,0.12-0.31,0.28-0.31h0.13v-1.33H97.66v1.33h0.13c0.15,0,0.28,0.14,0.28,0.31
							c0,0.17-0.13,0.31-0.28,0.31h-0.13v0.43v0.42h0.81l-0.4,0.65l-0.4,0.64v4.1h0.41v1.95h0.69c0.26,0,0.47,0.21,0.47,0.47
							c0,0.26-0.21,0.47-0.47,0.47h-1.03c0.29,0,0.53-0.21,0.53-0.47c0-0.26-0.24-0.47-0.53-0.47h-0.77v-1.95h-0.45v-4.1l0.9-1.29
							l-6.66,0l0.9,1.28v4.1h-0.46v1.95h-0.76c-0.29,0-0.53,0.21-0.53,0.47c0,0.26,0.23,0.47,0.53,0.47h0.61l0.5,1.51h-0.5
							l-0.05-0.12v4.89H90.2v-3.7v-1.19l-0.09-0.21l-0.46-1.17h-0.01H68.79v1.17h-1.17l0.72,1.4v4.17h20c0-0.26,0.28-0.47,0.62-0.47
							h0.78c-0.35,0-0.62,0.21-0.62,0.47s0.28,0.47,0.62,0.47h0.75l0.17,0.75h-0.35l-0.09-0.36H68.69v0.36h-2.67l0.83,1.04
							c0,0-0.06,0.66,0.7,0.85c0,0-0.32,0.73,0.45,0.94c0,0-0.13,1.11,0.7,1.11v22.04h6.42v-22.04c0.19,0,0.38,0,0.57,0v-2.9h0.75
							v2.9h-0.42v0.89h13.07v-0.89h-0.71v-2.9h0.75v2.9c0.05,0,0.09,0,0.13,0v20.95h-0.2v0.54H88.6v0.55h10.96h0.99l0,0
							c0-1.09-0.61-1.09-0.61-1.09v-10.42c0.59,0,0.61-0.44,0.61-0.96h-1.64v-1.03h0.73c0.41-9.49,8.67-10.83,8.67-10.83
							s8.26,1.34,8.67,10.83h0.73v1.03h-1.64c0,0.52,0.03,0.96,0.61,0.96v10.42c0,0-0.61,0-0.61,1.09l0,0h0.99h10.96v-0.55h-0.45
							v-0.54h-0.35v-0.55h-0.06v-20.4c0.11,0,0.22,0,0.34,0v-2.9h0.76v2.9h-0.71v0.89h13.06v-0.89h-0.42v-2.9h0.75v2.9
							c0.12,0,0.24,0,0.36,0v22.04h6.63v-22.04c0.83,0,0.7-1.11,0.7-1.11c0.77-0.21,0.45-0.94,0.45-0.94
							c0.77-0.19,0.7-0.85,0.7-0.85L150.6,326.43z M141.11,324.22h-12.26v-2.42h12.26V324.22z M100.2,316.78v-4.46h16.2v4.46H100.2z
							 M87.92,324.22H75.66v-2.42h12.26V324.22z M126.05,328.17c0,0.01,0,0.02,0,0.03C126.05,328.19,126.05,328.18,126.05,328.17z
							 M126.04,328.29c0,0.02,0,0.04,0,0.07C126.04,328.34,126.04,328.32,126.04,328.29z M126.04,328.41c0,0.03,0,0.05,0,0.07
							C126.03,328.46,126.03,328.43,126.04,328.41z M126.03,328.52c0,0.04,0,0.07-0.01,0.1
							C126.03,328.59,126.03,328.55,126.03,328.52z M126.02,328.65c0,0.03,0,0.06,0,0.08C126.02,328.71,126.02,328.68,126.02,328.65
							z M126.02,328.77c0,0.03,0,0.07-0.01,0.1C126.02,328.83,126.02,328.8,126.02,328.77z M126.01,328.88c0,0.03,0,0.05,0,0.08
							C126.01,328.94,126.01,328.91,126.01,328.88z M126.01,328.99c0,0.03,0,0.06,0,0.09C126.01,329.05,126.01,329.02,126.01,328.99
							z M126.01,329.09c0,0.03,0,0.05,0,0.07C126.01,329.14,126.01,329.11,126.01,329.09z M126.01,329.18c0,0.03,0,0.05,0,0.07
							C126.01,329.24,126.01,329.21,126.01,329.18z M125.86,327.18h-0.08l0.08-0.38V327.18z M125.66,325.67l-0.29,1.51h-0.33
							l0.26-1.51H125.66z M123.17,325.67h0.37l-0.09,1.51h-0.33L123.17,325.67z M121.95,327.18h-0.33l-0.09-1.51h0.37L121.95,327.18
							z M119.28,329.26h1.3v18.02h-1.3V329.26z M120.78,327.18h-0.33l-0.21-1.51h0.37L120.78,327.18z M120.03,327.18h-0.33
							l-0.29-1.51h0.37L120.03,327.18z M117.68,324.74h-0.79v-4.77h0.79V324.74z M115.12,324.74h-0.79v-4.77h0.79V324.74z
							 M112.55,324.74h-0.79v-4.77h0.79V324.74z M109.98,324.74h-0.79v-4.77h0.79V324.74z M107.42,324.74h-0.79v-4.77h0.79V324.74z
							 M104.85,324.74h-0.79v-4.77h0.79V324.74z M102.28,324.74h-0.79v-4.77h0.79V324.74z M99.72,324.74h-0.79v-4.77h0.79V324.74z
							 M97.33,347.28h-1.3v-18.02h1.3V347.28z M96.91,327.18h-0.33l0.26-1.51h0.37L96.91,327.18z M96.17,327.18h-0.33l0.18-1.51
							h0.37L96.17,327.18z M94.99,327.18h-0.33l0.06-1.51h0.37L94.99,327.18z M93.5,327.18h-0.33l-0.09-1.51h0.37L93.5,327.18z
							 M92.32,327.18h-0.33l-0.21-1.51h0.37L92.32,327.18z M93.43,329.26h1.3v18.02h-1.3V329.26z M93.9,325.67h0.37l-0.02,1.51
							h-0.33L93.9,325.67z M97.66,327.18h-0.01h-0.32l0.33-1.51h0.37l-0.02,0.07h0l-0.12,0.51L97.66,327.18z M118.6,325.74
							L118.6,325.74l-0.02-0.07h0.37l0.33,1.51h-0.32h-0.01l-0.23-0.94L118.6,325.74z M121.88,347.28v-18.02h1.31v18.02H121.88z
							 M122.35,325.67h0.37l-0.02,1.51h-0.33L122.35,325.67z M124.29,327.18l0.18-1.51h0.37l-0.21,1.51H124.29z M122.9,318.46h0.59
							l-0.16,1.51h-0.5L122.9,318.46z M122.22,319.97h-0.5l-0.16-1.51h0.59L122.22,319.97z M121.1,319.97h-0.5l-0.38-1.51h0.6
							L121.1,319.97z M124.46,319.97h-0.5l0.28-1.51h0.6L124.46,319.97z M119.49,318.46l0.5,1.51h-0.5l-0.6-1.51H119.49z
							 M97.72,318.46l-0.6,1.51h-0.5l0.5-1.51H97.72z M93.77,319.97h-0.5l-0.16-1.51h0.6L93.77,319.97z M94.45,318.46h0.6
							l-0.16,1.51h-0.5L94.45,318.46z M95.79,318.46h0.6l-0.38,1.51h-0.5L95.79,318.46z M92.37,318.46l0.28,1.51h-0.5l-0.38-1.51
							H92.37z M91.32,325.67l0.26,1.51h-0.33l-0.29-1.51H91.32z M90.83,327.18h-0.08v-0.38L90.83,327.18z M90.61,329.26
							c0-0.02,0-0.05,0-0.07C90.61,329.21,90.61,329.24,90.61,329.26z M90.61,329.16c0-0.02,0-0.05,0-0.07
							C90.61,329.11,90.61,329.14,90.61,329.16z M90.6,329.08c0-0.03,0-0.06,0-0.09C90.6,329.02,90.6,329.05,90.6,329.08z
							 M90.6,328.96c0-0.02,0-0.05,0-0.08C90.6,328.91,90.6,328.94,90.6,328.96z M90.6,328.86c0-0.03,0-0.06,0-0.1
							C90.59,328.8,90.6,328.83,90.6,328.86z M90.59,328.73c0-0.03,0-0.05-0.01-0.08C90.59,328.68,90.59,328.71,90.59,328.73z
							 M90.59,328.62c0-0.03,0-0.06-0.01-0.1C90.58,328.55,90.59,328.59,90.59,328.62z M90.58,328.48c0-0.02,0-0.05,0-0.07
							C90.58,328.43,90.58,328.46,90.58,328.48z M90.57,328.36c0-0.02,0-0.04,0-0.07C90.57,328.32,90.57,328.34,90.57,328.36z
							 M90.56,328.2c0-0.01,0-0.02,0-0.03C90.56,328.18,90.56,328.19,90.56,328.2z M69.34,330.37v-2.9h0.75v2.9H69.34z
							 M71.45,330.37v-2.9h0.75v2.9H71.45z M74.32,330.37h-0.76v-2.9h0.76V330.37z M77.8,330.37v-2.9h0.76v2.9H77.8z M79.91,330.37
							v-2.9h0.76v2.9H79.91z M82.03,330.37v-2.9h0.75v2.9H82.03z M84.14,330.37v-2.9h0.76v2.9H84.14z M87.01,330.37h-0.76v-2.9h0.76
							V330.37z M90.82,329.26h1.3v18.02h-1.3v-16.92V329.26z M125.79,347.28h-1.3v-18.02h1.3v1.11V347.28z M129.6,330.37v-2.9h0.76
							v2.9H129.6z M131.71,330.37v-2.9h0.76v2.9H131.71z M133.83,330.37v-2.9h0.76v2.9H133.83z M135.94,330.37v-2.9h0.76v2.9H135.94
							z M138.81,330.37h-0.76v-2.9h0.76V330.37z M142.29,330.37v-2.9h0.76v2.9H142.29z M144.4,330.37v-2.9h0.76v2.9H144.4z
							 M147.27,330.37h-0.75v-2.9h0.75V330.37z"/>
					</g>
					<g>
						<path fill="#E6326F" d="M127.91,331.93h0.49v20.47h1.82l0,0h0.9h3.86h1.69h0.37h0.9l0,0h1.81v-20.47h0.49v-0.68h-12.31V331.93
							z M129.47,338.71h1.61v1.23h-1.69C129.4,339.5,129.43,339.09,129.47,338.71z M129.71,337.49h1.38v1.06h-1.59
							C129.55,338.17,129.62,337.82,129.71,337.49z M130.18,336.28h0.91v1.06h-1.33C129.87,336.94,130.02,336.59,130.18,336.28z
							 M132.3,334.09v0.81h-1.06v-0.05C131.59,334.52,131.96,334.28,132.3,334.09z M133.52,333.63v1.27h-1.06v-0.89
							C132.86,333.81,133.24,333.7,133.52,333.63z M134.06,333.54c0.01,0,0.28,0.02,0.67,0.12v1.24h-1.06v-1.31
							C133.91,333.55,134.06,333.54,134.06,333.54z M138.38,337.34h-1.05v-1.06h0.62C138.11,336.59,138.26,336.94,138.38,337.34z
							 M138.64,338.56h-1.31v-1.06h1.09C138.51,337.82,138.58,338.17,138.64,338.56z M135.95,337.34h-1.06v-1.06h1.06V337.34z
							 M136.11,336.28h1.06v1.06h-1.06V336.28z M133.68,337.34v-1.06h1.06v1.06H133.68z M134.74,337.49v1.06h-1.06v-1.06H134.74z
							 M133.52,337.34h-1.06v-1.06h1.06V337.34z M134.89,336.12v-1.06h1.06v1.06H134.89z M134.74,336.12h-1.06v-1.06h1.06V336.12z
							 M133.52,336.12h-1.06v-1.06h1.06V336.12z M132.3,336.12h-1.06v-1.06h1.06V336.12z M132.3,336.28v1.06h-1.06v-1.06H132.3z
							 M132.3,337.49v1.06h-1.06v-1.06H132.3z M132.46,337.49h1.06v1.06h-1.06V337.49z M133.52,338.71v1.23h-1.06v-1.23H133.52z
							 M133.68,338.71h1.06v1.23h-1.06V338.71z M134.89,338.71h1.06v1.23h-1.06V338.71z M134.89,338.56v-1.06h1.06v1.06H134.89z
							 M136.11,337.49h1.06v1.06h-1.06V337.49z M137.33,336.12v-0.8c0.19,0.23,0.38,0.5,0.54,0.8H137.33z M137.17,336.12h-1.06
							v-1.06h0.99c0.03,0.03,0.05,0.06,0.08,0.08V336.12z M136.11,334.9v-0.65c0.28,0.17,0.56,0.38,0.83,0.65H136.11z M135.95,334.9
							h-1.06v-1.2c0.31,0.09,0.68,0.23,1.06,0.45V334.9z M131.03,335.06h0.05v1.06h-0.82C130.49,335.7,130.75,335.35,131.03,335.06z
							 M131.24,338.71h1.06v1.23h-1.06V338.71z M136.11,338.71h1.06v1.23h-1.06V338.71z M137.33,338.71h1.33
							c0.05,0.38,0.07,0.79,0.08,1.23h-1.41V338.71z"/>
					</g>
					<g>
						<path fill="#E6326F" d="M120.1,303.81L120.1,303.81v4.91h-0.14c-0.17,0-0.31,0.14-0.31,0.31c0,0.17,0.14,0.31,0.31,0.31h5.16
							c0.17,0,0.31-0.14,0.31-0.31c0-0.17-0.14-0.31-0.31-0.31h-0.15v-4.91l0,0c0.33,0,0.59-0.26,0.59-0.59
							c0-0.33-0.26-0.59-0.59-0.59l0,0v-0.4c0-1.26-2.44-4.22-2.44-4.22s-2.44,2.97-2.44,4.22v0.4l0,0c-0.33,0-0.59,0.26-0.59,0.59
							C119.51,303.54,119.77,303.81,120.1,303.81z M124.53,304.8v2.16h-0.66v-2.16c0-0.29,0.15-0.52,0.33-0.52
							C124.38,304.29,124.53,304.52,124.53,304.8z M123.05,304.8v2.16h-1.03v-2.16c0-0.29,0.23-0.52,0.52-0.52
							C122.82,304.29,123.05,304.52,123.05,304.8z M121.2,304.8v2.16h-0.66v-2.16c0-0.29,0.15-0.52,0.33-0.52
							C121.05,304.29,121.2,304.52,121.2,304.8z"/>
					</g>
					<g>
						<path fill="#E6326F" d="M117.11,338.95h-0.68c-0.39-8.89-8.13-10.14-8.13-10.14s-7.74,1.25-8.12,10.14H99.5v0.97h1.58
							c0.33,0,0.25-0.47,0.25-0.47c0.3,0,0.27-0.5,0.27-0.5h-0.55c0.4-7.91,7.25-9.03,7.25-9.03s6.86,1.12,7.26,9.03h-0.55
							c0,0-0.03,0.5,0.27,0.5c0,0-0.08,0.47,0.25,0.47h1.58V338.95z"/>
					</g>
				</g>
			</g>
		</g>
		<g>
			<g>
				<path fill="#FF6D00" d="M72.76,268.87L72.76,268.87v10.36h-0.31c-0.36,0-0.66,0.29-0.66,0.65c0,0.36,0.29,0.66,0.66,0.66h10.89
					c0.36,0,0.66-0.29,0.66-0.66c0-0.36-0.29-0.65-0.66-0.65h-0.3v-10.36l0,0c0.69,0,1.24-0.56,1.24-1.25
					c0-0.69-0.55-1.24-1.24-1.24l0,0v-0.84c0-2.65-5.14-8.92-5.14-8.92s-5.14,6.26-5.14,8.92v0.84l0,0c-0.69,0-1.25,0.56-1.25,1.24
					C71.51,268.31,72.07,268.87,72.76,268.87z M82.11,270.97v4.55h-1.38v-4.55c0-0.61,0.31-1.09,0.69-1.09
					C81.8,269.89,82.11,270.37,82.11,270.97z M78.99,270.97v4.55h-2.18v-4.55c0-0.61,0.49-1.09,1.09-1.09
					C78.5,269.89,78.99,270.37,78.99,270.97z M75.08,270.97v4.55h-1.38v-4.55c0-0.61,0.31-1.09,0.69-1.09
					C74.77,269.89,75.08,270.37,75.08,270.97z"/>
			</g>
		</g>
		<g>
			<g>
				<path fill="#FF6D00" d="M134.09,268.87L134.09,268.87v10.36h-0.31c-0.36,0-0.66,0.29-0.66,0.65c0,0.36,0.29,0.66,0.66,0.66
					h10.89c0.36,0,0.66-0.29,0.66-0.66c0-0.36-0.29-0.65-0.66-0.65h-0.3v-10.36l0,0c0.69,0,1.24-0.56,1.24-1.25
					c0-0.69-0.55-1.24-1.24-1.24l0,0v-0.84c0-2.65-5.14-8.92-5.14-8.92s-5.14,6.26-5.14,8.92v0.84l0,0c-0.69,0-1.25,0.56-1.25,1.24
					C132.84,268.31,133.4,268.87,134.09,268.87z M143.43,270.97v4.55h-1.38v-4.55c0-0.61,0.31-1.09,0.69-1.09
					C143.12,269.89,143.43,270.37,143.43,270.97z M140.32,270.97v4.55h-2.18v-4.55c0-0.61,0.49-1.09,1.09-1.09
					C139.83,269.89,140.32,270.37,140.32,270.97z M136.4,270.97v4.55h-1.38v-4.55c0-0.61,0.31-1.09,0.69-1.09
					C136.1,269.89,136.4,270.37,136.4,270.97z"/>
			</g>
		</g>
		<path fill="#E6326F" d="M164.44,350.57c-3.26-1.67-5.8-4.03-7.61-7.06c-1.81-3.04-2.72-6.53-2.72-10.49v-38.12
			c0-0.28,0.1-0.51,0.29-0.71c0.19-0.19,0.43-0.29,0.71-0.29h9.78c0.28,0,0.51,0.1,0.71,0.29c0.19,0.2,0.29,0.43,0.29,0.71v38.2
			c0,2.95,0.91,5.34,2.72,7.15c1.81,1.81,4.19,2.72,7.15,2.72c2.95,0,5.34-0.91,7.15-2.72c1.81-1.81,2.72-4.19,2.72-7.15v-38.2
			c0-0.28,0.1-0.51,0.29-0.71c0.19-0.19,0.43-0.29,0.71-0.29h9.78c0.28,0,0.51,0.1,0.71,0.29c0.19,0.2,0.29,0.43,0.29,0.71v38.12
			c0,3.96-0.91,7.45-2.72,10.49c-1.81,3.04-4.35,5.39-7.61,7.06c-3.26,1.67-7.04,2.51-11.33,2.51
			C171.48,353.07,167.7,352.24,164.44,350.57z"/>
		<path fill="#E6326F" d="M309.94,322.4c5.29,2.73,7.94,7.27,7.94,13.63c0,5.41-1.84,9.49-5.52,12.25s-8.5,4.14-14.46,4.14h-21.65
			c-0.28,0-0.52-0.1-0.71-0.29c-0.2-0.19-0.29-0.43-0.29-0.71v-56.51c0-0.28,0.1-0.51,0.29-0.71c0.19-0.19,0.43-0.29,0.71-0.29
			h20.98c13.21,0,19.81,5.35,19.81,16.05c0,5.57-2.37,9.56-7.11,11.95C309.6,322.06,309.6,322.23,309.94,322.4z M287.03,304.42
			v13.04c0,0.28,0.14,0.42,0.42,0.42h9.78c2.62,0,4.65-0.61,6.1-1.84c1.45-1.23,2.17-2.9,2.17-5.02c0-2.17-0.72-3.89-2.17-5.14
			c-1.45-1.25-3.48-1.88-6.1-1.88h-9.78C287.17,304.01,287.03,304.14,287.03,304.42z M303.92,340.24c1.45-1.31,2.17-3.11,2.17-5.39
			c0-2.28-0.72-4.08-2.17-5.39c-1.45-1.31-3.48-1.96-6.1-1.96h-10.37c-0.28,0-0.42,0.14-0.42,0.42v13.88c0,0.28,0.14,0.42,0.42,0.42
			h10.45C300.46,342.21,302.47,341.55,303.92,340.24z"/>
		<path fill="#E6326F" d="M364.19,351.57l-2.51-8.19c-0.11-0.22-0.25-0.33-0.42-0.33H340.7c-0.17,0-0.31,0.11-0.42,0.33l-2.42,8.19
			c-0.17,0.56-0.53,0.84-1.09,0.84h-10.62c-0.33,0-0.59-0.1-0.75-0.29c-0.17-0.19-0.2-0.49-0.08-0.88l18.06-56.51
			c0.17-0.56,0.53-0.84,1.09-0.84h13.12c0.56,0,0.92,0.28,1.09,0.84l18.06,56.51c0.05,0.11,0.08,0.25,0.08,0.42
			c0,0.5-0.31,0.75-0.92,0.75h-10.62C364.72,352.4,364.35,352.13,364.19,351.57z M343.62,333.93h14.71c0.33,0,0.45-0.17,0.33-0.5
			l-7.52-24.83c-0.06-0.22-0.14-0.32-0.25-0.29c-0.11,0.03-0.2,0.13-0.25,0.29l-7.36,24.83
			C343.23,333.76,343.34,333.93,343.62,333.93z"/>
		<path fill="#E6326F" d="M388.64,352.11c-0.2-0.19-0.29-0.43-0.29-0.71v-56.51c0-0.28,0.1-0.51,0.29-0.71
			c0.19-0.19,0.43-0.29,0.71-0.29h9.78c0.28,0,0.51,0.1,0.71,0.29c0.19,0.2,0.29,0.43,0.29,0.71v56.51c0,0.28-0.1,0.52-0.29,0.71
			c-0.2,0.2-0.43,0.29-0.71,0.29h-9.78C389.07,352.4,388.83,352.31,388.64,352.11z"/>
		<g>
			<path fill="#E6326F" d="M397.29,297.33l28.05-0.31c-0.36-0.3-0.69-0.76-1.01-1.38s-0.57-1.27-0.76-1.95
				c-0.19-0.68-0.29-1.25-0.29-1.72l3.1-0.03c0.11,0.67,0.33,1.42,0.68,2.24c0.34,0.83,0.81,1.6,1.4,2.32
				c0.59,0.72,1.3,1.25,2.14,1.59l0.03,2.76l-33.28,0.37L397.29,297.33z"/>
			<path fill="#E6326F" d="M397.1,314.13c-0.02-1.37,0.25-2.48,0.79-3.31c0.54-0.83,1.43-1.44,2.67-1.82
				c1.24-0.38,2.9-0.58,4.98-0.6l1.57-0.02l0.04,3.48l-1,0.01c-1.72,0.02-2.98,0.1-3.8,0.23c-0.82,0.13-1.35,0.39-1.59,0.75
				c-0.24,0.36-0.36,0.88-0.35,1.55c0.01,0.73,0.25,1.24,0.72,1.52c0.47,0.28,1.2,0.45,2.2,0.49c1,0.04,2.28,0.05,3.84,0.03
				l3.88-0.04c-0.27-0.31-0.51-0.74-0.71-1.29c-0.21-0.55-0.32-1.14-0.32-1.78c-0.02-1.54,0.34-2.7,1.09-3.49
				c0.74-0.79,1.86-1.33,3.35-1.61c1.49-0.29,3.34-0.45,5.55-0.47l1.1-0.01c1.49-0.02,2.84,0.03,4.07,0.14
				c1.22,0.11,2.28,0.36,3.17,0.74s1.57,0.97,2.06,1.76s0.74,1.85,0.75,3.19c0.02,1.36-0.19,2.46-0.62,3.31
				c-0.43,0.84-1.06,1.49-1.9,1.94c-0.83,0.45-1.85,0.76-3.05,0.93c-1.2,0.17-2.57,0.27-4.09,0.28l-13.99,0.16
				c-2.38,0.03-4.33-0.12-5.85-0.44c-1.52-0.32-2.64-0.92-3.38-1.8C397.5,317.07,397.12,315.8,397.1,314.13z M413.1,313.77
				c0.01,0.45,0.08,0.88,0.24,1.27c0.16,0.4,0.38,0.84,0.68,1.33l8.04-0.09c2.03-0.02,3.49-0.19,4.38-0.5
				c0.89-0.31,1.33-0.99,1.32-2.02c-0.01-0.73-0.2-1.28-0.57-1.64c-0.37-0.36-0.96-0.59-1.78-0.71c-0.81-0.11-1.9-0.16-3.25-0.14
				l-2.48,0.03c-1.63,0.02-2.92,0.08-3.88,0.19c-0.96,0.1-1.66,0.33-2.08,0.67C413.3,312.49,413.09,313.03,413.1,313.77z"/>
			<path fill="#E6326F" d="M397.27,330.91c-0.02-1.36,0.19-2.47,0.62-3.31c0.43-0.84,1.06-1.49,1.9-1.94
				c0.83-0.45,1.85-0.76,3.05-0.93c1.2-0.17,2.57-0.26,4.09-0.28l13.99-0.16c2.38-0.03,4.34,0.12,5.86,0.44
				c1.52,0.32,2.65,0.92,3.39,1.81c0.74,0.89,1.11,2.16,1.13,3.81c0.02,1.39-0.25,2.49-0.79,3.32c-0.54,0.82-1.43,1.43-2.67,1.81
				c-1.24,0.38-2.91,0.58-4.99,0.6l-1.57,0.02l-0.04-3.48l1-0.01c1.72-0.02,2.98-0.1,3.8-0.23c0.82-0.14,1.35-0.38,1.59-0.74
				c0.24-0.36,0.36-0.87,0.35-1.55c-0.01-0.72-0.25-1.22-0.72-1.52c-0.47-0.29-1.2-0.46-2.19-0.5c-0.99-0.05-2.27-0.06-3.85-0.04
				l-3.88,0.04c0.27,0.32,0.51,0.76,0.71,1.31c0.21,0.54,0.31,1.14,0.32,1.78c0.02,1.54-0.35,2.7-1.08,3.49
				c-0.74,0.79-1.86,1.33-3.34,1.61c-1.49,0.29-3.34,0.45-5.56,0.47l-1.1,0.01c-1.98,0.02-3.72-0.08-5.22-0.31
				c-1.5-0.23-2.68-0.76-3.53-1.59C397.73,334.01,397.29,332.7,397.27,330.91z M400.64,330.78c0.01,0.73,0.2,1.27,0.57,1.62
				c0.37,0.35,0.96,0.57,1.78,0.67c0.82,0.1,1.89,0.14,3.24,0.12l2.48-0.03c1.63-0.02,2.93-0.08,3.89-0.19
				c0.97-0.11,1.66-0.33,2.08-0.67c0.42-0.35,0.62-0.88,0.62-1.61c0-0.44-0.08-0.86-0.23-1.27c-0.15-0.4-0.38-0.85-0.69-1.34
				l-8.04,0.09c-1.35,0.02-2.44,0.1-3.29,0.24c-0.84,0.15-1.46,0.41-1.84,0.78C400.82,329.57,400.63,330.1,400.64,330.78z"/>
			<path fill="#E6326F" d="M397.45,347.06c-0.02-1.36,0.19-2.47,0.62-3.31c0.43-0.84,1.06-1.49,1.9-1.94
				c0.83-0.45,1.85-0.76,3.05-0.93c1.2-0.17,2.57-0.26,4.09-0.28l13.99-0.16c2.38-0.03,4.34,0.12,5.86,0.44
				c1.52,0.32,2.65,0.92,3.39,1.81c0.74,0.89,1.11,2.16,1.13,3.81c0.02,1.39-0.25,2.49-0.79,3.32c-0.54,0.82-1.43,1.43-2.68,1.81
				c-1.24,0.38-2.91,0.58-4.99,0.6l-1.57,0.02l-0.04-3.48l1-0.01c1.71-0.02,2.98-0.1,3.8-0.23s1.35-0.38,1.59-0.74
				c0.24-0.36,0.36-0.87,0.35-1.55c-0.01-0.72-0.25-1.22-0.72-1.52c-0.47-0.29-1.2-0.46-2.19-0.5c-0.99-0.05-2.27-0.06-3.85-0.04
				l-3.88,0.04c0.27,0.32,0.51,0.76,0.71,1.31c0.21,0.54,0.31,1.14,0.32,1.78c0.02,1.54-0.34,2.7-1.08,3.49
				c-0.74,0.79-1.86,1.33-3.34,1.61c-1.48,0.29-3.34,0.45-5.56,0.47l-1.1,0.01c-1.98,0.02-3.72-0.08-5.22-0.31
				c-1.5-0.23-2.68-0.76-3.53-1.59C397.91,350.16,397.47,348.85,397.45,347.06z M400.82,346.92c0.01,0.73,0.2,1.27,0.57,1.62
				c0.37,0.35,0.96,0.57,1.78,0.67c0.81,0.1,1.89,0.14,3.24,0.12l2.48-0.03c1.63-0.02,2.92-0.08,3.89-0.19
				c0.97-0.11,1.66-0.33,2.08-0.67c0.42-0.35,0.62-0.88,0.62-1.61c-0.01-0.44-0.08-0.86-0.23-1.27c-0.15-0.4-0.38-0.85-0.69-1.34
				l-8.04,0.09c-1.35,0.02-2.44,0.1-3.29,0.24c-0.84,0.15-1.46,0.41-1.85,0.78C401,345.72,400.81,346.24,400.82,346.92z"/>
		</g>
		<g>
			
				<linearGradient id="SVGID_00000016776467413335884550000002018000033216460437_" gradientUnits="userSpaceOnUse" x1="215.0897" y1="356.6808" x2="215.0897" y2="294.4457">
				<stop  offset="5.618000e-03" style="stop-color:#231F20"/>
				<stop  offset="0.0545" style="stop-color:#272425"/>
				<stop  offset="0.1108" style="stop-color:#343133"/>
				<stop  offset="0.1704" style="stop-color:#48484A"/>
				<stop  offset="0.2061" style="stop-color:#58595B"/>
				<stop  offset="0.2367" style="stop-color:#4E4E50"/>
				<stop  offset="0.286" style="stop-color:#434445"/>
				<stop  offset="0.3391" style="stop-color:#404041"/>
				<stop  offset="0.5618" style="stop-color:#404041"/>
				<stop  offset="0.6376" style="stop-color:#424244"/>
				<stop  offset="0.6839" style="stop-color:#4A4B4C"/>
				<stop  offset="0.7222" style="stop-color:#57585A"/>
				<stop  offset="0.7235" style="stop-color:#58595B"/>
				<stop  offset="0.7621" style="stop-color:#4A494B"/>
				<stop  offset="0.833" style="stop-color:#343233"/>
				<stop  offset="0.8991" style="stop-color:#272425"/>
				<stop  offset="0.9551" style="stop-color:#231F20"/>
			</linearGradient>
			<path fill="url(#SVGID_00000016776467413335884550000002018000033216460437_)" d="M207.98,294.94v56.9h14.23v-56.9H207.98z
				 M210.28,350.8c0,0.12-0.1,0.22-0.22,0.22h-1.13c-0.12,0-0.22-0.1-0.22-0.22v-0.74c0-0.12,0.1-0.22,0.22-0.22h1.13
				c0.12,0,0.22,0.1,0.22,0.22V350.8z M210.28,348.03c0,0.12-0.1,0.22-0.22,0.22h-1.13c-0.12,0-0.22-0.1-0.22-0.22v-0.74
				c0-0.12,0.1-0.22,0.22-0.22h1.13c0.12,0,0.22,0.1,0.22,0.22V348.03z M210.28,345.26c0,0.12-0.1,0.22-0.22,0.22h-1.13
				c-0.12,0-0.22-0.1-0.22-0.22v-0.74c0-0.12,0.1-0.22,0.22-0.22h1.13c0.12,0,0.22,0.1,0.22,0.22V345.26z M210.28,342.5
				c0,0.12-0.1,0.22-0.22,0.22h-1.13c-0.12,0-0.22-0.1-0.22-0.22v-0.74c0-0.12,0.1-0.22,0.22-0.22h1.13c0.12,0,0.22,0.1,0.22,0.22
				V342.5z M210.28,339.73c0,0.12-0.1,0.22-0.22,0.22h-1.13c-0.12,0-0.22-0.1-0.22-0.22v-0.74c0-0.12,0.1-0.22,0.22-0.22h1.13
				c0.12,0,0.22,0.1,0.22,0.22V339.73z M210.28,336.97c0,0.12-0.1,0.22-0.22,0.22h-1.13c-0.12,0-0.22-0.1-0.22-0.22v-0.74
				c0-0.12,0.1-0.22,0.22-0.22h1.13c0.12,0,0.22,0.1,0.22,0.22V336.97z M210.28,334.2c0,0.12-0.1,0.22-0.22,0.22h-1.13
				c-0.12,0-0.22-0.1-0.22-0.22v-0.74c0-0.12,0.1-0.22,0.22-0.22h1.13c0.12,0,0.22,0.1,0.22,0.22V334.2z M210.28,331.43
				c0,0.12-0.1,0.22-0.22,0.22h-1.13c-0.12,0-0.22-0.1-0.22-0.22v-0.74c0-0.12,0.1-0.22,0.22-0.22h1.13c0.12,0,0.22,0.1,0.22,0.22
				V331.43z M210.28,328.67c0,0.12-0.1,0.22-0.22,0.22h-1.13c-0.12,0-0.22-0.1-0.22-0.22v-0.74c0-0.12,0.1-0.22,0.22-0.22h1.13
				c0.12,0,0.22,0.1,0.22,0.22V328.67z M210.28,325.9c0,0.12-0.1,0.22-0.22,0.22h-1.13c-0.12,0-0.22-0.1-0.22-0.22v-0.74
				c0-0.12,0.1-0.22,0.22-0.22h1.13c0.12,0,0.22,0.1,0.22,0.22V325.9z M210.28,323.14c0,0.12-0.1,0.22-0.22,0.22h-1.13
				c-0.12,0-0.22-0.1-0.22-0.22v-0.74c0-0.12,0.1-0.22,0.22-0.22h1.13c0.12,0,0.22,0.1,0.22,0.22V323.14z M210.28,320.37
				c0,0.12-0.1,0.22-0.22,0.22h-1.13c-0.12,0-0.22-0.1-0.22-0.22v-0.74c0-0.12,0.1-0.22,0.22-0.22h1.13c0.12,0,0.22,0.1,0.22,0.22
				V320.37z M210.28,317.6c0,0.12-0.1,0.22-0.22,0.22h-1.13c-0.12,0-0.22-0.1-0.22-0.22v-0.74c0-0.12,0.1-0.22,0.22-0.22h1.13
				c0.12,0,0.22,0.1,0.22,0.22V317.6z M210.28,314.84c0,0.12-0.1,0.22-0.22,0.22h-1.13c-0.12,0-0.22-0.1-0.22-0.22v-0.74
				c0-0.12,0.1-0.22,0.22-0.22h1.13c0.12,0,0.22,0.1,0.22,0.22V314.84z M210.28,312.07c0,0.12-0.1,0.22-0.22,0.22h-1.13
				c-0.12,0-0.22-0.1-0.22-0.22v-0.74c0-0.12,0.1-0.22,0.22-0.22h1.13c0.12,0,0.22,0.1,0.22,0.22V312.07z M210.28,309.31
				c0,0.12-0.1,0.22-0.22,0.22h-1.13c-0.12,0-0.22-0.1-0.22-0.22v-0.74c0-0.12,0.1-0.22,0.22-0.22h1.13c0.12,0,0.22,0.1,0.22,0.22
				V309.31z M210.28,306.54c0,0.12-0.1,0.22-0.22,0.22h-1.13c-0.12,0-0.22-0.1-0.22-0.22v-0.74c0-0.12,0.1-0.22,0.22-0.22h1.13
				c0.12,0,0.22,0.1,0.22,0.22V306.54z M210.28,303.77c0,0.12-0.1,0.22-0.22,0.22h-1.13c-0.12,0-0.22-0.1-0.22-0.22v-0.74
				c0-0.12,0.1-0.22,0.22-0.22h1.13c0.12,0,0.22,0.1,0.22,0.22V303.77z M210.28,301.01c0,0.12-0.1,0.22-0.22,0.22h-1.13
				c-0.12,0-0.22-0.1-0.22-0.22v-0.74c0-0.12,0.1-0.22,0.22-0.22h1.13c0.12,0,0.22,0.1,0.22,0.22V301.01z M210.28,298.24
				c0,0.12-0.1,0.22-0.22,0.22h-1.13c-0.12,0-0.22-0.1-0.22-0.22v-0.74c0-0.12,0.1-0.22,0.22-0.22h1.13c0.12,0,0.22,0.1,0.22,0.22
				V298.24z M221.48,350.8c0,0.12-0.1,0.22-0.22,0.22h-1.13c-0.12,0-0.22-0.1-0.22-0.22v-0.74c0-0.12,0.1-0.22,0.22-0.22h1.13
				c0.12,0,0.22,0.1,0.22,0.22V350.8z M221.48,348.03c0,0.12-0.1,0.22-0.22,0.22h-1.13c-0.12,0-0.22-0.1-0.22-0.22v-0.74
				c0-0.12,0.1-0.22,0.22-0.22h1.13c0.12,0,0.22,0.1,0.22,0.22V348.03z M221.48,345.26c0,0.12-0.1,0.22-0.22,0.22h-1.13
				c-0.12,0-0.22-0.1-0.22-0.22v-0.74c0-0.12,0.1-0.22,0.22-0.22h1.13c0.12,0,0.22,0.1,0.22,0.22V345.26z M221.48,342.5
				c0,0.12-0.1,0.22-0.22,0.22h-1.13c-0.12,0-0.22-0.1-0.22-0.22v-0.74c0-0.12,0.1-0.22,0.22-0.22h1.13c0.12,0,0.22,0.1,0.22,0.22
				V342.5z M221.48,339.73c0,0.12-0.1,0.22-0.22,0.22h-1.13c-0.12,0-0.22-0.1-0.22-0.22v-0.74c0-0.12,0.1-0.22,0.22-0.22h1.13
				c0.12,0,0.22,0.1,0.22,0.22V339.73z M221.48,336.97c0,0.12-0.1,0.22-0.22,0.22h-1.13c-0.12,0-0.22-0.1-0.22-0.22v-0.74
				c0-0.12,0.1-0.22,0.22-0.22h1.13c0.12,0,0.22,0.1,0.22,0.22V336.97z M221.48,334.2c0,0.12-0.1,0.22-0.22,0.22h-1.13
				c-0.12,0-0.22-0.1-0.22-0.22v-0.74c0-0.12,0.1-0.22,0.22-0.22h1.13c0.12,0,0.22,0.1,0.22,0.22V334.2z M221.48,331.43
				c0,0.12-0.1,0.22-0.22,0.22h-1.13c-0.12,0-0.22-0.1-0.22-0.22v-0.74c0-0.12,0.1-0.22,0.22-0.22h1.13c0.12,0,0.22,0.1,0.22,0.22
				V331.43z M221.48,328.67c0,0.12-0.1,0.22-0.22,0.22h-1.13c-0.12,0-0.22-0.1-0.22-0.22v-0.74c0-0.12,0.1-0.22,0.22-0.22h1.13
				c0.12,0,0.22,0.1,0.22,0.22V328.67z M221.48,325.9c0,0.12-0.1,0.22-0.22,0.22h-1.13c-0.12,0-0.22-0.1-0.22-0.22v-0.74
				c0-0.12,0.1-0.22,0.22-0.22h1.13c0.12,0,0.22,0.1,0.22,0.22V325.9z M221.48,323.14c0,0.12-0.1,0.22-0.22,0.22h-1.13
				c-0.12,0-0.22-0.1-0.22-0.22v-0.74c0-0.12,0.1-0.22,0.22-0.22h1.13c0.12,0,0.22,0.1,0.22,0.22V323.14z M221.48,320.37
				c0,0.12-0.1,0.22-0.22,0.22h-1.13c-0.12,0-0.22-0.1-0.22-0.22v-0.74c0-0.12,0.1-0.22,0.22-0.22h1.13c0.12,0,0.22,0.1,0.22,0.22
				V320.37z M221.48,317.6c0,0.12-0.1,0.22-0.22,0.22h-1.13c-0.12,0-0.22-0.1-0.22-0.22v-0.74c0-0.12,0.1-0.22,0.22-0.22h1.13
				c0.12,0,0.22,0.1,0.22,0.22V317.6z M221.48,314.84c0,0.12-0.1,0.22-0.22,0.22h-1.13c-0.12,0-0.22-0.1-0.22-0.22v-0.74
				c0-0.12,0.1-0.22,0.22-0.22h1.13c0.12,0,0.22,0.1,0.22,0.22V314.84z M221.48,312.07c0,0.12-0.1,0.22-0.22,0.22h-1.13
				c-0.12,0-0.22-0.1-0.22-0.22v-0.74c0-0.12,0.1-0.22,0.22-0.22h1.13c0.12,0,0.22,0.1,0.22,0.22V312.07z M221.48,309.31
				c0,0.12-0.1,0.22-0.22,0.22h-1.13c-0.12,0-0.22-0.1-0.22-0.22v-0.74c0-0.12,0.1-0.22,0.22-0.22h1.13c0.12,0,0.22,0.1,0.22,0.22
				V309.31z M221.48,306.54c0,0.12-0.1,0.22-0.22,0.22h-1.13c-0.12,0-0.22-0.1-0.22-0.22v-0.74c0-0.12,0.1-0.22,0.22-0.22h1.13
				c0.12,0,0.22,0.1,0.22,0.22V306.54z M221.48,303.77c0,0.12-0.1,0.22-0.22,0.22h-1.13c-0.12,0-0.22-0.1-0.22-0.22v-0.74
				c0-0.12,0.1-0.22,0.22-0.22h1.13c0.12,0,0.22,0.1,0.22,0.22V303.77z M221.48,301.01c0,0.12-0.1,0.22-0.22,0.22h-1.13
				c-0.12,0-0.22-0.1-0.22-0.22v-0.74c0-0.12,0.1-0.22,0.22-0.22h1.13c0.12,0,0.22,0.1,0.22,0.22V301.01z M221.48,298.24
				c0,0.12-0.1,0.22-0.22,0.22h-1.13c-0.12,0-0.22-0.1-0.22-0.22v-0.74c0-0.12,0.1-0.22,0.22-0.22h1.13c0.12,0,0.22,0.1,0.22,0.22
				V298.24z"/>
			
				<linearGradient id="SVGID_00000183955754428586477380000001784655274148641168_" gradientUnits="userSpaceOnUse" x1="258.2176" y1="354.8039" x2="258.2176" y2="295.1362">
				<stop  offset="5.618000e-03" style="stop-color:#231F20"/>
				<stop  offset="0.0545" style="stop-color:#272425"/>
				<stop  offset="0.1108" style="stop-color:#343133"/>
				<stop  offset="0.1704" style="stop-color:#48484A"/>
				<stop  offset="0.2061" style="stop-color:#58595B"/>
				<stop  offset="0.2367" style="stop-color:#4E4E50"/>
				<stop  offset="0.286" style="stop-color:#434445"/>
				<stop  offset="0.3391" style="stop-color:#404041"/>
				<stop  offset="0.5618" style="stop-color:#404041"/>
				<stop  offset="0.6376" style="stop-color:#424244"/>
				<stop  offset="0.6839" style="stop-color:#4A4B4C"/>
				<stop  offset="0.7222" style="stop-color:#57585A"/>
				<stop  offset="0.7235" style="stop-color:#58595B"/>
				<stop  offset="0.7621" style="stop-color:#4A494B"/>
				<stop  offset="0.833" style="stop-color:#343233"/>
				<stop  offset="0.8991" style="stop-color:#272425"/>
				<stop  offset="0.9551" style="stop-color:#231F20"/>
			</linearGradient>
			<path fill="url(#SVGID_00000183955754428586477380000001784655274148641168_)" d="M251.1,294.94v56.9h14.23v-56.9H251.1z
				 M253.41,350.8c0,0.12-0.1,0.22-0.22,0.22h-1.13c-0.12,0-0.22-0.1-0.22-0.22v-0.74c0-0.12,0.1-0.22,0.22-0.22h1.13
				c0.12,0,0.22,0.1,0.22,0.22V350.8z M253.41,348.03c0,0.12-0.1,0.22-0.22,0.22h-1.13c-0.12,0-0.22-0.1-0.22-0.22v-0.74
				c0-0.12,0.1-0.22,0.22-0.22h1.13c0.12,0,0.22,0.1,0.22,0.22V348.03z M253.41,345.26c0,0.12-0.1,0.22-0.22,0.22h-1.13
				c-0.12,0-0.22-0.1-0.22-0.22v-0.74c0-0.12,0.1-0.22,0.22-0.22h1.13c0.12,0,0.22,0.1,0.22,0.22V345.26z M253.41,342.5
				c0,0.12-0.1,0.22-0.22,0.22h-1.13c-0.12,0-0.22-0.1-0.22-0.22v-0.74c0-0.12,0.1-0.22,0.22-0.22h1.13c0.12,0,0.22,0.1,0.22,0.22
				V342.5z M253.41,339.73c0,0.12-0.1,0.22-0.22,0.22h-1.13c-0.12,0-0.22-0.1-0.22-0.22v-0.74c0-0.12,0.1-0.22,0.22-0.22h1.13
				c0.12,0,0.22,0.1,0.22,0.22V339.73z M253.41,336.97c0,0.12-0.1,0.22-0.22,0.22h-1.13c-0.12,0-0.22-0.1-0.22-0.22v-0.74
				c0-0.12,0.1-0.22,0.22-0.22h1.13c0.12,0,0.22,0.1,0.22,0.22V336.97z M253.41,334.2c0,0.12-0.1,0.22-0.22,0.22h-1.13
				c-0.12,0-0.22-0.1-0.22-0.22v-0.74c0-0.12,0.1-0.22,0.22-0.22h1.13c0.12,0,0.22,0.1,0.22,0.22V334.2z M253.41,331.43
				c0,0.12-0.1,0.22-0.22,0.22h-1.13c-0.12,0-0.22-0.1-0.22-0.22v-0.74c0-0.12,0.1-0.22,0.22-0.22h1.13c0.12,0,0.22,0.1,0.22,0.22
				V331.43z M253.41,328.67c0,0.12-0.1,0.22-0.22,0.22h-1.13c-0.12,0-0.22-0.1-0.22-0.22v-0.74c0-0.12,0.1-0.22,0.22-0.22h1.13
				c0.12,0,0.22,0.1,0.22,0.22V328.67z M253.41,325.9c0,0.12-0.1,0.22-0.22,0.22h-1.13c-0.12,0-0.22-0.1-0.22-0.22v-0.74
				c0-0.12,0.1-0.22,0.22-0.22h1.13c0.12,0,0.22,0.1,0.22,0.22V325.9z M253.41,323.14c0,0.12-0.1,0.22-0.22,0.22h-1.13
				c-0.12,0-0.22-0.1-0.22-0.22v-0.74c0-0.12,0.1-0.22,0.22-0.22h1.13c0.12,0,0.22,0.1,0.22,0.22V323.14z M253.41,320.37
				c0,0.12-0.1,0.22-0.22,0.22h-1.13c-0.12,0-0.22-0.1-0.22-0.22v-0.74c0-0.12,0.1-0.22,0.22-0.22h1.13c0.12,0,0.22,0.1,0.22,0.22
				V320.37z M253.41,317.6c0,0.12-0.1,0.22-0.22,0.22h-1.13c-0.12,0-0.22-0.1-0.22-0.22v-0.74c0-0.12,0.1-0.22,0.22-0.22h1.13
				c0.12,0,0.22,0.1,0.22,0.22V317.6z M253.41,314.84c0,0.12-0.1,0.22-0.22,0.22h-1.13c-0.12,0-0.22-0.1-0.22-0.22v-0.74
				c0-0.12,0.1-0.22,0.22-0.22h1.13c0.12,0,0.22,0.1,0.22,0.22V314.84z M253.41,312.07c0,0.12-0.1,0.22-0.22,0.22h-1.13
				c-0.12,0-0.22-0.1-0.22-0.22v-0.74c0-0.12,0.1-0.22,0.22-0.22h1.13c0.12,0,0.22,0.1,0.22,0.22V312.07z M253.41,309.31
				c0,0.12-0.1,0.22-0.22,0.22h-1.13c-0.12,0-0.22-0.1-0.22-0.22v-0.74c0-0.12,0.1-0.22,0.22-0.22h1.13c0.12,0,0.22,0.1,0.22,0.22
				V309.31z M253.41,306.54c0,0.12-0.1,0.22-0.22,0.22h-1.13c-0.12,0-0.22-0.1-0.22-0.22v-0.74c0-0.12,0.1-0.22,0.22-0.22h1.13
				c0.12,0,0.22,0.1,0.22,0.22V306.54z M253.41,303.77c0,0.12-0.1,0.22-0.22,0.22h-1.13c-0.12,0-0.22-0.1-0.22-0.22v-0.74
				c0-0.12,0.1-0.22,0.22-0.22h1.13c0.12,0,0.22,0.1,0.22,0.22V303.77z M253.41,301.01c0,0.12-0.1,0.22-0.22,0.22h-1.13
				c-0.12,0-0.22-0.1-0.22-0.22v-0.74c0-0.12,0.1-0.22,0.22-0.22h1.13c0.12,0,0.22,0.1,0.22,0.22V301.01z M253.41,298.24
				c0,0.12-0.1,0.22-0.22,0.22h-1.13c-0.12,0-0.22-0.1-0.22-0.22v-0.74c0-0.12,0.1-0.22,0.22-0.22h1.13c0.12,0,0.22,0.1,0.22,0.22
				V298.24z M264.61,350.8c0,0.12-0.1,0.22-0.22,0.22h-1.13c-0.12,0-0.22-0.1-0.22-0.22v-0.74c0-0.12,0.1-0.22,0.22-0.22h1.13
				c0.12,0,0.22,0.1,0.22,0.22V350.8z M264.61,348.03c0,0.12-0.1,0.22-0.22,0.22h-1.13c-0.12,0-0.22-0.1-0.22-0.22v-0.74
				c0-0.12,0.1-0.22,0.22-0.22h1.13c0.12,0,0.22,0.1,0.22,0.22V348.03z M264.61,345.26c0,0.12-0.1,0.22-0.22,0.22h-1.13
				c-0.12,0-0.22-0.1-0.22-0.22v-0.74c0-0.12,0.1-0.22,0.22-0.22h1.13c0.12,0,0.22,0.1,0.22,0.22V345.26z M264.61,342.5
				c0,0.12-0.1,0.22-0.22,0.22h-1.13c-0.12,0-0.22-0.1-0.22-0.22v-0.74c0-0.12,0.1-0.22,0.22-0.22h1.13c0.12,0,0.22,0.1,0.22,0.22
				V342.5z M264.61,339.73c0,0.12-0.1,0.22-0.22,0.22h-1.13c-0.12,0-0.22-0.1-0.22-0.22v-0.74c0-0.12,0.1-0.22,0.22-0.22h1.13
				c0.12,0,0.22,0.1,0.22,0.22V339.73z M264.61,336.97c0,0.12-0.1,0.22-0.22,0.22h-1.13c-0.12,0-0.22-0.1-0.22-0.22v-0.74
				c0-0.12,0.1-0.22,0.22-0.22h1.13c0.12,0,0.22,0.1,0.22,0.22V336.97z M264.61,334.2c0,0.12-0.1,0.22-0.22,0.22h-1.13
				c-0.12,0-0.22-0.1-0.22-0.22v-0.74c0-0.12,0.1-0.22,0.22-0.22h1.13c0.12,0,0.22,0.1,0.22,0.22V334.2z M264.61,331.43
				c0,0.12-0.1,0.22-0.22,0.22h-1.13c-0.12,0-0.22-0.1-0.22-0.22v-0.74c0-0.12,0.1-0.22,0.22-0.22h1.13c0.12,0,0.22,0.1,0.22,0.22
				V331.43z M264.61,328.67c0,0.12-0.1,0.22-0.22,0.22h-1.13c-0.12,0-0.22-0.1-0.22-0.22v-0.74c0-0.12,0.1-0.22,0.22-0.22h1.13
				c0.12,0,0.22,0.1,0.22,0.22V328.67z M264.61,325.9c0,0.12-0.1,0.22-0.22,0.22h-1.13c-0.12,0-0.22-0.1-0.22-0.22v-0.74
				c0-0.12,0.1-0.22,0.22-0.22h1.13c0.12,0,0.22,0.1,0.22,0.22V325.9z M264.61,323.14c0,0.12-0.1,0.22-0.22,0.22h-1.13
				c-0.12,0-0.22-0.1-0.22-0.22v-0.74c0-0.12,0.1-0.22,0.22-0.22h1.13c0.12,0,0.22,0.1,0.22,0.22V323.14z M264.61,320.37
				c0,0.12-0.1,0.22-0.22,0.22h-1.13c-0.12,0-0.22-0.1-0.22-0.22v-0.74c0-0.12,0.1-0.22,0.22-0.22h1.13c0.12,0,0.22,0.1,0.22,0.22
				V320.37z M264.61,317.6c0,0.12-0.1,0.22-0.22,0.22h-1.13c-0.12,0-0.22-0.1-0.22-0.22v-0.74c0-0.12,0.1-0.22,0.22-0.22h1.13
				c0.12,0,0.22,0.1,0.22,0.22V317.6z M264.61,314.84c0,0.12-0.1,0.22-0.22,0.22h-1.13c-0.12,0-0.22-0.1-0.22-0.22v-0.74
				c0-0.12,0.1-0.22,0.22-0.22h1.13c0.12,0,0.22,0.1,0.22,0.22V314.84z M264.61,312.07c0,0.12-0.1,0.22-0.22,0.22h-1.13
				c-0.12,0-0.22-0.1-0.22-0.22v-0.74c0-0.12,0.1-0.22,0.22-0.22h1.13c0.12,0,0.22,0.1,0.22,0.22V312.07z M264.61,309.31
				c0,0.12-0.1,0.22-0.22,0.22h-1.13c-0.12,0-0.22-0.1-0.22-0.22v-0.74c0-0.12,0.1-0.22,0.22-0.22h1.13c0.12,0,0.22,0.1,0.22,0.22
				V309.31z M264.61,306.54c0,0.12-0.1,0.22-0.22,0.22h-1.13c-0.12,0-0.22-0.1-0.22-0.22v-0.74c0-0.12,0.1-0.22,0.22-0.22h1.13
				c0.12,0,0.22,0.1,0.22,0.22V306.54z M264.61,303.77c0,0.12-0.1,0.22-0.22,0.22h-1.13c-0.12,0-0.22-0.1-0.22-0.22v-0.74
				c0-0.12,0.1-0.22,0.22-0.22h1.13c0.12,0,0.22,0.1,0.22,0.22V303.77z M264.61,301.01c0,0.12-0.1,0.22-0.22,0.22h-1.13
				c-0.12,0-0.22-0.1-0.22-0.22v-0.74c0-0.12,0.1-0.22,0.22-0.22h1.13c0.12,0,0.22,0.1,0.22,0.22V301.01z M264.61,298.24
				c0,0.12-0.1,0.22-0.22,0.22h-1.13c-0.12,0-0.22-0.1-0.22-0.22v-0.74c0-0.12,0.1-0.22,0.22-0.22h1.13c0.12,0,0.22,0.1,0.22,0.22
				V298.24z"/>
			
				<linearGradient id="SVGID_00000132797954990823626430000008921615795969859263_" gradientUnits="userSpaceOnUse" x1="235.9102" y1="336.1249" x2="209.9207" y2="284.7446">
				<stop  offset="5.618000e-03" style="stop-color:#231F20"/>
				<stop  offset="0.026" style="stop-color:#272425"/>
				<stop  offset="0.0494" style="stop-color:#343133"/>
				<stop  offset="0.0742" style="stop-color:#48484A"/>
				<stop  offset="0.089" style="stop-color:#58595B"/>
				<stop  offset="0.1175" style="stop-color:#4E4E50"/>
				<stop  offset="0.1635" style="stop-color:#434445"/>
				<stop  offset="0.213" style="stop-color:#404041"/>
				<stop  offset="0.4692" style="stop-color:#404041"/>
				<stop  offset="0.5519" style="stop-color:#424244"/>
				<stop  offset="0.6023" style="stop-color:#4A4B4C"/>
				<stop  offset="0.6441" style="stop-color:#57585A"/>
				<stop  offset="0.6456" style="stop-color:#58595B"/>
				<stop  offset="0.6972" style="stop-color:#4A494B"/>
				<stop  offset="0.7919" style="stop-color:#343233"/>
				<stop  offset="0.8802" style="stop-color:#272425"/>
				<stop  offset="0.9551" style="stop-color:#231F20"/>
			</linearGradient>
			<path fill="url(#SVGID_00000132797954990823626430000008921615795969859263_)" d="M236.65,323.62l-14.45-28.68h-14.23
				l21.57,42.68h14.23L236.65,323.62z M230.81,312.76l0.33,0.66c0.06,0.11,0.01,0.25-0.1,0.3l-1.01,0.51
				c-0.11,0.06-0.25,0.01-0.3-0.1l-0.33-0.66c-0.06-0.11-0.01-0.25,0.1-0.3l1.01-0.51C230.62,312.61,230.75,312.65,230.81,312.76z
				 M229.56,310.29l0.33,0.66c0.06,0.11,0.01,0.25-0.1,0.3l-1.01,0.51c-0.11,0.06-0.25,0.01-0.3-0.1l-0.33-0.66
				c-0.06-0.11-0.01-0.25,0.1-0.3l1.01-0.51C229.37,310.14,229.5,310.18,229.56,310.29z M228.31,307.82l0.33,0.66
				c0.06,0.11,0.01,0.25-0.1,0.3l-1.01,0.51c-0.11,0.06-0.25,0.01-0.3-0.1l-0.33-0.66c-0.06-0.11-0.01-0.25,0.1-0.3l1.01-0.51
				C228.12,307.67,228.26,307.71,228.31,307.82z M227.07,305.35l0.33,0.66c0.06,0.11,0.01,0.25-0.1,0.3l-1.01,0.51
				c-0.11,0.06-0.25,0.01-0.3-0.1l-0.33-0.66c-0.06-0.11-0.01-0.25,0.1-0.3l1.01-0.51C226.88,305.2,227.01,305.24,227.07,305.35z
				 M225.82,302.88l0.33,0.66c0.06,0.11,0.01,0.25-0.1,0.3l-1.01,0.51c-0.11,0.06-0.25,0.01-0.3-0.1l-0.33-0.66
				c-0.06-0.11-0.01-0.25,0.1-0.3l1.01-0.51C225.63,302.73,225.77,302.77,225.82,302.88z M224.58,300.41l0.33,0.66
				c0.06,0.11,0.01,0.25-0.1,0.3l-1.01,0.51c-0.11,0.06-0.25,0.01-0.3-0.1l-0.33-0.66c-0.06-0.11-0.01-0.25,0.1-0.3l1.01-0.51
				C224.39,300.26,224.52,300.3,224.58,300.41z M223.33,297.94l0.33,0.66c0.06,0.11,0.01,0.25-0.1,0.3l-1.01,0.51
				c-0.11,0.06-0.25,0.01-0.3-0.1l-0.33-0.66c-0.06-0.11-0.01-0.25,0.1-0.3l1.01-0.51C223.14,297.79,223.27,297.83,223.33,297.94z
				 M220.77,295.89l1.01-0.51c0.11-0.06,0.25-0.01,0.3,0.1l0.33,0.66c0.06,0.11,0.01,0.25-0.1,0.3l-1.01,0.51
				c-0.11,0.06-0.25,0.01-0.3-0.1l-0.33-0.66C220.62,296.08,220.66,295.94,220.77,295.89z M209.65,296.85l-0.33-0.66
				c-0.06-0.11-0.01-0.25,0.1-0.3l1.01-0.51c0.11-0.06,0.25-0.01,0.3,0.1l0.33,0.66c0.06,0.11,0.01,0.25-0.1,0.3l-1.01,0.51
				C209.85,297,209.71,296.96,209.65,296.85z M210.9,299.32l-0.33-0.66c-0.06-0.11-0.01-0.25,0.1-0.3l1.01-0.51
				c0.11-0.06,0.25-0.01,0.3,0.1l0.33,0.66c0.06,0.11,0.01,0.25-0.1,0.3l-1.01,0.51C211.09,299.47,210.96,299.43,210.9,299.32z
				 M212.15,301.78l-0.33-0.66c-0.06-0.11-0.01-0.25,0.1-0.3l1.01-0.51c0.11-0.06,0.25-0.01,0.3,0.1l0.33,0.66
				c0.06,0.11,0.01,0.25-0.1,0.3l-1.01,0.51C212.34,301.94,212.2,301.89,212.15,301.78z M213.39,304.25l-0.33-0.66
				c-0.06-0.11-0.01-0.25,0.1-0.3l1.01-0.51c0.11-0.06,0.25-0.01,0.3,0.1l0.33,0.66c0.06,0.11,0.01,0.25-0.1,0.3l-1.01,0.51
				C213.58,304.41,213.45,304.36,213.39,304.25z M214.64,306.72l-0.33-0.66c-0.06-0.11-0.01-0.25,0.1-0.3l1.01-0.51
				c0.11-0.06,0.25-0.01,0.3,0.1l0.33,0.66c0.06,0.11,0.01,0.25-0.1,0.3l-1.01,0.51C214.83,306.88,214.69,306.83,214.64,306.72z
				 M215.88,309.19l-0.33-0.66c-0.06-0.11-0.01-0.25,0.1-0.3l1.01-0.51c0.11-0.06,0.25-0.01,0.3,0.1l0.33,0.66
				c0.06,0.11,0.01,0.25-0.1,0.3l-1.01,0.51C216.07,309.35,215.94,309.3,215.88,309.19z M217.13,311.66L216.8,311
				c-0.06-0.11-0.01-0.25,0.1-0.3l1.01-0.51c0.11-0.06,0.25-0.01,0.3,0.1l0.33,0.66c0.06,0.11,0.01,0.25-0.1,0.3l-1.01,0.51
				C217.32,311.82,217.19,311.77,217.13,311.66z M218.38,314.13l-0.33-0.66c-0.06-0.11-0.01-0.25,0.1-0.3l1.01-0.51
				c0.11-0.06,0.25-0.01,0.3,0.1l0.33,0.66c0.06,0.11,0.01,0.25-0.1,0.3l-1.01,0.51C218.57,314.29,218.43,314.24,218.38,314.13z
				 M219.62,316.6l-0.33-0.66c-0.06-0.11-0.01-0.25,0.1-0.3l1.01-0.51c0.11-0.06,0.25-0.01,0.3,0.1l0.33,0.66
				c0.06,0.11,0.01,0.25-0.1,0.3l-1.01,0.51C219.81,316.76,219.68,316.71,219.62,316.6z M220.87,319.07l-0.33-0.66
				c-0.06-0.11-0.01-0.25,0.1-0.3l1.01-0.51c0.11-0.06,0.25-0.01,0.3,0.1l0.33,0.66c0.06,0.11,0.01,0.25-0.1,0.3l-1.01,0.51
				C221.06,319.23,220.92,319.18,220.87,319.07z M222.11,321.54l-0.33-0.66c-0.06-0.11-0.01-0.25,0.1-0.3l1.01-0.51
				c0.11-0.06,0.25-0.01,0.3,0.1l0.33,0.66c0.06,0.11,0.01,0.25-0.1,0.3l-1.01,0.51C222.31,321.69,222.17,321.65,222.11,321.54z
				 M223.36,324.01l-0.33-0.66c-0.06-0.11-0.01-0.25,0.1-0.3l1.01-0.51c0.11-0.06,0.25-0.01,0.3,0.1l0.33,0.66
				c0.06,0.11,0.01,0.25-0.1,0.3l-1.01,0.51C223.55,324.16,223.42,324.12,223.36,324.01z M224.61,326.48l-0.33-0.66
				c-0.06-0.11-0.01-0.25,0.1-0.3l1.01-0.51c0.11-0.06,0.25-0.01,0.3,0.1l0.33,0.66c0.06,0.11,0.01,0.25-0.1,0.3l-1.01,0.51
				C224.8,326.63,224.66,326.59,224.61,326.48z M225.85,328.95l-0.33-0.66c-0.06-0.11-0.01-0.25,0.1-0.3l1.01-0.51
				c0.11-0.06,0.25-0.01,0.3,0.1l0.33,0.66c0.06,0.11,0.01,0.25-0.1,0.3l-1.01,0.51C226.04,329.1,225.91,329.06,225.85,328.95z
				 M227.1,331.42l-0.33-0.66c-0.06-0.11-0.01-0.25,0.1-0.3l1.01-0.51c0.11-0.06,0.25-0.01,0.3,0.1l0.33,0.66
				c0.06,0.11,0.01,0.25-0.1,0.3l-1.01,0.51C227.29,331.57,227.15,331.53,227.1,331.42z M228.35,333.89l-0.33-0.66
				c-0.06-0.11-0.01-0.25,0.1-0.3l1.01-0.51c0.11-0.06,0.25-0.01,0.3,0.1l0.33,0.66c0.06,0.11,0.01,0.25-0.1,0.3l-1.01,0.51
				C228.54,334.04,228.4,334,228.35,333.89z M230.9,335.94l-1.01,0.51c-0.11,0.06-0.25,0.01-0.3-0.1l-0.33-0.66
				c-0.06-0.11-0.01-0.25,0.1-0.3l1.01-0.51c0.11-0.06,0.25-0.01,0.3,0.1l0.33,0.66C231.06,335.75,231.01,335.89,230.9,335.94z
				 M230.97,316.6l-0.33-0.66c-0.06-0.11-0.01-0.25,0.1-0.3l1.01-0.51c0.11-0.06,0.25-0.01,0.3,0.1l0.33,0.66
				c0.06,0.11,0.01,0.25-0.1,0.3l-1.01,0.51C231.16,316.76,231.03,316.71,230.97,316.6z M232.22,319.07l-0.33-0.66
				c-0.06-0.11-0.01-0.25,0.1-0.3l1.01-0.51c0.11-0.06,0.25-0.01,0.3,0.1l0.33,0.66c0.06,0.11,0.01,0.25-0.1,0.3l-1.01,0.51
				C232.41,319.23,232.28,319.18,232.22,319.07z M233.47,321.54l-0.33-0.66c-0.06-0.11-0.01-0.25,0.1-0.3l1.01-0.51
				c0.11-0.06,0.25-0.01,0.3,0.1l0.33,0.66c0.06,0.11,0.01,0.25-0.1,0.3l-1.01,0.51C233.66,321.69,233.52,321.65,233.47,321.54z
				 M234.71,324.01l-0.33-0.66c-0.06-0.11-0.01-0.25,0.1-0.3l1.01-0.51c0.11-0.06,0.25-0.01,0.3,0.1l0.33,0.66
				c0.06,0.11,0.01,0.25-0.1,0.3l-1.01,0.51C234.9,324.16,234.77,324.12,234.71,324.01z M235.96,326.48l-0.33-0.66
				c-0.06-0.11-0.01-0.25,0.1-0.3l1.01-0.51c0.11-0.06,0.25-0.01,0.3,0.1l0.33,0.66c0.06,0.11,0.01,0.25-0.1,0.3l-1.01,0.51
				C236.15,326.63,236.01,326.59,235.96,326.48z M237.2,328.95l-0.33-0.66c-0.06-0.11-0.01-0.25,0.1-0.3l1.01-0.51
				c0.11-0.06,0.25-0.01,0.3,0.1l0.33,0.66c0.06,0.11,0.01,0.25-0.1,0.3l-1.01,0.51C237.39,329.1,237.26,329.06,237.2,328.95z
				 M238.45,331.42l-0.33-0.66c-0.06-0.11-0.01-0.25,0.1-0.3l1.01-0.51c0.11-0.06,0.25-0.01,0.3,0.1l0.33,0.66
				c0.06,0.11,0.01,0.25-0.1,0.3l-1.01,0.51C238.64,331.57,238.51,331.53,238.45,331.42z M239.7,333.89l-0.33-0.66
				c-0.06-0.11-0.01-0.25,0.1-0.3l1.01-0.51c0.11-0.06,0.25-0.01,0.3,0.1l0.33,0.66c0.06,0.11,0.01,0.25-0.1,0.3l-1.01,0.51
				C239.89,334.04,239.75,334,239.7,333.89z M241.24,336.46c-0.11,0.06-0.25,0.01-0.3-0.1l-0.33-0.66c-0.06-0.11-0.01-0.25,0.1-0.3
				l1.01-0.51c0.11-0.06,0.25-0.01,0.3,0.1l0.33,0.66c0.06,0.11,0.01,0.25-0.1,0.3L241.24,336.46z"/>
			<g>
				
					<linearGradient id="SVGID_00000095321232384714842710000004264424546919121341_" gradientUnits="userSpaceOnUse" x1="232.821" y1="343.1663" x2="261.7652" y2="289.9208">
					<stop  offset="5.618000e-03" style="stop-color:#231F20"/>
					<stop  offset="0.0843" style="stop-color:#404041"/>
					<stop  offset="0.382" style="stop-color:#58595B"/>
					<stop  offset="0.5618" style="stop-color:#808184"/>
					<stop  offset="0.8034" style="stop-color:#58595B"/>
					<stop  offset="0.9551" style="stop-color:#404041"/>
				</linearGradient>
				<path fill="url(#SVGID_00000095321232384714842710000004264424546919121341_)" d="M265.33,294.94h-0.86l0.07,0.04
					c0.11,0.06,0.15,0.19,0.1,0.3l-0.33,0.66c-0.06,0.11-0.19,0.15-0.3,0.1l-1.01-0.51c-0.11-0.06-0.15-0.19-0.1-0.3l0.14-0.28
					h-9.92l0.07,0.04c0.11,0.06,0.15,0.19,0.1,0.3l-0.33,0.66c-0.06,0.11-0.19,0.15-0.3,0.1l-1.01-0.51
					c-0.11-0.06-0.15-0.19-0.1-0.3l0.14-0.28h-0.58l-14.45,28.68l-7.11,14h1.14l-0.22-0.11c-0.11-0.06-0.15-0.19-0.1-0.3l0.33-0.66
					c0.06-0.11,0.19-0.15,0.3-0.1l1.01,0.51c0.11,0.06,0.15,0.19,0.1,0.3l-0.18,0.36h10.11l-0.22-0.11c-0.11-0.06-0.15-0.19-0.1-0.3
					l0.33-0.66c0.06-0.11,0.19-0.15,0.3-0.1l1.01,0.51c0.11,0.06,0.15,0.19,0.1,0.3l-0.18,0.36h0.49L265.33,294.94z M245.95,332.32
					l-0.33,0.66c-0.06,0.11-0.19,0.15-0.3,0.1l-1.01-0.51c-0.11-0.06-0.15-0.19-0.1-0.3l0.33-0.66c0.06-0.11,0.19-0.15,0.3-0.1
					l1.01,0.51C245.96,332.07,246.01,332.21,245.95,332.32z M247.2,329.85l-0.33,0.66c-0.06,0.11-0.19,0.15-0.3,0.1l-1.01-0.51
					c-0.11-0.06-0.15-0.19-0.1-0.3l0.33-0.66c0.06-0.11,0.19-0.15,0.3-0.1l1.01,0.51C247.21,329.6,247.25,329.74,247.2,329.85z
					 M248.44,327.38l-0.33,0.66c-0.06,0.11-0.19,0.15-0.3,0.1l-1.01-0.51c-0.11-0.06-0.15-0.19-0.1-0.3l0.33-0.66
					c0.06-0.11,0.19-0.15,0.3-0.1l1.01,0.51C248.46,327.13,248.5,327.27,248.44,327.38z M249.69,324.91l-0.33,0.66
					c-0.06,0.11-0.19,0.15-0.3,0.1l-1.01-0.51c-0.11-0.06-0.15-0.19-0.1-0.3l0.33-0.66c0.06-0.11,0.19-0.15,0.3-0.1l1.01,0.51
					C249.7,324.66,249.75,324.8,249.69,324.91z M250.94,322.44l-0.33,0.66c-0.06,0.11-0.19,0.15-0.3,0.1l-1.01-0.51
					c-0.11-0.06-0.15-0.19-0.1-0.3l0.33-0.66c0.06-0.11,0.19-0.15,0.3-0.1l1.01,0.51C250.95,322.2,250.99,322.33,250.94,322.44z
					 M252.18,319.97l-0.33,0.66c-0.06,0.11-0.19,0.15-0.3,0.1l-1.01-0.51c-0.11-0.06-0.15-0.19-0.1-0.3l0.33-0.66
					c0.06-0.11,0.19-0.15,0.3-0.1l1.01,0.51C252.19,319.73,252.24,319.86,252.18,319.97z M261.65,297.69l0.33-0.66
					c0.06-0.11,0.19-0.15,0.3-0.1l1.01,0.51c0.11,0.06,0.15,0.19,0.1,0.3l-0.33,0.66c-0.06,0.11-0.19,0.15-0.3,0.1l-1.01-0.51
					C261.64,297.94,261.6,297.8,261.65,297.69z M260.41,300.16l0.33-0.66c0.06-0.11,0.19-0.15,0.3-0.1l1.01,0.51
					c0.11,0.06,0.15,0.19,0.1,0.3l-0.33,0.66c-0.06,0.11-0.19,0.15-0.3,0.1l-1.01-0.51C260.4,300.41,260.35,300.27,260.41,300.16z
					 M259.16,302.63l0.33-0.66c0.06-0.11,0.19-0.15,0.3-0.1l1.01,0.51c0.11,0.06,0.15,0.19,0.1,0.3l-0.33,0.66
					c-0.06,0.11-0.19,0.15-0.3,0.1l-1.01-0.51C259.15,302.88,259.11,302.74,259.16,302.63z M257.92,305.1l0.33-0.66
					c0.06-0.11,0.19-0.15,0.3-0.1l1.01,0.51c0.11,0.06,0.15,0.19,0.1,0.3l-0.33,0.66c-0.06,0.11-0.19,0.15-0.3,0.1l-1.01-0.51
					C257.9,305.35,257.86,305.21,257.92,305.1z M256.67,307.57l0.33-0.66c0.06-0.11,0.19-0.15,0.3-0.1l1.01,0.51
					c0.11,0.06,0.15,0.19,0.1,0.3l-0.33,0.66c-0.06,0.11-0.19,0.15-0.3,0.1l-1.01-0.51C256.66,307.82,256.61,307.68,256.67,307.57z
					 M255.42,310.04l0.33-0.66c0.06-0.11,0.19-0.15,0.3-0.1l1.01,0.51c0.11,0.06,0.15,0.19,0.1,0.3l-0.33,0.66
					c-0.06,0.11-0.19,0.15-0.3,0.1l-1.01-0.51C255.41,310.28,255.37,310.15,255.42,310.04z M254.18,312.51l0.33-0.66
					c0.06-0.11,0.19-0.15,0.3-0.1l1.01,0.51c0.11,0.06,0.15,0.19,0.1,0.3l-0.33,0.66c-0.06,0.11-0.19,0.15-0.3,0.1l-1.01-0.51
					C254.17,312.75,254.12,312.62,254.18,312.51z M252.93,314.98l0.33-0.66c0.06-0.11,0.19-0.15,0.3-0.1l1.01,0.51
					c0.11,0.06,0.15,0.19,0.1,0.3l-0.33,0.66c-0.06,0.11-0.19,0.15-0.3,0.1l-1.01-0.51C252.92,315.22,252.88,315.09,252.93,314.98z
					 M252.32,316.69l1.01,0.51c0.11,0.06,0.15,0.19,0.1,0.3l-0.33,0.66c-0.06,0.11-0.19,0.15-0.3,0.1l-1.01-0.51
					c-0.11-0.06-0.15-0.19-0.1-0.3l0.33-0.66C252.07,316.68,252.21,316.64,252.32,316.69z M250.3,297.69l0.33-0.66
					c0.06-0.11,0.19-0.15,0.3-0.1l1.01,0.51c0.11,0.06,0.15,0.19,0.1,0.3l-0.33,0.66c-0.06,0.11-0.19,0.15-0.3,0.1l-1.01-0.51
					C250.29,297.94,250.25,297.8,250.3,297.69z M249.06,300.16l0.33-0.66c0.06-0.11,0.19-0.15,0.3-0.1l1.01,0.51
					c0.11,0.06,0.15,0.19,0.1,0.3l-0.33,0.66c-0.06,0.11-0.19,0.15-0.3,0.1l-1.01-0.51C249.05,300.41,249,300.27,249.06,300.16z
					 M247.81,302.63l0.33-0.66c0.06-0.11,0.19-0.15,0.3-0.1l1.01,0.51c0.11,0.06,0.15,0.19,0.1,0.3l-0.33,0.66
					c-0.06,0.11-0.19,0.15-0.3,0.1l-1.01-0.51C247.8,302.88,247.76,302.74,247.81,302.63z M246.56,305.1l0.33-0.66
					c0.06-0.11,0.19-0.15,0.3-0.1l1.01,0.51c0.11,0.06,0.15,0.19,0.1,0.3l-0.33,0.66c-0.06,0.11-0.19,0.15-0.3,0.1l-1.01-0.51
					C246.55,305.35,246.51,305.21,246.56,305.1z M245.32,307.57l0.33-0.66c0.06-0.11,0.19-0.15,0.3-0.1l1.01,0.51
					c0.11,0.06,0.15,0.19,0.1,0.3l-0.33,0.66c-0.06,0.11-0.19,0.15-0.3,0.1l-1.01-0.51C245.31,307.82,245.26,307.68,245.32,307.57z
					 M244.07,310.04l0.33-0.66c0.06-0.11,0.19-0.15,0.3-0.1l1.01,0.51c0.11,0.06,0.15,0.19,0.1,0.3l-0.33,0.66
					c-0.06,0.11-0.19,0.15-0.3,0.1l-1.01-0.51C244.06,310.28,244.02,310.15,244.07,310.04z M242.83,312.51l0.33-0.66
					c0.06-0.11,0.19-0.15,0.3-0.1l1.01,0.51c0.11,0.06,0.15,0.19,0.1,0.3l-0.33,0.66c-0.06,0.11-0.19,0.15-0.3,0.1l-1.01-0.51
					C242.82,312.75,242.77,312.62,242.83,312.51z M233.36,334.79l-0.33,0.66c-0.06,0.11-0.19,0.15-0.3,0.1l-1.01-0.51
					c-0.11-0.06-0.15-0.19-0.1-0.3l0.33-0.66c0.06-0.11,0.19-0.15,0.3-0.1l1.01,0.51C233.37,334.54,233.41,334.68,233.36,334.79z
					 M234.6,332.32l-0.33,0.66c-0.06,0.11-0.19,0.15-0.3,0.1l-1.01-0.51c-0.11-0.06-0.15-0.19-0.1-0.3l0.33-0.66
					c0.06-0.11,0.19-0.15,0.3-0.1l1.01,0.51C234.61,332.07,234.66,332.21,234.6,332.32z M235.85,329.85l-0.33,0.66
					c-0.06,0.11-0.19,0.15-0.3,0.1l-1.01-0.51c-0.11-0.06-0.15-0.19-0.1-0.3l0.33-0.66c0.06-0.11,0.19-0.15,0.3-0.1l1.01,0.51
					C235.86,329.6,235.9,329.74,235.85,329.85z M237.09,327.38l-0.33,0.66c-0.06,0.11-0.19,0.15-0.3,0.1l-1.01-0.51
					c-0.11-0.06-0.15-0.19-0.1-0.3l0.33-0.66c0.06-0.11,0.19-0.15,0.3-0.1l1.01,0.51C237.1,327.13,237.15,327.27,237.09,327.38z
					 M238.34,324.91l-0.33,0.66c-0.06,0.11-0.19,0.15-0.3,0.1l-1.01-0.51c-0.11-0.06-0.15-0.19-0.1-0.3l0.33-0.66
					c0.06-0.11,0.19-0.15,0.3-0.1l1.01,0.51C238.35,324.66,238.4,324.8,238.34,324.91z M239.59,322.44l-0.33,0.66
					c-0.06,0.11-0.19,0.15-0.3,0.1l-1.01-0.51c-0.11-0.06-0.15-0.19-0.1-0.3l0.33-0.66c0.06-0.11,0.19-0.15,0.3-0.1l1.01,0.51
					C239.6,322.2,239.64,322.33,239.59,322.44z M240.83,319.97l-0.33,0.66c-0.06,0.11-0.19,0.15-0.3,0.1l-1.01-0.51
					c-0.11-0.06-0.15-0.19-0.1-0.3l0.33-0.66c0.06-0.11,0.19-0.15,0.3-0.1l1.01,0.51C240.84,319.73,240.89,319.86,240.83,319.97z
					 M242.08,317.5l-0.33,0.66c-0.06,0.11-0.19,0.15-0.3,0.1l-1.01-0.51c-0.11-0.06-0.15-0.19-0.1-0.3l0.33-0.66
					c0.06-0.11,0.19-0.15,0.3-0.1l1.01,0.51C242.09,317.26,242.13,317.39,242.08,317.5z M242.69,315.79l-1.01-0.51
					c-0.11-0.06-0.15-0.19-0.1-0.3l0.33-0.66c0.06-0.11,0.19-0.15,0.3-0.1l1.01,0.51c0.11,0.06,0.15,0.19,0.1,0.3l-0.33,0.66
					C242.94,315.8,242.8,315.85,242.69,315.79z M243.06,335.03c-0.11-0.06-0.15-0.19-0.1-0.3l0.33-0.66c0.06-0.11,0.19-0.15,0.3-0.1
					l1.01,0.51c0.11,0.06,0.15,0.19,0.1,0.3l-0.33,0.66c-0.06,0.11-0.19,0.15-0.3,0.1L243.06,335.03z"/>
			</g>
		</g>
	</g>
</g>
<g>
</g>
<g>
</g>
<g>
</g>
<g>
</g>
<g>
</g>
<g>
</g>
<g>
</g>
<g>
</g>
<g>
</g>
<g>
</g>
<g>
</g>
<g>
</g>
<g>
</g>
<g>
</g>
<g>
</g>
</svg>
