<?xml version="1.0" encoding="utf-8"?>
<!-- Generator: Adobe Illustrator 28.6.0, SVG Export Plug-In . SVG Version: 9.03 Build 54939)  -->
<svg version="1.1" id="Layer_1" xmlns="http://www.w3.org/2000/svg" xmlns:xlink="http://www.w3.org/1999/xlink" x="0px" y="0px"
	 viewBox="0 0 500 500" enable-background="new 0 0 500 500" xml:space="preserve">
<g>
	
		<path fill="#221C2E" stroke="#FFFFFF" stroke-width="4.9209" stroke-linecap="round" stroke-linejoin="round" stroke-miterlimit="10" d="
		M447.77,417.3c-4.85-0.67-9.66-0.68-14.72-0.01c-0.83,0.11-1.63,0.3-2.39,0.55c-0.78-0.26-1.6-0.45-2.43-0.56
		c-5.04-0.65-10.25-0.65-15.49-0.01c-2.02,0.25-3.89,0.96-5.5,2.03c-1.66-1.1-3.59-1.82-5.67-2.05c-4.6-0.5-9.24-0.58-13.86-0.26
		c34.97-35.22,56.58-83.72,56.58-137.28c0-107.63-87.25-194.88-194.88-194.88S54.53,172.08,54.53,279.71
		c0,53.98,21.95,102.82,57.41,138.12h-4.31c-7.71-1.96-16.49-1.54-23.7-0.52c-0.22,0.03-0.43,0.08-0.64,0.12
		c-2.77-0.99-5.81-1.01-8.61-0.01c-2.42,0.56-10.11,0.16-14.26-0.06c-1.07-0.06-2.12-0.11-3.12-0.16c-3.41-0.16-6.73,1.05-9.25,3.35
		c-2.51,2.3-4,5.52-4.14,8.92c-0.47,11.75-1.33,22.78-2.63,33.73c-0.81,6.77,3.84,12.99,10.57,14.13c2.38,0.4,4.77,0.6,7.17,0.6
		s4.79-0.2,7.17-0.6c2.91-0.49,5.46-1.95,7.34-4.03c1.95,2.15,4.63,3.65,7.72,4.08c4.83,0.67,9.73,0.67,14.55,0
		c0.98-0.14,1.92-0.38,2.81-0.72c2.62,1.09,5.5,1.65,8.45,1.65c1.86,0,3.75-0.22,5.63-0.68c0.35-0.08,0.69-0.18,1.02-0.28
		c0.07,0.01,0.15,0.03,0.22,0.04c2.45,0.33,4.92,0.5,7.38,0.5s4.93-0.17,7.38-0.5c1.23-0.17,2.4-0.5,3.5-0.99
		c1.09,0.49,2.27,0.83,3.5,0.99c4.9,0.66,9.87,0.66,14.77,0c0.22-0.03,0.45-0.07,0.67-0.11c0.17,0.03,0.34,0.06,0.51,0.09
		c5.06,0.74,10.19,0.74,15.26,0c0.71-0.1,1.41-0.27,2.08-0.48c0.71,0.23,1.45,0.4,2.21,0.5c2.66,0.36,5.33,0.54,8,0.54
		s5.35-0.18,8-0.54c0.75-0.1,1.48-0.27,2.18-0.5c0.66,0.21,1.35,0.37,2.06,0.48c2.53,0.37,5.08,0.56,7.63,0.56
		c2.55,0,5.1-0.19,7.63-0.56c0.97-0.14,1.9-0.39,2.78-0.73c1.53,0.6,3.16,0.97,4.85,1.09c4.01,0.31,8.18,0.2,12.41-0.32
		c0.26-0.03,0.51-0.07,0.77-0.12c0.15,0.03,0.31,0.06,0.47,0.08c2.53,0.37,5.08,0.56,7.63,0.56c2.55,0,5.1-0.19,7.63-0.56
		c0.71-0.1,1.39-0.27,2.05-0.48c1.42,0.46,2.93,0.67,4.45,0.61c8.05-0.34,15.65-0.34,23.24,0c0.2,0.01,0.39,0.01,0.59,0.01
		c2.13,0,4.15-0.53,5.94-1.47c3.65,1.48,8.08,2.23,13.21,2.23c7.61,0,13.1-1.81,17.02-4.16c1.83,1.69,4.17,2.87,6.82,3.26
		c2.53,0.37,5.08,0.56,7.63,0.56s5.1-0.19,7.63-0.56c0.9-0.13,1.76-0.36,2.58-0.67c0.88,0.33,1.8,0.56,2.74,0.69
		c2.45,0.33,4.92,0.5,7.38,0.5s4.93-0.17,7.38-0.5c1.23-0.17,2.4-0.5,3.5-0.99c1.09,0.49,2.27,0.83,3.5,0.99
		c4.63,0.63,9.32,0.65,13.95,0.1c4.63,0.56,9.32,0.53,13.95-0.1c1.23-0.17,2.4-0.5,3.5-0.99c1.09,0.49,2.27,0.83,3.5,0.99
		c2.45,0.33,4.92,0.5,7.38,0.5c2.47,0,4.93-0.17,7.38-0.5c0.22-0.03,0.45-0.07,0.67-0.11c0.17,0.03,0.34,0.06,0.51,0.09
		c5.06,0.74,10.19,0.74,15.26,0c0.71-0.1,1.41-0.27,2.08-0.48c0.71,0.23,1.45,0.4,2.21,0.5c2.66,0.36,5.33,0.54,8,0.54
		c2.67,0,5.35-0.18,8-0.54c6.34-0.86,11.07-6.28,11.07-12.68c0-4.71,0.94-15.82,1.63-23.93c0.35-4.1,0.65-7.63,0.8-9.98
		C459.21,424.11,454.41,418.22,447.77,417.3z"/>
	<g>
		<g>
			<g>
				<path fill="#AA4A24" d="M149.58,238.49c0,0,3.33-3.52,6.44-4.45c5.14-1.54,7.87-0.77,7.87-0.77l-12.82,18.17L149.58,238.49z"/>
				<path fill="#AA4A24" d="M165.23,203.42c0,0,3.74-3.07,10.58-3.82c8.11-0.89,13.6,0.99,13.6,0.99l-15.58,20.47L165.23,203.42z"/>
				<path fill="#AA4A24" d="M187.41,167.25c0,0,3.74-3.07,10.58-3.82c8.11-0.89,13.6,0.99,13.6,0.99L196,184.88L187.41,167.25z"/>
				<path fill="#AA4A24" d="M215.43,125.83c0,0,4.01-2.18,10.47-1.67c7.67,0.6,12.42,3.31,12.42,3.31l-18.04,16.22L215.43,125.83z"
					/>
				<path fill="#D18961" d="M232.91,305.7l0.27,12.1c0,0,14.78-11.17,20.68-13.95c5.9-2.78,11.25-4.04,11.25-4.04
					s9.49-7.77,16.54-13.33s21.16-18.39,22.39-21.1c1.23-2.7,0.03-5.69,0.03-5.69l-6.75-20.37L232.91,305.7z"/>
				<g>
					<g>
						<path fill="#C3642C" d="M107.79,322.87c-7.48,10.39,41.96,53.39,56.04,54.84c14.46,1.49,81.44-75.62,117.69-117.41
							c36.26-41.79,87.88-92.19,95.18-101.19c7.29-9,8.72-19.6,9.39-24.09c1.21-8.11-3.67-31.08-26.65-51.61
							c-22.98-20.54-68.58-25.67-79.42-16.21c-10.84,9.47-72.63,101.4-82.29,116.46c-9.66,15.06-50.2,74.5-73.31,103.02
							C114.06,299.46,98.3,313.86,107.79,322.87z"/>
						<path fill="#F9972C" d="M359.44,83.4c-22.98-20.54-68.58-25.67-79.42-16.21c-0.38,0.33-0.82,0.77-1.32,1.29
							c9.79-2.83,23.91-4.58,41.28-0.23c34.71,8.68,53.36,31.22,60.94,51.67c6.46,17.44-1.26,27.11-2.29,36.56
							c5.62-8.35,6.87-17.4,7.47-21.46C387.3,126.9,382.42,103.94,359.44,83.4z"/>
					</g>
					<g>
						<g>
							<path fill="#8DC522" d="M335.16,77.43c0.96-5.96,16.04-9.18,15.57-3.56c-0.32,3.58-6.5,5.15-7.33,8.56
								c-0.82,3.66,4.77,5.47,6.62,7.42c3.46,4.19,1.17,8.61-2.9,12.08c-3.11,2.8-7.76,4.86-1.71,5.83
								c3.77,0.36,7.28,0.51,11.04,0.87c2.27,0.37,8.52,0.3,9.88,2.58c2.7,4.06-11.69,6.29-14.15,6.96
								c-5.18,1.4-13.33,3.3-8.06,8.94c2.38,2.61,12.64,7.89,9.88,12.65c-3.66,6.92-34.64,2.18-21.76,14.82
								c2.63,2.57,7.51,5.25,2.91,8.31c-4.6,3.06-10.58,3.33-15.17,6.64c-3.15,2.05-1.87,2.59-3.48,0.35
								c-1.91-3.2-2.95-9.06-7.22-9.58c-5.03-0.64-4.96,5.89-5.29,9.22c-0.78,4.41-1.76,4.83-5.14,7.18
								c-4.35,3.01-4.88,7.38-7.93,11.43c-3.75,4.93-7.72,0.57-10.61-2.2c-1.67,6.58-7.65,2.07-8.34-1.84
								c-0.94-3.87-0.65-13.23-0.57-16.52c-2.07,3.63-14.68,1.27-17.26-0.3c-3.08-1.73-2.42-3.36-1.83-6.73
								c0.58-3.37,0.25-5.08-2.37-7.4c-4.96-4.18-9.52-5.41-1.53-10.81c2.17-1.63,5.34-3.18,4.45-6.05
								c-0.88-2.62-6.2-3.97-8.25-5.12c-8.48-4.58,0.7-6.16,6.16-6.85c6.22-0.57,6.94-1.19,8.64-7.28
								c1.49-5.29,2.83-8.54,1.08-13.53c-1.19-3.82-2.28-10.68,3.91-12c6.68-1.4,7.47,9.54,8.44,13.9c1.25,5.07,3.06,6.27,6.29,0.93
								c3.71-0.89,8.4-1.95,9.17-6.61c0.56-3.87-4.58-11.8,1.29-14.32c5.88-2.27,7.69,3.96,6.66,8.42
								c-0.82,3.66-3.19,11.37,3.03,10.8c5.72-0.48,3.42-6.63,5-10.17c2.05-4.13,7.65-2.07,9.47-5.66
								c1.81-3.84-5.65-8.09-1.82-11.52c3.11-2.8,12.63,2.61,14.41-1.72c1.36-2.75-5.12-7.43,0.32-8.62
								C331.85,66.05,335.7,73.31,335.16,77.43z"/>
						</g>
						<g opacity="0.4">
							<path fill="#8DC522" d="M252.29,160.54c0.58-3.37,0.25-5.08-2.37-7.4c-4.96-4.18-9.52-5.41-1.53-10.81
								c2.17-1.63,5.34-3.18,4.45-6.05c-0.88-2.62-6.2-3.97-8.25-5.12c-8.48-4.58,0.7-6.16,6.16-6.85c6.22-0.57,6.94-1.19,8.64-7.28
								c1.49-5.29,2.83-8.54,1.08-13.53c-1.19-3.82-2.28-10.68,3.91-12c6.68-1.4,7.47,9.54,8.44,13.9c1.25,5.07,3.06,6.27,6.29,0.93
								c3.71-0.89,8.4-1.95,9.17-6.61c0.56-3.87-4.58-11.8,1.29-14.32c5.88-2.27,7.69,3.96,6.66,8.42
								c-0.82,3.66-3.19,11.37,3.03,10.8c5.72-0.48,3.42-6.63,5-10.17c2.05-4.13,7.65-2.07,9.47-5.66
								c1.81-3.84-5.65-8.09-1.82-11.52c3.11-2.8,12.63,2.61,14.41-1.72c1.36-2.75-5.12-7.43,0.32-8.62
								c2.83-0.49,5.25,1.44,6.79,3.96c-3.76,9.32-6.7,18.91-10.38,28.77c-6.76,18.12-17.2,33.79-32.41,46.17
								c-8.83,7.17-18.32,11.37-24.44,21.68c-0.4,0.65-0.79,1.31-1.18,1.98c-4.3-0.07-9.38-1.28-10.91-2.21
								C251.04,165.54,251.7,163.91,252.29,160.54z"/>
						</g>
					</g>
					<g>
						<g>
							<g>
								<path fill="#8DC522" d="M384.7,70.53c3.98-2.75,0.95-13.98-2.95-11.67c-2.48,1.49-1.42,6.17-3.6,7.93
									c-2.36,1.85-5.66-1.24-7.73-1.78c-4.26-0.82-6.66,2.27-7.72,6.23c-0.92,3.07-0.77,6.91-3.62,3.22
									c-1.6-2.39-2.95-4.68-4.55-7.07c-1.07-1.39-3.24-5.58-5.38-5.68c-3.9-0.36-0.41,10.04-0.02,11.93
									c0.83,3.95,2.34,10.08-3.62,8.56c-2.74-0.66-10.21-5.64-12.67-2.1c-3.72,4.9,10.72,23.92-3.01,19.8
									c-2.8-0.84-6.47-3.15-7.05,1.01c-0.58,4.16,1.34,8.25,0.58,12.49c-0.37,2.83-1.21,2.17,0.98,2.45
									c2.99,0.14,7.61-1.25,9.51,1.42c2.25,3.13-2.5,5.4-4.8,6.81c-2.92,2.09-2.88,2.89-3.37,5.99c-0.64,3.98-3.62,5.89-5.47,9.36
									c-2.24,4.26,2.33,5.36,5.36,6.31c-4.17,3.46,1.22,5.84,4.29,4.92c3.13-0.74,9.82-4.26,12.17-5.49
									c-1.89,2.67,4.3,10.26,6.35,11.43c2.35,1.44,3.29,0.42,5.53-1.17c2.24-1.59,3.59-1.97,6.2-1.05
									c4.79,1.83,7.3,4.44,8.38-2.81c0.41-2.03,0.41-4.7,2.8-5.12c2.21-0.34,5.08,2.73,6.65,3.69c6.33,4.04,4.22-2.65,2.77-6.55
									c-1.8-4.36-1.6-5.06,2.21-8.35c3.3-2.88,5.18-4.92,9.42-5.53c3.19-0.56,8.55-2.27,7.31-6.87c-1.36-4.96-9.56-1.6-13.07-0.7
									c-4.12,0.96-5.63,0.18-2.91-3.88c-0.67-2.79-1.57-6.31,1.53-8.48c2.61-1.75,10.18-1.13,9.92-5.95
									c-0.44-4.74-5.6-3.73-8.47-1.46c-2.36,1.85-7.11,6.17-8.91,1.81c-1.68-3.99,3.59-4.64,5.6-6.95
									c2.26-2.83-1.22-5.84,0.73-8.34c2.14-2.57,7.87,0.9,8.99-2.87c0.93-3.07-6.37-7.51-3.87-10.24c1.51-1.89,7.2,0.78,6.13-3.28
									C394.13,68.7,387.49,68.7,384.7,70.53z"/>
							</g>
							<g opacity="0.4">
								<path fill="#8DC522" d="M353.91,155.41c2.24-1.59,3.59-1.97,6.2-1.05c4.79,1.83,7.3,4.44,8.38-2.81
									c0.41-2.03,0.41-4.7,2.8-5.12c2.21-0.34,5.08,2.73,6.65,3.69c6.33,4.04,4.22-2.65,2.77-6.55c-1.8-4.36-1.6-5.06,2.21-8.35
									c3.3-2.88,5.18-4.92,9.42-5.53c3.19-0.56,8.55-2.27,7.31-6.87c-1.36-4.96-9.56-1.6-13.07-0.7
									c-4.12,0.96-5.63,0.18-2.91-3.88c-0.67-2.79-1.57-6.31,1.53-8.48c2.61-1.75,10.18-1.13,9.92-5.95
									c-0.44-4.74-5.6-3.73-8.47-1.46c-2.36,1.85-7.11,6.17-8.91,1.81c-1.68-3.99,3.59-4.64,5.6-6.95
									c2.26-2.83-1.22-5.84,0.73-8.34c2.14-2.57,7.87,0.9,8.99-2.87c0.93-3.07-6.37-7.51-3.87-10.24c1.51-1.89,7.2,0.78,6.13-3.28
									c-0.65-2.06-2.91-3-5.28-3.13c-5.42,5.82-11.32,11.19-17.16,17.15c-10.73,10.95-18.37,23.49-21.94,38.05
									c-2.06,8.44-1.74,16.27-7.03,24.02c-0.33,0.5-0.67,0.99-1.01,1.49c1.58,2.85,4.26,5.81,5.48,6.51
									C350.74,158.02,351.68,156.99,353.91,155.41z"/>
							</g>
						</g>
						<g>
							<g>
								<path fill="#6FC048" d="M356.2,70.84c0.82,1.05-0.39,7.24-2.32,8.21c-2.36,1.07-3.11-3.53-5.38-1.6
									c-1.91,2.02-0.28,9.16-4.68,7.6c-2.95-1.18-2.9-5.79-6.22-2.03c-1.02,1.2-1.5,2.55-3.29,3.13
									c-1.68,0.82-3.61,0.11-5.51,0.46c-1.47,0.25-8.24,4.79-5.06,6.45c1.86,0.9,4.47-5.35,6.74-3.92
									c2.45,1.47-1.25,5.76-2.82,6.82c3.08,0.8,8.66,0.15,10.46,2.92c1.56,2.29-0.82,10.7-4.77,10.09
									c-2.31-0.18-1.79-4.45-3.83-3.72c-0.5,0.29-0.93,2.07-1.86,2.45c-1.36,0.49-2.43-0.42-3.65-0.32
									c-4.15-0.03-3.16,2.75-4.72,5.49c-0.59,1.11-3.5,2.03-3.45,2.46c-0.36,1.58,5.9,2.37,5.8,4.86c0.04,2.11-4.2,4.58-5.65,5.88
									c2.84-0.73,6.76,0.49,5.58,4.38c-1.21,4.51-3.81,0.69-5.94,0.56c-2.56-0.04-0.68,1.92-2.68,3.08
									c-2.43,1.26-5.4-4.34-8.23-3.6c-3.38,0.59-1.68,5.86-4.04,6.92c-1.68,0.82-2.36-2.29-4.11-1.27
									c-1.32,0.92-0.41,4.51-2.36,4.42c-0.79,0-1.72-2.96-2.17-3.92c-0.77,1.06-3.2,3.99-4.45,3.04
									c-1.84-1.53,3.91-8.22,2.75-9.99c-1.34-1.82-6.17,1.76-8.3-0.05c-2.02-1.57-0.24-6.57-2.67-6.99
									c-1.81-0.47-5.95,3.91-6.6,0.18c-0.61-3.31,5.47-7.6,7.04-10.34c2.02-3.46,0.48-4.7-1.76-6.75
									c-1.84-1.53-1.68-2.53-0.36-5.13c-6.7,6.03-8.98-8.2-2.94-7.9c-1.25-2.63-3.6-8.28,0.53-9.3c1.72-0.39,2.9,0.75,4.31-0.98
									c0.95-1.01,1.09-3.08,1.32-4.27c0.27,0.91,0.68,1.44,1.34,1.81c-0.11-1.92-0.72-3.54-0.65-5.41
									c-0.07-1.49,0.77-2.74,0.89-4.17c0.14-3.74-5.05-5.3-1.81-8.86c1.84-1.83,2.97-2.8,2.95-5.53c0.18-1.63-0.86-4.84,0.05-6.28
									c2.13-3.22,7.19-1.28,6.79-6.84c0.97,1.72,2.86,3.68,4.94,3.38c3.68-0.31,3.5-5.39,6.15-6.17
									c5.38-1.75,4.21,14.94,0.06,11.55c3.99-0.64,9.14,3.84,9.36,7.67c0.11,3.59-5.09,5.4-4.59,8.46
									c5.08-2.04,8.6-6.37,11.69-10.61c4.31-6.02,2.41-0.64,4.92,2.32c3.29,3.58,4.06-5.87,6.13-7.22
									c2.68-1.41,4.33,3.43,5.42,5.39c3.68-7.02,4.67,2.47,5.46,5.82c2.54-2.7,4.22-6.88,7.65-8.71c1,1.1,0.25,3.21,0.13,4.65
									c1.61-0.63,6.42-3.58,7.58-1.81c1.93,2.39-5.36,7.84-3.84,9.7c1.22,1.58,6.15-2.81,7.94-0.04
									C360.6,69.04,358.15,70.93,356.2,70.84z"/>
							</g>
							<g opacity="0.4">
								<path fill="#6FC048" d="M292.01,136.65c0.45,0.96,1.38,3.92,2.17,3.92c1.95,0.09,1.05-3.51,2.36-4.42
									c1.75-1.02,2.43,2.1,4.11,1.27c2.36-1.07,0.66-6.33,4.04-6.92c2.84-0.73,5.8,4.86,8.23,3.6c2-1.16,0.12-3.12,2.68-3.08
									c2.13,0.13,4.74,3.96,5.94-0.56c1.18-3.89-2.74-5.12-5.58-4.38c1.45-1.3,5.7-3.77,5.65-5.88c0.09-2.49-6.17-3.28-5.8-4.86
									c-0.05-0.43,2.86-1.36,3.45-2.46c1.57-2.74,0.57-5.52,4.72-5.49c1.23-0.1,2.29,0.8,3.65,0.32c0.93-0.39,1.36-2.16,1.86-2.45
									c2.04-0.73,1.52,3.54,3.83,3.72c3.95,0.6,6.34-7.8,4.77-10.09c-1.79-2.77-7.37-2.12-10.46-2.92
									c1.57-1.06,5.27-5.35,2.82-6.82c-2.27-1.43-4.88,4.82-6.74,3.92c-3.17-1.66,3.59-6.2,5.06-6.45
									c1.91-0.34,3.83,0.36,5.51-0.46c1.79-0.58,2.27-1.93,3.29-3.13c3.32-3.76,3.27,0.85,6.22,2.03c4.4,1.56,2.77-5.58,4.68-7.6
									c2.27-1.93,3.02,2.67,5.38,1.6c1.93-0.97,3.14-7.16,2.32-8.21c1.75,0.08,3.9-1.43,3.49-3.02c-1.66-0.32-3.33-0.58-5.01-0.77
									c-1.38,0.5-2.63,0.95-3.17,0.26c-0.12-0.15-0.18-0.32-0.2-0.51c-5.93-0.25-11.93,0.6-17.84,3.24
									c-11.02,4.85-19.6,14.19-30.48,18.65c-10.66,4.69-16.52,8.64-24.65,17.35c2.07,1.89,3.38,3.17,1.45,6.47
									c-1.57,2.74-7.65,7.04-7.04,10.34c0.66,3.74,4.79-0.65,6.6-0.18c2.43,0.42,0.65,5.41,2.67,6.99
									c2.13,1.81,6.97-1.76,8.3,0.05c1.15,1.77-4.59,8.46-2.75,9.99C288.81,140.65,291.24,137.71,292.01,136.65z"/>
							</g>
						</g>
						<g>
							<g>
								<g>
									<path fill="#FEE7E5" d="M362.3,118.22c5.92-3.88,11.93-10.57,14.81-17.13c5.65-12.88,3.28-31.21-9.88-35.43
										c-11.54-3.44-28.54,4.66-36.23,17.6C317.45,105.8,341.29,131.48,362.3,118.22z M333.43,84.24
										c6.88-11.57,22.08-18.82,32.39-15.74c11.76,3.77,13.89,20.16,8.83,31.67c-2.57,5.87-7.94,11.85-13.24,15.32
										C342.63,127.35,321.32,104.39,333.43,84.24z"/>
								</g>
							</g>
							<path fill="#933361" d="M346.35,123.3c12.31,2.21,26.06-8.25,32.12-21.6c4.09-9.57,4.09-20.01,0.38-27.95
								c-4.15-8.88-13.22-11.99-23.09-9.94c-9.87,2.05-20.12,9-26.1,18.82c-4.23,6.95-5.08,14.9-3.33,21.63
								C328.92,114.24,336.8,121.58,346.35,123.3z M334.66,113.65c-4.55-4.77-7.35-11.75-6.56-19.52
								c1.04-10.27,9.36-19.16,17.92-23.92c9.96-5.55,21.48-6.27,28.08,1.36c5.87,6.79,6.55,19.12,2.26,29.13
								c-4.46,9.83-13.85,18.75-23.47,20.03C345.67,121.68,339.19,118.4,334.66,113.65z"/>
						</g>
						<g>
							<g>
								<path fill="#E22424" d="M368.84,80.06c-4.83,23.53-30.28,33.04-50.52,36.14c-0.31-2.12-0.15-7.8-0.15-7.8
									c0.51-0.63,5.39-2.32,7.42-2.78c3.63-0.83,7.26-1.66,10.84-3.36c11.18-5.37,21.31-14.9,27.48-25.94L368.84,80.06z"/>
							</g>
							<g>
								<path fill="#9D0800" d="M368.84,80.06l-1.69-1.28c-3.83,9.42-8.66,17.26-17.56,23.44c-7.42,5.06-15.45,8.59-23.91,9.91
									c-2.55,0.36-5.06,0.59-7.54,0.7c0.02,1.3,0.07,2.58,0.18,3.37C338.56,113.11,364,103.59,368.84,80.06z"/>
							</g>
						</g>
						<g>
							<g>
								<path fill="#E22424" d="M287.77,95.92c0.41-2.47,1.56-4.9,2.96-7.01c4.06-7.27,9.24-14.01,13.47-21.42
									c6.39-11.35,11.48-23.08,15.46-35.33l-7.74-0.55c-2.39,7.2-4.9,14.23-8.71,20.89c-3.81,6.66-8.43,12.8-12.64,19.13
									c-4.58,6.77-8.96,14.18-11.28,21.84L287.77,95.92z"/>
							</g>
							<g>
								<path fill="#9D0800" d="M317.89,32.03c-4.44,10.11-8.58,20.22-13.85,30c-2.81,5.15-5.61,10.3-9.09,14.95
									c-3.05,3.89-5.85,7.17-7.66,11.75c-0.77,2.14-1.4,4.33-1.8,6.53l2.27,0.66c0.41-2.47,1.56-4.9,2.96-7.01
									c4.06-7.27,9.24-14.01,13.47-21.42c6.39-11.35,11.48-23.08,15.46-35.33L317.89,32.03z"/>
							</g>
						</g>
						<g>
							<g>
								<path fill="#D34F36" d="M387.49,110.42c-6.34-9.39-30.8-10.64-36.11,4.94c-2.67,8.24-1.89,17.69-3.11,26.11
									c-4.53,5.71-2.79,13.68-1.39,15.79c3.74,5.66,14.71,8.9,20.62,6.46c2.67-1.1,18.54-29.96,19.56-30.96
									C388.07,131.77,389.96,114.08,387.49,110.42z"/>
							</g>
							<g>
								<path fill="#9D0800" d="M367.5,163.72c2.67-1.1,18.54-29.96,19.56-30.96c0.95-0.93,2.65-16.35,0.88-21.41l0,0
									c0,0-18.24,41.49-23,43.65c-3.25,1.47-13.31-0.39-19.36-1.72c0.29,1.8,0.81,3.24,1.29,3.98
									C350.61,162.92,361.58,166.16,367.5,163.72z"/>
							</g>
							<g>
								<g>
									<path fill="#9D0800" d="M377.79,115.95c-7.16,1.58-14.31,0.72-21.43,2.89c-0.76,0.23-0.49,1.38,0.27,1.15
										c7.11-2.17,14.28-1.31,21.43-2.89C378.83,116.93,378.55,115.78,377.79,115.95L377.79,115.95z"/>
								</g>
								<g>
									<path fill="#9D0800" d="M373.29,126.12c-5.91,1.29-11.83,1.55-17.74,2.28c-0.77,0.1-0.82,1.31-0.05,1.22
										c6.03-0.75,12.05-1.04,18.06-2.35C374.33,127.1,374.05,125.95,373.29,126.12L373.29,126.12z"/>
								</g>
								<g>
									<path fill="#9D0800" d="M365.7,137.1c-3.22,0.23-6.43,0.24-9.65,0.47c-0.77,0.05-0.82,1.27-0.05,1.22
										c3.22-0.24,6.43-0.24,9.65-0.47C366.42,138.26,366.47,137.04,365.7,137.1L365.7,137.1z"/>
								</g>
								<g>
									<path fill="#9D0800" d="M361.3,144.88c-1.27,0.1-2.54,0.2-3.81,0.3c-0.77,0.06-0.82,1.28-0.05,1.22
										c1.27-0.1,2.54-0.2,3.81-0.3C362.02,146.04,362.07,144.82,361.3,144.88L361.3,144.88z"/>
								</g>
								<g>
									<path fill="#9D0800" d="M374.71,109.64c-3.07-0.07-6.13-0.14-9.17-0.44c-0.75-0.08-1.12,1.12-0.37,1.2
										c3.14,0.31,6.31,0.39,9.48,0.46C375.42,110.87,375.46,109.65,374.71,109.64L374.71,109.64z"/>
								</g>
							</g>
						</g>
						<g>
							<g>
								<path fill="#EF921B" d="M399.51,88.43c-2.33,0.96-4.45,2.63-6.2,4.46c-6.2,5.58-11.64,12.12-17.94,17.9
									c-9.68,8.76-20.02,16.36-31.14,23l-2.31-7.35c6.51-3.95,12.84-7.99,18.5-13.19c5.66-5.2,10.64-11.07,15.88-16.58
									c5.6-5.97,11.86-11.9,18.86-15.88L399.51,88.43z"/>
							</g>
							<g>
								<path fill="#F7B141" d="M343.7,132.12c8.91-6.59,17.88-12.91,26.27-20.23c4.41-3.89,8.83-7.78,12.59-12.2
									c3.12-3.84,5.7-7.29,9.78-10.08c1.92-1.23,3.93-2.34,5.99-3.23l1.16,2.05c-2.33,0.96-4.45,2.63-6.2,4.46
									c-6.2,5.58-11.64,12.12-17.94,17.9c-9.68,8.76-20.02,16.36-31.14,23L343.7,132.12z"/>
							</g>
						</g>
						<g>
							<g>
								<path fill="#EF921B" d="M339.55,39.68c-5.69,9.27-11.15,20.04-19.89,27c-6.82,5.68-14.4,8.96-20.11,15.97
									c-1.46,1.65-2.65,3.42-3.97,5.12l-5.95-5.6c3.99-5.82,9.52-11.16,15.22-15.22c5.43-3.82,9.84-7.55,13.96-12.96
									c4.67-6.22,8.48-12.98,12.16-19.79L339.55,39.68z"/>
							</g>
							<g>
								<path fill="#F7B141" d="M337.02,38.07c-5.22,10.89-11.43,21.81-21.3,29.06c-3.16,2.16-6.58,3.87-9.8,5.83
									c-3.64,2.48-6.89,5.48-9.94,8.72c-1.05,1.17-2.03,2.41-2.97,3.68l2.56,2.41c1.32-1.71,2.51-3.47,3.97-5.12
									c5.71-7.01,13.28-10.29,20.11-15.97c8.75-6.96,14.2-17.72,19.89-27L337.02,38.07z"/>
							</g>
						</g>
						<g>
							<g>
								<path fill="#B0D767" d="M292.98,79.21c0.81-14.44,9.38-24.01,21.96-31.41c1.69-0.97,3.47-1.79,5.3-2.43
									c2.42,10.47,4.9,21.05,7.46,31.43c2.25,8.47,4.63,16.88,7.11,25.23c-8.45,3.79-18.89,4.29-26.92,1.62
									C297.18,99.78,292.04,91.26,292.98,79.21z"/>
							</g>
							<g>
								<path fill="#FFFDC0" d="M296.72,79.08c0.73-13.15,8.54-21.86,19.99-28.6c1.36-0.78,2.78-1.45,4.24-1.99
									c2.19,9.45,4.43,18.96,6.74,28.32c2.08,7.82,4.26,15.6,6.54,23.32c-7.59,3.23-16.81,3.6-23.94,1.22
									C300.54,97.82,295.86,90.06,296.72,79.08z"/>
							</g>
							<g>
								<path fill="#B0D767" d="M317.68,66.88c1.67-1.93,4-3.56,6.51-4.59c1.15,4.86,2.32,9.71,3.5,14.51
									c1.12,4.23,2.28,8.44,3.46,12.64c-1.88,1.22-3.73,2.19-4.72,2.36c-4.59,0.57-8.66-2.58-10.8-6.13
									C312.23,80.23,312.64,72.48,317.68,66.88z"/>
							</g>
							<g>
								<path fill="#FFFDC0" d="M325.71,72.52c0.02-0.02,0.04-0.04,0.06-0.06c0.78-0.86,0.57-2.08,0.1-2.86
									c-0.01-0.03-0.03-0.06-0.05-0.09c-1.1-1.81-4.06-0.47-4.4,1.54c-0.18,1.12,0.4,2.16,1.39,2.5
									C323.89,73.92,324.91,73.4,325.71,72.52z"/>
								<path fill="#FFFDC0" d="M322.52,80.98c0.53-0.12,0.89-0.33,1.35-0.65c1.3-0.92,1.15-2.86,0.13-3.63
									c-0.21-0.16-0.44-0.3-0.71-0.35c-1.42-0.28-3,0.48-3.29,2.16C319.75,80.04,321.01,81.31,322.52,80.98z"/>
								<path fill="#FFFDC0" d="M328.73,85.52c0.2-0.35,0.35-0.65,0.49-1.01c0.64-1.66-0.81-3.17-2.45-2.39
									c-0.33,0.16-0.68,0.33-0.96,0.59c-0.92,0.86-1.23,2.18-0.52,3.11C326.03,86.78,327.96,86.84,328.73,85.52z"/>
							</g>
						</g>
						<g>
							<g>
								<path fill="#D34F36" d="M297.8,113.13c-1.23,2.92-1.06,6.13-0.46,8.87c0.8,3.73,4.18,5.52,7.04,7.6
									c2.87,2.08,5.43,5.19,9.49,3.39c3.28-1.23,5.94-4.7,8.77-6.66c11.45-1.04,21.13-11.04,26.6-21.02l0,0
									c-2.3-8.18-9.16-19.94-18.04-20.24C328.73,85,299.77,108.45,297.8,113.13z"/>
							</g>
							<g>
								<path fill="#9D0800" d="M346.41,98.17c-4.86,9.43-14.24,18.39-18.82,18.6c-5.46,0.25-12.67,10.34-16.91,10.88
									c-4.24,0.54-12.88-14.53-12.88-14.53c-1.23,2.92-1.06,6.13-0.46,8.87c0.8,3.73,4.18,5.52,7.04,7.6
									c2.87,2.08,5.43,5.19,9.49,3.39c3.28-1.23,5.94-4.7,8.77-6.66c11.45-1.04,21.13-11.04,26.6-21.02
									C348.61,103.1,347.65,100.62,346.41,98.17z"/>
							</g>
							<g>
								<g>
									<path fill="#9D0800" d="M308.32,107.97c3.99,1.93,7.17,5.35,10.11,8.58c0.42,0.46,1.17-0.32,0.76-0.78
										c-2.99-3.29-6.24-6.76-10.31-8.72C308.31,106.77,307.76,107.7,308.32,107.97L308.32,107.97z"/>
								</g>
								<g>
									<path fill="#9D0800" d="M313.61,103.87c5.71,1.96,10.91,5.54,15.13,9.7c0.44,0.43,1.2-0.35,0.75-0.78
										c-4.36-4.28-9.7-7.91-15.57-9.93C313.33,102.65,313.02,103.67,313.61,103.87L313.61,103.87z"/>
								</g>
								<g>
									<path fill="#9D0800" d="M324.32,95.51c3.96,2.02,7.94,3.96,11.56,6.53c0.51,0.36,1.06-0.57,0.56-0.93
										c-3.62-2.57-7.59-4.51-11.55-6.53C324.32,94.29,323.76,95.22,324.32,95.51L324.32,95.51z"/>
								</g>
								<g>
									<path fill="#9D0800" d="M304.16,114.48c1.19,1.18,2.5,2.22,3.8,3.28c0.48,0.39,1.24-0.39,0.76-0.78
										c-1.3-1.06-2.6-2.1-3.8-3.28C304.48,113.27,303.72,114.05,304.16,114.48L304.16,114.48z"/>
								</g>
							</g>
						</g>
						<g>
							<g>
								<path fill="#D3E264" d="M294.19,150.1c-1.22-2.67-3.12-14.2,2.46-14.63c4.13-0.38,4.4,10.46,10.38,5.33
									c6-5.38-1.64-6.11-3.08-9.02c-1.66-3.15,5.38-12.26,8.27-9.39c1.1,1.2-0.16,4.69,0.96,5.64c1.59,1.18,3.51-1.59,4.58-2.86
									c5.3-5.6,3.03-1.58,7.18,0.5c5.52,3.02,6.58-3.67,4.94-7.07c-0.78-2.19-2.94-5.08-2.49-7.56c0.47-2.73,1.95-3.02,3.73-1.35
									c3.83,3.08,1.88,17.44,9.21,10.55c2.87-2.56,11.51-13.45,10.44-3.79c3.68-3.57,9.88-8.46,13.01-2.89
									c2.32,3.87-1.76,12.14,1.39,14.75c1.34,1.19,4.31,0.35,5.95,0.79c2.84,0.65,4.62,2.31,4.83,5.51
									c0.54,4.91-2.27,12.4-7.77,9.13c-2.97-1.88-9.76-9.79-12.74-3.03c-2.36,5.01,3.94,10.23,1.91,14.24
									c-0.59,1.25-2.26,1.06-3.05,1.82c-1.82,1.54-1.46,3.01-0.91,4.96c0.67,3.43,5.56,13.87,0.27,16.51
									c-5.55,2.89-8.02-7.63-12.32-7.98c-4.99-0.82-6.67,7.62-7.21,11.08c-4.41-4.78-8.82-3.9-14.85-0.99
									c-5,2.14-8.49,3.48-7.94-2.94c0.18-4.94-0.28-5.17-4.18-7.51c-2.75-1.64-5.34-7.96-8.44-8.36
									c-3.36-0.14-7.36,7.15-10.85,5.78c-2.55-1.15-0.2-6.16-1.7-8.33c-1.48-2.42-5.59-2.28-4.3-6.02
									C282.81,150.72,292.38,148.68,294.19,150.1z"/>
							</g>
							<g opacity="0.4">
								<path fill="#D3E264" d="M311.36,177.4c0.18-4.94-0.28-5.17-4.18-7.51c-2.75-1.64-5.34-7.96-8.44-8.36
									c-3.36-0.14-7.36,7.15-10.85,5.78c-1.4-0.63-1.32-2.41-1.21-4.26c6.03-2.6,12.24-4.91,18.89-7.05
									c10.61-3.37,20.2-6.2,28.77-14.53c9.99-10.34,20.3-19.03,25.6-30.45c1.48,0,2.83,0.7,3.85,2.52
									c2.32,3.87-1.76,12.14,1.39,14.75c1.34,1.19,4.31,0.35,5.95,0.79c2.84,0.65,4.62,2.31,4.83,5.51
									c0.54,4.91-2.27,12.4-7.77,9.13c-2.97-1.88-9.76-9.79-12.74-3.03c-2.36,5.01,3.94,10.23,1.91,14.24
									c-0.59,1.25-2.26,1.06-3.05,1.82c-1.82,1.54-1.46,3.01-0.91,4.96c0.67,3.43,5.56,13.87,0.27,16.51
									c-5.55,2.89-8.02-7.63-12.32-7.98c-4.99-0.82-6.67,7.62-7.21,11.08c-4.41-4.78-8.82-3.9-14.85-0.99
									C314.3,182.48,310.81,183.83,311.36,177.4z"/>
							</g>
						</g>
						<g>
							<g>
								<path fill="#D3E264" d="M290.78,79.14c-2.45-1.51-13.38-4.61-14.34,1.08c-0.78,4.2,9.64,5.56,4.11,11.2
									c-5.77,5.63-5.73-2.29-8.39-4.06c-2.87-2.01-12.35,4.32-9.87,7.57c1.04,1.25,4.54,0.3,5.34,1.55
									c0.98,1.74-1.88,3.45-3.21,4.42c-5.92,4.89-1.82,2.95-0.22,7.43c2.37,5.97-4.19,6.39-7.3,4.38
									c-2.04-1.01-4.61-3.52-7.04-3.3c-2.68,0.22-3.11,1.7-1.67,3.7c2.59,4.24,16.63,3.66,9.25,10.51
									c-2.75,2.69-14.1,10.49-4.69,10.35c-3.81,3.42-9.13,9.31-4.07,13.08c3.5,2.77,11.87-0.61,14.08,2.88
									c1.01,1.5-0.09,4.46,0.17,6.2c0.34,2.98,1.77,4.97,4.83,5.5c4.68,1.04,12.18-1.1,9.57-7.08c-1.51-3.24-8.47-11-1.66-13.4
									c5.06-1.93,9.47,5.06,13.53,3.37c1.27-0.48,1.25-2.21,2.06-2.95c1.66-1.72,3.04-1.2,4.87-0.44
									c3.24,1.03,12.82,7.08,15.89,1.91c3.34-5.41-6.56-8.99-6.47-13.45c-0.3-5.21,8-6.1,11.4-6.31c-4.18-5-2.89-9.45,0.51-15.35
									c2.55-4.93,4.2-8.38-2.05-8.45c-4.78-0.3-4.95-0.8-6.82-5.03c-1.31-2.99-7.15-6.27-7.22-9.5c0.2-3.47,7.61-6.85,6.65-10.58
									c-0.85-2.73-5.92-0.81-7.86-2.57c-2.18-1.76-1.65-5.96-5.38-5.01C292.5,67.52,289.59,77.15,290.78,79.14z"/>
							</g>
							<g opacity="0.4">
								<path fill="#D3E264" d="M315.39,99.49c-4.78-0.3-4.95-0.8-6.82-5.03c-1.31-2.99-7.15-6.27-7.22-9.5
									c0.2-3.47,7.61-6.85,6.65-10.58c-0.47-1.5-2.2-1.6-3.99-1.67c-3.1,5.94-5.94,12.1-8.66,18.71
									c-4.3,10.57-7.97,20.14-16.85,28.13c-10.95,9.24-20.35,18.98-31.88,23.29c-0.14,1.52,0.4,2.97,2.04,4.2
									c3.5,2.77,11.87-0.61,14.08,2.88c1.01,1.5-0.09,4.46,0.17,6.2c0.34,2.98,1.77,4.97,4.83,5.5c4.68,1.04,12.18-1.1,9.57-7.08
									c-1.51-3.24-8.47-11-1.66-13.4c5.06-1.93,9.47,5.06,13.53,3.37c1.27-0.48,1.25-2.21,2.06-2.95c1.66-1.72,3.04-1.2,4.87-0.44
									c3.24,1.03,12.82,7.08,15.89,1.91c3.34-5.41-6.56-8.99-6.47-13.45c-0.3-5.21,8-6.1,11.4-6.31c-4.18-5-2.89-9.45,0.51-15.35
									C319.99,103.01,321.64,99.56,315.39,99.49z"/>
							</g>
						</g>
						<g>
							<path fill="#933361" d="M321.33,115.72c6.1-11.65,1.61-25.02-7.99-31.15c-6.97-4.16-16.09-4.45-24.28-1.13
								c-9.16,3.7-14.94,12.24-16.49,21.69c-1.55,9.44,1.05,19.39,7.6,25.35c4.64,4.22,11.29,5.25,17.76,3.76
								C307.52,132.05,316.6,124.75,321.33,115.72z M308.95,126.57c-5.7,4.19-12.74,6.66-19.26,5.7
								c-8.62-1.27-13.56-9.44-14.82-17.71c-1.47-9.63,1.79-20.61,10.69-26.67c7.91-5.4,18.9-5.69,26.19-1.34
								c7.07,4.52,11.69,13.69,9.54,22.88C319.69,116.32,314.64,122.39,308.95,126.57z"/>
							<g>
								<g>
									<path fill="#FEE7E5" d="M322.9,100.23c-1.41-5.88-5.32-11.92-10.18-14.91c-9.55-5.87-26.76-4.08-35.09,8.61
										c-7.07,11.14-5.72,27.93,3.18,35.79C296.26,143.55,327.48,121.07,322.9,100.23z M282.53,127.38
										c-7.96-7.03-9.17-22.04-2.85-32c7.45-11.35,22.83-12.95,31.37-7.7c4.35,2.67,7.84,8.07,9.1,13.33
										C324.25,119.64,296.34,139.75,282.53,127.38z"/>
								</g>
							</g>
						</g>
						<g>
							<g>
								<path fill="#E22424" d="M358.95,139.41c-7.62,7.81-15.38,17.16-25.3,21.88c-7.8,3.93-15.72,5.27-22.79,10.81
									c-1.77,1.28-3.32,2.73-4.99,4.1l-4.21-7.11c5.17-4.79,11.67-8.71,18.02-11.31c6.03-2.43,11.09-5.03,16.28-9.38
									c5.91-5.02,11.15-10.79,16.26-16.66L358.95,139.41z"/>
							</g>
							<g>
								<path fill="#9D0800" d="M356.98,137.16c-7.57,9.54-16.08,18.85-27.12,23.58c-3.5,1.35-7.13,2.18-10.63,3.32
									c-4.03,1.55-7.81,3.71-11.47,6.18c-1.27,0.9-2.5,1.89-3.69,2.91l1.81,3.06c1.66-1.37,3.21-2.82,4.99-4.1
									c7.08-5.54,14.99-6.88,22.79-10.81c9.92-4.72,17.68-14.07,25.3-21.88L356.98,137.16z"/>
							</g>
						</g>
						<g>
							<g>
								<path fill="#EF921B" d="M299.49,102.89c14.98,16.06,4.47,41.68-7.38,59.75c-1.88-0.84-6.2-3.9-6.2-3.9
									c-0.14-0.74,1.99-5.59,3.06-7.47c1.91-3.38,3.82-6.77,5.03-10.56c3.69-11.87,3.38-25.03-0.9-35.74L299.49,102.89z"/>
							</g>
							<g>
								<path fill="#F7B141" d="M299.49,102.89l-2.19,0.71c4.66,7.98,7.38,15.95,5.94,26.37c-1.28,8.65-4.19,17.01-9.12,24.57
									c-1.51,2.26-3.11,4.42-4.78,6.5c1.03,0.66,2.07,1.28,2.77,1.59C303.96,144.57,314.47,118.95,299.49,102.89z"/>
							</g>
						</g>
						<g>
							<g>
								<path fill="#6FC048" d="M283.87,128.69c0.09,7.07,2.19,14.12,6.11,20.06c7.26,10.86,21.96,10.48,32.56,3.89
									c12.19-7.73,20.38-17.42,20.87-31.49c-10.63,1.6-21.37,3.2-31.96,4.65C302.25,126.9,293.05,127.86,283.87,128.69z"/>
							</g>
							<g>
								<path fill="#FFFDC0" d="M285.44,128.55c0.14,6.33,2.05,12.63,5.56,17.95c6.61,9.89,20,9.54,29.65,3.54
									c11-6.98,18.42-15.7,19-28.32c-9.4,1.41-18.86,2.8-28.2,4.08C302.77,126.84,294.1,127.75,285.44,128.55z"/>
							</g>
							<g>
								<path fill="#B0D767" d="M296.59,127.46c0.16,4,1.55,7.87,4.58,10.46c4.99,4.39,13.73,1,17.92-4.16
									c2.43-2.88,3.67-6.26,3.86-9.58c-3.84,0.55-7.68,1.1-11.5,1.62C306.5,126.4,301.54,126.95,296.59,127.46z"/>
							</g>
							<g>
								<g>
									<path fill="#FFFDC0" d="M302.7,131.97c0.37,0.04,0.68,0.06,1.05,0.04c1.68-0.1,2.79-2.17,1.71-3.43
										c-0.22-0.26-0.45-0.52-0.76-0.68c-0.99-0.52-2.29-0.24-3.01,0.86C300.96,129.9,301.31,131.8,302.7,131.97z"/>
									<path fill="#FFFDC0" d="M309.33,135.48c2.26-0.06,3.92-3.1,2.36-4.72c0-0.01,0,0,0-0.01c-0.04-0.08-0.08-0.16-0.11-0.23
										c-0.23-0.56-0.7-0.97-1.35-0.97c-0.78,0-1.77,0.67-2.33,1.26c-0.72,0.77-1.14,1.69-0.97,2.69
										C307.12,134.68,308.12,135.51,309.33,135.48z"/>
									<path fill="#FFFDC0" d="M315.19,127.46c-1.05,0.4-2.07,1.32-2.11,2.53c0,0.09,0,0.17,0,0.26c0.01,1.07,0.3,1.98,1.2,2.52
										c1.05,0.64,2.51,0.42,3.52-0.52c1.01-0.95,1.36-2.45,0.84-3.59c-0.48-1.05-1.88-1.84-3.12-1.33
										C315.4,127.38,315.29,127.42,315.19,127.46z"/>
								</g>
							</g>
						</g>
						<g>
							<g>
								<path fill="#D34F36" d="M290.33,115.12c-1.07-2.62-3.29-4.45-6.01-5.43c0,0-18.56,2.46-19.45,8.76
									c-1.15,8.1-1.99,18.03-4.4,26.26c-1.35,4.9-4.6,11.7-1.46,16.03c3.18,4.1,10.16,6,15.16,4.54
									c1.86-0.54,12.24-12.72,12.49-14.07C286.91,149.86,291.38,117.7,290.33,115.12z"/>
							</g>
							<g>
								<path fill="#9D0800" d="M274.16,165.27c1.86-0.54,12.24-12.72,12.49-14.07c0.25-1.34,4.72-33.51,3.67-36.09
									c-1.07-2.62-3.29-4.45-6.01-5.43C284.32,109.69,285.31,136.11,274.16,165.27z"/>
							</g>
							<g>
								<g>
									<path fill="#9D0800" d="M277.72,136.23c-4.54,1-9.09,1.82-13.64,2.62c-0.58,0.1-0.51,1,0.07,0.9
										c4.55-0.8,9.1-1.62,13.64-2.62C278.36,137,278.29,136.1,277.72,136.23L277.72,136.23z"/>
								</g>
								<g>
									<path fill="#9D0800" d="M266.18,145.82c3.24,0.66,6.58,0.72,9.95,0.74c0.57,0,0.75-0.91,0.17-0.91
										c-3.36-0.02-6.71-0.09-9.95-0.74C265.8,144.8,265.63,145.71,266.18,145.82L266.18,145.82z"/>
								</g>
								<g>
									<path fill="#9D0800" d="M266.18,152.87c1.44,0.12,2.84,0.42,4.28,0.55c0.57,0.05,0.74-0.87,0.17-0.92
										c-1.44-0.12-2.84-0.43-4.28-0.55C265.78,151.91,265.61,152.82,266.18,152.87L266.18,152.87z"/>
								</g>
								<g>
									<path fill="#9D0800" d="M279.18,120.2c-4.26,1.11-8.59,1.49-12.76,3.19c-0.56,0.23-0.26,1.05,0.3,0.82
										c4.09-1.66,8.35-2.02,12.53-3.11C279.82,120.95,279.75,120.05,279.18,120.2L279.18,120.2z"/>
								</g>
								<g>
									<path fill="#9D0800" d="M276.46,129.53c-3.08-0.12-6.01,1.47-9.07,1.6c-0.57,0.02-0.75,0.94-0.17,0.91
										c3.06-0.13,6-1.71,9.07-1.6C276.86,130.47,277.03,129.55,276.46,129.53L276.46,129.53z"/>
								</g>
							</g>
						</g>
						<g>
							<path fill="#FEE7E5" d="M290.34,108.77l-0.67,2.44c0,0,15.16,10.94,17.63,23.53c2.47,12.59-5.23,20.19-9.32,22.9
								c-4.09,2.71-19.05,5.46-19.05,5.46l-0.86,2.11l2.8,1.72c0,0,20.48,0.21,27.79-17.43c7.31-17.64-0.78-26.22-5.36-31.39
								C298.72,112.95,290.34,108.77,290.34,108.77z"/>
							<g>
								<path fill="#933361" d="M278.06,165.21c5.37-0.19,11.08-0.32,16.32-2.57c10.13-4.57,15.75-15.87,15.24-26.18
									c-0.72-12.76-10.38-20.76-19.28-27.69l1.42-2.54c10.17,8.08,22.54,17.84,20.72,33.33c-1.09,10.97-9.37,22.92-19.91,27.05
									c-4.19,1.69-11.03,2.05-15.36,1.68L278.06,165.21z"/>
							</g>
						</g>
						<g>
							<g>
								<path fill="#6FC048" d="M316.68,156.32c0.82,1.05-0.39,7.24-2.32,8.21c-2.36,1.07-3.1-3.53-5.37-1.6
									c-1.91,2.02-0.28,9.16-4.68,7.6c-2.95-1.18-2.9-5.79-6.22-2.03c-1.02,1.2-1.5,2.55-3.29,3.13
									c-1.68,0.82-3.61,0.11-5.51,0.46c-1.48,0.25-8.24,4.79-5.06,6.45c1.86,0.9,4.47-5.34,6.74-3.92
									c2.45,1.47-1.25,5.76-2.82,6.82c3.08,0.8,8.66,0.15,10.45,2.92c1.56,2.29-0.82,10.7-4.77,10.09
									c-2.31-0.18-1.79-4.45-3.83-3.72c-0.5,0.29-0.93,2.07-1.86,2.46c-1.36,0.49-2.43-0.42-3.65-0.32
									c-4.15-0.03-3.16,2.75-4.72,5.49c-0.59,1.11-3.5,2.03-3.45,2.46c-0.36,1.58,5.9,2.37,5.8,4.86c0.04,2.11-4.2,4.58-5.65,5.88
									c2.84-0.73,6.76,0.49,5.58,4.38c-1.21,4.51-3.81,0.69-5.94,0.56c-2.56-0.04-0.68,1.92-2.68,3.08
									c-2.43,1.26-5.4-4.34-8.23-3.6c-3.38,0.59-1.68,5.86-4.04,6.92c-1.68,0.82-2.36-2.29-4.11-1.27
									c-1.32,0.92-0.41,4.51-2.36,4.42c-0.8,0.01-1.72-2.96-2.18-3.92c-0.77,1.06-3.2,3.99-4.45,3.04
									c-1.84-1.52,3.91-8.22,2.75-9.99c-1.33-1.82-6.17,1.76-8.3-0.05c-2.02-1.57-0.24-6.57-2.67-6.99
									c-1.81-0.47-5.95,3.91-6.6,0.17c-0.61-3.3,5.47-7.6,7.04-10.34c2.02-3.46,0.48-4.7-1.76-6.75
									c-1.84-1.53-1.68-2.53-0.36-5.13c-6.7,6.03-8.98-8.2-2.94-7.9c-1.25-2.63-3.6-8.28,0.53-9.3c1.73-0.39,2.91,0.75,4.31-0.98
									c0.96-1.01,1.09-3.08,1.32-4.27c0.27,0.91,0.68,1.44,1.34,1.82c-0.11-1.92-0.72-3.54-0.65-5.41
									c-0.07-1.48,0.77-2.74,0.89-4.17c0.14-3.74-5.06-5.3-1.81-8.86c1.84-1.83,2.97-2.8,2.95-5.53c0.18-1.63-0.86-4.84,0.05-6.28
									c2.13-3.22,7.19-1.28,6.79-6.84c0.97,1.72,2.86,3.68,4.94,3.38c3.68-0.31,3.5-5.39,6.15-6.17
									c5.38-1.75,4.21,14.94,0.06,11.56c3.99-0.64,9.14,3.84,9.36,7.67c0.11,3.59-5.09,5.4-4.59,8.46
									c5.08-2.04,8.6-6.37,11.69-10.61c4.31-6.01,2.41-0.64,4.92,2.32c3.29,3.58,4.07-5.87,6.13-7.22
									c2.68-1.41,4.33,3.43,5.42,5.39c3.68-7.02,4.67,2.47,5.46,5.82c2.54-2.7,4.22-6.88,7.65-8.72c1,1.1,0.25,3.21,0.13,4.65
									c1.61-0.63,6.42-3.58,7.58-1.81c1.93,2.39-5.36,7.84-3.84,9.7c1.22,1.58,6.15-2.81,7.94-0.04
									C321.08,154.52,318.63,156.41,316.68,156.32z"/>
							</g>
							<g opacity="0.4">
								<path fill="#6FC048" d="M252.49,222.13c0.45,0.96,1.38,3.93,2.18,3.92c1.95,0.09,1.04-3.5,2.36-4.42
									c1.75-1.02,2.42,2.1,4.11,1.27c2.36-1.07,0.66-6.33,4.04-6.92c2.84-0.73,5.81,4.86,8.23,3.6c2-1.16,0.12-3.12,2.68-3.08
									c2.13,0.13,4.74,3.96,5.94-0.56c1.18-3.89-2.74-5.12-5.58-4.38c1.45-1.3,5.7-3.77,5.65-5.88c0.09-2.49-6.17-3.28-5.8-4.86
									c-0.05-0.43,2.86-1.36,3.45-2.46c1.57-2.74,0.57-5.52,4.72-5.49c1.23-0.1,2.29,0.8,3.65,0.32c0.93-0.39,1.36-2.16,1.86-2.46
									c2.04-0.73,1.52,3.54,3.83,3.72c3.95,0.6,6.33-7.8,4.77-10.09c-1.79-2.77-7.37-2.12-10.45-2.92
									c1.57-1.06,5.27-5.35,2.82-6.82c-2.27-1.43-4.88,4.82-6.74,3.92c-3.17-1.66,3.59-6.2,5.06-6.45
									c1.91-0.34,3.83,0.37,5.51-0.46c1.79-0.58,2.27-1.93,3.29-3.13c3.31-3.76,3.27,0.85,6.22,2.03c4.4,1.56,2.77-5.58,4.68-7.6
									c2.27-1.93,3.02,2.67,5.37,1.6c1.93-0.97,3.14-7.16,2.32-8.21c1.75,0.08,3.9-1.43,3.49-3.02c-1.66-0.32-3.33-0.58-5.01-0.77
									c-1.38,0.49-2.63,0.95-3.17,0.26c-0.12-0.15-0.18-0.32-0.2-0.51c-5.93-0.25-11.93,0.59-17.84,3.24
									c-11.03,4.85-19.6,14.19-30.48,18.65c-10.66,4.69-16.53,8.64-24.65,17.35c2.07,1.89,3.38,3.17,1.45,6.47
									c-1.57,2.74-7.65,7.04-7.04,10.34c0.66,3.74,4.79-0.64,6.6-0.17c2.43,0.42,0.65,5.42,2.67,6.99
									c2.13,1.81,6.97-1.76,8.3,0.05c1.16,1.77-4.59,8.46-2.75,9.99C249.29,226.13,251.72,223.19,252.49,222.13z"/>
							</g>
						</g>
						<g>
							<g>
								<path fill="#D34F36" d="M301.58,192.37c9.39-8.11,17.67-14.58,21.99-26.28c7.09-0.32,13-13.19,5.72-15.36
									c-2.92-1.04-6.88,0.41-9.95,0.12c-3.86-0.65-7.08-2.08-11.04-0.64c-4.79,1.61-9.34,4.69-11.78,8.92
									c-2.45,4.25-6.42,25.46-6.18,26.91C290.6,187.48,301.58,192.37,301.58,192.37z"/>
							</g>
							<g>
								<path fill="#9D0800" d="M320.32,159.3c-2.68,0.68-7.47,8.43-14.71,16.43c-7.23,8-15.26,10.31-15.26,10.31
									c0.24,1.44,11.23,6.34,11.23,6.34c9.39-8.11,17.67-14.58,21.99-26.28c7.09-0.32,13-13.19,5.72-15.36
									c-0.47-0.17-0.98-0.26-1.49-0.32C326.3,155.4,322.93,158.63,320.32,159.3z"/>
							</g>
							<g>
								<g>
									<path fill="#9D0800" d="M298.5,160.66c1.24,5.1-1.64,11.31-2.51,16.54c-0.1,0.61,0.81,0.74,0.91,0.12
										c0.9-5.44,3.8-11.72,2.5-17.03C299.26,159.71,298.36,160.08,298.5,160.66L298.5,160.66z"/>
								</g>
								<g>
									<path fill="#9D0800" d="M303.79,156.49c0.28,4.08-0.01,8.25,0.57,12.28c0.08,0.59,1.03,0.46,0.94-0.13
										c-0.58-4.02-0.29-8.19-0.57-12.27C304.69,155.75,303.75,155.88,303.79,156.49L303.79,156.49z"/>
								</g>
								<g>
									<path fill="#9D0800" d="M309.48,155.66c0.57,1.46,0.57,3.14,0.69,4.73c0.05,0.61,0.99,0.48,0.94-0.13
										c-0.12-1.68-0.12-3.44-0.72-4.97C310.18,154.75,309.27,155.12,309.48,155.66L309.48,155.66z"/>
								</g>
							</g>
						</g>
						<g>
							<path fill="#933361" d="M271.14,144.17c-6.48,0.29-13.08,3.12-17.58,8.59c-6.36,7.72-8.66,18.33-6.84,27.32
								c1.82,8.99,7.83,15.92,17.05,17.11c8.26,1.07,17.33-1.7,24.15-7.74c9.38-8.72,13.46-23.26,7.05-33.2
								C290,148.54,280.75,143.75,271.14,144.17z M295.12,162.53c2.4,8.56-1.93,18.96-8.84,25.39c-7.14,6.32-18.09,9.02-26.13,5.8
								c-9.04-3.62-12.61-13.67-11.42-23.66c1.02-8.58,5.71-18.06,14.25-21.67c6.47-2.74,13.56-2.19,19.35,0.43
								C288.11,151.43,293.32,156.1,295.12,162.53z"/>
							<g>
								<g>
									<path fill="#FEE7E5" d="M254.21,153.34c-8.64,10.26-9.5,27.35-2.14,36.51c8.66,10.37,25.86,7.47,35.2-0.98
										c4.76-4.3,8.47-11.38,9.71-17.62C300.94,149.25,269.19,135.35,254.21,153.34z M294.23,171.21
										c-1.11,5.58-4.43,11.91-8.68,15.76c-8.35,7.55-23.72,10.15-31.47,0.87c-6.59-8.2-5.82-23.47,1.91-32.64
										C269.38,139.12,297.76,151.55,294.23,171.21z"/>
								</g>
							</g>
						</g>
						<g>
							<g>
								<path fill="#E22424" d="M247.65,186.78c21.54,5.97,40.89-14.31,52.6-32.47c-1.6-1.26-6.35-3.67-6.35-3.67
									c-0.75,0.2-4.35,4.16-5.64,5.92c-2.33,3.13-4.65,6.26-7.67,8.96c-9.48,8.38-21.91,13.85-33.78,14.82L247.65,186.78z"/>
							</g>
							<g>
								<path fill="#9D0800" d="M247.65,186.78l-0.29-2.21c9.49,0.56,18.12-0.56,27.23-6.36c7.52-4.88,14.06-11.05,18.98-18.63
									c1.46-2.3,2.78-4.63,3.99-6.98c1.06,0.61,2.09,1.23,2.69,1.71C288.54,172.48,269.19,192.76,247.65,186.78z"/>
							</g>
						</g>
					</g>
					<path fill="#FFAF00" d="M257.46,222.19c20.98-29.08,7.93-67.75,2.34-91.02c-5.59-23.27,20.21-63.97,20.21-63.97
						c-10.84,9.47-72.63,101.4-82.29,116.46c-9.66,15.06-50.2,74.5-73.31,103.02c-10.36,12.79-26.12,27.19-16.63,36.2l44.36,20.61
						C152.14,343.47,236.48,251.27,257.46,222.19z"/>
					<path fill="#FBB76D" d="M257.46,222.19c20.98-29.08,7.93-67.75,2.34-91.02c-5.59-23.27,20.21-63.97,20.21-63.97
						c-5.5,6.17-19.27,27.21-22.9,45.69c-3.62,18.47,5.79,39.7,7.73,60.45c1.95,20.76-2.4,35.49-11.41,48.41
						c-7.87,11.29-85.11,98.25-104.63,120.17l3.34,1.55C152.14,343.47,236.48,251.27,257.46,222.19z"/>
					<g>
						<path fill="#C3642C" d="M246.94,131.93c-0.01-0.02-0.03-0.04-0.04-0.06c-0.71-1.08-2.39-1.01-3.29,0.11
							c-0.9,1.11-0.62,2.76,0.6,3.22c0.02,0.01,0.05,0.02,0.07,0.03c0.82,0.31,1.83,0.01,2.45-0.75
							C247.34,133.71,247.43,132.66,246.94,131.93z"/>
						<path fill="#C3642C" d="M253.07,136.98c-2.36-1.89-5.7,2.23-3.33,4.12C252.1,142.99,255.43,138.87,253.07,136.98z"/>
						<path fill="#C3642C" d="M244.46,142.19c0.63,0.5,1.63,0.33,2.2-0.37c0.57-0.71,0.53-1.72-0.1-2.22
							c-0.63-0.5-1.63-0.33-2.2,0.37C243.78,140.68,243.83,141.69,244.46,142.19z"/>
						<path fill="#C3642C" d="M238.8,139.23c-1.14-0.91-2.75,1.07-1.61,1.99C238.33,142.14,239.94,140.15,238.8,139.23z"/>
						<path fill="#C3642C" d="M235.23,154.93c0.63-0.78,0.7-1.87,0.21-2.6c-0.04-0.11-0.09-0.21-0.16-0.32
							c-0.28-0.44-0.96-0.65-1.52-0.45c-0.6,0.06-1.22,0.39-1.62,0.89c-0.77,0.95-0.7,2.3,0.14,2.98
							C233.12,156.1,234.46,155.87,235.23,154.93z"/>
						<path fill="#C3642C" d="M228.71,163.43c-1.2-0.96-2.91,1.13-1.7,2.1C228.22,166.5,229.91,164.4,228.71,163.43z"/>
						<path fill="#C3642C" d="M242.77,152.4c-0.77-0.62-1.86,0.72-1.09,1.34C242.45,154.36,243.54,153.02,242.77,152.4z"/>
						<path fill="#C3642C" d="M239,148.92c1.49,1.19,3.58-1.4,2.1-2.59C239.61,145.14,237.52,147.73,239,148.92z"/>
						<path fill="#C3642C" d="M254.69,153.18c0.69-0.86,0.64-2.08-0.13-2.69c-0.76-0.61-1.98-0.4-2.67,0.45
							c-0.69,0.86-0.64,2.08,0.13,2.69C252.78,154.24,253.99,154.04,254.69,153.18z"/>
						<path fill="#C3642C" d="M244.58,168.93c0.4-0.49,0.54-1.15,0.36-1.7c-0.23-0.74-0.92-1.07-1.68-0.99c-0.01,0-0.03,0-0.04,0
							c-0.86,0.09-1.66,1.08-1.57,1.93c0,0.01,0,0.03,0,0.04c0.07,0.61,0.36,1.11,0.92,1.33
							C243.24,169.81,244.07,169.55,244.58,168.93z"/>
						<path fill="#C3642C" d="M251.54,123.05c0.67-0.83,0.61-2.01-0.12-2.6c-0.74-0.59-1.91-0.39-2.58,0.44
							c-0.67,0.83-0.61,2.01,0.12,2.6C249.7,124.07,250.88,123.88,251.54,123.05z"/>
					</g>
					<path fill="#FFAF00" d="M386.09,135.02c-13.75,29.04-76.34,43.27-109.61,55.76c-25.86,9.71-64.63,15.47-82.88,34.83
						c-18.25,19.36-85.81,97.26-85.81,97.26c-7.48,10.39,41.96,53.39,56.04,54.84c14.46,1.49,81.44-75.62,117.69-117.41
						c36.26-41.79,87.88-92.19,95.18-101.19C383.98,150.1,385.42,139.5,386.09,135.02z"/>
					<path fill="#FCC385" d="M220.4,212.39c18.27-6,53.19-16.43,84.9-28.04c30.85-11.29,67.1-26.84,75.13-36.75
						c1.76-2.17,3.4-4.96,4.88-7.98c0.37-1.86,0.6-3.44,0.77-4.61c-13.75,29.04-76.34,43.27-109.61,55.76
						c-25.86,9.71-64.63,15.47-82.88,34.83c-18.25,19.36-85.81,97.26-85.81,97.26c-0.45,0.63-0.69,1.37-0.75,2.21
						c3.33-2.92,49.63-52.97,64.65-69.71C186.72,238.63,202.13,218.4,220.4,212.39z"/>
					<g>
						<path fill="#FFA300" d="M214.39,231.88c10.41,4,22.14,3.44,33.41,4.12c12.47,0.76,24.84,2.15,37.47,1.93
							c2.14-0.04,4.21-1.29,4.69-3.66c0.41-2.01-0.9-4.42-3.05-4.38c-12.12,0.21-24.01-1.04-35.97-1.83
							c-11.01-0.73-22.8,0.14-32.97-3.76C213.41,222.54,209.81,230.12,214.39,231.88z"/>
						<path fill="#FFA300" d="M173.55,265.02c14.03,2.26,28.53,2.88,42.74,4.36c14.26,1.49,28.53,3.02,43.05,3.08
							c2.14,0.01,4.22-1.32,4.69-3.66c0.42-2.05-0.9-4.37-3.05-4.38c-14.51-0.07-28.79-1.59-43.05-3.08
							c-14.21-1.48-28.71-2.1-42.74-4.36C170.28,256.19,168.65,264.23,173.55,265.02z"/>
						<path fill="#FFA300" d="M239.34,304.34c0.42-2.03-0.9-4.4-3.05-4.39c-29.35,0.2-57.56-5.48-85.91-10
							c-4.92-0.78-6.55,7.26-1.65,8.04c28.35,4.52,56.56,10.2,85.91,10C236.79,307.99,238.87,306.7,239.34,304.34z"/>
						<path fill="#FFA300" d="M192.28,327.2c-14.63-1.45-28.74-4.86-42.88-8.03c-2.04-0.46-4.29,1.66-4.69,3.66
							c-0.49,2.38,1.01,3.93,3.05,4.39c14.15,3.17,28.25,6.58,42.88,8.03C195.62,335.74,197.28,327.69,192.28,327.2z"/>
					</g>
					<g>
						<path fill="#C3642C" d="M299.11,193.24c-1-0.8-2.59-0.53-3.5,0.59c-0.91,1.12-0.83,2.72,0.16,3.52c1,0.8,2.59,0.53,3.5-0.59
							C300.19,195.64,300.11,194.04,299.11,193.24z"/>
						<path fill="#C3642C" d="M297.91,205.12c-1.43-1.15-3.45,1.35-2.02,2.5C297.32,208.76,299.34,206.27,297.91,205.12z"/>
						<path fill="#C3642C" d="M302.53,201.26c0.19,0.6,0.83,0.95,1.47,0.65c0.28-0.14,0.51-0.4,0.62-0.69
							c0.06-0.13,0.11-0.26,0.15-0.41c0.22-0.99-0.88-1.59-1.68-0.98c-0.02,0.02-0.05,0.04-0.07,0.05
							C302.58,200.2,302.38,200.78,302.53,201.26z M304.39,201.54C304.39,201.54,304.39,201.54,304.39,201.54
							C304.19,201.73,304.2,201.73,304.39,201.54z"/>
						<path fill="#C3642C" d="M320.87,193.4c-1.47-1.17-3.81-0.78-5.14,0.87c-1.34,1.65-1.23,4.01,0.24,5.18
							c1.47,1.18,3.81,0.78,5.14-0.87C322.44,196.94,322.33,194.58,320.87,193.4z"/>
						<path fill="#C3642C" d="M316.3,190.03c-0.03-0.74-0.47-1.36-1.12-1.62c-1.14-0.45-2.72,0.42-2.93,1.78
							c0,0.02-0.01,0.05-0.01,0.07c-0.15,0.93,0.23,1.81,1.07,2.14c0.74,0.29,1.9,0.05,2.42-0.75c0.01-0.02,0.03-0.04,0.04-0.06
							C316.1,191.08,316.33,190.62,316.3,190.03z"/>
						<path fill="#C3642C" d="M310.26,203.36c-0.11-0.29-0.28-0.52-0.58-0.62c-0.73-0.24-1.58,0.32-1.66,1.13
							c0,0.01,0,0.01-0.01,0.02c-0.1,0.31,0.06,0.72,0.29,0.88c0.21,0.14,0.35,0.19,0.61,0.24
							C309.75,205.17,310.54,204.11,310.26,203.36z"/>
						<path fill="#C3642C" d="M332.7,185.21c-0.62-0.5-1.62-0.33-2.18,0.37c-0.57,0.7-0.52,1.7,0.1,2.2
							c0.62,0.5,1.62,0.33,2.19-0.37C333.37,186.72,333.32,185.71,332.7,185.21z"/>
						<path fill="#C3642C" d="M350.52,177.2c-0.77-0.62-2.01-0.41-2.71,0.46c-0.7,0.87-0.65,2.11,0.13,2.73
							c0.77,0.62,2.01,0.41,2.71-0.46C351.35,179.06,351.29,177.82,350.52,177.2z"/>
						<path fill="#C3642C" d="M326.76,199.7c-0.04-0.08-0.09-0.15-0.13-0.23c-0.73-1.23-2.82,0.41-1.93,1.47
							c0.06,0.07,0.11,0.13,0.17,0.2C325.74,202.18,327.48,200.91,326.76,199.7z"/>
						<path fill="#C3642C" d="M162.97,293.62c-0.96-0.77-2.48-0.51-3.35,0.57c-0.87,1.08-0.8,2.61,0.16,3.38
							c0.96,0.77,2.48,0.51,3.36-0.57C164,295.93,163.93,294.39,162.97,293.62z"/>
						<path fill="#C3642C" d="M173.26,291.52c-0.79-0.63-2.06-0.42-2.78,0.47c-0.72,0.89-0.66,2.16,0.13,2.79
							c0.79,0.63,2.06,0.42,2.78-0.47C174.11,293.43,174.05,292.16,173.26,291.52z"/>
						<path fill="#C3642C" d="M166.2,286.68c0.53,0.42,1.37,0.28,1.85-0.31c0.48-0.59,0.44-1.44-0.09-1.86
							c-0.53-0.42-1.37-0.28-1.85,0.31C165.64,285.41,165.67,286.26,166.2,286.68z"/>
						<path fill="#C3642C" d="M166.6,298.38c-0.85-0.68-2.05,0.8-1.2,1.48C166.25,300.54,167.45,299.06,166.6,298.38z"/>
						<path fill="#C3642C" d="M180.59,297c-0.05,0.01-0.1,0.01-0.16,0.02c-0.72,0.09-1.36,0.88-1.3,1.6
							c0.01,0.05,0.01,0.1,0.02,0.16c0.11,1.3,1.72,1.77,2.63,0.64C182.7,298.29,181.89,296.83,180.59,297z"/>
						<path fill="#C3642C" d="M124.47,325.68c0.84-1.03,0.77-2.51-0.15-3.25c-0.92-0.73-2.39-0.49-3.22,0.55
							c-0.84,1.03-0.77,2.51,0.15,3.25C122.17,326.96,123.63,326.71,124.47,325.68z"/>
						<path fill="#C3642C" d="M115.59,325.09c-0.86-0.69-2.24-0.46-3.03,0.51c-0.79,0.97-0.72,2.36,0.14,3.05
							c0.87,0.69,2.24,0.46,3.03-0.51C116.51,327.16,116.45,325.78,115.59,325.09z"/>
						<path fill="#C3642C" d="M120.54,333.87c-0.9-0.72-2.33-0.48-3.14,0.53c-0.82,1-0.75,2.45,0.15,3.17
							c0.9,0.72,2.33,0.48,3.14-0.53C121.51,336.03,121.44,334.59,120.54,333.87z"/>
						<path fill="#C3642C" d="M120.7,329.79c-0.76-0.61-1.83,0.71-1.07,1.32C120.38,331.72,121.46,330.39,120.7,329.79z"/>
						<path fill="#C3642C" d="M154.98,358.19c-2.1-1.68-5.06,1.98-2.96,3.65C154.11,363.53,157.07,359.87,154.98,358.19z"/>
						<path fill="#C3642C" d="M159.47,360c-0.64-0.51-1.66-0.34-2.25,0.38c-0.58,0.72-0.53,1.75,0.11,2.26
							c0.64,0.51,1.66,0.34,2.25-0.38C160.16,361.54,160.11,360.51,159.47,360z"/>
						<path fill="#C3642C" d="M155.5,363.87c-1.3-1.04-3.14,1.23-1.84,2.27C154.97,367.18,156.8,364.91,155.5,363.87z"/>
						<path fill="#C3642C" d="M165.73,368.86c-0.77-0.62-1.99-0.41-2.69,0.45c-0.7,0.86-0.64,2.09,0.13,2.71
							c0.77,0.61,1.99,0.41,2.69-0.46C166.55,370.7,166.5,369.47,165.73,368.86z"/>
						<path fill="#C3642C" d="M169.46,364.58c0.52-0.64,0.48-1.56-0.09-2.02c-0.57-0.46-1.48-0.3-2,0.34
							c-0.52,0.64-0.48,1.56,0.1,2.02C168.03,365.38,168.94,365.23,169.46,364.58z"/>
						<path fill="#C3642C" d="M161.94,364.5c-1.3-1.04-3.14,1.23-1.84,2.27C161.41,367.81,163.24,365.54,161.94,364.5z"/>
					</g>
				</g>
				<g>
					<g>
						<g>
							<path fill="#E4AF86" d="M164.42,228.86c6.99,4.53,18.04,11.41,24.44,17.57c11.39,10.94,16.99,15.38,22.91,19.42
								c8.31,5.67,17.7,7.44,22.49,1.61c3.56-4.33,1.02-14.56-7.97-22.26c-17.44-14.92-23.23-20.95-27.73-25.12
								c-4.51-4.17-11.1-11.24-16.6-15.29c-6.29-4.63-16.77-4.67-21.83,3.87C157.28,213.48,154.62,222.51,164.42,228.86z"/>
							<path fill="#E29570" d="M175.6,204.93c0,0-6.83-0.7-8.93,0.62c-5.62,3.54-5.05,9.64-5.05,9.64s-0.1-3.38,7.02-5.29
								c4.37-1.17,6.09,1.2,6.09,1.2s-1.01,1.56-1.35,2.86c-0.36,1.35-0.28,2.63-0.28,2.63s1.05-2.27,1.68-3.01
								c0.63-0.74,1.56-1.28,1.56-1.28s-0.74,0.98-1.02,2.35c-0.17,0.83-0.06,1.6-0.06,1.6s2.28,0.1,6.79,4.16
								c6.46,5.82,9.41,7.78,9.41,7.78s-1.24,0.57-2.3,2.95c-1.02,2.3-0.97,5.23-0.97,5.23s0.49-1.84,3.88-4.37
								c4.89-3.66,9.59-2.07,9.59-2.07s-1.67,0.42-4.2,1.81c-1.07,0.59-2.64,1.81-2.64,1.81s2.71-1.44,12.42,1.31
								c6.15,1.74,14.21,6.22,14.21,6.22s-20.32-16.02-25-21.06c-9.93-10.68-14.06-12.69-14.06-12.69s-1.17-1.74-2.87-2.48
								C177.98,204.17,175.6,204.93,175.6,204.93z"/>
							<path fill="#BC643C" d="M223.77,270.89c0,0-6.32-1.48-20.82-14.61c-8.45-7.66-7.73-8.51-19.21-17.96
								c-12.98-10.69-19.99-12.28-22.03-19.79c-0.55-2.03-0.24-6.52,3.52-10.32c3.75-3.79,11.25-4.15,15.73-1.13
								c3.53,2.38,13.01,11.29,17.53,16.19c4.52,4.9,7.91,7.67,12.4,11.11c4.49,3.44,11.63,7.56,11.63,7.56s-12.19-10.7-18.28-16.49
								c-6.1-5.79-15.68-16.05-21.75-20.42s-11.73-3.71-14.38-2.97c-3.82,1.07-8.13,5.43-9.98,9.63c-2.01,4.57-2.02,10.83,2.8,14.6
								s21.45,14.28,25.13,17.63c3.68,3.34,11.09,10.15,16.67,15.1C215.64,270.47,223.77,270.89,223.77,270.89z"/>
							<path fill="#BC643C" d="M188.17,245.85c0,0-0.47-4.33,2.28-8.9c3.64-6.06,11.77-7.13,11.77-7.13s-8.98,2.14-11.43,11.47
								c-1.28,4.86,0.77,7.65,0.77,7.65L188.17,245.85z"/>
							<path fill="#BC643C" d="M207.25,255.92c-2.42-3-2.59-8.15,0.43-11.43c3.19-3.46,8.5-2.39,11.16-0.81
								c3.62,2.15,9.88,8.16,12.83,12.63c2.37,3.59,4.6,7.75,3.56,10.37c-1.14,2.88-1.35,3.74-5.47,3.84
								C223.62,269.95,212.34,262.22,207.25,255.92z"/>
							<path fill="#6816D3" d="M209.41,255.42c-2.66-4.41-0.8-7.74,0.31-9.04c1.3-1.53,4.93-3.47,10.12,0.21
								c5.81,4.13,12.02,10.73,14.32,15.17c2.07,3.99,1.82,6.09,0.92,7.4c-0.59,0.85-2.93,2.66-7.78,0.55
								C222.9,267.8,212.07,259.83,209.41,255.42z"/>
						</g>
					</g>
					<path fill="#FFAACF" d="M218.16,250.73c1.86,2.09,4.1,3.54,6.14,5.31c2.3,2.01,4.56,4.15,7.21,5.33
						c0.24,0.11,0.52-0.35,0.31-0.61c-1.91-2.39-4.13-4.29-6.29-6.22c-2.16-1.92-4.31-4.15-6.84-5.15
						C218.21,249.2,217.8,250.32,218.16,250.73z"/>
					<path fill="#F5BD94" d="M183.43,233.22c-3.26-2.23-3.55-2.8-5.35-4.23c-3.03-2.43-5.77-4.78-9.18-6.67
						c-0.49-0.27-0.92,0.44-0.45,0.75c3.86,2.52,7.87,5.99,10.63,8.47c2.75,2.48,3.52,3.15,4.57,3.39
						C184.79,235.18,185.13,234.38,183.43,233.22z"/>
				</g>
				<g>
					<path fill="#E4AF86" d="M186.27,194.2c-5.7-5.94-10.25-14.39-1.72-24.38c6.27-7.35,19.62-8.1,26.68,1.56
						c5.38,7.36,11.04,16.63,17.36,24.25s13,14.35,16.59,19.68c6.87,10.19,9.33,23.78,4.38,28.84c-5.61,5.74-17.13,2.64-29.38-12.09
						C203.44,211.91,195.05,203.35,186.27,194.2z"/>
					<path fill="#E29570" d="M205.63,169.01c0,0-7.76-2.69-10.57-1.73c-7.52,2.58-9.44,9.08-9.44,9.08s1.73-3.21,10.53-3.48
						c5.41-0.16,6.76,3.07,6.76,3.07s-1.61,1.54-2.36,2.95c-0.78,1.47-1.04,2.98-1.04,2.98s1.85-2.35,2.78-3.05s2.17-1.06,2.17-1.06
						s-1.13,0.94-1.84,2.46c-0.43,0.92-0.52,1.85-0.52,1.85s2.63,0.74,6.77,6.7c5.93,8.55,8.82,11.64,8.82,11.64
						s-1.6,0.33-3.49,2.81c-1.82,2.39-2.56,5.82-2.56,5.82s1.08-2,5.72-4.03c6.69-2.91,11.74,0.22,11.74,0.22s-2.06,0.03-5.38,0.96
						c-1.4,0.39-3.57,1.38-3.57,1.38s3.55-0.93,14.11,4.93c6.69,3.71,14.83,11.14,14.83,11.14s-17.32-23.32-22.75-29.51
						c-8.53-9.72-12.86-16.75-12.86-16.75s-1.48-6.11-3.27-7.44C208.62,168.78,205.63,169.01,205.63,169.01z"/>
					<path fill="#BC643C" d="M209.14,216.58c0,0,0.56-4.05,4.1-7.6c4.69-4.7,12.35-3.83,12.35-3.83s-8.67-0.09-13.02,7.86
						c-2.27,4.14-1.04,7.15-1.04,7.15L209.14,216.58z"/>
					<path fill="#BC643C" d="M186.27,194.2c-5.7-5.94-10.25-14.39-1.72-24.38c6.27-7.35,19.62-8.1,26.68,1.56
						c5.38,7.36,11.04,16.63,17.36,24.25s13,14.35,16.59,19.68c1.76,2.61,3.23,5.44,4.36,8.3c0.7,1.78,0.17,2.52-1.1,0.35
						c-5.24-8.97-8.56-12.73-23.47-29.95c-3.91-4.51-9.72-12.28-13.28-17.71c-8.31-12.68-19.48-7.66-22.02-5.51
						c-2.44,2.05-7.88,8.73-3.21,16.86c3.13,5.44,9.98,12.04,16.64,20.61c15.14,19.49,32.43,37.29,27.76,33.99
						c-3.4-2.4-7-5.77-10.67-10.18C203.44,211.91,195.05,203.35,186.27,194.2z"/>
					<path fill="#BC643C" d="M225.1,229.2c-2.62-4.09-2.11-9.3,1.25-12.23c3.55-3.09,8.72-1.66,11.54,0.66
						c4.69,3.85,8.18,8.41,11.25,14.67c1.89,3.86,3.48,7.86,2.16,10.34c-1.45,2.74-1.32,4.12-5.43,3.77
						C239.82,245.18,230,236.84,225.1,229.2z"/>
					<path fill="#D32A67" d="M225.79,227.65c-2.2-4.98,0.19-8.22,1.53-9.44c1.57-1.43,5.63-2.99,10.58,1.56
						c5.55,5.1,11.18,12.85,13.01,17.82c1.64,4.46,1.1,6.63-0.02,7.88c-0.73,0.82-3.43,2.4-8.24-0.45
						C238.29,242.43,227.99,232.63,225.79,227.65z"/>
					<path fill="#FFAACF" d="M234.56,223.85c1.68,2.72,3.93,4.79,5.86,7.19c2.2,2.72,4.32,5.57,7.07,7.42
						c0.25,0.17,0.66-0.29,0.47-0.63c-1.68-3.06-3.8-5.65-5.86-8.24c-2.05-2.59-4.03-5.53-6.68-7.14
						C234.92,222.14,234.23,223.32,234.56,223.85z"/>
					<path fill="#F5BD94" d="M204.97,202.72c-2.77-2.82-2.95-3.43-4.43-5.18c-2.51-2.97-4.74-5.8-7.73-8.31
						c-0.43-0.36-0.99,0.26-0.59,0.65c3.3,3.22,6.57,7.39,8.8,10.35c2.23,2.96,2.85,3.76,3.84,4.2
						C205.93,204.91,206.41,204.19,204.97,202.72z"/>
					
						<ellipse transform="matrix(0.8238 -0.5669 0.5669 0.8238 -72.4191 140.8438)" fill="#F5BD94" cx="190.33" cy="186.9" rx="0.64" ry="0.94"/>
				</g>
				<g>
					<path fill="#E4AF86" d="M215,126.23c-8.81,4.65-11.49,13.83-6.01,24.96c4.87,9.88,7.95,13.21,12.25,21.1
						c3.38,6.2,6.23,10.54,9.82,14.81c6.78,8.08,14.93,12.83,22.14,8.26c8.46-5.36,3.42-21.57-4.71-37.57
						c-6.93-13.62-8.04-16.69-11.36-23.64C233.69,126.98,225.09,120.89,215,126.23z"/>
					<path fill="#BC643C" d="M215.81,164.12c0,0,0.47-3.87,3.3-7.46c4.27-5.4,9.63-6.15,9.63-6.15s-6.61,3-9.24,10.4
						c-1.81,5.09-0.39,8.57-0.39,8.57L215.81,164.12z"/>
					<path fill="#BC643C" d="M229.98,175.32c-0.77-3.81,0.57-7.75,3.83-9.83c4.01-2.55,8.68-0.81,11.2,1.76
						c3.4,3.47,6.05,8.15,8.17,13.39c1.63,4.02,4.12,11.52,1.33,13.92c-0.88,0.76-2.42,1.72-5.4,2.26
						C243.72,195.37,231.65,183.53,229.98,175.32z"/>
					<path fill="#6816D3" d="M232.63,176.58c-1.46-4.99,1.22-7.76,2.64-8.74c1.67-1.16,5.71-2.12,9.82,2.82
						c4.61,5.53,8.96,13.58,10.06,18.51c0.99,4.43,0.2,6.41-1.02,7.46c-0.79,0.68-3.55,1.84-7.74-1.47
						C242.59,192.15,234.09,181.57,232.63,176.58z"/>
					<path fill="#E29570" d="M229.75,129.53c0,0-6.09-2.17-8.28-1.79c-5.89,1.01-8.42,4.37-8.42,4.37s3.02-1.07,9.59-0.21
						c4.04,0.53,4.65,3.09,4.65,3.09s-1.38,0.95-2.11,1.91c-0.76,1-1.14,2.09-1.14,2.09s1.66-1.53,2.44-1.93
						c0.78-0.4,1.74-0.53,1.74-0.53s-0.96,0.56-1.66,1.6c-0.43,0.63-0.61,1.31-0.61,1.31s1.87,0.87,4.22,5.8
						c3.37,7.07,5.15,9.71,5.15,9.71s-1.23,0.05-2.93,1.67c-1.64,1.56-2.6,4.01-2.6,4.01s1.04-1.36,4.74-2.3
						c5.32-1.36,8.69,1.58,8.69,1.58s-1.54-0.23-4.12,0.06c-1.09,0.12-2.82,0.6-2.82,0.6s2.75-0.26,9.89,5.36
						c4.52,3.56,8.74,8.92,8.74,8.92s-10.45-19.17-12.61-24.98c-4.58-12.31-7.33-15.4-7.33-15.4s-0.37-1.85-1.54-3.05
						C232.4,130.34,229.75,129.53,229.75,129.53z"/>
					<path fill="#BC643C" d="M214.48,126.27c-8.81,4.65-11.49,13.83-6.01,24.96c4.87,9.88,7.95,13.21,12.25,21.1
						c3.38,6.2,6.23,10.54,9.82,14.81c1.7,2.02,3.48,3.83,5.31,5.34c-5.71-6.65-10.33-16.22-18.49-30.97
						c-10.06-18.18-9.33-25.42-3.12-30.47c6.07-4.94,16.39-3.04,19.72,3.49c4.82,9.44,4.51,9.96,8.69,18.52
						c3.56,7.29,8.7,13.14,13.8,27.09c-1.28-6.63-4.52-14.49-8.49-22.31c-6.93-13.62-8.04-16.69-11.36-23.64
						C233.18,127.01,224.58,120.93,214.48,126.27z"/>
					<path fill="#FFAACF" d="M242.51,175.21c1.07,2.47,2.69,4.46,4.02,6.68c1.5,2.52,2.93,5.15,4.99,7.02
						c0.19,0.17,0.58-0.16,0.47-0.46c-1.03-2.75-2.49-5.15-3.89-7.56c-1.4-2.4-2.69-5.08-4.71-6.74
						C243.02,173.83,242.31,174.74,242.51,175.21z"/>
					<path fill="#F5BD94" d="M218.03,153.26c-1.18-1.86-2.46-3.12-3.18-6.59c-1.62-7.84,1.03-8.13,0.9-10.51
						c-0.05-0.97-1.45-0.87-2.13,0.77c-1.59,3.87-1.42,6.3-0.67,9.59c0.75,3.29,3.67,7.42,4.34,8.14
						C218.01,155.44,219.03,154.83,218.03,153.26z"/>
				</g>
				<g>
					<g>
						<path fill="#E4AF86" d="M153.86,258.88c0,0,14.3,8.78,21.96,13.46c18.36,11.23,22.28,17.22,36.04,18.16
							c9.22,0.63,12.59-7.98,3.72-15.57c-6.48-5.55-16.96-11.91-33.01-24.86c-4.22-3.4-11.85-8.71-13.93-10.35
							c-5.61-4.44-15.17-7.6-20.4,0.5C141.71,250.33,153.86,258.88,153.86,258.88z"/>
						<path fill="#BC643C" d="M214.57,290.41c0,0-5.29,0.41-12.37-2.66c-5.79-2.51-12.32-7.82-22-13.75
							c-13.81-8.47-17.18-9.3-25.52-16.42c-5.35-4.57-6.11-9.83-4.92-13.08c2.2-5.98,7.81-6.6,12.37-5.16s11.62,6.74,17.36,11.47
							c12.64,10.42,27.16,17.42,27.16,17.42s-20.33-15.44-25.42-19.2c-5.09-3.76-12.75-10.21-17.99-12.57
							c-2.67-1.2-7.4-2.65-11.93,0.51c-4.53,3.16-5.37,7.7-5.52,9.61c-0.23,2.93,1.36,7.72,4.83,10.51
							c3.47,2.8,17.27,12.3,21.46,14.75c4.7,2.75,14.23,7.31,15.94,8.46c1.7,1.15,10.15,6.66,13.71,8.08
							C208.78,291.21,214.57,290.41,214.57,290.41z"/>
						<path fill="#E29570" d="M159.78,238.84c0,0-2.16,4.7-2.91,7.06c-0.65,2.03-0.24,4.05-0.24,4.05s0.47-2.01,1.33-3.25
							c0.77-1.11,1.69-1.63,1.69-1.63s-0.82,1.67-1,3c-0.19,1.38,0.04,2.64,0.04,2.64s0.78-2.38,1.31-3.19
							c0.54-0.81,1.4-1.46,1.4-1.46s-0.62,1.07-0.74,2.45c-0.07,0.85,0.13,1.6,0.13,1.6s2.32-0.24,7.24,3.32
							c8.73,6.32,12.54,6.93,12.54,6.93s-1.63,2.35-2.25,4.83c-1.47,5.86,2.39,8.01,2.39,8.01s-1.32-2.64,0.11-6.63
							c1.66-4.63,5.83-6.58,5.83-6.58s-1.29,1.56-1.96,2.85c-0.56,1.08-0.72,2.09-0.72,2.09l9.92,5.95c0,0,1.59-2.36,4.01-2.93
							c4.36-1.04,9.47,0.67,9.47,0.67s-19.64-11.02-24.89-15.48c-11.12-9.43-16.83-12.29-16.83-12.29s-1.58-0.97-3.36-1.5
							C160.66,238.89,159.78,238.84,159.78,238.84z"/>
						<path fill="#BC643C" d="M195.46,279.59c-2.09-2.17-3.69-5.97-1.44-9.2c2.37-3.4,6.27-3.13,9.35-1.99
							c3.48,1.29,6.45,3.47,10.55,7.14c3.26,2.92,5.72,5.64,5.43,10.01c-0.18,2.73-0.09,3.37-2.04,3.89
							C214.07,289.99,202.74,287.16,195.46,279.59z"/>
						<path fill="#D32A67" d="M196.97,279.32c-1.73-1.8-2.9-5.16-1.04-7.83c1.96-2.82,5.12-2.33,7.55-1.47
							c2.9,1.02,5.89,2.97,9.5,5.76c3.69,2.85,9.34,7.5,9.1,11.11c-0.15,2.26-2.72,3.28-8.03,2.08
							C211.18,288.32,203,285.59,196.97,279.32z"/>
					</g>
					<path fill="#BC643C" d="M186.65,259.76c0,0-4.7,3.21-5.84,7.17c-1.51,5.26-0.06,7.66-0.06,7.66l7.22,4.5
						c0,0-5.14-3.45-5.25-9.19C182.63,264.04,186.65,259.76,186.65,259.76z"/>
					<path fill="#F5BD94" d="M173.68,265.62c-3.79-2.05-4.16-2.63-6.28-3.99c-3.56-2.29-6.79-4.53-10.71-6.2
						c-0.57-0.24-0.95,0.58-0.4,0.87c4.46,2.3,9.21,5.61,12.48,7.99c3.27,2.38,4.17,3.01,5.34,3.16
						C175.37,267.6,175.65,266.69,173.68,265.62z"/>
					<path fill="#FFAACF" d="M203.84,273.67c2.01,1.95,4.36,3.21,6.52,4.83c2.45,1.83,4.87,3.79,7.6,4.76
						c0.24,0.09,0.5-0.39,0.27-0.63c-2.09-2.23-4.44-3.97-6.75-5.72c-2.3-1.75-4.61-3.81-7.21-4.61
						C203.77,272.14,203.45,273.29,203.84,273.67z"/>
				</g>
				<g>
					<defs>
						<rect id="SVGID_1_" x="56.27" y="21.7" width="388.54" height="388.04"/>
					</defs>
					<clipPath id="SVGID_00000163785299725398122070000004576092113492076710_">
						<use xlink:href="#SVGID_1_"  overflow="visible"/>
					</clipPath>
					<g clip-path="url(#SVGID_00000163785299725398122070000004576092113492076710_)">
						<path fill="#EDAF82" d="M313.99,532.8c0,0-22.37-92.64-17.82-126.38c4.55-33.75,36.86-77.95,42.38-86.94
							c5.52-8.99,13.7-35.12,13.7-35.12s0.96-21.29-6.08-43.21c-7.04-21.92-23.05-29.96-23.05-29.96s-0.36,0.28-7.79-3.9
							c-7.43-4.18-12.72-15.09-12.72-15.09l-24.55-6.83c0,0-3.42,14.36,4.24,24.73c0.07,2.36,22.24,46.81,22.24,46.81
							s0.68,7.53-6.58,15.08c-8.11,8.44-24.62,17.45-32.85,26.94c-3.26,3.76-22.39,5.77-31.83,16.06
							c-13.64,14.85-30.55,32.8-41.58,43.15c0.87,2.92,4.59,7.83,5.18,9.63c-0.04,0.91,3.43,97.35,4.63,117.57s-1.15,45.9-1.15,45.9
							S250.73,545.16,313.99,532.8z"/>
						<path fill="#D32A67" d="M278.44,166.94c0,0-7.68-1.5,0.48,19.4s26.36,20.93,33.17,16.33
							C312.98,200.32,278.44,166.94,278.44,166.94z"/>
						<g>
							<path fill="#E29570" d="M223.2,377.29c0.24-0.12,0.46-0.24,0.66-0.36C223.64,377.04,223.43,377.17,223.2,377.29z"/>
							<path fill="#E29570" d="M223.2,377.29c-4.01,2.02-13.8,3.39-27.98-12.45c0.53,1.07,1.08,2.07,1.65,2.96
								c-0.02,0.37,0.55,16.75,1.32,37.35C201.71,395.71,208.85,384.97,223.2,377.29z"/>
						</g>
						<path fill="#E29570" d="M296.17,406.42c4.55-33.75,36.86-77.95,42.38-86.94c5.52-8.99,7.96-20.34,7.96-20.34
							s8.39-22,3.9-41.94c-0.63-2.81-5.51-20.13-6.49-22.36c-0.97,2.51-2.26,2.14-2.26,2.14c21.15,39.36-6.01,71.09-25.34,98.85
							c-19.33,27.76-38.07,39.56-43.4,40.75c5.11,3.34,16.62,1.9,16.62,1.9s-17.3,60.55-18.69,92.82
							c-0.94,21.88,7.5,49.88,13.04,65.65c9.57-0.79,19.66-2.11,30.1-4.15C313.99,532.8,291.62,440.17,296.17,406.42z"/>
						<g>
							<path fill="#BC643C" d="M309.97,199.02c-0.21,0.11,0.16,1.49,1.52,3.56c1.34,2.08,3.83,4.67,7.1,7.25
								c3.23,2.63,7.19,5.28,10.55,8.8c3.41,3.51,6.4,7.87,8.76,12.56c4.81,9.39,6.93,19.97,8.5,27.92
								c1.52,7.98,2.69,13.38,3.78,13.25c1.03-0.13,1.2-5.62,0.38-13.88c-0.44-4.12-1.17-8.95-2.47-14.05
								c-1.3-5.09-3.23-10.46-5.93-15.47c-2.68-5.01-6.17-9.66-10.15-13.29c-4.01-3.69-8.31-6.07-11.67-8.27
								c-3.42-2.16-6-4.18-7.64-5.81C311.05,199.96,310.23,198.88,309.97,199.02z"/>
						</g>
						<g>
							<path fill="#BC643C" d="M306.1,263.92c0.48-0.14-0.22-5.41-2.1-13.23c-0.97-3.9-2.28-8.43-4.21-13.16
								c-1.91-4.75-4.58-9.52-7.35-14.07c-2.77-4.56-5.6-8.98-7.88-13.24c-2.29-4.24-4-8.36-5.08-11.98
								c-2.22-7.26-1.66-12.42-2.79-12.61c-0.5-0.08-1.21,1.17-1.65,3.58c-0.42,2.4-0.49,5.96,0.35,10.05
								c0.82,4.1,2.49,8.69,4.84,13.25c2.34,4.56,5.27,9.07,8.12,13.51c2.86,4.44,5.57,8.84,7.66,13.21
								c2.11,4.37,3.75,8.65,5.11,12.35C303.8,259.02,305.55,264.07,306.1,263.92z"/>
						</g>
						<g>
							<path fill="#BC643C" d="M254.57,322.75c0.3-0.02,0.43-1.31,0.87-3.45c0.47-2.13,1.31-5.12,3.05-8.36
								c1.7-3.24,4.24-6.74,7.49-9.97c3.25-3.24,7.18-6.26,11.28-9.17c4.1-2.91,8.35-5.76,12.18-8.78c3.84-3.01,7.21-6.22,9.7-9.34
								c2.52-3.1,4.11-6.11,4.9-8.31c0.77-2.22,0.8-3.61,0.33-3.8c-1.06-0.4-3.23,4.12-8.39,9.33c-2.55,2.63-5.81,5.45-9.54,8.25
								c-3.72,2.82-7.91,5.67-12.04,8.76c-4.12,3.09-8.16,6.48-11.45,10.23c-3.3,3.74-5.75,7.8-7.2,11.55
								c-1.49,3.74-1.91,7.13-1.88,9.44C253.92,321.49,254.33,322.77,254.57,322.75z"/>
						</g>
						<g>
							<path fill="#BC643C" d="M218.57,335.29c0.48,0.32,3.01-2.7,7.03-6.89c1.98-2.11,4.43-4.44,7.07-6.88
								c2.68-2.4,5.64-4.83,8.69-7.13c3.08-2.26,6.24-4.4,9.27-6.3c3.06-1.85,5.94-3.54,8.47-4.89c5.03-2.76,8.49-4.56,8.13-5.61
								c-0.33-0.97-4.34-0.4-9.94,1.81c-2.81,1.07-5.94,2.66-9.21,4.52c-3.24,1.91-6.55,4.19-9.69,6.68
								c-3.11,2.53-6.06,5.26-8.63,7.98c-2.54,2.76-4.78,5.45-6.49,7.91C219.8,331.38,218.15,335.02,218.57,335.29z"/>
						</g>
						<g>
							<path fill="#BC643C" d="M275.69,167.8c-0.17-0.06-0.71,0.77-1.17,2.42c-0.45,1.64-0.76,4.13-0.38,7.07
								c0.35,2.94,1.45,6.3,3.2,9.54c1.74,3.26,4.04,6.39,6.51,9.36c2.49,2.96,5.4,5.79,8.77,7.68c1.67,0.94,3.45,1.65,5.23,2.04
								c1.77,0.37,3.49,0.44,5.05,0.28c3.14-0.32,5.61-1.6,6.93-2.88c1.34-1.28,1.67-2.33,1.38-2.55c-0.33-0.27-1.13,0.28-2.51,0.94
								c-1.36,0.67-3.44,1.33-5.99,1.34c-1.27,0.01-2.66-0.15-4.06-0.52c-1.38-0.38-2.81-1.01-4.21-1.83
								c-2.8-1.65-5.43-4.12-7.86-6.87c-2.44-2.77-4.76-5.66-6.55-8.54c-1.8-2.88-3.03-5.79-3.66-8.4
								C275.04,171.6,276.13,167.9,275.69,167.8z"/>
						</g>
						<g>
							<path fill="#BC643C" d="M278.44,166.94c-0.55,0.59,6.54,8.46,13.78,16.14c7.26,7.66,14.7,15.14,15.87,14.05
								c1.18-1.09-5.72-9.17-13.31-16.59C287.21,173.09,278.99,166.35,278.44,166.94z"/>
						</g>
						<g>
							<path fill="#BC643C" d="M191.11,358.73c1.59,3.48,3.22,5.95,5.13,8.4c1.92,2.45,3.89,4.33,5.61,5.74
								c0.88,0.68,1.66,1.3,2.4,1.74c0.73,0.46,1.34,0.87,1.88,1.12c1.06,0.53,1.64,0.77,1.69,0.69c0.13-0.22-2.07-1.47-5.19-4.43
								c-1.53-1.5-3.3-3.43-4.99-5.89c-1.69-2.45-3.44-5.6-4.82-8.99"/>
						</g>
						<g>
							<path fill="#BC643C" d="M201.25,530.95c0.2,0,0.46-2.57,0.75-7.09c0.29-4.52,0.58-10.98,0.8-18.74
								c0.48-15.52,0.59-36.22,0.1-56.92c-0.5-20.7-1.6-41.38-2.92-56.85c-1.3-15.47-2.7-25.74-3.48-25.67
								c-0.82,0.07-0.42,10.41,0.33,25.88c0.77,15.48,1.77,36.1,2.46,56.75c0.69,20.64,1.08,41.3,1.25,56.79
								c0.11,7.75,0.2,14.21,0.27,18.73C200.9,528.36,201.05,530.95,201.25,530.95z"/>
						</g>
						<g>
							<path fill="#BC643C" d="M315,536.71c0.22-0.07-0.92-4.03-2.66-11c-1.72-6.98-3.93-17-5.95-29.13
								c-2.06-12.13-3.86-26.38-5.64-41.69c-1.7-15.3-4.18-31.63-2.89-47.79c0.62-8.06,2.35-15.96,5.16-23.4
								c2.76-7.45,6.27-14.51,10.08-21.13c7.7-13.21,16.02-24.99,22.33-35.67c1.62-2.64,3.06-5.25,4.41-7.74
								c1.41-2.45,2.52-4.92,3.65-7.18c0.28-0.57,0.55-1.13,0.82-1.68c0.24-0.56,0.47-1.12,0.7-1.66c0.45-1.09,0.89-2.15,1.31-3.16
								c0.89-2,1.48-3.93,2.05-5.66c0.28-0.86,0.54-1.68,0.79-2.45c0.26-0.77,0.47-1.49,0.61-2.19c0.31-1.38,0.56-2.56,0.74-3.51
								c0.36-1.91,0.46-2.95,0.27-2.99c-0.2-0.05-0.65,0.9-1.32,2.71c-0.34,0.9-0.73,2.02-1.17,3.33c-0.2,0.66-0.48,1.36-0.8,2.09
								c-0.3,0.74-0.62,1.52-0.96,2.34c-0.67,1.65-1.37,3.5-2.34,5.42c-0.46,0.97-0.94,1.98-1.44,3.03c-0.25,0.52-0.5,1.06-0.76,1.6
								c-0.29,0.53-0.58,1.07-0.87,1.61c-1.2,2.18-2.36,4.55-3.82,6.93c-1.41,2.41-2.89,4.94-4.55,7.52
								c-6.47,10.42-14.92,22.08-22.81,35.48c-3.9,6.72-7.53,13.97-10.38,21.7c-2.9,7.71-4.69,16.05-5.28,24.39
								c-0.62,8.35-0.23,16.69,0.54,24.8c0.78,8.11,1.88,16.01,2.88,23.65c2.01,15.29,4.11,29.57,6.5,41.71
								c2.35,12.14,4.93,22.14,7.03,29.05c1.08,3.44,1.95,6.14,2.64,7.95C314.51,535.79,314.91,536.74,315,536.71z"/>
						</g>
						<g>
							<path fill="#BC643C" d="M239.05,368.26c-0.33-0.26-1.43,0.53-3.05,1.48c-1.61,0.98-3.8,2.04-6.08,2.75
								c-2.28,0.71-4.6,1.07-6.39,1.29c-1.78,0.24-3.07,0.45-3.23,1.26c-0.16,0.76,1.09,1.59,3.22,1.9c1.06,0.18,2.31,0.15,3.63,0
								c1.32-0.18,2.71-0.55,4.03-1.07c1.31-0.54,2.56-1.23,3.64-2c1.06-0.79,1.99-1.61,2.66-2.43
								C238.86,369.83,239.35,368.49,239.05,368.26z"/>
						</g>
						<g>
							<path fill="#BC643C" d="M268.18,374.53c-0.12-0.41-1.89-0.25-4.43-0.28c-1.27,0.01-2.74-0.11-4.28-0.27
								c-1.54-0.2-3.16-0.51-4.75-0.9c-1.58-0.43-3.13-0.95-4.55-1.51c-1.41-0.59-2.72-1.16-3.82-1.72
								c-2.22-1.08-3.76-1.87-4.31-1.25c-0.52,0.57,0.45,2.22,2.65,3.94c1.08,0.88,2.5,1.69,4.07,2.42c1.59,0.7,3.37,1.27,5.19,1.65
								c1.82,0.34,3.68,0.5,5.41,0.48c1.73-0.07,3.34-0.25,4.67-0.59C266.71,375.84,268.29,374.88,268.18,374.53z"/>
						</g>
						<path fill="#F5BD94" d="M315.95,211.1c-0.55-0.81-1.95-0.76-2.18,0.31c-1.33,6.33,4.48,12.28,8.35,16.55
							c2.93,3.22,5.83,6.3,7.8,10.24c2.67,5.35,2.59,10.37,3.18,16.12c0.19,1.9,2.92,3,3.92,0.99
							C345.3,238.63,324,222.95,315.95,211.1z"/>
						<path fill="#F5BD94" d="M338.05,260.78c-1.2-0.68-2.95-0.27-3.59,1.01c-0.64,1.28-0.28,2.87,1.01,3.59
							c1.2,0.68,2.95,0.27,3.59-1.01C339.7,263.1,339.34,261.51,338.05,260.78z"/>
						<path fill="#F5BD94" d="M299.19,282.64c-6.77,6.31-16.14,9.75-23.34,15.68c-5.16,4.25-12.61,11.87-10.3,19.26
							c0.44,1.4,2.61,1.87,3.31,0.4c1.54-3.21,1.99-6.7,4.06-9.72c2.64-3.85,6.42-6.85,10.09-9.67c6.19-4.75,12.1-8.95,17.43-14.71
							C301.21,283.05,300.01,281.87,299.19,282.64z"/>
						<path fill="#F5BD94" d="M266.01,323.97c-0.85-0.7-1.58-0.92-2.67-0.71c-1.15,0.21-2.01,1.75-1.6,2.84
							c0.39,1.04,0.95,1.54,2,1.91c0.95,0.33,2.23-0.28,2.67-1.15C266.86,325.97,266.84,324.65,266.01,323.97z"/>
						<path fill="#F5BD94" d="M215.56,431.81c0.32-12.9-1.5-25.66,3.73-37.91c0.74-1.73-1.62-3.18-2.61-1.47
							c-7.04,12.19-7.61,26.4-4.34,39.85C212.8,434.14,215.52,433.63,215.56,431.81z"/>
						<path fill="#FFAACF" d="M299.09,195.32c-2.07-3.1-4.82-5.77-7.2-8.64c-2.7-3.26-5.31-6.63-8.67-9.24
							c-0.3-0.23-0.8,0.06-0.57,0.44c2.08,3.42,4.68,6.53,7.21,9.63c2.52,3.09,4.96,6.49,8.2,8.86
							C298.68,196.82,299.49,195.92,299.09,195.32z"/>
						<path fill="#FFAACF" d="M302.98,198.01c0.16-0.95-0.89-1.54-1.61-0.91c-0.18,0.15-0.3,0.32-0.43,0.52
							c-0.76,1.12,1.26,2.26,1.82,1.03C302.86,198.43,302.94,198.24,302.98,198.01z"/>
					</g>
				</g>
			</g>
			<g>
				<g>
					<path fill="#FCFDFF" d="M74.99,449.78c-3.32-0.15-6.39-0.2-9.5-0.15c-0.41,4.85-0.87,9.76-1.43,15.07
						c-3.32,0.56-6.74,0.56-10.07,0c1.38-11.6,2.25-23.14,2.71-34.74c7.61,0.36,17.78,1.18,22.27-0.51c1.33,4.6-0.2,9.04-3.93,9.14
						c-2.5,0-6.85-0.56-8.69-0.87c-0.15,2.4-0.31,4.75-0.51,7.1c3.32,0.05,6.54,0,10.06-0.15C76.22,446.36,76.11,448.1,74.99,449.78
						z"/>
					<path fill="#FCFDFF" d="M112.74,439.57c-1.02,6.59-8.33,7.25-11.49,8.22l-0.05,0.51c2.3,0,5.11,0.82,6.74,4.6
						c1.02,2.09,3.47,7.05,6.03,9.4c-1.23,3.01-8.48,4.7-12.36,1.38c-3.27-2.76-4.14-10.12-5.26-13.9c-0.41,0.1-0.77,0.15-1.17,0.26
						l-1.12,14.66c-3.68,0.51-7.36,0.51-11.04,0l2.71-34.74C102.37,427.61,114.02,430.83,112.74,439.57z M96.6,431.9l-1.18,14.92
						c4.29-1.33,5.16-4.5,5.36-7.46C101.25,434.05,99.97,431.39,96.6,431.9z"/>
					<path fill="#FCFDFF" d="M148.75,464.7c-3.78,0.51-7.56,0.51-11.34,0l-0.87-9.14h-7.2l-2.35,9.14c-3.78,0.51-7.56,0.51-11.34,0
						l12.31-34.74c4.7-0.51,9.45-0.51,14.15,0L148.75,464.7z M130.62,450.45h5.42l-0.61-6.13c-0.31-2.96-0.77-5.01-0.61-9.14
						l-0.51,0.05c-0.56,3.93-1.33,6.23-2.15,9.25L130.62,450.45z"/>
					<path fill="#FCFDFF" d="M185.49,464.7c-4.14,0.56-8.43,0.56-12.57,0l-8.33-25.55h-0.51c0.46,2.86,0.97,5.67,1.12,8.53
						c0.31,6.03,0,13.13-0.15,17.01c-3.83,0.56-7.71,0.56-11.55,0c1.38-11.6,2.25-23.14,2.71-34.74c4.19-0.51,8.33-0.51,12.31,0
						l9.04,25.8h0.51c-0.66-2.96-1.33-5.88-1.63-8.84c-0.56-5.62,0-12.16,0.2-16.96c3.88-0.51,7.61-0.51,11.29,0
						C187.48,437.01,185.49,457.04,185.49,464.7z"/>
					<path fill="#FCFDFF" d="M206.07,445.19c2.66-5.11,6.69-11.39,7.87-15.23c4.14-0.51,8.07-0.51,12.21,0l-6.69,11.44
						c-2.09,4.29-5.26,5.06-8.43,5.16l-0.05,0.51c3.27,0.15,6.79,1.12,8.43,4.5l3.47,9.14c0.82,1.84,1.33,2.66,2.3,3.98
						c-3.32,0.41-6.64,0.51-9.91,0.26c-1.58-0.1-2.81-1.12-3.42-2.61c-1.89-4.96-3.37-10.88-6.03-14.31
						c-0.51,6.54-0.97,12.98-0.97,16.66c-3.83,0.56-7.71,0.56-11.55,0c1.38-11.6,2.25-23.14,2.71-34.74c3.88-0.51,7.61-0.51,11.29,0
						C207.09,433.18,206.58,439.01,206.07,445.19z"/>
					<path fill="#FCFDFF" d="M241.37,464.7c-3.83,0.56-7.71,0.56-11.55,0c1.38-11.6,2.25-23.14,2.71-34.74
						c3.88-0.51,7.61-0.51,11.29,0C243.36,437.01,241.37,457.04,241.37,464.7z"/>
					<path fill="#FCFDFF" d="M271.2,449.02c-3.47-0.15-6.95-0.2-10.42-0.15c-0.2,2.61-0.41,5.26-0.66,8.07
						c3.47,0.1,9.55-0.15,12.98-0.66c0.97,1.23,0.77,5.67,0.46,8.43c-7.92-0.36-15.99-0.36-24.37,0c1.38-11.6,2.25-23.14,2.71-34.74
						c7.92,0.36,19.62,1.18,23.3-0.51c1.33,4.6-0.2,9.04-3.93,9.14c-2.81,0-7.66-0.56-9.71-0.87c-0.1,2.15-0.26,4.24-0.41,6.33
						c3.68,0.05,7.31,0,10.98-0.15C272.43,445.6,272.33,447.33,271.2,449.02z"/>
					<path fill="#FCFDFF" d="M307.06,433.39c2.45,3.83,0,10.68-7.71,8.68c-0.2-7.31-2.55-10.37-5.42-10.37
						c-3.37,0-2.86,4.39-0.97,6.59c1.89,2.35,11.19,9.2,13.64,13.84c2.76,5.21-0.05,13.34-13.9,13.34c-2.91,0-7.36-0.36-9.96-2.09
						c-4.96-3.32-5.31-12.77,6.13-10.68c0.2,6.33,1.74,10.22,4.96,10.22c3.42,0,3.17-4.5,0.87-7.31
						c-2.55-2.96-10.37-7.36-12.67-12.67c-2.25-5.21-0.31-13.79,12.87-13.79C299.2,429.15,305.02,430.06,307.06,433.39z"/>
					<path fill="#FCFDFF" d="M341.29,429.66c0.36,2.45,0.15,5.62-1.02,7.56c-1.28-0.15-4.5-0.31-8.38-0.41
						c-0.46,7.1-1.94,20.28-1.94,27.9c-3.83,0.56-7.71,0.56-11.55,0c1.12-9.5,1.89-18.6,2.4-28c-3.73,0.05-6.9,0.15-8.12,0.31
						c-1.17-1.94-1.12-4.96-0.51-7.41C318.96,430.17,334.24,430.22,341.29,429.66z"/>
					<path fill="#FCFDFF" d="M371.94,464.7c-3.78,0.51-7.56,0.51-11.34,0l-0.87-9.14h-7.2l-2.35,9.14c-3.78,0.51-7.56,0.51-11.34,0
						l12.31-34.74c4.7-0.51,9.45-0.51,14.15,0L371.94,464.7z M353.8,450.45h5.42l-0.61-6.13c-0.31-2.96-0.77-5.01-0.61-9.14
						l-0.51,0.05c-0.56,3.93-1.33,6.23-2.15,9.25L353.8,450.45z"/>
					<path fill="#FCFDFF" d="M406.83,464.7c-3.78,0.51-7.56,0.51-11.34,0l-0.87-9.14h-7.2l-2.35,9.14c-3.78,0.51-7.56,0.51-11.34,0
						l12.31-34.74c4.7-0.51,9.45-0.51,14.15,0L406.83,464.7z M388.69,450.45h5.42l-0.61-6.13c-0.31-2.96-0.77-5.01-0.61-9.14
						l-0.51,0.05c-0.56,3.93-1.33,6.23-2.15,9.25L388.69,450.45z"/>
					<path fill="#FCFDFF" d="M443.56,464.7c-4.14,0.56-8.43,0.56-12.57,0l-8.33-25.55h-0.51c0.46,2.86,0.97,5.67,1.12,8.53
						c0.31,6.03,0,13.13-0.15,17.01c-3.83,0.56-7.71,0.56-11.55,0c1.38-11.6,2.25-23.14,2.71-34.74c4.19-0.51,8.33-0.51,12.31,0
						l9.04,25.8h0.51c-0.66-2.96-1.33-5.88-1.63-8.84c-0.56-5.62,0-12.16,0.2-16.96c3.88-0.51,7.61-0.51,11.29,0
						C445.55,437.01,443.56,457.04,443.56,464.7z"/>
				</g>
			</g>
		</g>
		<g>
			<line fill="#221C2E" x1="161.02" y1="411.41" x2="343.66" y2="411.41"/>
			<path fill="#FFFFFF" d="M161.02,411.41c29.95-2.13,61.24-2.52,91.32-2.66c30.1,0.12,61.35,0.52,91.32,2.66
				c-29.95,2.14-61.24,2.53-91.32,2.66C222.24,413.94,190.99,413.54,161.02,411.41L161.02,411.41z"/>
		</g>
		<g>
			<path fill="#FFFFFF" d="M116.28,239.38c-11.84,1.83-12.87,3.31-14.14,20.31c-1.27-17-2.3-18.48-14.14-20.31
				c11.84-1.83,12.87-3.31,14.14-20.31C103.41,236.07,104.44,237.55,116.28,239.38z"/>
			<path fill="#FFFFFF" d="M411.71,244.48c-13.28,2.05-14.44,3.71-15.87,22.78c-1.43-19.07-2.58-20.73-15.87-22.78
				c13.28-2.05,14.44-3.71,15.87-22.78C397.27,240.77,398.43,242.43,411.71,244.48z"/>
			<path fill="#FFFFFF" d="M148.97,180.53c-2.41,0.37-2.62,0.67-2.88,4.14c-0.26-3.46-0.47-3.76-2.88-4.14
				c2.41-0.37,2.62-0.67,2.88-4.14C146.35,179.86,146.56,180.16,148.97,180.53z"/>
			<path fill="#FFFFFF" d="M170.59,146.12c-7.84,1.21-8.53,2.19-9.37,13.45c-0.84-11.26-1.52-12.24-9.37-13.45
				c7.84-1.21,8.53-2.19,9.37-13.45C162.06,143.93,162.75,144.91,170.59,146.12z"/>
			<path fill="#FFFFFF" d="M388.61,359.34c-6.49,1-7.06,1.81-7.76,11.14c-0.7-9.33-1.26-10.14-7.76-11.14
				c6.49-1,7.06-1.81,7.76-11.14C381.55,357.53,382.12,358.34,388.61,359.34z"/>
			<path fill="#FFFFFF" d="M401.07,338.6c-2.94,0.45-3.19,0.82-3.51,5.03c-0.32-4.22-0.57-4.58-3.51-5.03
				c2.94-0.45,3.19-0.82,3.51-5.03C397.88,337.78,398.13,338.15,401.07,338.6z"/>
		</g>
	</g>
</g>
<g>
</g>
<g>
</g>
<g>
</g>
<g>
</g>
<g>
</g>
<g>
</g>
<g>
</g>
<g>
</g>
<g>
</g>
<g>
</g>
<g>
</g>
<g>
</g>
<g>
</g>
<g>
</g>
<g>
</g>
</svg>
