<svg xmlns="http://www.w3.org/2000/svg" xmlns:xlink="http://www.w3.org/1999/xlink" width="110.9" height="27.725" viewBox="0 0 110.9 27.725">
  <defs>
    <radialGradient id="radial-gradient" cx="0.499" cy="0.498" r="0.508" gradientTransform="matrix(0.983, 0, 0, -1, 0.009, 2.065)" gradientUnits="objectBoundingBox">
      <stop offset="0" stop-color="#fff" stop-opacity="0"/>
      <stop offset="0.45" stop-color="#efefef" stop-opacity="0.071"/>
      <stop offset="0.7" stop-color="#bdbcbc" stop-opacity="0.302"/>
      <stop offset="0.9" stop-color="#666364" stop-opacity="0.69"/>
      <stop offset="1" stop-color="#231f20"/>
    </radialGradient>
    <radialGradient id="radial-gradient-2" cx="0.488" cy="0.499" r="0.531" gradientTransform="matrix(0.926, 0.107, 0.096, -0.955, -1.281, 84.866)" xlink:href="#radial-gradient"/>
    <radialGradient id="radial-gradient-3" cx="0.518" cy="0.492" r="0.474" gradientTransform="matrix(-0.182, 0.983, -0.983, -0.182, -1160.36, 86.071)" gradientUnits="objectBoundingBox">
      <stop offset="0" stop-color="#603913"/>
      <stop offset="1" stop-color="#fff" stop-opacity="0"/>
    </radialGradient>
    <radialGradient id="radial-gradient-4" cx="0.099" cy="0.393" r="0.493" gradientTransform="matrix(0.552, -0.906, -0.909, -0.326, -5551.039, -9869.325)" xlink:href="#radial-gradient-3"/>
    <radialGradient id="radial-gradient-5" cx="4.125" cy="-9.148" r="0.474" gradientTransform="matrix(1, 0, 0, -1, 0, 27.973)" xlink:href="#radial-gradient-3"/>
    <radialGradient id="radial-gradient-6" cx="0.184" cy="0.451" r="0.493" gradientTransform="matrix(0.571, -0.906, -0.94, -0.326, -5583.9, -10056.519)" xlink:href="#radial-gradient-3"/>
    <radialGradient id="radial-gradient-7" cx="-5.618" cy="-1.062" r="0.474" gradientTransform="matrix(1, 0, 0, -1, 0, 21.516)" xlink:href="#radial-gradient-3"/>
    <radialGradient id="radial-gradient-8" cx="0.126" cy="0.432" r="0.493" gradientTransform="matrix(0.571, -0.906, -0.94, -0.326, -5589.908, -10065.816)" xlink:href="#radial-gradient-3"/>
  </defs>
  <g id="Jagods_App_Logo" transform="translate(-16.5 -5.7)">
    <g id="Group_191087" data-name="Group 191087">
      <g id="Group_191086" data-name="Group 191086">
        <g id="Group_191085" data-name="Group 191085">
          <g id="Group_191083" data-name="Group 191083">
            <path id="Path_98373" data-name="Path 98373" d="M83.6,30.5,81,33.2a.561.561,0,0,1-.9,0l-2.8-2.8a1.384,1.384,0,0,0,1.5-1.5l1.3,1.3a.561.561,0,0,0,.9,0l1.1-1.1a1.8,1.8,0,0,0,.6.9A2.622,2.622,0,0,0,83.6,30.5Z" fill="#f21b45" fill-rule="evenodd"/>
          </g>
          <g id="Group_191084" data-name="Group 191084">
            <path id="Path_98374" data-name="Path 98374" d="M72.5,9.2a11.355,11.355,0,0,0-3.3,8,11.913,11.913,0,0,0,1.9,6.3.75.75,0,0,1,0,.9,1.824,1.824,0,0,0,.3,2.2L75,30.2a.424.424,0,1,0,.6-.6l-3-3a.707.707,0,0,1,1-1l3.6,3.6a.424.424,0,1,0,.6-.6L74,25a.707.707,0,0,1,1-1l3,3a.424.424,0,1,0,.6-.6L75,22.8a1.679,1.679,0,0,0-1.9-.4.819.819,0,0,1-1-.4,10.153,10.153,0,0,1-1.3-4.8,9.524,9.524,0,0,1,2.8-6.8A9.6,9.6,0,0,1,90,17.2a9.219,9.219,0,0,1-1.5,5.1.807.807,0,0,1-.9.4,3.329,3.329,0,0,0-1.4.1,3.956,3.956,0,0,0-1.5,1,3.915,3.915,0,0,0-.8,1,7.066,7.066,0,0,0-1.1,2.5,2.2,2.2,0,0,0,.3,1.8,1.7,1.7,0,0,0,1.8.3,7.066,7.066,0,0,0,2.5-1.1,3.915,3.915,0,0,0,1-.8,3.858,3.858,0,0,0,1.1-1.7,1.95,1.95,0,0,0,0-1.5.783.783,0,0,1,.1-.8,11.59,11.59,0,0,0,2-6.5A11.267,11.267,0,0,0,80.3,5.7,11.093,11.093,0,0,0,72.5,9.2Z" fill="#f21b45" fill-rule="evenodd"/>
          </g>
        </g>
      </g>
    </g>
    <g id="Group_191132" data-name="Group 191132">
      <g id="Object_00000046341673234908747290000017253028830265458848_">
        <g id="Group_191131" data-name="Group 191131">
          <g id="Group_191117" data-name="Group 191117">
            <g id="Group_191088" data-name="Group 191088">
              <path id="Path_98375" data-name="Path 98375" d="M79.9,11.6c0-.1-.1-.1-.1-.2-.1-.5.5-.6.8-.5a1.205,1.205,0,0,1,.5.5,3.552,3.552,0,0,1,.4.9v.2h-1c-.2,0-.3.1-.4-.1a3.092,3.092,0,0,0-.2-.8Z" fill="#ea823f"/>
              <path id="Path_98376" data-name="Path 98376" d="M81.5,12.4a3.552,3.552,0,0,0-.4-.9,1.205,1.205,0,0,0-.5-.5.637.637,0,0,0-.6,0,.446.446,0,0,1,.5,0,1.205,1.205,0,0,1,.5.5,2.044,2.044,0,0,1,.5.9v.2h0c.1-.1.1-.2,0-.2Z" fill="#f16c24"/>
              <path id="Path_98377" data-name="Path 98377" d="M79.9,11.7c.1.2.2.5.3.7h.1a1.268,1.268,0,0,1,.6.1l-.3-.6c0-.1-.1-.2-.1-.3s.1-.2.2-.3a.1.1,0,0,0,.1-.1v-.1c-.1-.1-.2-.1-.3-.2-.1,0-.3-.1-.4,0-.1,0-.1.2-.2.2a.629.629,0,0,0,0,.6Z" fill="#ea823f" opacity="0.51"/>
              <path id="Path_98378" data-name="Path 98378" d="M80.3,11.4a.1.1,0,0,1,.1-.1l.1-.1a.6.6,0,0,1,.4.1l.3.3a3.552,3.552,0,0,1,.4.9l-.1.1c-.1-.1-.2,0-.3,0-.2,0-.3-.1-.4-.1a.6.6,0,0,1-.4-.1,1.865,1.865,0,0,1-.1-1Z" fill="#ea823f" opacity="0.51"/>
              <path id="Path_98379" data-name="Path 98379" d="M80,11.4v.3c0,.1.1.2.2.3v-.2c0-.1-.1-.2-.1-.3s.1-.1.1-.2a.1.1,0,0,0,.1-.1H80s0,.1,0,.2Z" fill="#ea823f" opacity="0.66"/>
              <path id="Path_98380" data-name="Path 98380" d="M80.5,11.5a6.373,6.373,0,0,1,.2.7c0,.1,0,.1.1.1h.1a1.483,1.483,0,0,0,.7.1c0-.1-.1-.1-.1-.2-.1-.1-.1-.3-.2-.5a.758.758,0,0,0-.2-.4,1,1,0,0,0-.5-.4.348.348,0,0,0-.5.1c0,.2.3.4.4.5Z" fill="#ea823f" opacity="0.3"/>
            </g>
            <g id="Group_191089" data-name="Group 191089">
              <path id="Path_98381" data-name="Path 98381" d="M78.7,11.8c0-.1-.1-.1-.1-.2-.1-.5.5-.6.8-.5a1.205,1.205,0,0,1,.5.5,3.552,3.552,0,0,1,.4.9v.2h-1c-.2,0-.3.1-.4-.1,0-.1-.2-.6-.2-.8Z" fill="#ea823f"/>
              <path id="Path_98382" data-name="Path 98382" d="M80.3,12.6a3.552,3.552,0,0,0-.4-.9,1.205,1.205,0,0,0-.5-.5.637.637,0,0,0-.6,0,.446.446,0,0,1,.5,0,1.205,1.205,0,0,1,.5.5,4.054,4.054,0,0,1,.5.9v.2h0a.139.139,0,0,0,0-.2Z" fill="#f16c24"/>
              <path id="Path_98383" data-name="Path 98383" d="M78.7,11.8c.1.2.2.5.3.7h.1a1.268,1.268,0,0,1,.6.1l-.3-.6c0-.1-.1-.2-.1-.3s.1-.2.2-.3a.1.1,0,0,0,.1-.1v-.1c-.1-.1-.2-.1-.3-.2-.1,0-.3-.1-.4,0-.1,0-.1.2-.2.2q-.15.45,0,.6Z" fill="#ea823f" opacity="0.51"/>
              <path id="Path_98384" data-name="Path 98384" d="M79.1,11.5a.1.1,0,0,1,.1-.1l.1-.1a.6.6,0,0,1,.4.1l.3.3a3.552,3.552,0,0,1,.4.9l-.1.1c-.1-.1-.2,0-.3,0-.2,0-.3-.1-.4-.1a.6.6,0,0,1-.4-.1,1.729,1.729,0,0,1-.1-1Z" fill="#ea823f" opacity="0.51"/>
              <path id="Path_98385" data-name="Path 98385" d="M78.8,11.6v.3c0,.1,0-.1.1,0,0-.1.1.1.1.1,0-.1-.1-.2-.1-.3s.1-.1.1-.2a.1.1,0,0,0,.1-.1h-.3s0,.1,0,.2Z" fill="#ea823f" opacity="0.66"/>
              <path id="Path_98386" data-name="Path 98386" d="M79.2,11.7a6.373,6.373,0,0,1,.2.7c0,.1,0,.1.1.1h.1a1.483,1.483,0,0,0,.7.1c0-.1-.1-.1-.1-.2-.1-.1-.1-.3-.2-.5a.758.758,0,0,0-.2-.4,1,1,0,0,0-.5-.4.348.348,0,0,0-.5.1c.1.2.4.4.4.5Z" fill="#ea823f" opacity="0.3"/>
            </g>
            <g id="Group_191090" data-name="Group 191090">
              <path id="Path_98387" data-name="Path 98387" d="M81.1,11.7v-.2c0-.5.6-.5.9-.3.2.1.3.4.4.6a2.92,2.92,0,0,1,.2.9v.2h-.3a1.421,1.421,0,0,1-.6-.2c-.2-.1-.3,0-.4-.1a2.388,2.388,0,0,0-.2-.9Z" fill="#ea823f"/>
              <path id="Path_98388" data-name="Path 98388" d="M82.6,12.7c-.1-.3-.1-.6-.2-.9-.1-.2-.2-.5-.4-.6a1.268,1.268,0,0,0-.6-.1.749.749,0,0,1,.5.1c.2.1.3.4.4.6l.3.9c-.1.1,0,.1-.1.2h0c.2-.1.2-.2.1-.2Z" fill="#f16c24"/>
              <path id="Path_98389" data-name="Path 98389" d="M81.1,11.7a1.854,1.854,0,0,0,.2.7h.1a.764.764,0,0,1,.5.2c0-.2-.1-.4-.1-.6v-.3a.215.215,0,0,1,.2-.2h.1v-.1c-.1-.1-.2-.2-.3-.2s-.3-.1-.4-.1a.215.215,0,0,0-.2.2c-.1.1-.1.2-.1.4Z" fill="#ea823f" opacity="0.51"/>
              <path id="Path_98390" data-name="Path 98390" d="M81.6,11.4a.1.1,0,0,1,.1-.1.349.349,0,0,1,.2-.1.758.758,0,0,1,.4.2c.1.1.1.2.2.4a2.92,2.92,0,0,1,.2.9l-.1.1a.367.367,0,0,0-.3-.1c-.1-.1-.2-.1-.4-.1-.1,0-.3-.1-.3-.2a1.7,1.7,0,0,1,0-1Z" fill="#ea823f" opacity="0.51"/>
              <path id="Path_98391" data-name="Path 98391" d="M81.3,11.4c0,.1-.1.2,0,.3,0,.1.1.2.1.3v-.2c0-.1-.1-.2,0-.3,0-.1.1-.1.2-.2.1,0,.1,0,.2-.1l-.2-.1q-.3.15-.3.3Z" fill="#ea823f" opacity="0.66"/>
              <path id="Path_98392" data-name="Path 98392" d="M81.7,11.6a1.7,1.7,0,0,1,.1.7c0,.1,0,.1.1.2l.1.1a1.421,1.421,0,0,0,.6.2c0-.1,0-.2-.1-.2a.9.9,0,0,1-.1-.5c0-.1-.1-.3-.1-.4a1,1,0,0,0-.4-.5c-.1-.1-.4-.2-.5,0,0,.1.3.3.3.4Z" fill="#ea823f" opacity="0.3"/>
            </g>
            <g id="Group_191091" data-name="Group 191091">
              <path id="Path_98393" data-name="Path 98393" d="M85.9,19c.1,0,.1.1.2.1.4.3.1.8-.3.9-.2.1-.5,0-.8,0a3.552,3.552,0,0,1-.9-.4.1.1,0,0,1-.1-.1v-.1h.1a.1.1,0,0,0,.1-.1,1,1,0,0,1,.5-.4c.2-.1.2-.3.4-.2a2.614,2.614,0,0,1,.8.3Z" fill="#ea823f"/>
              <path id="Path_98394" data-name="Path 98394" d="M84.2,19.6c.3.1.6.3.9.4a1.1,1.1,0,0,0,.8,0c.2-.1.4-.2.4-.4-.1.2-.2.3-.4.3-.2.1-.5,0-.8,0l-.9-.3c0-.1-.1-.1-.1-.2h0v.1Z" fill="#f16c24"/>
              <path id="Path_98395" data-name="Path 98395" d="M85.9,19a4.875,4.875,0,0,0-.7-.3h-.1a.536.536,0,0,1-.4.3l.6.3c.1,0,.2.1.3.2a.188.188,0,0,1,0,.3s-.1.1,0,.1h.1a.6.6,0,0,0,.4-.1c.1-.1.2-.1.3-.2v-.3c-.2-.1-.3-.2-.5-.3Z" fill="#ea823f" opacity="0.51"/>
              <path id="Path_98396" data-name="Path 98396" d="M85.8,19.5v.1c0,.1,0,.1-.1.2a.52.52,0,0,1-.4.2.6.6,0,0,1-.4-.1,3.552,3.552,0,0,1-.9-.4v-.1a.349.349,0,0,0,.2-.1c.1-.1.2-.1.4-.2.1-.1.2-.2.4-.1A.954.954,0,0,1,85.8,19.5Z" fill="#ea823f" opacity="0.51"/>
              <path id="Path_98397" data-name="Path 98397" d="M86,19.3c-.1-.1-.1-.2-.2-.2a.367.367,0,0,1-.3-.1l.1.1c.1.1.2.1.3.2v.2c0,.1-.1.1,0,.2,0,0,.2-.1.2-.2a.31.31,0,0,0-.1-.2Z" fill="#ea823f" opacity="0.66"/>
              <path id="Path_98398" data-name="Path 98398" d="M85.6,19.5a2.092,2.092,0,0,1-.6-.4.139.139,0,0,0-.2,0h-.1a2.092,2.092,0,0,0-.6.4c.1.1.1.1.2.1.2,0,.3.1.5.2.1.1.3.1.4.2a.637.637,0,0,0,.6,0c.1,0,.4-.2.3-.4-.1-.1-.4,0-.5-.1Z" fill="#ea823f" opacity="0.3"/>
            </g>
            <g id="Group_191092" data-name="Group 191092">
              <path id="Path_98399" data-name="Path 98399" d="M85.3,20.2c.1,0,.1.1.2.1.3.4-.1.8-.5.8a1.445,1.445,0,0,1-.7-.2c-.3-.2-.5-.4-.8-.6l-.1-.1v-.1c0-.1,0,0,.1,0s.1,0,.1-.1l.6-.3c.2,0,.2-.2.4-.1a3.736,3.736,0,0,0,.7.6Z" fill="#ea823f"/>
              <path id="Path_98400" data-name="Path 98400" d="M83.5,20.4a5.547,5.547,0,0,0,.8.6,1.854,1.854,0,0,0,.7.2.55.55,0,0,0,.5-.3.764.764,0,0,1-.5.2,1.445,1.445,0,0,1-.7-.2,3.508,3.508,0,0,0-.8-.5c0-.1,0-.1-.1-.2h0v.1A.1.1,0,0,0,83.5,20.4Z" fill="#f16c24"/>
              <path id="Path_98401" data-name="Path 98401" d="M85.3,20.2c-.2-.2-.4-.3-.6-.5h-.1a1.689,1.689,0,0,1-.5.2c.2.1.3.3.5.4.1.1.2.1.2.2v.3l-.1.1h.1c.1.1.3,0,.4,0s.3-.1.3-.2a.367.367,0,0,0,.1-.3c-.1.1-.2-.1-.3-.2Z" fill="#ea823f" opacity="0.51"/>
              <path id="Path_98402" data-name="Path 98402" d="M85.1,20.7v.1c0,.1,0,.1-.1.1a.6.6,0,0,1-.4.1.758.758,0,0,1-.4-.2,2.407,2.407,0,0,1-.8-.6v-.1c.1,0,.2-.1.3-.1a.6.6,0,0,0,.4-.1.3.3,0,0,1,.4,0,1.555,1.555,0,0,1,.6.8Z" fill="#ea823f" opacity="0.51"/>
              <path id="Path_98403" data-name="Path 98403" d="M85.3,20.5a.349.349,0,0,0-.1-.2.367.367,0,0,0-.3-.1.1.1,0,0,0,.1.1c.1.1.2.1.2.2v.2c0,.1-.1.1-.1.2l.2-.1a.187.187,0,0,0,0-.3Z" fill="#ea823f" opacity="0.66"/>
              <path id="Path_98404" data-name="Path 98404" d="M84.8,20.6c-.2-.1-.3-.3-.5-.5l-.1-.1h-.1c-.2.1-.4.1-.6.2,0,.1.1.1.2.1a1.381,1.381,0,0,1,.4.3c.1.1.2.2.3.2a1.421,1.421,0,0,0,.6.2c.1,0,.4-.1.4-.3a1.486,1.486,0,0,1-.6-.1Z" fill="#ea823f" opacity="0.3"/>
            </g>
            <g id="Group_191093" data-name="Group 191093">
              <path id="Path_98405" data-name="Path 98405" d="M82.4,11.8c0-.1,0-.1.1-.2.2-.4.7-.2.9.2a1.949,1.949,0,0,1,.1.8l-.3.9c0,.1,0,.1-.1.1H83v-.1a.1.1,0,0,0-.1-.1c-.2-.1-.3-.3-.5-.5-.1-.2-.3-.1-.3-.3a6.89,6.89,0,0,0,.3-.8Z" fill="#ea823f"/>
              <path id="Path_98406" data-name="Path 98406" d="M83.2,13.5l.3-.9a2.2,2.2,0,0,0-.1-.8c-.1-.2-.3-.3-.4-.4a1.38,1.38,0,0,1,.4.3,1.949,1.949,0,0,1,.1.8,2.236,2.236,0,0,0-.3,1c-.1,0-.1.1-.2.1h.1l.1-.1Z" fill="#f16c24"/>
              <path id="Path_98407" data-name="Path 98407" d="M82.4,11.8a1.854,1.854,0,0,0-.2.7v.2l.4.4c.1-.2.1-.4.2-.6,0-.1.1-.2.2-.3a.367.367,0,0,1,.3-.1s.1.1.1,0V12c0-.1-.1-.3-.1-.4l-.3-.3a.367.367,0,0,0-.3.1c-.2.2-.2.3-.3.4Z" fill="#ea823f" opacity="0.51"/>
              <path id="Path_98408" data-name="Path 98408" d="M82.9,11.9a.1.1,0,0,0,.1-.1h.2c.1.1.2.2.2.3v.4a3.178,3.178,0,0,1-.3.9H83c0-.1-.1-.1-.2-.2s-.1-.2-.3-.3c-.1-.1-.2-.2-.2-.3.2-.2.4-.5.6-.7Z" fill="#ea823f" opacity="0.51"/>
              <path id="Path_98409" data-name="Path 98409" d="M82.7,11.7c-.1.1-.2.1-.2.2v.3l.1-.1c0-.1.1-.2.1-.3.1-.1.1-.1.2,0h.2s-.1-.2-.2-.2-.2,0-.2.1Z" fill="#ea823f" opacity="0.66"/>
              <path id="Path_98410" data-name="Path 98410" d="M82.9,12.1a4.876,4.876,0,0,0-.3.7V13a.1.1,0,0,0,.1.1,2.181,2.181,0,0,0,.4.5c.1-.1,0-.2.1-.2,0-.2.1-.3.2-.5a.6.6,0,0,0,.1-.4,1.268,1.268,0,0,0-.1-.6c-.1-.1-.3-.4-.4-.2-.1,0,0,.3-.1.4Z" fill="#ea823f" opacity="0.3"/>
            </g>
            <g id="Group_191094" data-name="Group 191094">
              <path id="Path_98411" data-name="Path 98411" d="M83.5,12.3c0-.1.1-.1.1-.2.3-.3.8,0,.8.4a1.483,1.483,0,0,1-.1.7,3.508,3.508,0,0,1-.5.8l-.1.1h-.1V14c0-.1,0-.1-.1-.1-.2-.2-.2-.4-.3-.6s-.2-.2-.2-.4c.1,0,.4-.4.5-.6Z" fill="#ea823f"/>
              <path id="Path_98412" data-name="Path 98412" d="M83.8,14.1a3.508,3.508,0,0,0,.5-.8.878.878,0,0,0,.1-.7.85.85,0,0,0-.3-.5c.1.1.3.3.3.4a1.483,1.483,0,0,1-.1.7,7.256,7.256,0,0,1-.5.9c-.1,0-.1.1-.2.1h.1c.1,0,.1,0,.1-.1Z" fill="#f16c24"/>
              <path id="Path_98413" data-name="Path 98413" d="M83.5,12.3c-.1.2-.3.4-.4.6h0V13c.1.2.2.3.2.5a2.092,2.092,0,0,1,.4-.6c.1-.1.1-.2.2-.2a.188.188,0,0,1,.3,0l.1.1v-.5c0-.1-.1-.3-.2-.3h-.3l-.3.3Z" fill="#ea823f" opacity="0.51"/>
              <path id="Path_98414" data-name="Path 98414" d="M84,12.5h.1c.1,0,.1,0,.1.1.1.1.1.2.1.4,0,.1-.1.3-.1.4a2.177,2.177,0,0,1-.5.8h-.1c0-.1-.1-.2-.1-.3-.1-.1-.1-.3-.2-.4s-.2-.3-.1-.4c.3-.2.5-.5.8-.6Z" fill="#ea823f" opacity="0.51"/>
              <path id="Path_98415" data-name="Path 98415" d="M83.8,12.3a.215.215,0,0,0-.2.2.367.367,0,0,0-.1.3l.1-.1c.1-.1.1-.2.2-.2H84c.1,0,.1.1.2.1l-.1-.2c-.1-.2-.2-.2-.3-.1Z" fill="#ea823f" opacity="0.66"/>
              <path id="Path_98416" data-name="Path 98416" d="M83.9,12.7c-.1.2-.3.4-.4.6l-.1.1v.1l.3.6c.1,0,.1-.1.1-.2a1.38,1.38,0,0,1,.3-.4.52.52,0,0,0,.2-.4,1.268,1.268,0,0,0,.1-.6c0-.1-.1-.4-.3-.3-.1.1-.1.4-.2.5Z" fill="#ea823f" opacity="0.3"/>
            </g>
            <g id="Group_191095" data-name="Group 191095">
              <path id="Path_98417" data-name="Path 98417" d="M84.6,13c.1,0,.1-.1.2-.1.4-.2.7.3.6.7a1.012,1.012,0,0,1-.4.7c-.2.2-.5.4-.7.6a.349.349,0,0,1-.2.1H84V14c0-.2-.2-.3,0-.4.1-.2.5-.4.6-.6Z" fill="#ea823f"/>
              <path id="Path_98418" data-name="Path 98418" d="M84.3,14.8a4.349,4.349,0,0,0,.7-.6,1.612,1.612,0,0,0,.4-.7.735.735,0,0,0-.2-.6.749.749,0,0,1,.1.5,1.012,1.012,0,0,1-.4.7,1.344,1.344,0,0,1-.6.7h-.1C84.2,14.9,84.3,14.9,84.3,14.8Z" fill="#f16c24"/>
              <path id="Path_98419" data-name="Path 98419" d="M84.6,13c-.2.1-.4.3-.6.4h0v.1c0,.2.1.4.1.6a2.181,2.181,0,0,0,.5-.4c.1-.1.2-.1.3-.2a.367.367,0,0,1,.3.1.1.1,0,0,0,.1.1h.1c.1-.1.1-.2.1-.4a.6.6,0,0,0-.1-.4.367.367,0,0,0-.3-.1c-.2.1-.3.2-.5.2Z" fill="#ea823f" opacity="0.51"/>
              <path id="Path_98420" data-name="Path 98420" d="M85,13.4h.1l.1.1c.1.1,0,.3,0,.4-.1.1-.2.2-.2.3a2.407,2.407,0,0,1-.8.6.1.1,0,0,1-.1-.1V14c0-.1-.1-.3.1-.4a1.884,1.884,0,0,1,.8-.2Z" fill="#ea823f" opacity="0.51"/>
              <path id="Path_98421" data-name="Path 98421" d="M84.9,13.1a.367.367,0,0,0-.3.1c-.1.1-.1.2-.2.3.1,0,.1,0,.2-.1a.367.367,0,0,1,.3-.1c.1,0,.2,0,.2.1l.1.1v-.2c-.1-.2-.2-.2-.3-.2Z" fill="#ea823f" opacity="0.66"/>
              <path id="Path_98422" data-name="Path 98422" d="M84.9,13.6a2.092,2.092,0,0,1-.6.4l-.1.1v.1a1.952,1.952,0,0,0,.1.7c.1,0,.1-.1.2-.2s.3-.2.4-.3l.3-.3c.1-.2.3-.3.3-.5,0-.1,0-.5-.2-.4-.2,0-.3.3-.4.4Z" fill="#ea823f" opacity="0.3"/>
            </g>
            <g id="Group_191096" data-name="Group 191096">
              <path id="Path_98423" data-name="Path 98423" d="M85.5,14.1c.1,0,.1-.1.2-.1.5-.1.6.4.5.8a1.205,1.205,0,0,1-.5.5,5.9,5.9,0,0,1-.8.4h-.2v-1c0-.2-.1-.3.1-.4a1.854,1.854,0,0,0,.7-.2Z" fill="#ea823f"/>
              <path id="Path_98424" data-name="Path 98424" d="M84.8,15.7a2.01,2.01,0,0,0,.8-.4,1.205,1.205,0,0,0,.5-.5.638.638,0,0,0,0-.6.446.446,0,0,1,0,.5,1.205,1.205,0,0,1-.5.5,2.177,2.177,0,0,1-.8.5h-.2c.1.1.2.1.2,0Z" fill="#f16c24"/>
              <path id="Path_98425" data-name="Path 98425" d="M85.5,14.1c-.2.1-.5.2-.7.3h0v.1a1.268,1.268,0,0,1-.1.6l.6-.3c.1,0,.2-.1.3-.1s.2.1.3.2a.1.1,0,0,0,.1.1h.1c.1-.1.1-.2.2-.3,0-.1.1-.3,0-.4,0-.1-.2-.1-.2-.2a.629.629,0,0,0-.6,0Z" fill="#ea823f" opacity="0.51"/>
              <path id="Path_98426" data-name="Path 98426" d="M85.8,14.5a.1.1,0,0,1,.1.1l.1.1a.6.6,0,0,1-.1.4l-.3.3a3.552,3.552,0,0,1-.9.4l-.1-.1c.1-.1,0-.2,0-.3,0-.2.1-.3.1-.4a.6.6,0,0,1,.1-.4,1.8,1.8,0,0,1,1-.1Z" fill="#ea823f" opacity="0.51"/>
              <path id="Path_98427" data-name="Path 98427" d="M85.8,14.2h-.3c-.1,0-.2.2-.3.2h.2c.1,0,.2-.1.3-.1s.1.1.2.1a.1.1,0,0,0,.1.1v-.3Z" fill="#ea823f" opacity="0.66"/>
              <path id="Path_98428" data-name="Path 98428" d="M85.7,14.6a1.445,1.445,0,0,1-.7.2c-.1,0-.1,0-.1.1V15a1.483,1.483,0,0,0-.1.7c.1,0,.1-.1.2-.1.1-.1.3-.1.5-.2.1-.1.3-.1.4-.2a1,1,0,0,0,.4-.5.348.348,0,0,0-.1-.5c-.2.1-.4.4-.5.4Z" fill="#ea823f" opacity="0.3"/>
            </g>
            <g id="Group_191097" data-name="Group 191097">
              <path id="Path_98429" data-name="Path 98429" d="M86,15.3h.2c.5,0,.5.6.3.9a2.092,2.092,0,0,1-.6.4c-.3.1-.6.1-.9.2h-.2v-.2A1.421,1.421,0,0,1,85,16c.1-.2,0-.3.2-.4.1-.2.6-.3.8-.3Z" fill="#ea823f"/>
              <path id="Path_98430" data-name="Path 98430" d="M84.9,16.7a2.92,2.92,0,0,0,.9-.2c.2-.1.5-.2.6-.4a.661.661,0,0,0,.1-.6.749.749,0,0,1-.1.5,2.092,2.092,0,0,1-.6.4,3.178,3.178,0,0,1-.9.3c-.1-.1-.1-.1-.2-.1h0c.1.1.1.1.2.1Z" fill="#f16c24"/>
              <path id="Path_98431" data-name="Path 98431" d="M86,15.3c-.2,0-.5.1-.7.1h0v.1a.764.764,0,0,1-.2.5c.2,0,.4-.1.7-.1h.3a.215.215,0,0,1,.2.2v.1h.1l.3-.3c0-.1.1-.2.1-.4a.215.215,0,0,0-.2-.2Z" fill="#ea823f" opacity="0.51"/>
              <path id="Path_98432" data-name="Path 98432" d="M86.2,15.8a.1.1,0,0,1,.1.1v.2c0,.1-.1.3-.2.3-.1.1-.2.1-.4.2a2.959,2.959,0,0,1-1,.2s-.1-.1,0-.1a.31.31,0,0,0,.1-.2c.1-.1.1-.2.2-.4,0-.1.1-.3.2-.3a.9.9,0,0,1,1,0Z" fill="#ea823f" opacity="0.51"/>
              <path id="Path_98433" data-name="Path 98433" d="M86.3,15.5c-.1,0-.2-.1-.3-.1s-.2.1-.3.1h.5c.1,0,.1.1.1.2s0,.1.1.2l.1-.2Z" fill="#ea823f" opacity="0.66"/>
              <path id="Path_98434" data-name="Path 98434" d="M86,15.9a1.7,1.7,0,0,0-.7.1h-.2l-.1.1-.3.6c.1,0,.2,0,.2-.1a.9.9,0,0,1,.5-.1.6.6,0,0,0,.4-.1,2.186,2.186,0,0,0,.5-.3c.1-.1.2-.4,0-.5.1,0-.2.3-.3.3Z" fill="#ea823f" opacity="0.3"/>
            </g>
            <g id="Group_191098" data-name="Group 191098">
              <path id="Path_98435" data-name="Path 98435" d="M86.3,16.6h.2c.4.1.3.7,0,.9a.952.952,0,0,1-.7.2,2.769,2.769,0,0,1-.9-.1c-.1,0-.1,0-.2-.1v-.1h0l.1-.1a2.092,2.092,0,0,1,.4-.6c.1-.1.1-.3.3-.3a1.884,1.884,0,0,0,.8.2Z" fill="#ea823f"/>
              <path id="Path_98436" data-name="Path 98436" d="M84.9,17.7c.3,0,.6.1.9.1a1.445,1.445,0,0,0,.7-.2.55.55,0,0,0,.3-.5c0,.2-.1.3-.3.4a.952.952,0,0,1-.7.2h-.9c-.1-.1-.1-.1-.2-.1h0v.1Z" fill="#f16c24"/>
              <path id="Path_98437" data-name="Path 98437" d="M86.3,16.6c-.2,0-.5-.1-.7-.1h0v.1c-.1.2-.2.3-.3.5a1.952,1.952,0,0,1,.7.1.367.367,0,0,1,.3.1c.1.1.2.2.1.3v.1h.1c.1,0,.2-.1.3-.2s.2-.2.2-.3-.1-.2-.1-.3a1.546,1.546,0,0,0-.6-.3Z" fill="#ea823f" opacity="0.51"/>
              <path id="Path_98438" data-name="Path 98438" d="M86.4,17.1l.1.1v.2c0,.1-.2.2-.3.3a.6.6,0,0,1-.4.1,3.4,3.4,0,0,1-1-.1v-.1c.1,0,.1-.1.2-.2l.3-.3c.1-.1.2-.3.3-.2a.882.882,0,0,1,.8.2Z" fill="#ea823f" opacity="0.51"/>
              <path id="Path_98439" data-name="Path 98439" d="M86.5,16.8a.367.367,0,0,0-.3-.1c-.1,0-.2.1-.3,0,.1,0,.1.1.2.1a.367.367,0,0,1,.3.1c.1,0,.1.1.1.2v.2l.1-.2a.367.367,0,0,0-.1-.3Z" fill="#ea823f" opacity="0.66"/>
              <path id="Path_98440" data-name="Path 98440" d="M86.1,17.2c-.2,0-.5-.1-.7-.1h-.2a.1.1,0,0,0-.1.1,1.756,1.756,0,0,0-.4.5h1.1a1.421,1.421,0,0,0,.6-.2c.1-.1.3-.3.2-.5a1.23,1.23,0,0,1-.5.2Z" fill="#ea823f" opacity="0.3"/>
            </g>
            <g id="Group_191099" data-name="Group 191099">
              <path id="Path_98441" data-name="Path 98441" d="M86.2,17.7c.1,0,.1,0,.2.1.4.2.2.7-.1.9a.878.878,0,0,1-.7.1,2.92,2.92,0,0,1-.9-.2c-.1,0-.1,0-.2-.1v-.1h.1l.1-.1a1,1,0,0,1,.4-.5c.2-.1.1-.3.3-.3a2.353,2.353,0,0,0,.8.2Z" fill="#ea823f"/>
              <path id="Path_98442" data-name="Path 98442" d="M84.7,18.7c.3.1.6.1.9.2a1.483,1.483,0,0,0,.7-.1.55.55,0,0,0,.3-.5c0,.2-.2.3-.3.4a.878.878,0,0,1-.7.1,2.769,2.769,0,0,0-.9-.1.1.1,0,0,0-.1-.1h0v.1c0-.1.1-.1.1,0Z" fill="#f16c24"/>
              <path id="Path_98443" data-name="Path 98443" d="M86.2,17.7a1.7,1.7,0,0,0-.7-.1h-.1a.781.781,0,0,1-.4.4c.2,0,.4.1.6.1a.354.354,0,0,1,.4.4v.1h.1c.1,0,.2-.1.3-.2s.2-.2.2-.3a.367.367,0,0,0-.1-.3.438.438,0,0,0-.3-.1Z" fill="#ea823f" opacity="0.51"/>
              <path id="Path_98444" data-name="Path 98444" d="M86.3,18.2l.1.1v.2l-.3.3h-.4a3.553,3.553,0,0,1-1-.2v-.1c.1,0,.1-.1.2-.2l.3-.3c.1-.1.2-.2.3-.2A1.516,1.516,0,0,1,86.3,18.2Z" fill="#ea823f" opacity="0.51"/>
              <path id="Path_98445" data-name="Path 98445" d="M86.4,17.9l-.2-.2h-.3c.1,0,.1.1.2.1a.367.367,0,0,1,.3.1c.1.1.1.1.1.2v.2l.2-.2c-.1,0-.2-.1-.3-.2Z" fill="#ea823f" opacity="0.66"/>
              <path id="Path_98446" data-name="Path 98446" d="M86,18.3a1.854,1.854,0,0,1-.7-.2h-.2a.1.1,0,0,0-.1.1c-.2.1-.3.3-.5.5h.2c.2,0,.3.1.5.1.1,0,.3.1.4.1a1.268,1.268,0,0,0,.6-.1c.1-.1.4-.3.2-.4.1-.2-.2-.1-.4-.1Z" fill="#ea823f" opacity="0.3"/>
            </g>
            <g id="Group_191100" data-name="Group 191100">
              <path id="Path_98447" data-name="Path 98447" d="M84.3,21.4c0,.1.1.1.1.2.1.4-.4.7-.7.6a2.651,2.651,0,0,1-.6-.5,2.177,2.177,0,0,1-.5-.8c0-.1-.1-.1,0-.2h.3a.846.846,0,0,1,.7,0c.2,0,.3-.1.4,0a3.629,3.629,0,0,0,.3.7Z" fill="#ea823f"/>
              <path id="Path_98448" data-name="Path 98448" d="M82.6,20.9a2.177,2.177,0,0,0,.5.8,2.651,2.651,0,0,0,.6.5.661.661,0,0,0,.6-.1.9.9,0,0,1-.5.1,2.651,2.651,0,0,1-.6-.5,5.546,5.546,0,0,0-.6-.8v-.2h0a.139.139,0,0,0,0,.2Z" fill="#f16c24"/>
              <path id="Path_98449" data-name="Path 98449" d="M84.3,21.4a2.092,2.092,0,0,0-.4-.6h-.7l.3.6a.367.367,0,0,1,.1.3c0,.1,0,.2-.2.3a.1.1,0,0,0-.1.1v.1c.1.1.2.1.4.1h.4c.1,0,.1-.2.2-.2a.581.581,0,0,0,0-.7Z" fill="#ea823f" opacity="0.51"/>
              <path id="Path_98450" data-name="Path 98450" d="M84,21.8v.1l-.1.1a.6.6,0,0,1-.4-.1l-.3-.3a3.508,3.508,0,0,1-.5-.8l.1-.1h.3c.2,0,.3.1.4,0a.6.6,0,0,1,.4.1c0,.3.1.7.1,1Z" fill="#ea823f" opacity="0.51"/>
              <path id="Path_98451" data-name="Path 98451" d="M84.3,21.7v-.3c-.1-.1-.2-.2-.2-.3v.2c0,.1.1.2.1.3s0,.2-.1.2a.1.1,0,0,0-.1.1h.3c-.1,0,0-.1,0-.2Z" fill="#ea823f" opacity="0.66"/>
              <path id="Path_98452" data-name="Path 98452" d="M83.8,21.6l-.3-.6-.1-.1h-.8c0,.1.1.1.1.2.1.1.2.3.3.4s.1.2.2.4a1,1,0,0,0,.5.4c.1,0,.5.1.5-.1,0-.3-.3-.5-.4-.6Z" fill="#ea823f" opacity="0.3"/>
            </g>
            <g id="Group_191101" data-name="Group 191101">
              <path id="Path_98453" data-name="Path 98453" d="M83.3,22.2v.2a.493.493,0,0,1-.8.4,1.024,1.024,0,0,1-.5-.6l-.3-.9v-.2H82a1.268,1.268,0,0,1,.6.1c.2.1.3-.1.4.1a9.439,9.439,0,0,0,.3.9Z" fill="#ea823f"/>
              <path id="Path_98454" data-name="Path 98454" d="M81.7,21.4l.3.9a1.47,1.47,0,0,0,.5.6.637.637,0,0,0,.6,0,.749.749,0,0,1-.5-.1,1.024,1.024,0,0,1-.5-.6,2.994,2.994,0,0,1-.4-.8c0-.1,0-.1.1-.2h0c-.1.1-.1.1-.1.2Z" fill="#f16c24"/>
              <path id="Path_98455" data-name="Path 98455" d="M83.3,22.2c-.1-.2-.1-.5-.2-.7H83c-.2,0-.4-.1-.6-.1.1.2.1.4.2.6,0,.1.1.2.1.3a.215.215,0,0,1-.2.2h-.1v.1c.1.1.2.2.3.2s.3.1.4,0a.215.215,0,0,0,.2-.2c0-.1,0-.2,0-.4Z" fill="#ea823f" opacity="0.51"/>
              <path id="Path_98456" data-name="Path 98456" d="M82.8,22.5a.1.1,0,0,1-.1.1l-.1.1a.6.6,0,0,1-.4-.1c-.1-.1-.2-.2-.2-.3a3.178,3.178,0,0,1-.3-.9l.1-.1c.1.1.2,0,.3.1.2,0,.2.1.4.1.1,0,.3,0,.3.2a1.1,1.1,0,0,1,0,.8Z" fill="#ea823f" opacity="0.51"/>
              <path id="Path_98457" data-name="Path 98457" d="M83.2,22.5v-.3c0-.1-.1-.2-.2-.3v.2c0,.1.1.2,0,.3,0,.1-.1.1-.2.2-.1,0-.1,0-.2.1h.2c.3,0,.3-.1.4-.2Z" fill="#ea823f" opacity="0.66"/>
              <path id="Path_98458" data-name="Path 98458" d="M82.7,22.3c-.1-.2-.1-.5-.2-.7,0-.1,0-.1-.1-.1a.1.1,0,0,1-.1-.1,6.373,6.373,0,0,0-.7-.2.349.349,0,0,0,.1.2c.1.1.1.3.2.5a.758.758,0,0,0,.2.4,1,1,0,0,0,.4.5c.1.1.4.2.5,0,0-.2-.3-.4-.3-.5Z" fill="#ea823f" opacity="0.3"/>
            </g>
            <g id="Group_191102" data-name="Group 191102">
              <path id="Path_98459" data-name="Path 98459" d="M81.9,22.7v.2c-.1.4-.7.4-.9.1-.2-.2-.2-.5-.3-.7V21.2h.1l.1.1.6.3c.2.1.3,0,.3.2.2.2.1.7.1.9Z" fill="#ea823f"/>
              <path id="Path_98460" data-name="Path 98460" d="M80.7,21.3v.9a.908.908,0,0,0,.3.7.764.764,0,0,0,.5.2.764.764,0,0,1-.5-.2c-.2-.2-.2-.5-.3-.7a1.352,1.352,0,0,0,0-.9c.1-.1.1-.1.1-.2h-.1v.2Z" fill="#f16c24"/>
              <path id="Path_98461" data-name="Path 98461" d="M81.9,22.7V22h-.1c-.2-.1-.3-.2-.5-.3v.7a.367.367,0,0,1-.1.3c-.1.1-.2.2-.3.2h-.1V23c0,.1.1.2.2.3s.2.2.3.2.2-.1.3-.1a1.082,1.082,0,0,0,.3-.7Z" fill="#ea823f" opacity="0.51"/>
              <path id="Path_98462" data-name="Path 98462" d="M81.4,22.8l-.1.1h-.2q-.15,0-.3-.3a.6.6,0,0,1-.1-.4,3.352,3.352,0,0,1,0-1s.1-.1.1,0,.2.1.2.2c.1.1.2.2.3.2a.319.319,0,0,1,.3.3.959.959,0,0,1-.2.9Z" fill="#ea823f" opacity="0.51"/>
              <path id="Path_98463" data-name="Path 98463" d="M81.7,22.9a.367.367,0,0,0,.1-.3c0-.1-.1-.2-.1-.3,0,.1,0,.1-.1.2a.367.367,0,0,1-.1.3c0,.1-.1.1-.2.1h-.2l.2.1c.3.1.4,0,.4-.1Z" fill="#ea823f" opacity="0.66"/>
              <path id="Path_98464" data-name="Path 98464" d="M81.4,22.6c0-.2.1-.5.1-.7v-.2l-.1-.1c-.2-.1-.4-.3-.6-.4v1.1a1.421,1.421,0,0,0,.2.6c.1.1.4.3.5.1a2.269,2.269,0,0,1-.1-.4Z" fill="#ea823f" opacity="0.3"/>
            </g>
            <g id="Group_191103" data-name="Group 191103">
              <path id="Path_98465" data-name="Path 98465" d="M80.6,22.8c0,.1,0,.1-.1.2-.2.4-.7.2-.9-.1a1.949,1.949,0,0,1-.1-.8,2.92,2.92,0,0,1,.2-.9c0-.1,0-.1.1-.2h.1v.1a.1.1,0,0,0,.1.1c.2.1.3.3.5.4.1.2.3.1.3.3a2.92,2.92,0,0,1-.2.9Z" fill="#ea823f"/>
              <path id="Path_98466" data-name="Path 98466" d="M79.7,21.2a2.92,2.92,0,0,0-.2.9,2.2,2.2,0,0,0,.1.8.55.55,0,0,0,.5.3c-.2,0-.3-.2-.4-.3a1.949,1.949,0,0,1-.1-.8c0-.3.1-.6.1-.9a.1.1,0,0,0,.1-.1h-.1c.1,0,.1,0,0,.1Z" fill="#f16c24"/>
              <path id="Path_98467" data-name="Path 98467" d="M80.6,22.8c.1-.2.1-.5.2-.7v-.2c-.2-.1-.3-.3-.4-.4-.1.2-.1.4-.2.6,0,.1-.1.2-.1.3a.367.367,0,0,1-.3.1h-.1v.1c0,.1.1.2.2.3s.2.2.3.2a.367.367,0,0,0,.3-.1.349.349,0,0,0,.1-.2Z" fill="#ea823f" opacity="0.51"/>
              <path id="Path_98468" data-name="Path 98468" d="M80.1,22.7l-.1.1h-.2c-.1-.1-.2-.2-.2-.3v-.4a2.92,2.92,0,0,1,.2-.9h.1c0,.1.1.1.2.2l.3.3c.1.1.2.2.2.3a1.275,1.275,0,0,1-.5.7Z" fill="#ea823f" opacity="0.51"/>
              <path id="Path_98469" data-name="Path 98469" d="M80.4,22.9l.2-.2v-.3a.349.349,0,0,0-.1.2c0,.1-.1.2-.1.3-.1.1-.1.1-.2.1H80l.2.2c0-.2.1-.2.2-.3Z" fill="#ea823f" opacity="0.66"/>
              <path id="Path_98470" data-name="Path 98470" d="M80.1,22.5c0-.2.2-.4.2-.7v-.2a.1.1,0,0,0-.1-.1c-.1-.2-.3-.3-.5-.5v.2c0,.2-.1.3-.1.5,0,.1-.1.3-.1.4a1.268,1.268,0,0,0,.1.6c.1.1.3.4.4.2C80.1,23,80,22.6,80.1,22.5Z" fill="#ea823f" opacity="0.3"/>
            </g>
            <g id="Group_191104" data-name="Group 191104">
              <path id="Path_98471" data-name="Path 98471" d="M79.4,22.6c0,.1-.1.1-.1.2-.3.4-.8.1-.9-.2a1.1,1.1,0,0,1,0-.8l.3-.9c0-.1,0-.1.1-.1h.1v.1a.1.1,0,0,0,.1.1,1,1,0,0,1,.4.5c.1.2.3.1.2.3A2.354,2.354,0,0,1,79.4,22.6Z" fill="#ea823f"/>
              <path id="Path_98472" data-name="Path 98472" d="M78.7,20.9l-.3.9a1.1,1.1,0,0,0,0,.8.781.781,0,0,0,.4.4.781.781,0,0,1-.4-.4,1.1,1.1,0,0,1,0-.8l.3-.9c.1,0,.1-.1.2-.1h-.1a.1.1,0,0,0-.1.1Z" fill="#f16c24"/>
              <path id="Path_98473" data-name="Path 98473" d="M79.4,22.6c.1-.2.2-.5.3-.7h0v-.1a2.181,2.181,0,0,1-.4-.5,1.421,1.421,0,0,0-.2.6c0,.1-.1.2-.2.3a.367.367,0,0,1-.3.1s-.1-.1-.1,0v.1c0,.1.1.3.1.4l.3.3h.3a.764.764,0,0,1,.2-.5Z" fill="#ea823f" opacity="0.51"/>
              <path id="Path_98474" data-name="Path 98474" d="M78.9,22.5a.1.1,0,0,0-.1.1h-.2c-.1-.1-.2-.2-.2-.3v-.4l.3-.9h.1a.215.215,0,0,0,.2.2c.1.1.1.2.2.3s.2.2.2.3a1.275,1.275,0,0,1-.5.7Z" fill="#ea823f" opacity="0.51"/>
              <path id="Path_98475" data-name="Path 98475" d="M79.1,22.7c.1-.1.2-.1.2-.2v-.3l-.1.1c-.1.1-.1.2-.2.3-.1,0-.1.1-.2,0h-.2s.1.2.2.2a.367.367,0,0,0,.3-.1Z" fill="#ea823f" opacity="0.66"/>
              <path id="Path_98476" data-name="Path 98476" d="M78.9,22.3l.3-.6v-.2a.1.1,0,0,0-.1-.1,2.181,2.181,0,0,0-.4-.5.31.31,0,0,0-.1.2c0,.2-.1.3-.2.5a.6.6,0,0,0-.1.4c0,.2-.1.4,0,.6,0,.1.2.4.4.3.2-.2.1-.5.2-.6Z" fill="#ea823f" opacity="0.3"/>
            </g>
            <g id="Group_191105" data-name="Group 191105">
              <path id="Path_98477" data-name="Path 98477" d="M78,22.2c0,.1-.1.1-.1.2-.4.3-.8-.1-.8-.5a1.445,1.445,0,0,1,.2-.7c.2-.3.4-.5.6-.8l.1-.1h.1v.1c0,.1,0,.1.1.1l.3.6c0,.2.2.2.1.4A2.036,2.036,0,0,1,78,22.2Z" fill="#ea823f"/>
              <path id="Path_98478" data-name="Path 98478" d="M77.9,20.4a5.547,5.547,0,0,0-.6.8,1.854,1.854,0,0,0-.2.7.55.55,0,0,0,.3.5.764.764,0,0,1-.2-.5,1.445,1.445,0,0,1,.2-.7,3.508,3.508,0,0,0,.5-.8c.1,0,.1,0,.2-.1H78l-.1.1Z" fill="#f16c24"/>
              <path id="Path_98479" data-name="Path 98479" d="M78,22.2c.2-.2.3-.4.5-.6h0v-.1a1.69,1.69,0,0,1-.2-.5c-.1.2-.3.3-.4.5-.1.1-.1.2-.2.2h-.3l-.1-.1v.1c-.1.1,0,.3,0,.4s.1.3.2.3a.367.367,0,0,0,.3.1c0-.1.1-.2.2-.3Z" fill="#ea823f" opacity="0.51"/>
              <path id="Path_98480" data-name="Path 98480" d="M77.6,22h-.1c-.1,0-.1,0-.1-.1a.6.6,0,0,1-.1-.4.758.758,0,0,1,.2-.4,2.407,2.407,0,0,1,.6-.8h.1c0,.1.1.2.1.3a.6.6,0,0,0,.1.4.3.3,0,0,1,0,.4,1.555,1.555,0,0,1-.8.6Z" fill="#ea823f" opacity="0.51"/>
              <path id="Path_98481" data-name="Path 98481" d="M77.8,22.3a.349.349,0,0,0,.2-.1c.1-.1.1-.2.2-.3a.1.1,0,0,0-.1.1c-.1.1-.1.2-.2.2h-.2c-.1,0-.1-.1-.2-.1l.1.2Z" fill="#ea823f" opacity="0.66"/>
              <path id="Path_98482" data-name="Path 98482" d="M77.7,21.8c.1-.2.3-.3.5-.5l.1-.1v-.1c-.1-.2-.1-.4-.2-.6-.1,0-.1.1-.1.2a1.38,1.38,0,0,1-.3.4l-.3.3a1.421,1.421,0,0,0-.2.6c0,.1.1.4.3.4A1.072,1.072,0,0,1,77.7,21.8Z" fill="#ea823f" opacity="0.3"/>
            </g>
            <g id="Group_191106" data-name="Group 191106">
              <path id="Path_98483" data-name="Path 98483" d="M77,21.4c-.1,0-.1.1-.2.1-.4.2-.7-.3-.7-.6a1.012,1.012,0,0,1,.4-.7c.2-.2.5-.4.7-.6a.349.349,0,0,1,.2-.1h.1v.3a1.268,1.268,0,0,1,.1.6c0,.2.2.3,0,.4a3.394,3.394,0,0,1-.6.6Z" fill="#ea823f"/>
              <path id="Path_98484" data-name="Path 98484" d="M77.2,19.6a4.349,4.349,0,0,0-.7.6,1.612,1.612,0,0,0-.4.7c0,.2,0,.4.2.5a.44.44,0,0,1-.1-.5,1.012,1.012,0,0,1,.4-.7l.6-.6h.1C77.3,19.5,77.3,19.6,77.2,19.6Z" fill="#f16c24"/>
              <path id="Path_98485" data-name="Path 98485" d="M77,21.4a2.651,2.651,0,0,0,.6-.5h0v-.1a1.268,1.268,0,0,1-.1-.6c-.2.1-.3.3-.5.4-.1.1-.2.1-.3.2a.367.367,0,0,1-.3-.1.1.1,0,0,0-.1-.1h-.1c-.1.1-.1.2-.1.4a.6.6,0,0,0,.1.4.367.367,0,0,0,.3.1.44.44,0,0,0,.5-.1Z" fill="#ea823f" opacity="0.51"/>
              <path id="Path_98486" data-name="Path 98486" d="M76.6,21.1h-.1a.1.1,0,0,1-.1-.1.3.3,0,0,1,0-.4c.1-.1.1-.2.2-.3a3.736,3.736,0,0,1,.7-.6.1.1,0,0,1,.1.1v.7c0,.1.1.3,0,.4-.2,0-.5.2-.8.2Z" fill="#ea823f" opacity="0.51"/>
              <path id="Path_98487" data-name="Path 98487" d="M76.7,21.4a.367.367,0,0,0,.3-.1c.1-.1.1-.2.2-.3-.1,0-.1,0-.2.1s-.2.1-.3.2c-.1,0-.2,0-.2-.1a.349.349,0,0,0-.2-.1s0,.2.1.2a.367.367,0,0,0,.3.1Z" fill="#ea823f" opacity="0.66"/>
              <path id="Path_98488" data-name="Path 98488" d="M76.7,20.9a2.092,2.092,0,0,1,.6-.4l.1-.1v-.1a1.952,1.952,0,0,0-.1-.7c-.1,0-.1.1-.2.2s-.3.2-.4.3l-.3.3c-.1.2-.3.3-.3.6,0,.1,0,.5.2.4s.3-.4.4-.5Z" fill="#ea823f" opacity="0.3"/>
            </g>
            <g id="Group_191107" data-name="Group 191107">
              <path id="Path_98489" data-name="Path 98489" d="M76,20.5c-.1,0-.1.1-.2.1-.4.1-.6-.4-.5-.8a2.651,2.651,0,0,1,.5-.6,2.994,2.994,0,0,1,.8-.4h.2v.3c.1.2,0,.4,0,.7,0,.2.1.3,0,.4a1.909,1.909,0,0,0-.8.3Z" fill="#ea823f"/>
              <path id="Path_98490" data-name="Path 98490" d="M76.6,18.8a5.938,5.938,0,0,0-.8.4,1.024,1.024,0,0,0-.5.6.661.661,0,0,0,.1.6.446.446,0,0,1,0-.5,2.651,2.651,0,0,1,.5-.6c.1-.2.4-.3.7-.5h.2a.139.139,0,0,0-.2,0Z" fill="#f16c24"/>
              <path id="Path_98491" data-name="Path 98491" d="M76,20.5c.2-.1.5-.2.7-.3h0v-.1a1.268,1.268,0,0,1,.1-.6l-.6.3c-.1,0-.2.1-.3.1s-.2-.1-.3-.2a.1.1,0,0,0-.1-.1h-.1c-.1.1-.1.2-.2.4v.4c0,.1.2.1.2.2a1.083,1.083,0,0,0,.6-.1Z" fill="#ea823f" opacity="0.51"/>
              <path id="Path_98492" data-name="Path 98492" d="M75.6,20.1h-.1l-.1-.1a.6.6,0,0,1,.1-.4l.3-.3a2.622,2.622,0,0,1,.9-.5l.1.1c-.1.1,0,.2,0,.3,0,.2-.1.3-.1.4a.6.6,0,0,1-.1.4,1.729,1.729,0,0,1-1,.1Z" fill="#ea823f" opacity="0.51"/>
              <path id="Path_98493" data-name="Path 98493" d="M75.7,20.4H76c.1-.1.2-.2.3-.2h-.2c-.1,0-.2.1-.3.1s-.1-.1-.2-.1a.1.1,0,0,0-.1-.1v.3Z" fill="#ea823f" opacity="0.66"/>
              <path id="Path_98494" data-name="Path 98494" d="M75.8,19.9a4.875,4.875,0,0,1,.7-.3c.1,0,.1,0,.1-.1v-.1c0-.2.1-.4.1-.7-.1,0-.1.1-.2.1a.764.764,0,0,1-.5.2c-.1.1-.3.1-.4.2a1,1,0,0,0-.4.5c0,.1-.1.4.1.5S75.7,20,75.8,19.9Z" fill="#ea823f" opacity="0.3"/>
            </g>
            <g id="Group_191108" data-name="Group 191108">
              <path id="Path_98495" data-name="Path 98495" d="M75.3,19.3h-.2c-.5,0-.5-.6-.3-.9.1-.2.4-.3.6-.4l.9-.3h.2V18a1.421,1.421,0,0,1-.2.6c-.1.2,0,.3-.1.4a1.613,1.613,0,0,1-.9.3Z" fill="#ea823f"/>
              <path id="Path_98496" data-name="Path 98496" d="M76.3,17.8a3.178,3.178,0,0,0-.9.3c-.2.1-.5.2-.6.4a1.268,1.268,0,0,0-.1.6.749.749,0,0,1,.1-.5c.1-.2.4-.3.6-.4a3.552,3.552,0,0,1,.9-.4c.1.1.1,0,.2.1h0c-.1-.1-.1-.1-.2-.1Z" fill="#f16c24"/>
              <path id="Path_98497" data-name="Path 98497" d="M75.3,19.3a1.854,1.854,0,0,0,.7-.2h0V19a.764.764,0,0,1,.2-.5c-.2,0-.4.1-.6.1h-.3a.215.215,0,0,1-.2-.2v-.1H75c-.1.1-.2.2-.2.3s-.1.3-.1.4a.215.215,0,0,0,.2.2.6.6,0,0,0,.4.1Z" fill="#ea823f" opacity="0.51"/>
              <path id="Path_98498" data-name="Path 98498" d="M75.1,18.9a.1.1,0,0,1-.1-.1.349.349,0,0,1-.1-.2.758.758,0,0,1,.2-.4c.1-.1.2-.1.4-.2a2.92,2.92,0,0,1,.9-.2l.1.1a.367.367,0,0,0-.1.3c-.1.1-.1.2-.1.4,0,.1-.1.3-.2.3a1.7,1.7,0,0,1-1,0Z" fill="#ea823f" opacity="0.51"/>
              <path id="Path_98499" data-name="Path 98499" d="M75,19.2c.1,0,.2.1.3,0,.1,0,.2-.1.3-.2h-.2c-.1,0-.2.1-.3,0a.1.1,0,0,1-.1-.1c0-.1,0-.1-.1-.2l-.1.2c.1.2.2.2.2.3Z" fill="#ea823f" opacity="0.66"/>
              <path id="Path_98500" data-name="Path 98500" d="M75.3,18.7a1.7,1.7,0,0,1,.7-.1c.1,0,.1,0,.2-.1l.1-.1a1.421,1.421,0,0,0,.2-.6c-.1,0-.2,0-.2.1-.3,0-.4.1-.6.1-.1,0-.3.1-.4.1a1,1,0,0,0-.5.4c-.1.1-.2.4,0,.5.1,0,.3-.2.5-.3Z" fill="#ea823f" opacity="0.3"/>
            </g>
            <g id="Group_191109" data-name="Group 191109">
              <path id="Path_98501" data-name="Path 98501" d="M74.8,18.1h-.2c-.5-.1-.4-.6-.2-.9a.908.908,0,0,1,.7-.3,2.769,2.769,0,0,1,.9-.1h.2a.31.31,0,0,1-.1.2.864.864,0,0,1-.3.6c-.1.2,0,.3-.2.4a2.485,2.485,0,0,0-.8.1Z" fill="#ea823f"/>
              <path id="Path_98502" data-name="Path 98502" d="M76.1,16.7a2.769,2.769,0,0,0-.9.1,4.875,4.875,0,0,0-.7.3,1.072,1.072,0,0,0-.2.6.764.764,0,0,1,.2-.5.908.908,0,0,1,.7-.3c.2-.1.6-.1.9-.2.1.1.1.1.2.1h0A.31.31,0,0,0,76.1,16.7Z" fill="#f16c24"/>
              <path id="Path_98503" data-name="Path 98503" d="M74.8,18.1a1.7,1.7,0,0,0,.7-.1h0v-.1a2.186,2.186,0,0,1,.3-.5h-1c-.1,0-.2-.1-.2-.3V17h-.1c-.1,0-.2.2-.3.3s-.1.2-.1.4c0,.1.1.2.2.3a4.332,4.332,0,0,1,.5.1Z" fill="#ea823f" opacity="0.51"/>
              <path id="Path_98504" data-name="Path 98504" d="M74.7,17.6l-.1-.1v-.2c0-.1.1-.3.2-.3s.3-.1.4-.1a3.083,3.083,0,0,1,1-.1s.1.1,0,.1-.1.2-.1.2a.52.52,0,0,0-.2.4c0,.1-.1.3-.2.3A2.509,2.509,0,0,1,74.7,17.6Z" fill="#ea823f" opacity="0.51"/>
              <path id="Path_98505" data-name="Path 98505" d="M74.6,17.9c.1,0,.2.1.3.1s.2-.1.3-.1h-.5c-.1,0-.1-.1-.1-.2s0-.1-.1-.2l-.1.2c0,.1.1.1.2.2Z" fill="#ea823f" opacity="0.66"/>
              <path id="Path_98506" data-name="Path 98506" d="M74.9,17.5h.9l.1-.1.3-.6H76c-.2.1-.3,0-.5,0h-.4a.864.864,0,0,0-.6.3c-.1.1-.3.4-.1.5.1.1.4-.1.5-.1Z" fill="#ea823f" opacity="0.3"/>
            </g>
            <g id="Group_191110" data-name="Group 191110">
              <path id="Path_98507" data-name="Path 98507" d="M74.7,16.8h-.2c-.4-.1-.3-.7,0-.9a.952.952,0,0,1,.7-.2h.9c.1,0,.1,0,.2.1v.1h0l-.1.1-.3.6c-.1.2-.1.3-.3.3s-.7-.1-.9-.1Z" fill="#ea823f"/>
              <path id="Path_98508" data-name="Path 98508" d="M76.1,15.6a2.719,2.719,0,0,0-.9,0,1.445,1.445,0,0,0-.7.2c-.2.1-.2.3-.2.5,0-.2.1-.3.2-.5a.952.952,0,0,1,.7-.2,1.388,1.388,0,0,0,.9,0c.1.1.1.1.2.1h0v-.1c-.1.1-.1.1-.2,0Z" fill="#f16c24"/>
              <path id="Path_98509" data-name="Path 98509" d="M74.7,16.8c.2,0,.5.1.7.1h0v-.1c.1-.2.2-.3.3-.5a1.952,1.952,0,0,1-.7-.1.367.367,0,0,1-.3-.1c-.1-.1-.2-.2-.1-.3v-.1h-.1c-.1,0-.2.1-.3.2s-.2.2-.2.3.1.2.1.3a1.546,1.546,0,0,0,.6.3Z" fill="#ea823f" opacity="0.51"/>
              <path id="Path_98510" data-name="Path 98510" d="M74.6,16.3l-.1-.1V16q0-.15.3-.3a.6.6,0,0,1,.4-.1h1v.1c-.1,0-.1.1-.2.2l-.3.3c-.1.1-.1.3-.3.2C75.2,16.6,74.9,16.5,74.6,16.3Z" fill="#ea823f" opacity="0.51"/>
              <path id="Path_98511" data-name="Path 98511" d="M74.5,16.6a.367.367,0,0,0,.3.1c.1,0,.2-.1.3,0-.1,0-.1-.1-.2-.1a.367.367,0,0,1-.3-.1c-.1,0-.1-.1-.1-.2v-.2l-.1.2c-.1.1,0,.2.1.3Z" fill="#ea823f" opacity="0.66"/>
              <path id="Path_98512" data-name="Path 98512" d="M74.9,16.2c.2,0,.5.1.7.1h.2l.1-.1a2.181,2.181,0,0,1,.4-.5H75.2a1.421,1.421,0,0,0-.6.2c-.1.1-.3.3-.1.5-.1,0,.2-.2.4-.2Z" fill="#ea823f" opacity="0.3"/>
            </g>
            <g id="Group_191111" data-name="Group 191111">
              <path id="Path_98513" data-name="Path 98513" d="M74.9,15.4c-.1,0-.1-.1-.2-.1-.4-.3-.1-.8.2-.9a1.1,1.1,0,0,1,.8,0l.9.3a.1.1,0,0,1,.1.1v.1h-.1a.1.1,0,0,0-.1.1,1,1,0,0,1-.5.4c-.2.1-.1.3-.3.2-.2.1-.6-.1-.8-.2Z" fill="#ea823f"/>
              <path id="Path_98514" data-name="Path 98514" d="M76.6,14.8l-.9-.3a1.1,1.1,0,0,0-.8,0,.781.781,0,0,0-.4.4.781.781,0,0,1,.4-.4,1.1,1.1,0,0,1,.8,0l.9.3c0,.1.1.1.1.2h0v-.1a.1.1,0,0,0-.1-.1Z" fill="#f16c24"/>
              <path id="Path_98515" data-name="Path 98515" d="M74.9,15.4c.2.1.5.2.7.3h.1a.85.85,0,0,1,.5-.3l-.6-.3c-.1,0-.2-.1-.3-.2a.367.367,0,0,1-.1-.3s.1-.1,0-.1h-.1a.6.6,0,0,0-.4.1c-.1.1-.2.1-.3.3v.3a1.69,1.69,0,0,0,.5.2Z" fill="#ea823f" opacity="0.51"/>
              <path id="Path_98516" data-name="Path 98516" d="M75,14.9v-.3c.1-.1.2-.2.3-.2h.4l.9.3v.1a.215.215,0,0,0-.2.2c-.1.1-.2.1-.3.2s-.2.2-.3.2A.792.792,0,0,1,75,14.9Z" fill="#ea823f" opacity="0.51"/>
              <path id="Path_98517" data-name="Path 98517" d="M74.8,15.2c.1.1.1.2.2.2a.367.367,0,0,1,.3.1l-.1-.1c-.1-.1-.2-.1-.3-.2,0-.1-.1-.1,0-.2,0-.1.1-.1,0-.2,0,0-.2.1-.2.2a.31.31,0,0,0,.1.2Z" fill="#ea823f" opacity="0.66"/>
              <path id="Path_98518" data-name="Path 98518" d="M75.2,14.9l.6.3h.3a2.181,2.181,0,0,0,.5-.4.31.31,0,0,0-.2-.1c-.2,0-.3-.1-.5-.2a.6.6,0,0,0-.4-.1c-.2,0-.4-.1-.6,0-.1,0-.4.2-.3.4.2.2.5.1.6.1Z" fill="#ea823f" opacity="0.3"/>
            </g>
            <g id="Group_191112" data-name="Group 191112">
              <path id="Path_98519" data-name="Path 98519" d="M75.4,14.1c-.1,0-.1-.1-.2-.1-.3-.4.1-.8.5-.8a1.445,1.445,0,0,1,.7.2c.3.2.5.3.8.5l.1.1v.1h-.1c-.1,0-.1,0-.1.1l-.6.3c-.2.1-.2.2-.4.1s-.5-.4-.7-.5Z" fill="#ea823f"/>
              <path id="Path_98520" data-name="Path 98520" d="M77.2,13.9a2.177,2.177,0,0,0-.8-.5,1.854,1.854,0,0,0-.7-.2.55.55,0,0,0-.5.3.764.764,0,0,1,.5-.2,1.445,1.445,0,0,1,.7.2c.3.1.5.3.8.4,0,.1.1.1.1.2h0V14Z" fill="#f16c24"/>
              <path id="Path_98521" data-name="Path 98521" d="M75.4,14.1c.2.2.4.3.6.5h.1a1.689,1.689,0,0,1,.5-.2c-.2-.1-.3-.3-.5-.4-.1-.1-.2-.1-.2-.2v-.3l.1-.1h-.5c-.1,0-.3.1-.3.2a.188.188,0,0,0,0,.3l.2.2Z" fill="#ea823f" opacity="0.51"/>
              <path id="Path_98522" data-name="Path 98522" d="M75.6,13.6v-.1c0-.1,0-.1.1-.1a.6.6,0,0,1,.4-.1.758.758,0,0,1,.4.2,2.407,2.407,0,0,1,.8.6v.1c-.1,0-.2.1-.3.1a.6.6,0,0,1-.4.1.3.3,0,0,1-.4,0,1.555,1.555,0,0,1-.6-.8Z" fill="#ea823f" opacity="0.51"/>
              <path id="Path_98523" data-name="Path 98523" d="M75.4,13.8a.349.349,0,0,0,.1.2.367.367,0,0,0,.3.1.1.1,0,0,0-.1-.1c-.1-.1-.2-.1-.2-.2v-.2c0-.1.1-.1.1-.2l-.2.1a.187.187,0,0,0,0,.3Z" fill="#ea823f" opacity="0.66"/>
              <path id="Path_98524" data-name="Path 98524" d="M75.8,13.7c.2.1.3.3.5.5l.1.1h.1c.2-.1.4-.1.6-.2,0-.1-.1-.1-.2-.1a1.38,1.38,0,0,1-.4-.3c-.1-.1-.2-.2-.3-.2a1.421,1.421,0,0,0-.6-.2c-.1,0-.4.1-.4.3C75.4,13.6,75.7,13.6,75.8,13.7Z" fill="#ea823f" opacity="0.3"/>
            </g>
            <g id="Group_191113" data-name="Group 191113">
              <path id="Path_98525" data-name="Path 98525" d="M76.3,13c0-.1-.1-.1-.1-.2-.2-.4.3-.7.7-.6a.675.675,0,0,1,.6.4c.2.2.4.5.6.7a.349.349,0,0,1,.1.2h-.3a1.268,1.268,0,0,1-.6.1c-.2,0-.3.2-.4,0-.2-.1-.4-.5-.6-.6Z" fill="#ea823f"/>
              <path id="Path_98526" data-name="Path 98526" d="M78.1,13.3a4.349,4.349,0,0,0-.6-.7,2.092,2.092,0,0,0-.6-.4.735.735,0,0,0-.6.2.749.749,0,0,1,.5-.1.675.675,0,0,1,.6.4c.3.1.5.4.7.6v.2h0a.139.139,0,0,0,0-.2Z" fill="#f16c24"/>
              <path id="Path_98527" data-name="Path 98527" d="M76.3,13c.1.2.3.4.4.6h.1c.2,0,.4-.1.6,0a2.181,2.181,0,0,0-.4-.5c-.1-.1-.1-.2-.2-.3a.367.367,0,0,1,.1-.3.1.1,0,0,0,.1-.1v-.1c-.1-.1-.2-.1-.4-.1a.6.6,0,0,0-.4.1.367.367,0,0,0-.1.3c.1.1.1.2.2.4Z" fill="#ea823f" opacity="0.51"/>
              <path id="Path_98528" data-name="Path 98528" d="M76.7,12.6v-.1l.1-.1c.1-.1.3,0,.4,0s.2.2.3.3a5.547,5.547,0,0,1,.6.8.1.1,0,0,1-.1.1h-.7c-.1,0-.3.1-.4-.1a2.92,2.92,0,0,1-.2-.9Z" fill="#ea823f" opacity="0.51"/>
              <path id="Path_98529" data-name="Path 98529" d="M76.4,12.7a.367.367,0,0,0,.1.3c.1.1.2.1.3.2,0-.1,0-.1-.1-.2,0-.1-.1-.2-.1-.3s0-.2.1-.2l.1-.1h-.2C76.4,12.5,76.4,12.6,76.4,12.7Z" fill="#ea823f" opacity="0.66"/>
              <path id="Path_98530" data-name="Path 98530" d="M76.9,12.7c.2.2.2.4.4.6l.1.1h.1a1.952,1.952,0,0,0,.7-.1c0-.1-.1-.1-.2-.2s-.2-.3-.3-.4l-.3-.3a.85.85,0,0,0-.5-.3c-.1,0-.5,0-.4.2,0,.2.3.3.4.4Z" fill="#ea823f" opacity="0.3"/>
            </g>
            <g id="Group_191114" data-name="Group 191114">
              <path id="Path_98531" data-name="Path 98531" d="M77.5,12.3c0-.1-.1-.1-.1-.2-.1-.4.4-.6.7-.5a2.651,2.651,0,0,1,.6.5c.2.3.3.5.5.8,0,.1.1.1,0,.2h-.3c-.2.1-.4,0-.7,0-.2,0-.3.1-.4,0a1.909,1.909,0,0,0-.3-.8Z" fill="#ea823f"/>
              <path id="Path_98532" data-name="Path 98532" d="M79.2,12.8a2.177,2.177,0,0,0-.5-.8c-.2-.2-.3-.4-.6-.5a.661.661,0,0,0-.6.1.446.446,0,0,1,.5,0,2.651,2.651,0,0,1,.6.5c.3.2.4.5.6.7V13h0c.1,0,0-.1,0-.2Z" fill="#f16c24"/>
              <path id="Path_98533" data-name="Path 98533" d="M77.5,12.3a4.876,4.876,0,0,1,.3.7h.7l-.3-.6a.367.367,0,0,1-.1-.3c0-.1.1-.2.2-.3a.1.1,0,0,0,.1-.1v-.1c-.1-.1-.2-.1-.4-.1h-.4c-.1,0-.1.2-.2.2A1.083,1.083,0,0,0,77.5,12.3Z" fill="#ea823f" opacity="0.51"/>
              <path id="Path_98534" data-name="Path 98534" d="M77.9,11.9v-.1l.1-.1a.6.6,0,0,1,.4.1l.3.3a3.508,3.508,0,0,1,.5.8l-.1.1h-.3c-.2,0-.3-.1-.4,0a.6.6,0,0,1-.4-.1,1.729,1.729,0,0,1-.1-1Z" fill="#ea823f" opacity="0.51"/>
              <path id="Path_98535" data-name="Path 98535" d="M77.6,12v.3c.1.1.2.2.2.3v-.2c0-.1-.1-.2-.1-.3s.1-.1.1-.2a.1.1,0,0,0,.1-.1h-.3s0,.1,0,.2Z" fill="#ea823f" opacity="0.66"/>
              <path id="Path_98536" data-name="Path 98536" d="M78.1,12.1l.3.6.1.1h.1a1.634,1.634,0,0,0,.7,0c0-.1-.1-.1-.1-.2a.758.758,0,0,1-.2-.4c-.1-.1-.1-.3-.2-.4a1,1,0,0,0-.5-.4c-.1,0-.5-.1-.5.1-.1.3.2.5.3.6Z" fill="#ea823f" opacity="0.3"/>
            </g>
            <g id="Group_191116" data-name="Group 191116">
              <path id="Path_98537" data-name="Path 98537" d="M85.3,15.5a5.013,5.013,0,0,0-3.6-3,5.134,5.134,0,0,0-4.5.8,4.53,4.53,0,0,0-1.4,4.3.367.367,0,0,0,.1.3,5.725,5.725,0,0,0,2.7,3.4A4.617,4.617,0,0,0,85,19.2a5.244,5.244,0,0,0,.3-3.7Zm-1.1,3.4a3.926,3.926,0,0,1-5.4,1.8,4.293,4.293,0,0,1-2.2-2.9v-.2A3.785,3.785,0,0,1,77.8,14a4.592,4.592,0,0,1,3.8-.7,4.033,4.033,0,0,1,3,2.5,4.251,4.251,0,0,1-.4,3.1Z" fill="#f16c24"/>
              <path id="Path_98538" data-name="Path 98538" d="M85.1,15.6a5.258,5.258,0,0,0-7.8-2.1A4.128,4.128,0,0,0,76,17.6a.367.367,0,0,0,.1.3,5.055,5.055,0,0,0,2.6,3.3,4.544,4.544,0,0,0,6.2-2,5.607,5.607,0,0,0,.2-3.6Zm-.7,3.3a4.218,4.218,0,0,1-5.7,1.9,5.512,5.512,0,0,1-2.4-3c0-.1,0-.2-.1-.2a4.134,4.134,0,0,1,1.2-3.7,4.375,4.375,0,0,1,4-.7,4.469,4.469,0,0,1,3.2,2.6,3.41,3.41,0,0,1-.2,3.1Z" fill="url(#radial-gradient)"/>
              <g id="Group_191115" data-name="Group 191115">
                <path id="Path_98539" data-name="Path 98539" d="M84.7,16.2a4.485,4.485,0,0,0-2.8-2.9,4.7,4.7,0,0,0-4,.4,3.761,3.761,0,0,0-1.6,3.4v.2a5.208,5.208,0,0,0,2,3.2,3.978,3.978,0,0,0,5.6-1.3,3.032,3.032,0,0,0,.8-3Zm-1.3,2.6a3.246,3.246,0,0,1-4.6.9,3.8,3.8,0,0,1-1.6-2.5V17a2.986,2.986,0,0,1,1.3-2.7,3.981,3.981,0,0,1,5.5,2A3.614,3.614,0,0,1,83.4,18.8Z" fill="#fa7f24"/>
                <path id="Path_98540" data-name="Path 98540" d="M84.7,16.2a4.009,4.009,0,0,0-2.8-2.7,4.855,4.855,0,0,0-3.9.3,3.614,3.614,0,0,0-1.5,3.3v.2a4.414,4.414,0,0,0,2,3,4.013,4.013,0,0,0,5.6-1.1,4.435,4.435,0,0,0,.6-3Zm-.9,2.9a3.735,3.735,0,0,1-5.2,1.1,3.973,3.973,0,0,1-1.8-2.8v-.2a3.32,3.32,0,0,1,1.4-3.1,4.173,4.173,0,0,1,3.6-.3,3.974,3.974,0,0,1,2.6,2.6A3.06,3.06,0,0,1,83.8,19.1Z" fill="#fa7f24" opacity="0.54"/>
                <path id="Path_98541" data-name="Path 98541" d="M83.7,19a3.5,3.5,0,0,0,.6-2.6A3.756,3.756,0,0,0,81.8,14a4.039,4.039,0,0,0-3.4.2A3.088,3.088,0,0,0,77,17.1v.2A4.364,4.364,0,0,0,78.7,20a3.652,3.652,0,0,0,5-1Zm-4.9.7a3.8,3.8,0,0,1-1.6-2.5V17a2.986,2.986,0,0,1,1.3-2.7,3.981,3.981,0,0,1,5.5,2,2.971,2.971,0,0,1-.5,2.4A3.318,3.318,0,0,1,78.8,19.7Z" fill="url(#radial-gradient-2)"/>
              </g>
              <path id="Path_98542" data-name="Path 98542" d="M85.3,15.5a5.013,5.013,0,0,0-3.6-3,5.134,5.134,0,0,0-4.5.8,4.53,4.53,0,0,0-1.4,4.3.367.367,0,0,0,.1.3,5.725,5.725,0,0,0,2.7,3.4A4.617,4.617,0,0,0,85,19.2a5.244,5.244,0,0,0,.3-3.7Zm-.5,3.7a4.612,4.612,0,0,1-6.3,2.1,5.235,5.235,0,0,1-2.6-3.4.367.367,0,0,0-.1-.3,4.428,4.428,0,0,1,1.4-4.2,4.982,4.982,0,0,1,4.4-.8,5.078,5.078,0,0,1,3.6,2.9A4.828,4.828,0,0,1,84.8,19.2Z" fill="#f16c24"/>
            </g>
            <path id="Path_98543" data-name="Path 98543" d="M81.9,13.2a4,4,0,0,1,2.4,3.4c.1,1,.3,2.3-.3,3-.7.8-1.6,1.3-2.3,2a4.2,4.2,0,0,0,1.9-.9,5.33,5.33,0,0,0,1.6-2.3,4.162,4.162,0,0,0,0-2.7,4.312,4.312,0,0,0-2-2.4,6.5,6.5,0,0,0-3.1-.8c-.2,0-1.2.1-.6.5.1.1.2.1.4.1a6.154,6.154,0,0,1,1.9.2c-.1-.1,0-.1.1-.1Z" fill="#ea823f"/>
            <path id="Path_98544" data-name="Path 98544" d="M78.4,13.9a5.582,5.582,0,0,0-.8.5,2.223,2.223,0,0,0-.8,1.3v.6c0,.2-.1.3-.2.5a3.6,3.6,0,0,0,.1,2.3,4.887,4.887,0,0,0,1.4,1.8c.1.1-.1.1-.1.1-.3,0-.6-.4-.8-.6a5.5,5.5,0,0,1-.7-.9,9.143,9.143,0,0,1-.7-1.4,4.869,4.869,0,0,1-.1-1.2,4.869,4.869,0,0,1,.1-1.2,3.679,3.679,0,0,1,1.4-2.2,4.594,4.594,0,0,1,1.6-.7h.8c.1.1-.4.5-.5.6a1.275,1.275,0,0,1-.7.5Z" fill="#ea823f" opacity="0.66"/>
            <path id="Path_98545" data-name="Path 98545" d="M84.6,16.1h0a3.378,3.378,0,0,1-.1,2,3.1,3.1,0,0,1-.6,1.3,2.651,2.651,0,0,1-.6.5c-.3.2-.6.5-.9.7a2.016,2.016,0,0,1-1.1.3,10.144,10.144,0,0,0,1.3-.9A4.949,4.949,0,0,0,84,17.7a2.953,2.953,0,0,0,.2-1.3,2.281,2.281,0,0,0-.6-1.2,5.547,5.547,0,0,0-.8-.6,3.552,3.552,0,0,0-.9-.4,2.092,2.092,0,0,1-.6-.4c-.1-.1-.2-.1-.2-.2-.2-.1-.5-.1-.8-.2.2-.1.4-.1.6-.2a2.875,2.875,0,0,1,1.8.7,4,4,0,0,1,1.9,2.2Z" fill="#ea823f" opacity="0.66"/>
          </g>
          <g id="Group_191119" data-name="Group 191119">
            <circle id="Ellipse_3608" data-name="Ellipse 3608" cx="0.7" cy="0.7" r="0.7" transform="translate(82.5 20)" opacity="0.75" fill="url(#radial-gradient-3)"/>
            <g id="Group_191118" data-name="Group 191118">
              <path id="Path_98546" data-name="Path 98546" d="M83.5,20.6l.1.1c.1.1,0,.3.1.4v.1h-.1c-.2-.1-.3-.4-.5-.5-.1,0-.1-.1-.2-.1v-.2c0-.1.2,0,.2,0A.758.758,0,0,1,83.5,20.6Z" fill="#deb45c"/>
              <path id="Path_98547" data-name="Path 98547" d="M83.6,21.2a.864.864,0,0,1-.6-.3c-.2-.1-.2-.4-.1-.6a.781.781,0,0,0,.4.4A2.186,2.186,0,0,0,83.6,21.2Z" fill="#aab231"/>
              <path id="Path_98548" data-name="Path 98548" d="M83.5,21.1a.52.52,0,0,1-.4-.2c-.1-.1-.2-.3-.1-.4,0,.1.2.2.3.3C83.3,20.8,83.4,21.1,83.5,21.1Z" fill="#f3cf4b"/>
            </g>
          </g>
          <g id="Group_191121" data-name="Group 191121">
            <path id="Path_98549" data-name="Path 98549" d="M82.9,20.3c.1-.2.3-.4.5-.3s.2.3.1.6c-.1.2-.3.4-.5.3S82.8,20.5,82.9,20.3Z" opacity="0.75" fill="url(#radial-gradient-4)"/>
            <g id="Group_191120" data-name="Group 191120">
              <path id="Path_98550" data-name="Path 98550" d="M83.3,20.6h0l.3-.3h0c-.1,0-.3.1-.4.1h-.1l-.1.1a.1.1,0,0,1,.1.1Z" fill="#deb45c"/>
              <path id="Path_98551" data-name="Path 98551" d="M83.6,20.3c-.1-.1-.2-.1-.4-.1a.451.451,0,0,0-.3.3.367.367,0,0,1,.3-.1C83.3,20.4,83.5,20.3,83.6,20.3Z" fill="#aab231"/>
              <path id="Path_98552" data-name="Path 98552" d="M83.5,20.3h-.3a.215.215,0,0,0-.2.2c.1-.1.2,0,.2-.1.1,0,.2-.1.3-.1Z" fill="#f3cf4b"/>
            </g>
          </g>
          <g id="Group_191126" data-name="Group 191126">
            <g id="Group_191123" data-name="Group 191123">
              <circle id="Ellipse_3609" data-name="Ellipse 3609" cx="0.7" cy="0.7" r="0.7" transform="translate(74.7 16.2)" opacity="0.75" fill="url(#radial-gradient-5)"/>
              <g id="Group_191122" data-name="Group 191122">
                <path id="Path_98553" data-name="Path 98553" d="M75.6,16.7l.1.1c.1.1,0,.3.1.4v.1h-.1c-.2-.1-.3-.4-.5-.5-.1,0-.1-.1-.2-.1v-.2c0-.1.2,0,.2,0A.52.52,0,0,1,75.6,16.7Z" fill="#deb45c"/>
                <path id="Path_98554" data-name="Path 98554" d="M75.8,17.3a.864.864,0,0,1-.6-.3c-.2-.1-.2-.4-.1-.6a.781.781,0,0,0,.4.4C75.5,16.9,75.7,17.3,75.8,17.3Z" fill="#aab231"/>
                <path id="Path_98555" data-name="Path 98555" d="M75.6,17.2a.52.52,0,0,1-.4-.2c-.1-.1-.2-.3-.1-.4,0,.1.2.2.3.3Z" fill="#f3cf4b"/>
              </g>
            </g>
            <g id="Group_191125" data-name="Group 191125">
              <path id="Path_98556" data-name="Path 98556" d="M75,16.4c.1-.2.3-.4.5-.3s.2.3.1.6c-.1.2-.3.4-.5.3A.614.614,0,0,1,75,16.4Z" opacity="0.75" fill="url(#radial-gradient-6)"/>
              <g id="Group_191124" data-name="Group 191124">
                <path id="Path_98557" data-name="Path 98557" d="M75.4,16.7h0l.3-.3h0c-.1,0-.3.1-.4.1h-.1l-.1.1a.1.1,0,0,1,.1.1c0,.1.1.1.2,0Z" fill="#deb45c"/>
                <path id="Path_98558" data-name="Path 98558" d="M75.7,16.4c-.1-.1-.2-.1-.4-.1a.451.451,0,0,0-.3.3.367.367,0,0,1,.3-.1C75.4,16.6,75.7,16.4,75.7,16.4Z" fill="#aab231"/>
                <path id="Path_98559" data-name="Path 98559" d="M75.6,16.4h-.3a.215.215,0,0,0-.2.2c.1-.1.2,0,.2-.1a1.007,1.007,0,0,0,.3-.1Z" fill="#f3cf4b"/>
              </g>
            </g>
          </g>
          <g id="Group_191128" data-name="Group 191128">
            <circle id="Ellipse_3610" data-name="Ellipse 3610" cx="0.7" cy="0.7" r="0.7" transform="translate(83.4 12.8)" opacity="0.75" fill="url(#radial-gradient-7)"/>
            <g id="Group_191127" data-name="Group 191127">
              <path id="Path_98560" data-name="Path 98560" d="M84.3,13.3l.1.1c.1.1,0,.3.1.4v.1h-.1c-.2-.1-.3-.4-.5-.5-.1,0-.1-.1-.2-.1v-.2c0-.1.2,0,.2,0A.52.52,0,0,1,84.3,13.3Z" fill="#deb45c"/>
              <path id="Path_98561" data-name="Path 98561" d="M84.5,13.9a.864.864,0,0,1-.6-.3c-.2-.1-.2-.4-.1-.6a.781.781,0,0,0,.4.4C84.2,13.5,84.4,13.9,84.5,13.9Z" fill="#aab231"/>
              <path id="Path_98562" data-name="Path 98562" d="M84.3,13.8a.52.52,0,0,1-.4-.2c-.1-.1-.2-.3-.1-.4,0,.1.2.2.3.3C84.1,13.5,84.2,13.8,84.3,13.8Z" fill="#f3cf4b"/>
            </g>
          </g>
          <g id="Group_191130" data-name="Group 191130">
            <path id="Path_98563" data-name="Path 98563" d="M83.7,13c.1-.2.3-.4.5-.3s.2.3.1.6c-.1.2-.3.4-.5.3A.614.614,0,0,1,83.7,13Z" opacity="0.75" fill="url(#radial-gradient-8)"/>
            <g id="Group_191129" data-name="Group 191129">
              <path id="Path_98564" data-name="Path 98564" d="M84.1,13.3h0l.3-.3h0c-.1,0-.3.1-.4.1h-.1l-.1.1a.1.1,0,0,1,.1.1c0,.1.1.1.2,0Z" fill="#deb45c"/>
              <path id="Path_98565" data-name="Path 98565" d="M84.4,13c-.1,0-.2-.1-.4,0a.451.451,0,0,0-.3.3.367.367,0,0,1,.3-.1A1.466,1.466,0,0,0,84.4,13Z" fill="#aab231"/>
              <path id="Path_98566" data-name="Path 98566" d="M84.3,13H84a.215.215,0,0,0-.2.2c.1-.1.2,0,.2-.1a1.007,1.007,0,0,0,.3-.1Z" fill="#f3cf4b"/>
            </g>
          </g>
        </g>
      </g>
    </g>
    <g id="Group_191133" data-name="Group 191133">
      <path id="Path_98567" data-name="Path 98567" d="M30.7,6.3a.9.9,0,0,1,.9.9V20.6c0,2-.4,7.3-7.6,7.3-6.4,0-7.4-4.3-7.5-6.6a.709.709,0,0,1,.7-.8l3.3-.8a1.033,1.033,0,0,1,1.2.9c.2,1.3.7,2.1,2.3,2.1,2.2,0,2.4-1.4,2.4-3.7V7.3a.9.9,0,0,1,.9-.9h3.4Z" fill="#fff"/>
      <path id="Path_98568" data-name="Path 98568" d="M49.1,26.4c0,.7-.3,1-.9,1H44.8a.8.8,0,0,1-.9-.9V23.9A.8.8,0,0,0,43,23H40.4a.8.8,0,0,0-.9.9v2.6a.8.8,0,0,1-.9.9H35.2c-.6,0-.9-.4-.9-1V13.6c0-3.8.6-7.8,7.4-7.8s7.4,4,7.4,7.8V26.4ZM43.9,13.6c0-1.4-.2-2.2-2.2-2.2s-2.2.7-2.2,2.2v3.3a.8.8,0,0,0,.9.9H43a.8.8,0,0,0,.9-.9Z" fill="#fff"/>
      <path id="Path_98569" data-name="Path 98569" d="M51.7,13.1c0-2,.4-7.3,7.6-7.3,6.3,0,7.4,4.2,7.5,6.5a.9.9,0,0,1-.8,1l-3.4.7c-.6.1-.9-.2-1-.8-.1-1.4-.6-2.2-2.4-2.2-2.2,0-2.4,1.4-2.4,3.7V19c0,2.3.2,3.7,2.4,3.7s2.4-1.4,2.4-2.9H59.9a.8.8,0,0,1-.9-.9V16.5a.8.8,0,0,1,.9-.9h6a.8.8,0,0,1,.9.9v4.1c0,2-.4,7.3-7.6,7.3s-7.6-5.3-7.6-7.3V13.1Z" fill="#fff"/>
    </g>
    <g id="Group_191134" data-name="Group 191134">
      <path id="Path_98570" data-name="Path 98570" d="M102.2,6.3c5.7,0,7.5,2.3,7.5,7.2v6.6c0,4.9-1.9,7.3-7.5,7.3H95.5a.8.8,0,0,1-.9-.9V7.3a.8.8,0,0,1,.9-.9h6.7Zm0,15.9c1.4,0,2.2-.2,2.2-2V13.6c0-1.9-.7-2-2.2-2h-1.6a.8.8,0,0,0-.9.9v8.9a.8.8,0,0,0,.9.9h1.6Z" fill="#fff"/>
      <path id="Path_98571" data-name="Path 98571" d="M122.9,13.8c-.6.1-.9-.2-1-.8a2.443,2.443,0,0,0-2.6-2c-1.2,0-1.9.7-1.8,1.4.4,2.4,9.9,2.3,9.9,9.2,0,.9-1,6.2-8.2,6.2-6.3,0-7.7-4.2-7.8-6.5a.9.9,0,0,1,.8-1l3.4-.8c.6-.1.9.2,1,.8a2.493,2.493,0,0,0,2.7,2.3c1.5,0,2.6-.9,2.4-1.7-.6-2.6-9.6-2-9.6-8.9,0-.9.5-6.2,7.3-6.2,6.2,0,7.7,4,7.8,6.2a.9.9,0,0,1-.8,1Z" fill="#fff"/>
    </g>
  </g>
</svg>
