<?xml version="1.0" encoding="utf-8"?>
<!-- Generator: Adobe Illustrator 28.6.0, SVG Export Plug-In . SVG Version: 9.03 Build 54939)  -->
<svg version="1.1" id="Layer_1" xmlns="http://www.w3.org/2000/svg" xmlns:xlink="http://www.w3.org/1999/xlink" x="0px" y="0px"
	 viewBox="0 0 500 500" enable-background="new 0 0 500 500" xml:space="preserve">
<pattern  width="916.28" height="773.13" patternUnits="userSpaceOnUse" id="Unnamed_Pattern" viewBox="0 -773.13 916.28 773.13" overflow="visible">
	<g>
		<rect x="0" y="-773.13" fill="none" width="916.28" height="773.13"/>
		<g>
			<defs>
				<rect id="SVGID_1_" x="0" y="-773.13" width="916.28" height="485.14"/>
			</defs>
			<clipPath id="SVGID_00000138534246549429593200000003082833254178365876_">
				<use xlink:href="#SVGID_1_"  overflow="visible"/>
			</clipPath>
			<g clip-path="url(#SVGID_00000138534246549429593200000003082833254178365876_)">
				
					<linearGradient id="SVGID_00000121254100222611205080000000736043005509762722_" gradientUnits="userSpaceOnUse" x1="8192.4736" y1="-7962.9849" x2="8192.4736" y2="-8640.7646" gradientTransform="matrix(1 0 0 -1 -7704.585 -8640.7061)">
					<stop  offset="0" style="stop-color:#FF7F00"/>
					<stop  offset="1" style="stop-color:#FF470F"/>
				</linearGradient>
				<path fill="url(#SVGID_00000121254100222611205080000000736043005509762722_)" d="M487.89,0c-19.38,0-36.96-19.97-55.53-22.9
					c-19.05-3.01-41.93,10.5-59.89,4.65c-18.26-5.95-28.8-30.39-45.67-39.02c-17.05-8.72-43.01-2.98-58.37-14.17
					c-15.44-11.24-17.93-37.73-31.41-51.21c-13.47-13.47-39.96-15.97-51.21-31.41c-11.19-15.37-5.45-41.33-14.17-58.37
					c-8.63-16.88-33.07-27.41-39.02-45.67c-5.85-17.96,7.66-40.84,4.65-59.89c-2.93-18.57-22.9-36.15-22.9-55.53
					c0-19.38,19.97-36.96,22.9-55.53c3.01-19.05-10.5-41.93-4.65-59.89c5.95-18.26,30.39-28.8,39.02-45.67
					c8.72-17.05,2.98-43.01,14.17-58.37c11.24-15.44,37.73-17.93,51.21-31.41c13.47-13.47,15.97-39.96,31.41-51.21
					c15.37-11.19,41.33-5.45,58.37-14.17c16.88-8.63,27.41-33.07,45.67-39.02c17.96-5.85,40.84,7.66,59.89,4.65
					c18.57-2.93,36.15-22.9,55.53-22.9c19.38,0,36.96,19.97,55.53,22.9c19.05,3.01,41.93-10.5,59.89-4.65
					c18.26,5.95,28.8,30.39,45.67,39.02c17.05,8.72,43.01,2.98,58.37,14.17c15.44,11.24,17.93,37.73,31.41,51.21
					s39.96,15.97,51.21,31.41c11.19,15.37,5.45,41.33,14.17,58.37c8.63,16.88,33.07,27.41,39.02,45.67
					c5.85,17.96-7.66,40.84-4.65,59.89c2.93,18.57,22.9,36.15,22.9,55.53c0,19.38-19.97,36.96-22.9,55.53
					c-3.01,19.05,10.5,41.93,4.65,59.89c-5.95,18.26-30.39,28.8-39.02,45.67c-8.72,17.05-2.98,43.01-14.17,58.37
					c-11.24,15.44-37.73,17.93-51.21,31.41c-13.47,13.47-15.97,39.96-31.41,51.21c-15.37,11.19-41.33,5.45-58.37,14.17
					c-16.88,8.63-27.41,33.07-45.67,39.02c-17.96,5.85-40.84-7.66-59.89-4.65C524.85-19.97,507.27,0,487.89,0z"/>
			</g>
			<path clip-path="url(#SVGID_00000138534246549429593200000003082833254178365876_)" d="M487.89-29.86
				c-189.5,0-343.67-154.17-343.67-343.67S298.38-717.2,487.89-717.2s343.67,154.17,343.67,343.67S677.39-29.86,487.89-29.86z"/>
			<g clip-path="url(#SVGID_00000138534246549429593200000003082833254178365876_)">
				<path fill-rule="evenodd" clip-rule="evenodd" fill="#FFBA00" d="M595.66-411.01c0.2-0.36,0.01,0.17,0.22-0.51
					c0.43-1.35,0.12-2.83,0.03-4.24c-0.12-1.75-0.03-3.01-0.19-4.8c-0.31-3.62-1.01-7.49-1.75-11.05
					c-1.08-5.2-2.59-10.38-3.56-15.13c-0.43-2.13-0.5-2.88-1.86-4.4c-4.62,0.06-2.97,5.14-1.77,9.34
					c3.75,13.14,1.19,17.85,4.66,28.84C591.99-411.26,592.3-410.51,595.66-411.01L595.66-411.01z"/>
				<path fill-rule="evenodd" clip-rule="evenodd" d="M736.58-430.67c4.84-0.29,9.82-0.51,14.55-0.7c2.39-0.1,4.32-0.32,6.56-0.38
					c1.91-0.05,6,0.64,6.2-1.47c0.23-2.36-3.48-1.72-5.41-1.79l-21.72-0.96L736.58-430.67L736.58-430.67z"/>
				<path fill="#FFFFFF" d="M342.43-430.87c-5.98,0-12.48-0.02-18.99,0.04c-0.78,0.01-1.76,0.42-2.27,0.98
					c-0.95,1.04-1.96,1.32-3.29,1.14c-3.05-0.42-3.71,0.14-3.91,3.16c-0.16,2.44-0.65,2.89-3.03,2.97
					c-4.09,0.13-7.93,1.25-11.16,3.73c-5.12,3.94-8.73,4.59-15.81-1.17c-3.28-2.67-5.39-6.21-6.64-10.27
					c-0.15-0.5-0.65-1.21-1.07-1.27c-3.42-0.51-6.85-0.75-10.22,0.39c-4.44,1.51-7.24,5.15-7.01,9.83
					c0.26,5.31,0.13,10.56-1.58,15.6c-1.35,3.99-3.15,7.83-4.83,11.7c-1.49,3.42-3.11,6.79-4.62,10.21
					c-0.19,0.44-0.15,1.05-0.04,1.55c3.12,14.56,6.27,29.11,9.39,43.66c0.56,2.59,1.07,5.2,1.55,7.8c0.42,2.25-0.52,3.56-2.82,3.7
					c-2.4,0.15-4.82,0.12-7.23,0.08c-1.7-0.03-2.27-1.38-2.75-2.69c-0.54-1.49-0.99-3.01-1.49-4.55c-4.84,0-9.47-0.02-14.09,0.04
					c-0.36,0-0.81,0.5-1.05,0.88c-0.2,0.3-0.14,0.76-0.22,1.14c-0.99,4.6-1.75,5.21-6.4,5.21c-1.33,0-2.66,0.02-3.99-0.01
					c-2.36-0.05-3.54-1.61-3.04-3.88c2.19-9.83,4.39-19.66,6.53-29.5c1.69-7.77,3.32-15.56,4.92-23.35c0.17-0.82,0.19-1.81-0.1-2.57
					c-1.86-4.92-3.61-9.89-5.82-14.65c-1.61-3.48-2.59-6.98-2.57-10.77c0.02-4.27-0.43-8.55,0.56-12.8
					c0.48-2.08-1.09-3.75-3.88-4.51c-0.01-2.25-0.39-2.65-2.71-2.72c-7.03-0.21-14.07-0.41-21.26-0.61
					c-0.12-1.05-0.23-2.1-0.37-3.33c1.79-0.13,3.52-0.28,5.26-0.37c3.93-0.21,7.86-0.49,11.8-0.56c5.3-0.09,6.67-3.98,6.42-7.55
					c-0.15-2.13-0.75-4.25-1.33-6.33c-2.09-7.39-2.1-14.74,0.04-22.12c0.32-1.1,0.86-1.7,1.95-2.11c9.94-3.66,20.21-5.09,30.74-4.48
					c5.69,0.33,11.35,1.1,17.02,1.66c0.43,0.04,0.87,0.01,1.46,0.01c-0.61-4.52,0.09-8.73,2.64-12.55
					c-0.16-0.12-0.32-0.23-0.48-0.35c-0.47,0.49-1.03,0.92-1.4,1.48c-0.53,0.81-0.77,1.95-2.04,1.81c-1.29-0.15-1.79-1.21-1.97-2.3
					c-0.42-2.41-0.85-4.84-0.99-7.28c-0.14-2.39,1.29-3.85,3.78-4.23c-0.27-0.33-0.51-0.6-0.71-0.89c-0.53-0.82-1.18-1.6-1.51-2.5
					c-0.46-1.25-0.48-2.75,0.71-3.5c0.88-0.55,2.31-0.81,3.27-0.49c2.12,0.69,4.13,1.74,6.11,2.78c1.32,0.69,2.6,0.83,3.76,0
					c3-2.15,5.49-1.43,8.24,0.72c2.65,2.07,4.93,4.29,6.6,7.22c1.72,3.03,3.67,5.94,5.56,8.88c1.23,1.91,1.93,3.93,1.98,6.23
					c0.04,1.66,0.48,3.3,0.61,4.97c0.15,2.03-1.53,4.2-4.15,3.25c-0.92-0.33-1.83-0.7-2.72-1.12c-1.25-0.58-2.44-1.29-3.71-1.82
					c-1.69-0.72-2.45-0.41-2.77,1.39c-0.63,3.46-2.39,6.16-4.89,8.54c-1.83,1.73-1.71,3.54,0.1,5.58c1.21,1.35,2.57,2.6,3.58,4.09
					c2.64,3.93,3.38,8.42,3.59,13.06c0.07,1.51,0.28,3.04,0.64,4.51c0.95,3.88,3.63,6.01,7.48,6.21c3.26,0.17,6.57-0.15,9.82-0.52
					c2.12-0.24,3.77-1.57,5-3.36c0.5-0.73,1.05-1.44,1.68-2.05c1.04-1,2.66-1.03,3.47-0.18c0.82,0.87,0.54,2.02-0.74,3.17
					c-0.88,0.79-1.74,1.6-2.61,2.41c0.08,0.14,0.17,0.28,0.25,0.42c4.12,0.1,8.24,0.23,12.36,0.29c5.72,0.09,11.43,0.14,17.15,0.19
					c0,0.05,0,0.09,0,0.14C342.22-432.52,342.3-431.69,342.43-430.87z M231.56-455.48c1.55-1.84,1.83-3.63,0.67-5.76
					c-0.18,0.39-0.24,0.72-0.44,0.91c-1.95,1.91-4.45,1.69-6.09-0.5c-0.23-0.31-0.38-0.73-0.67-0.96c-0.59-0.46-1.25-0.83-1.88-1.23
					c-0.37,0.69-0.98,1.35-1.08,2.08c-0.44,3.06-0.76,6.13-1.08,9.2c-0.3,2.93-0.59,5.86-0.78,8.8c-0.15,2.36,0.54,3.39,2.35,3.84
					c0.12-0.41,0.28-0.82,0.37-1.23c0.92-4.19,2.68-8,5.33-11.37C229.28-453.03,230.48-454.21,231.56-455.48z M236.91-369.19
					c-1.52,7.41-2.99,14.61-4.47,21.81c3.22,1.14,6.3,0.44,9.36,0.09C242.1-350.84,238.53-367.11,236.91-369.19z M275.06-434.64
					c-0.38-1.63-0.72-3.07-1.08-4.65c-3.27,1.27-7.19,1.07-9.93,4.18C267.76-434.38,271.46-434.79,275.06-434.64z"/>
				
					<line fill="none" stroke="#FFFFFF" stroke-width="2.2102" stroke-miterlimit="10" x1="331.71" y1="-433.22" x2="763.89" y2="-433.22"/>
				<text transform="matrix(1 0 0 1 296.9312 -384.5415)" fill="#FFFFFF" font-family="'AdelleMono-Bold'" font-size="149.9183px">KABAB</text>
				<path fill-rule="evenodd" clip-rule="evenodd" fill="#FF1F00" d="M357.51-437.81c-0.01,7.02,1.76,11.76,6.43,15.34
					c4.22,3.23,10,4.75,16.27,4.85c16.13,0.26,10.01-10.15,9.48-19.27c-0.2-3.45-0.53-6.63-0.52-10.23c0.02-6.1,0.92-9.8-4.91-11.29
					c-4.1-1.05-10.8-0.69-15.45-1.08c-3.35-0.28-4.15-0.11-5.96,2.24C358.67-451.8,357.51-445.01,357.51-437.81L357.51-437.81z"/>
				<path fill-rule="evenodd" clip-rule="evenodd" fill="#FF1F00" d="M570.62-448.58c-4.04-0.06-8.66-0.9-10.24,1.89
					c-1.47,2.6-0.32,7.76,0,10.69c0.41,3.76,0.74,7.19,1.37,10.88c1.36,8.07,7.09,9.85,14.74,6.91c3.87-1.49,4.06-3.41,4.21-8.06
					C580.9-432.62,581.18-448.43,570.62-448.58L570.62-448.58z"/>
				<path fill-rule="evenodd" clip-rule="evenodd" fill="#FFBA00" d="M386.89-453.31c0,5.3,1.12,7.79,1.41,12.1
					c0.26,3.94-0.6,8.16-0.61,12.32c-0.01,3.7,0.81,10.81,5.77,10.52c1.98-3.07,2.27-3.57,2.19-8.43l-0.69-21.4
					c-0.07-2.89,0.16-11.41-2.18-13.2c-0.93-0.71-2.83-1.11-4.07-0.45C386.56-460.71,386.89-456,386.89-453.31L386.89-453.31z"/>
				<path fill-rule="evenodd" clip-rule="evenodd" fill="#FFBA00" d="M404.86-426.29v-0.23c0.01-7.73-2.4-15.71-2.46-24.42
					c-0.01-1.77,0.26-3.27,0.21-5.13c-0.08-3.7-1.83-5.4-5.66-5.16c-0.54,0.86-0.94,0.99-1.21,2.42c-0.58,3.01-0.36,7.66,0.2,10.45
					c1.62,8.08-0.74,19.77,2.96,26.75C400.47-418.66,404.84-416.98,404.86-426.29L404.86-426.29z"/>
				<path fill-rule="evenodd" clip-rule="evenodd" fill="#FFBA00" d="M670.41-459.11c-2.72,1.38-2.58,11.39-2.84,15.83
					c-0.42,7.06-2.37,30.69-1.59,36.06c0.34,2.33,1.48,4.3,3.34,5.85c2.67,2.23,2.94,2.57,5.43,0.39c3.1-2.72,2.21-1.85,2.21-6.99
					c0-3.15,0.26-5.82,0.44-8.91c0.65-11.6,7.77-33.66,0.32-40.58C676.27-458.8,672.99-460.41,670.41-459.11L670.41-459.11z"/>
				<g>
					<path fill-rule="evenodd" clip-rule="evenodd" fill="#FF1F00" d="M475.92-413.36c5.52,0.02,7.26-3.44,8.18-8.42
						c1.12-6.1,1.74-22.9-4.05-27.34c-2.96-2.27-9.05-2.93-13.26-3.07c-6.92-0.23-8.83,0.1-8.64,7.45
						C458.47-432.14,459.31-413.41,475.92-413.36L475.92-413.36z"/>
					<path fill-rule="evenodd" clip-rule="evenodd" fill="#FFBA00" d="M486.12-412.3c0.26-0.32-0.02,0.17,0.3-0.47
						c0.64-1.27,0.57-2.77,0.7-4.18c0.16-1.74,0.45-2.98,0.58-4.77c0.27-3.62,0.2-7.56,0.04-11.19c-0.24-5.31-0.9-10.66-1.09-15.51
						c-0.09-2.17-0.04-2.92-1.13-4.64c-4.57-0.68-3.75,4.6-3.24,8.94c1.6,13.57-1.67,17.81-0.01,29.22
						C482.53-413.13,482.72-412.33,486.12-412.3L486.12-412.3z"/>
					<path fill-rule="evenodd" clip-rule="evenodd" fill="#FFBA00" d="M490.17-439.34c0,7.07-0.32,15.29-0.63,22.36
						c-0.1,1.95,0.54,4.92,2.83,4.85c3.37-0.12,1.97-9.12,1.93-12.15c-0.03-2.43-0.04-4.87-0.06-7.3
						c-0.04-3.73,0.15-17.79-1.11-20.86c-0.8-1.94-3.17-2.75-3.81-0.45c-0.47,1.68,0.35,4.75,0.49,6.5
						C490.01-444.1,490.17-441.69,490.17-439.34L490.17-439.34z"/>
				</g>
				<path fill-rule="evenodd" clip-rule="evenodd" fill="#FFBA00" d="M579.7-437.13c0,7.07-0.32,15.29-0.63,22.36
					c-0.1,1.95,0.54,4.92,2.83,4.85c3.37-0.12,1.97-9.12,1.93-12.15c-0.03-2.43-0.04-4.87-0.06-7.3
					c-0.04-3.73,0.15-17.79-1.11-20.86c-0.8-1.94-3.17-2.75-3.81-0.45c-0.47,1.68,0.35,4.75,0.49,6.5
					C579.53-441.89,579.7-439.48,579.7-437.13L579.7-437.13z"/>
				<path fill-rule="evenodd" clip-rule="evenodd" fill="#FFBA00" d="M654.64-450.14c0,7.01-0.21,39.46,0.73,43.01
					c0.96,3.66,1,5.79,4.83,3.1c0.18-5.16-1.92-6.86,0.47-16.93c2.35-9.94,1.6-22.99,1.6-33.45c0-2.44,0.78-8.31-2.08-9.09
					c-1.63-0.44-1.55,0.51-1.63,0.61c-2.73,2.93-2.48,3.47-3.18,6.45c-0.33,1.4-0.11,0.31-0.29,0.88
					C654.5-453.73,654.64-452.26,654.64-450.14L654.64-450.14z"/>
				<path fill="#FFFFFF" d="M191.63-293.6c-5.59-23.05-8.58-47.11-8.58-71.86c0-168.09,136.75-304.83,304.83-304.83
					c168.09,0,304.83,136.75,304.83,304.83c0,23.65-2.72,46.67-7.84,68.79c0.64,0.01,1.27,0.02,1.91,0.03
					c5.1-22.13,7.8-45.16,7.8-68.81c0-169.12-137.59-306.7-306.7-306.7s-306.7,137.59-306.7,306.7c0,24.77,2.97,48.85,8.54,71.92
					C190.36-293.55,190.99-293.57,191.63-293.6z"/>
				<path fill="#FFFFFF" d="M176.68-293.25c-5.39-23.21-8.25-47.38-8.25-72.2c0-176.15,143.31-319.46,319.46-319.46
					S807.34-541.6,807.34-365.46c0,23.69-2.61,46.78-7.53,69.01c2.01,0.03,4.03,0.06,6.04,0.09c4.84-22.27,7.4-45.39,7.4-69.09
					c0-179.41-145.96-325.37-325.37-325.37S162.52-544.86,162.52-365.46c0,24.82,2.81,49,8.1,72.24
					C172.65-293.22,174.67-293.23,176.68-293.25z"/>
				<g id="XMLID_00000018925397333531806270000003451960332087417778_">
					<path id="XMLID_00000038392836069526778310000000076602303781699769_" fill="#FFFFFF" d="M458.49-353.34
						c-5.15,0.16-9.2,4.46-9.05,9.61c0.15,5,4.2,8.96,9.15,9.05l-0.04-5.72c-1.3-0.25-2.37-2.17-2.44-4.55
						c-0.08-2.57,1.04-4.69,2.49-4.73c1.45-0.04,2.69,2,2.77,4.57c0.07,2.35-0.85,4.32-2.12,4.67l0.31,5.72
						c4.91-0.41,8.7-4.6,8.55-9.58C467.95-349.45,463.65-353.5,458.49-353.34z"/>
					<path id="XMLID_00000100347612227962896290000011895425820455782054_" fill="#FFFFFF" d="M460.9-345.01
						c-0.07-2.26-0.99-4.07-2.05-4.04c-0.03,0-0.07,0-0.1,0.01c1.02,0.08,1.89,1.85,1.95,4.04c0.07,2.19-0.69,4-1.7,4.15
						c0.03,0,0.07,0,0.1,0C460.16-340.88,460.97-342.74,460.9-345.01z"/>
				</g>
				<polyline fill="none" stroke="#FFFFFF" stroke-width="1.2629" stroke-miterlimit="10" points="404.86,-346.76 400.13,-346.76 
					400.13,-324.14 750.24,-324.14 750.24,-376.44 744.22,-369.19 742.57,-357.87 739.49,-354.7 724.96,-356.06 724.01,-369.19 
					714.5,-376.44 714.5,-334.83 706.18,-334.83 704.99,-376.44 687.16,-360.39 673.44,-360.39 673.44,-353.85 665.8,-352.66 
					665.8,-369.19 654.62,-369.19 654.62,-354.45 644.97,-353.85 639.62,-346.76 631.3,-346.76 629.52,-357.97 624.17,-357.97 
					624.76,-346.76 617.63,-346.76 614.66,-354.45 608.12,-353.85 600.69,-350.29 600.19,-367.87 599.8,-377.62 593.26,-369.6 
					593.26,-352.37 587.02,-352.37 587.02,-362.47 582.86,-358.01 582.86,-343.75 575.18,-343.75 568.9,-343.75 				"/>
				
					<text transform="matrix(1 0 0 1 400.9297 -329.9429)" fill="#FFFFFF" font-family="'Quicksand-Bold'" font-size="51.251px" letter-spacing="10">Kar-Khana</text>
			</g>
		</g>
	</g>
</pattern>
<g>
	<defs>
		<rect id="SVGID_00000136393743336038079390000015378432589961043087_" x="9.73" y="123.92" width="480.54" height="252.16"/>
	</defs>
	<clipPath id="SVGID_00000032648279470603197150000003074401375401363333_">
		<use xlink:href="#SVGID_00000136393743336038079390000015378432589961043087_"  overflow="visible"/>
	</clipPath>
	<g clip-path="url(#SVGID_00000032648279470603197150000003074401375401363333_)">
		
			<radialGradient id="SVGID_00000057867988582602218570000015759586432517671320_" cx="233.7702" cy="358.5333" r="370.307" gradientUnits="userSpaceOnUse">
			<stop  offset="0.4205" style="stop-color:#FDD401"/>
			<stop  offset="0.4679" style="stop-color:#FDAA01"/>
			<stop  offset="0.5233" style="stop-color:#FD7500"/>
			<stop  offset="0.6781" style="stop-color:#FB060C"/>
		</radialGradient>
		<path fill="url(#SVGID_00000057867988582602218570000015759586432517671320_)" d="M478.34,441.76c-8.29-4.9-13.16-0.42-20.84-5.21
			c-6.75-4.21-12.08-13.34-10.7-22.76c0.95-6.4,5.16-14.12,12.9-16.73c4.74-1.6,11.06-1.36,15.35,1.92c3.3,2.51,4.24,5.95,4.66,5.76
			c0.25-0.11,0.3-1.58-0.1-3.67c-0.64-3.33-2.4-8.25-6.21-11.96c-7.05-6.87-16.87-5.38-18.37-11.24c-0.48-1.88,0.15-3.52,0.27-3.85
			c2.87-7.1,17.18-1.96,25.51-9.05c7.98-6.78,7.82-22.55,4.94-32.36c-3.31-11.23-11.15-17.8-7.96-24.13
			c1.18-2.37,3.36-3.61,4.49-4.3h0.01c0.5-0.3,0.8-0.5,0.72-0.63c-0.44-0.82-13.14,1.24-18.93,10.14
			c-4.65,7.15-1.59,13.69-7.4,19.47c-1.31,1.29-2.72,2.22-4.07,2.9c4.44-10.65,3.79-18.02,2.01-23.05
			c-3.29-9.23-11.45-13.45-10.29-20.43c0.53-3.2,2.82-5.69,5.36-7.55c-5.51,1.44-8.58,3.88-10.39,6c-2.88,3.37-2.82,6.16-5.84,7.5
			c-0.03,0.02-0.07,0.03-0.11,0.04c-3.79,1.59-9.32-0.38-12.14-4.26c-2.65-3.63-3.63-9.88-0.55-12.07c2.17-1.53,6.15-0.88,7.86,1.28
			c2.31,2.94-0.05,7.96,0.71,8.39c0.01,0.01,0.02,0.02,0.03,0.02c0.66,0.25,3.04-2.46,4.21-6.22c2.2-7.11-0.88-15.19-5.67-27.42
			c-1.34-3.42-3-7.29-1.28-10.6c1.4-2.71,4.34-3.63,4.02-4.38c-0.09-0.22-0.43-0.36-0.93-0.43h-0.01c-1.37-0.16-3.97,0.32-6.19,1.7
			c-2.38,1.49-2.87,3.12-4.39,4.94c-3.63,4.36-11.15,7.44-16.27,4.93c-0.3-0.15-0.6-0.32-0.9-0.52c-2.49-1.59-4.84-4.69-4.22-8.08
			c0.72-3.88,5.08-6.65,8.42-6.03c1.26,0.24,3.04,1.09,3.47,2.56c0.62,2.1-1.85,4.21-1.65,4.39c0.07,0.06,0.46-0.1,1.04-0.47
			c2.49-1.55,8.7-6.83,11.03-15.25c0.46-1.68,0.7-3.25,0.82-4.62c-3.76,4.39-7.05,5.48-9.23,5.71c-8.92,1.01-12.51-10.26-22.99-9.91
			c-4.24,0.13-6.78,2.08-10.12,2.5c-1.24,0.16-2.57,0.11-4.14-0.31c-2.14-0.57-3.87-1.6-5.24-2.67c0.1-0.02,0.2-0.04,0.3-0.07
			c4.18-1.16,6.78-5.55,7.13-9.33c0.23-2.41-0.49-4.14-1.78-7.12c-3.01-6.97-5.92-6.98-7.27-12.07c-0.51-1.95-2.68-10.16,1.24-13.72
			c2.44-2.21,6.04-1.54,6.04-1.78c-0.01-0.12-0.99-0.42-2.51-0.6c-3.01-0.35-8.14-0.2-11.89,2.79c-3.45,2.75-2.95,5.7-6.04,6.73
			c-3.32,1.1-7.6-1.08-9.87-4.12c-1.33-1.77-1.85-3.66-2.02-5.24c-0.88,2.63-1.27,5.56-0.04,8.12c1.91,4,6.19,3.85,7.68,7.95
			c1.18,3.27,0.29,8.38-3.29,10.15c-1.63,0.8-3.34,0.7-4.76,0.32c-0.73-8.49-3.05-14.69-5.21-18.97
			c-4.61-9.11-10.96-14.34-8.96-18.83c1.77-3.98,8.54-3.91,8.42-4.58c-0.02-0.06-0.09-0.13-0.23-0.2
			c-1.85-0.89-14.47-1.56-20.07,5.51c-3.15,3.97-1.2,6.76-4.56,10.61c-3.97,4.53-12.33,7.15-18.29,3.47
			c-2.8-1.72-5.23-4.93-5.89-8.31c-0.29-1.44-0.25-2.91,0.22-4.31c1.01-3.02,4.01-5.66,6.3-5.78c0.36-0.04,0.69,0.01,1.01,0.11
			c0.44,0.15,0.81,0.44,1.12,0.81c0.69,0.81,1.12,2.02,1.39,3.24c0.46,2.01,0.5,4,0.6,4c0.1-0.01,0.34-1.66,0.24-4.26
			c-0.11-2.57-0.57-6.07-1.88-9.82c-4.72-13.45-15.72-16.67-15.37-25.96c0.08-1.95,0.62-3.64,1.26-4.97
			c-1.91,0.25-4.45,0.91-6.92,2.59c-5.73,3.89-6.83,10.35-6.95,11.15c-1.38,8.99,6.42,11.74,6.03,21.4
			c-0.2,5.02-2.63,12.22-8.4,14.26c-3.88,1.37-9.45,0.48-11.89-2.93c-3.72-5.2,2.97-11.85,0.18-20.11c-1.41-4.18-4.69-7.05-7.8-8.98
			c0,0.06,0.01,0.13,0.01,0.19c0.01,0.2,0.03,0.4,0.03,0.6c0.02,0.32,0.03,0.63,0.03,0.94c0.11,6.01-1.61,8.96-3.43,10.54
			c-5.42,4.74-13.98-0.68-19.2,4.39c-3.37,3.28-1.38,7.1-4.25,11.75c-0.1,0.17-0.21,0.34-0.32,0.51c-2.99,4.34-8.24,6.18-13.14,6.96
			c-0.67-1.89-0.94-3.87-0.02-5.36c1.13-1.82,3.63-2.3,3.56-2.47c-0.06-0.17-2.82,0.36-6.17,1.92c-6.22,2.91-6.85,5.82-9.45,5.62
			c-3.78-0.28-7.6-6.77-6.45-11.93c0.55-2.46,2.4-5.39,4.25-5.34c1.59,0.03,2.47,2.27,2.88,2.06c0.62-0.32-0.05-6.21-4.11-9.87
			c-3.22-2.91-6.11-2.21-7.96-5.07c-0.85-1.32-1.1-2.82-1.09-4.19c-0.63,1.37-1.1,3.02-0.97,4.87c0.25,3.35,2.21,3.75,2.75,6.45
			c1.17,5.89-7.32,8.64-8.65,17.96c-0.53,3.75,0.58,5.17-0.81,6.58c-2.22,2.23-7.23,0.96-14.68-0.96
			c-5.52-1.41-7.04-2.37-10.28-2.06c-2.42,0.25-4.47,1.07-6.09,1.97c0.63,0.03,1.31,0.14,1.99,0.37c0.5,0.16,1,0.38,1.49,0.68
			c2.23,1.38,3.19,3.69,3.48,5.89c0.18,1.26,0.12,2.48-0.04,3.44c-0.54,3.15-2.54,5.29-4.39,6.64c-1.61,1.17-3.1,1.73-3.43,1.86
			c-0.28,0.1-6.74,2.35-11.38-1.38c-5.52-4.42-3.53-13.3-3.01-15.64c0.38-1.66,0.93-3.16,1.58-4.51c0.37-0.77,0.77-1.49,1.19-2.16
			c-12.4,11.08-15.48,20.1-15.61,26.75c-0.08,3.8,0.78,9.23-2.27,15.33c-0.04,0.07-0.07,0.14-0.11,0.21
			c-0.81,1.59-4.87,9.52-11.88,10.61c-0.6,0.09-1.17,0.12-1.72,0.11c-5.7-0.13-9.02-5.39-16.39-4.69c-0.11,0.01-0.23,0.03-0.33,0.04
			c-1.93,0.23-3.64,0.81-5.1,1.53c-0.2,0.11-0.39,0.2-0.59,0.31c4.79,2.96,6.9,8.31,5.48,12.56c-1.51,4.47-6.61,6.79-10.6,6.58
			c-6.21-0.32-7.62-6.62-14.62-9.51c-2.77-1.14-6.94-1.96-13.07-0.41c-0.13,0.03-0.26,0.06-0.39,0.1c1.37,1.08,2.59,2.5,3.22,4.34
			c2.31,6.81-7.26,12.49-4.76,20.84c1.26,4.24,3.21,4.56,6.95,10.97c0,0.01,0.01,0.01,0.01,0.02c3.16,5.43,8.53,14.63,6.2,24.11
			c-0.22,0.94-2.77,10.79-10.23,12.43c-2.77,0.61-6.46,0.15-8.78-2.19c-2.23-2.23-3.01-6-2.02-9.99
			c-7.41,3.45-11.45,7.93-13.33,10.36c-12.45,16.03-8.11,41.31,0,50.83c3.52,4.15,6.14,9.02,9.69,13.16c1,1.17,3.02,3.49,3.7,6.99
			c0.15,0.76,1.04,5.44-1.24,7.14c-1.75,1.31-3.63-0.47-7.4,0.68c-1.17,0.36-2.42,0.97-3.2,1.58c-0.53,0.42-0.84,0.83-0.78,1.17
			c0.29,1.46,7.64,0.11,8.23,1.92c0.54,1.66-4.72,5.65-10.56,6.86c-1.88,0.38-8.66,1.78-11.93-1.79c-2.29-2.5-1.47-5.88-4.66-8.09
			c-0.65-0.45-1.31-0.74-1.92-0.94c-0.12-0.04-0.25-0.08-0.37-0.11c0.41,1.7,0.67,3.86,0.24,6.26c-1.02,5.53-4.76,6.89-5.48,10.69
			c-1.03,5.4,4.48,13.03,10.97,15.36c12,4.31,21.41-11.68,30.72-7.68c1.32,0.57,2.51,1.49,3.57,2.66c6.03,6.7,7.53,21.75,1.9,27.51
			c-3.65,3.75-9.43,2.64-13.43,8.22c-1.22,1.7-1.9,3.5-2.28,5.11c2.52,0.1,6.33,0.78,9.68,3.67c2.15,1.87,3.69,4.3,4.53,6.99
			c-3.41,1.98-10.36,6.89-12.85,15.68c-3.25,11.44,2.03,25.9,11.89,29.45c1.31,0.46,2.6,0.71,3.85,0.8
			c-0.39-0.41-0.79-0.87-1.16-1.38c-1.14-1.58-2.08-3.64-2.15-6.19c-0.12-4.52,2.51-9.4,7.13-10.97c1-0.34,1.98-0.48,2.9-0.5
			c-2.51-2.84-3.56-6.46-2.72-9.56c0.97-3.56,4.26-5.83,7.75-6.77c3.3-0.89,6.81-0.6,8.7,0.93c1.41,1.14,1.75,2.82,2.01,9.51
			c0.04,1.13,0.08,2.2,0.1,3.22c0.35,14.4-0.98,17.51,1.73,20.92c3.35,4.19,7.84,2.58,10.24,7.31c1.39,2.74,1.82,7.08-0.18,10.24
			c-4.13,6.48-14.92,2.34-21.39,9.32c-1.51,1.63-2.44,3.49-3.01,5.26c9.54-5.53,15.95-5.47,20.19-4.15
			c1.03,0.32,1.94,0.71,2.77,1.14c3.43,1.76,5.67,4.14,11.13,4.52c5.27,0.38,12.01-1.23,12.98-1.46c0.24-0.05,0.46-0.11,0.67-0.17
			c4.34-1.11,5.41-1.99,7.19-1.29c3.72,1.44,5.7,7.8,5.12,13.16c-0.9,8.41-7.7,10.82-6.95,16.45c0.15,1.09,0.59,2.41,1.76,3.87
			c0.87,1.1,2.16,2.28,4.05,3.5c-0.01-0.11-0.03-0.21-0.03-0.32c-0.23-2.3-0.02-4.98,1.35-7.4c4.84-8.58,20.18-6.97,23.77-6.58
			c7.69,0.82,14.06,3.65,18.78,6.48c3.62,2.17,6.25,4.34,7.74,5.59c10.44,8.77,10.67,15.36,22.67,24.32
			c3.01,2.24,5.87,3.99,8.33,5.3c-0.23-0.63-0.42-1.23-0.6-1.8c-1.76-5.76-1.03-8.51,0.31-9.91c3.31-3.45,10.25,1.45,15.26-2.29
			c0.56-0.41,1.01-0.87,1.38-1.37c3.04-4.1,0.2-10.7,4.66-14.9c2.14-2.02,5.5-3.08,9.04-3.22c5.8-0.23,12.05,2,14.09,6.42
			c1.64,3.53,0.74,8.8-2.29,12.07c-1.1,1.19-2.79,3.01-4.85,2.83c-4.11-0.36-4.46-8.23-10.33-10.7c-1.81-0.76-3.62-0.78-4.99-0.62
			c5.98,3.67,7.73,7.18,8.1,9.86c0.81,5.93-4.88,9.3-4.94,16.46c-0.02,2.66,0.74,5.09,1.85,7.22c0.16,0.29,0.32,0.57,0.47,0.85
			c0.08-0.49,0.22-0.99,0.43-1.48c0.99-2.44,3.08-3.8,5.71-4.71c6.79-2.32,17.3-1.64,22.53-8.74c4.15-5.62,0.62-10.21,6.58-17.82
			c1.37-1.73,4.3-5.01,8.79-7.12c2.41-1.15,4.86-1.75,7.23-1.99c12.25,1.3,15.51,3.43,15.8,5.36c0.38,2.39-3.9,3.69-6.76,10.06
			c-1.02,2.24-3.97,8.81-0.74,13.35c2.24,3.14,6.37,3.79,8.84,3.87c-0.74-1.03-1.39-2.31-1.71-3.87c-0.06-0.3-1.08-5.47,1.28-6.95
			c2.11-1.34,4.49,1.81,10.06,1.82c3.51,0,6.62-1.26,6.58-2.02c-0.05-1.11-7.04,0.13-10.43-4.02c-2.44-2.99-1.53-7-1.45-7.32
			c0.2-0.83,0.53-1.63,0.97-2.37c1.59-2.67,4.62-4.57,8.2-4.96c3.15-1.3,6.62-1.99,10.21-1.45c6.38,0.96,7.4,4.96,14.26,5.85
			c8.72,1.13,19.53-3.68,22.12-11.71c0.53-1.65,0.65-3.23,0.59-4.6c-1.32,1.03-3.24,2.11-5.16,1.67c-4.36-0.99-7.16-9.55-3.84-14.44
			c2.87-4.22,9.97-5.17,13.9-2.56c5.83,3.86,1.48,13.43,8.23,21.94c2.1,2.65,4.64,4.39,6.94,5.56c-3.42-16.71-0.04-26.26,3.67-31.89
			c7.67-11.65,20.21-11.78,26.32-25.96c3.81-8.81,3.11-18.33,3.66-18.28c0.49,0.04-0.97,7.56,1.83,16.09
			c2.42,7.4,7.65,14.3,9.87,13.53c1.84-0.63,0.04-6,0.74-14.26c1.49-17.67,12.34-23.52,9.87-34.01c-0.46-2.01-1.48-4.42-3.71-6.98
			c4.05,0.64,8.58,0.53,12.85-1.42c7.85-3.59,7.13-9.87,15.72-15.73c7.94-5.41,19.15-7.31,27.71-3.85c6.88,2.8,9.76,8.13,10.69,7.41
			c0.07-0.05,0.13-0.14,0.17-0.26C490.99,457.61,487.19,446.98,478.34,441.76z M417.72,367.98c-0.55,5.05-1.59,14.35-7.13,23.59
			c-7.06,11.77-13.04,9.38-21.39,20.29c-10.13,13.23-11.11,29.48-11.52,36.2c-0.06,1.03-0.1,2-0.11,2.92
			c-0.27,13.95,4,17.19,0.11,26.15c-0.96,2.23-2.19,4.23-3.66,6.12c-3.56,4.61-8.59,8.57-14.98,13.62
			c-9.47,7.47-10.95,6.17-17,12.07c-9.04,8.8-7.21,13.11-14.82,19.74c-3.7,3.22-7.68,5.04-13.64,6.96c-2.81,0.9-6.07,1.82-9.94,2.93
			c-16.31,4.61-17.05,2.02-29.62,6.03c-14.4,4.59-15.87,8.75-27.43,9.87c-7.96,0.77-18.42-0.12-20.29-4.94
			c-1.06-2.73,1.38-4.78,0-7.12c-0.34-0.58-0.83-1.03-1.43-1.39c-4.11-2.51-13.34-0.52-14.48-0.25c-7.71,1.73-9.78,4.64-14.81,6.58
			c-12.97,5-31.61-1.82-42.43-12.22c-0.7-0.66-1.36-1.35-1.99-2.04c-3.83-4.24-6.17-8.77-13.72-15.36
			c-4.98-4.34-9.23-6.96-10.42-7.68c-9.51-5.74-12.45-4.4-17-7.68c-0.96-0.69-1.75-1.41-2.42-2.21c-2.25-2.65-3.18-6.09-4.37-11.61
			c-0.96-4.42-2.08-10.21-4.19-18c-3.71-13.71-5.56-20.56-9.32-26.88c-3.48-5.84-6.97-9.36-10.17-12.01
			c-5.83-4.84-10.71-6.85-12.86-14.86c-1.67-6.21,0.29-8.6,1.18-16.02c0.36-3.08,0.54-7.04,0.19-12.51
			c-0.08-1.23-0.18-2.33-0.27-3.33c-0.63-6.33-1.52-8.8-0.83-14.77c1.1-9.65,4.19-10.07,6.31-19.74c1.39-6.35,0.04-6.08,0.28-30.72
			c0.07-8.24,0.27-13.03,3.29-18.1c1.78-2.98,3.95-4.86,8.23-8.51c3.92-3.33,7.13-5.54,9.7-7.2c1.76-1.14,3.21-2.02,4.37-2.85
			c1.95-1.38,3.08-2.58,3.48-4.48c1.17-5.56-5.98-7.25-6.58-13.98c-1.18-13.31,24.88-27.61,40.13-32.09
			c6.19-1.81,12.26-3.48,12.26-3.48c14.39-3.93,15.48-3.72,18.65-5.49c2.14-1.19,3.48-2.32,4.52-3.5c2.51-2.83,3.34-5.95,9.38-10.94
			c3.48-2.88,14-11.59,22.31-8.59c4.84,1.73,4.77,5.95,9.32,6.76c5.13,0.92,7.08-4.07,14.82-7.4c12.55-5.39,25.99-0.18,27.14,0.28
			c5.82,2.34,5.98,4.39,12.17,6.6c0.24,0.09,0.47,0.17,0.73,0.25c2.7,0.9,4.33,1.12,7.08,1.36c2.03,0.17,4.68,0.36,8.82,0.83
			c15.5,1.8,20.97,4.13,22.76,4.94c4.18,1.89,9.41,4.33,10.86,8.97c0.04,0.11,0.07,0.23,0.11,0.35c0.97,3.64-1.07,5.91-1.65,8.78
			c-0.22,1.09-0.22,2.22-0.02,3.39c0.39,2.35,1.57,4.85,3.36,7.46c11.5,16.74,48.43,37.15,64.4,41.53c1.14,0.32,4.06,1.07,7.12,3.29
			c0.12,0.09,0.25,0.18,0.37,0.28c0.31,0.23,0.61,0.47,0.91,0.74c2.89,2.54,5.87,6.96,9.14,17.64c3.5,11.41,1.65,11.43,4.39,18.65
			c3.96,10.41,7.69,10.06,10.97,19.2C419.34,353.47,418.43,361.54,417.72,367.98z"/>
		
			<linearGradient id="SVGID_00000076598370790035877780000007880955993228728195_" gradientUnits="userSpaceOnUse" x1="31.3513" y1="383.9204" x2="445.8437" y2="383.9204">
			<stop  offset="0" style="stop-color:#500011"/>
			<stop  offset="0.0951" style="stop-color:#490010"/>
			<stop  offset="0.5222" style="stop-color:#2F000A"/>
			<stop  offset="0.7757" style="stop-color:#250008"/>
		</linearGradient>
		<path fill="url(#SVGID_00000076598370790035877780000007880955993228728195_)" d="M238.6,591.17
			c-114.28,0-207.24-92.97-207.24-207.24s92.97-207.24,207.24-207.24s207.25,92.97,207.25,207.24S352.87,591.17,238.6,591.17z"/>
		
			<linearGradient id="SVGID_00000167388998691410891130000002203289389901220481_" gradientUnits="userSpaceOnUse" x1="44.2807" y1="312.9773" x2="433.6544" y2="312.9773">
			<stop  offset="0" style="stop-color:#FD7500"/>
			<stop  offset="0.4133" style="stop-color:#FC4106"/>
			<stop  offset="0.8021" style="stop-color:#FB160A"/>
			<stop  offset="1" style="stop-color:#FB060C"/>
		</linearGradient>
		<path fill="url(#SVGID_00000167388998691410891130000002203289389901220481_)" d="M52.76,431.91c-3.22-13.89-4.94-28.35-4.94-43.2
			c0-105.4,85.75-191.15,191.15-191.15s191.15,85.75,191.15,191.15c0,14.17-1.56,27.99-4.5,41.29c1.2,0.02,2.41,0.04,3.61,0.05
			c2.9-13.33,4.43-27.16,4.43-41.34c0-107.35-87.34-194.69-194.69-194.69S44.28,281.36,44.28,388.71c0,14.85,1.68,29.32,4.85,43.23
			C50.34,431.93,51.55,431.92,52.76,431.91z"/>
		<g>
			<g>
				<g>
					<g>
						
							<pattern  id="SVGID_00000106853367066576615510000007005191844191083171_" xlink:href="#Unnamed_Pattern" patternTransform="matrix(2.2025 0 0 2.2025 4573.1704 3294.02)">
						</pattern>
						
							<path fill="#FFFFFF" stroke="url(#SVGID_00000106853367066576615510000007005191844191083171_)" stroke-width="0.4752" stroke-miterlimit="10" d="
							M153.96,371.66h-6.69V321.6h6.69V371.66z M169.37,371.66h-6.69l-8.37-24.48v-0.42l6.97-25.17h6.14l-7.04,24.89L169.37,371.66z
							"/>
						
							<pattern  id="SVGID_00000155129464600818139750000008136683393247008188_" xlink:href="#Unnamed_Pattern" patternTransform="matrix(2.2025 0 0 2.2025 4573.1704 3294.02)">
						</pattern>
						
							<path fill="#FFFFFF" stroke="url(#SVGID_00000155129464600818139750000008136683393247008188_)" stroke-width="0.4752" stroke-miterlimit="10" d="
							M204.03,321.6h13.11c5.11,0,7.67,2.86,7.67,8.58v12.34c0,4.37-1.32,7.14-3.97,8.3l4.67,20.85h-6.35l-4.39-20.22h-4.04v20.22
							h-6.69V321.6z M210.72,345.72h4.39c2,0,3-1.21,3-3.63v-10.81c0-2.42-1-3.63-3-3.63h-4.39V345.72z"/>
					</g>
				</g>
			</g>
			<g>
				
					<pattern  id="SVGID_00000133524717785087455110000004392772254751298231_" xlink:href="#Unnamed_Pattern" patternTransform="matrix(2.2025 0 0 2.2025 4573.1704 3294.02)">
				</pattern>
				
					<path fill="#EFAC03" stroke="url(#SVGID_00000133524717785087455110000004392772254751298231_)" stroke-width="0.5277" stroke-miterlimit="10" d="
					M367.81,371.14c0,0-2.61-24.23-3.1-28.38c-0.58-5.07-0.83-10.05,1.3-14.79c0.37-0.82,0.81-1.6,1.34-2.33
					c0.03-0.05,0.07-0.11,0.11-0.16c0.44-0.6,0.93-1.16,1.48-1.68c0.47-0.42,0.99-0.79,1.54-1.1c0.4-0.23,0.81-0.43,1.25-0.6
					c1.03-0.4,2.15-0.63,3.32-0.64c1.62-0.01,3.13,0.38,4.47,1.1c0.04,0.02,0.08,0.05,0.13,0.07c0.55,0.31,1.07,0.67,1.55,1.08
					l1.67,1.88c0.51,0.7,0.95,1.45,1.32,2.24c2.21,4.71,2.06,9.69,1.54,14.77c-0.42,4.16-2.64,28.43-2.64,28.43
					c0,0.45-0.86,0.46-0.86,0l-0.41-28.44c-0.01-1.52-2.01-1.5-1.99,0.01l-0.19,3.35l-0.83,14.91l-0.57,10.2
					c0.01,0.45-0.86,0.46-0.86,0l-0.4-10.19l-0.72-18.24c0-0.77-0.51-1.14-1.04-1.12c-0.52-0.02-1.03,0.37-1.02,1.14l-0.44,18.24
					l-0.24,10.2c0,0.46-0.85,0.46-0.85,0.01l-0.73-10.21l-1.31-18.23c0-0.1-0.01-0.2-0.02-0.28c0,0-0.01-0.01-0.01-0.01
					c-0.25-1.22-1.96-1.1-1.95,0.31l0.03,28.44C368.66,371.58,367.81,371.59,367.81,371.14z"/>
			</g>
			<g>
				<path fill="none" d="M186.83,334.12c-1.01,0-1.83,0.82-1.83,1.83c0,1.01,0.82,1.83,1.83,1.83s1.83-0.82,1.83-1.83
					C188.66,334.94,187.84,334.12,186.83,334.12z"/>
				<path fill="#D71F1D" d="M201.14,371.66c0,0-5.49-10-8.03-20.22h-12.94c-2.62,9.92-7.64,20.22-7.64,20.22H201.14z"/>
				<path fill="#D71F1D" d="M190.67,331.68H183c0,0-0.14,6.38-1.56,14.04h10.59C191.09,339.2,190.67,331.68,190.67,331.68z
					 M186.83,337.78c-1.01,0-1.83-0.82-1.83-1.83c0-1.01,0.82-1.83,1.83-1.83s1.83,0.82,1.83,1.83
					C188.66,336.96,187.84,337.78,186.83,337.78z"/>
				<path fill="#FF8B0D" d="M192.95,350.8c-0.35-1.49-0.66-3.24-0.92-5.07h-10.59c-0.3,1.65-0.67,3.35-1.1,5.06
					c-0.06,0.22-0.11,0.44-0.17,0.66h12.94C193.05,351.23,193,351.01,192.95,350.8z"/>
			</g>
			<g>
				
					<linearGradient id="SVGID_00000021803787822414782520000013327320918232485537_" gradientUnits="userSpaceOnUse" x1="232.2098" y1="345.3966" x2="242.6295" y2="345.3966">
					<stop  offset="0" style="stop-color:#FD7500"/>
					<stop  offset="0.4133" style="stop-color:#FC4106"/>
					<stop  offset="0.8021" style="stop-color:#FB160A"/>
					<stop  offset="1" style="stop-color:#FB060C"/>
				</linearGradient>
				<path fill="url(#SVGID_00000021803787822414782520000013327320918232485537_)" d="M237.42,350.61c0-1.59-3.62-5.21-5.21-5.21
					c1.59,0,5.21-3.62,5.21-5.21c0,1.59,3.62,5.21,5.21,5.21C241.04,345.4,237.42,349.02,237.42,350.61z"/>
			</g>
			
				<pattern  id="SVGID_00000036210192573390702370000005602919540179447213_" xlink:href="#Unnamed_Pattern" patternTransform="matrix(2.2025 0 0 2.2025 4573.1704 3294.02)">
			</pattern>
			
				<path fill="#FFFFFF" stroke="url(#SVGID_00000036210192573390702370000005602919540179447213_)" stroke-width="0.4752" stroke-miterlimit="10" d="
				M256.05,371.66h-6.69V321.6h6.69V371.66z M271.46,371.66h-6.69l-8.37-24.48v-0.42l6.97-25.17h6.14l-7.04,24.89L271.46,371.66z"/>
			
				<pattern  id="SVGID_00000150066940641843940580000000892964260377021569_" xlink:href="#Unnamed_Pattern" patternTransform="matrix(2.2025 0 0 2.2025 4573.1704 3294.02)">
			</pattern>
			
				<path fill="#FFFFFF" stroke="url(#SVGID_00000150066940641843940580000000892964260377021569_)" stroke-width="0.4752" stroke-miterlimit="10" d="
				M292.31,371.66v-22.73h-8.23v22.73h-6.69V321.6h6.69v21.27h8.23V321.6H299v50.07H292.31z"/>
			
				<pattern  id="SVGID_00000031192450523032679040000012819819614221009284_" xlink:href="#Unnamed_Pattern" patternTransform="matrix(2.2025 0 0 2.2025 4573.1704 3294.02)">
			</pattern>
			
				<path fill="#FFFFFF" stroke="url(#SVGID_00000031192450523032679040000012819819614221009284_)" stroke-width="0.4752" stroke-miterlimit="10" d="
				M313.72,371.66h-6.69v-41.49c0-5.72,2.67-8.58,8.02-8.58h5.02c5.35,0,8.02,2.86,8.02,8.58v41.49h-6.69v-18.34h-7.67V371.66z
				 M321.39,347.26v-16.67c0-1.95-0.98-2.93-2.93-2.93h-1.81c-1.95,0-2.93,0.98-2.93,2.93v16.67H321.39z"/>
			
				<pattern  id="SVGID_00000121975359154299865240000009067899269861920150_" xlink:href="#Unnamed_Pattern" patternTransform="matrix(2.2025 0 0 2.2025 4573.1704 3294.02)">
			</pattern>
			
				<path fill="#FFFFFF" stroke="url(#SVGID_00000121975359154299865240000009067899269861920150_)" stroke-width="0.4752" stroke-miterlimit="10" d="
				M349.98,345.79v-24.2h6.69v50.07h-6.69v-9.97l-7.18-22.8v32.76h-6.69V321.6h6.69L349.98,345.79z"/>
			<g>
				
					<line fill="none" stroke="#FFFFFF" stroke-width="1.1664" stroke-miterlimit="10" x1="160.47" y1="292.75" x2="388.56" y2="292.75"/>
				<g>
					<g>
						
							<pattern  id="SVGID_00000136395071051800225560000003845945817196943038_" xlink:href="#Unnamed_Pattern" patternTransform="matrix(2.2025 0 0 2.2025 4573.2031 3303.4324)">
						</pattern>
						
							<path fill="#FFFFFF" stroke="url(#SVGID_00000136395071051800225560000003845945817196943038_)" stroke-width="0.5277" stroke-miterlimit="10" d="
							M166,292.67c0-0.02,0-0.05,0-0.07c-3.02-0.03-6.03-0.05-9.05-0.1c-2.17-0.03-4.35-0.1-6.52-0.16
							c-0.04-0.07-0.09-0.15-0.13-0.22c0.46-0.42,0.91-0.85,1.38-1.27c0.68-0.61,0.83-1.21,0.39-1.67c-0.43-0.45-1.28-0.43-1.83,0.1
							c-0.33,0.32-0.62,0.7-0.89,1.08c-0.65,0.95-1.52,1.65-2.64,1.78c-1.72,0.2-3.46,0.36-5.18,0.28c-2.03-0.1-3.45-1.23-3.95-3.28
							c-0.19-0.78-0.3-1.58-0.34-2.38c-0.11-2.45-0.5-4.82-1.89-6.89c-0.53-0.79-1.25-1.45-1.89-2.16
							c-0.96-1.07-1.02-2.03-0.05-2.94c1.32-1.25,2.25-2.68,2.58-4.51c0.17-0.95,0.57-1.11,1.46-0.73c0.67,0.28,1.3,0.65,1.96,0.96
							c0.47,0.22,0.95,0.41,1.43,0.59c1.38,0.5,2.27-0.64,2.19-1.72c-0.06-0.88-0.3-1.75-0.32-2.62c-0.03-1.22-0.4-2.28-1.04-3.29
							c-1-1.55-2.03-3.08-2.93-4.68c-0.88-1.55-2.08-2.72-3.48-3.81c-1.45-1.13-2.76-1.51-4.35-0.38c-0.61,0.44-1.29,0.36-1.99,0
							c-1.05-0.55-2.11-1.11-3.23-1.47c-0.51-0.16-1.26-0.03-1.73,0.26c-0.63,0.39-0.62,1.19-0.37,1.85
							c0.18,0.47,0.52,0.89,0.8,1.32c0.1,0.16,0.23,0.3,0.37,0.47c-1.31,0.2-2.06,0.97-1.99,2.23c0.07,1.29,0.3,2.57,0.52,3.84
							c0.1,0.57,0.36,1.14,1.04,1.21c0.67,0.08,0.8-0.53,1.08-0.95c0.19-0.29,0.49-0.52,0.74-0.78c0.08,0.06,0.17,0.12,0.25,0.18
							c-1.34,2.02-1.72,4.24-1.39,6.63c-0.31,0-0.54,0.02-0.77,0c-2.99-0.3-5.98-0.7-8.98-0.87c-5.56-0.32-10.98,0.44-16.22,2.37
							c-0.58,0.21-0.86,0.53-1.03,1.11c-1.13,3.89-1.13,7.77-0.02,11.67c0.31,1.09,0.63,2.21,0.7,3.34c0.13,1.88-0.6,3.93-3.39,3.98
							c-2.08,0.04-4.15,0.18-6.23,0.3c-0.92,0.05-1.83,0.13-2.78,0.2c0.07,0.65,0.13,1.2,0.19,1.76c3.8,0.11,7.51,0.22,11.22,0.32
							c1.22,0.04,1.43,0.24,1.43,1.43c1.47,0.4,2.3,1.29,2.05,2.38c-0.52,2.24-0.28,4.5-0.29,6.75c-0.01,2,0.51,3.85,1.36,5.68
							c1.16,2.51,2.09,5.14,3.07,7.73c0.15,0.4,0.14,0.92,0.05,1.36c-0.85,4.11-1.71,8.22-2.6,12.32
							c-1.13,5.19-2.29,10.38-3.45,15.57c-0.27,1.19,0.36,2.02,1.6,2.05c0.7,0.01,1.4,0,2.11,0c2.45,0,2.85-0.33,3.38-2.75
							c0.07-0.33,0.11-0.57,0.12-0.6c0.35-2.31,1.76-7.35,1.76-7.35c0.54-1.93,1.39-5.31,2.77-11.68c0.36,1.87,0.71,3.73,1.07,5.6
							c0.44,2.56,0.73,4.64,0.91,6.07c0,0,0.24,1.85,2.27,9.27c0.08,0.3,0.28,0.97,0.86,1.28c0.16,0.09,0.36,0.14,0.59,0.14
							c1.27,0.02,2.55,0.03,3.82-0.04c1.21-0.07,1.71-0.76,1.49-1.95c-0.25-1.38-0.52-2.75-0.82-4.12
							c-1.65-7.68-3.31-15.36-4.96-23.04c-0.06-0.26-0.08-0.58,0.02-0.82c0.79-1.8,1.65-3.58,2.44-5.39
							c0.89-2.04,1.84-4.07,2.55-6.18c0.9-2.66,0.97-5.43,0.83-8.23c-0.12-2.47,1.36-4.39,3.7-5.19c1.78-0.6,3.59-0.48,5.39-0.21
							c0.22,0.03,0.48,0.41,0.56,0.67c0.66,2.14,1.77,4.01,3.5,5.42c3.74,3.04,5.64,2.7,8.34,0.62c1.71-1.31,3.73-1.9,5.89-1.97
							c1.25-0.04,1.51-0.28,1.6-1.57c0.11-1.59,0.45-1.89,2.06-1.67c0.7,0.1,1.23-0.05,1.73-0.6c0.27-0.3,0.79-0.51,1.2-0.52
							c3.43-0.04,6.86-0.03,10.02-0.02C166.06,293.56,166.02,293.12,166,292.67z M107.62,281c-0.57,0.67-1.2,1.3-1.74,1.99
							c-1.39,1.78-2.32,3.79-2.81,6c-0.05,0.22-0.13,0.44-0.19,0.65c-0.96-0.24-1.32-0.78-1.24-2.03c0.1-1.55,0.25-3.1,0.41-4.64
							c0.17-1.62,0.34-3.24,0.57-4.86c0.06-0.38,0.37-0.73,0.57-1.1c0.33,0.21,0.68,0.41,0.99,0.65c0.15,0.12,0.23,0.34,0.35,0.51
							c0.86,1.16,2.19,1.27,3.21,0.26c0.1-0.1,0.13-0.27,0.23-0.48C108.58,279.08,108.44,280.03,107.62,281z M124.76,291.75
							c1.44-1.65,3.52-1.54,5.24-2.21c0.19,0.83,0.37,1.59,0.57,2.45C128.67,291.92,126.72,292.14,124.76,291.75z"/>
						<g>
							
								<pattern  id="SVGID_00000181777755006555399250000014446088781990249609_" xlink:href="#Unnamed_Pattern" patternTransform="matrix(2.2025 0 0 2.2025 4573.2031 3303.4324)">
							</pattern>
							
								<path fill="#FFFFFF" stroke="url(#SVGID_00000181777755006555399250000014446088781990249609_)" stroke-width="0.5935" stroke-miterlimit="10" d="
								M175.98,318.44l-10.92-23.1l-5.38,7.51v15.59H147.5v-57.28h12.18v24.53l16.3-24.53h12.9l-15.98,22.47l17.33,34.81H175.98z"/>
							
								<pattern  id="SVGID_00000079481227909745185030000004625441005361310593_" xlink:href="#Unnamed_Pattern" patternTransform="matrix(2.2025 0 0 2.2025 4573.2031 3303.4324)">
							</pattern>
							
								<path fill="#FFFFFF" stroke="url(#SVGID_00000079481227909745185030000004625441005361310593_)" stroke-width="0.5935" stroke-miterlimit="10" d="
								M225.43,318.44l-3.24-14.16h-13.85l-3.01,14.16h-12.58l14.24-57.28h16.06l15.66,57.28H225.43z M209.92,294.78h10.36
								l-5.22-23.26h-0.24L209.92,294.78z"/>
							
								<pattern  id="SVGID_00000110468393175589149340000000213632482160989105_" xlink:href="#Unnamed_Pattern" patternTransform="matrix(2.2025 0 0 2.2025 4573.2031 3303.4324)">
							</pattern>
							
								<path fill="#FFFFFF" stroke="url(#SVGID_00000110468393175589149340000000213632482160989105_)" stroke-width="0.5935" stroke-miterlimit="10" d="
								M245.21,318.44v-57.28h21.12c13.53,0,17.33,6.17,17.33,14c0,7.75-5.06,11.79-10.84,13.37v0.16c9.18,1.11,13.29,6.09,13.29,14
								c0,11.71-9.18,15.74-21.6,15.74H245.21z M257.39,285.13h2.93c5.7,0,11.39-1.35,11.39-7.99c0-6.8-4.59-7.12-10.76-7.12h-3.56
								V285.13z M257.39,309.66h4.67c6.65,0,11.08-1.19,11.08-7.91c0-7.12-5.14-7.99-11.16-7.99h-4.59V309.66z"/>
							
								<pattern  id="SVGID_00000065067024639553107950000011029244629033937850_" xlink:href="#Unnamed_Pattern" patternTransform="matrix(2.2025 0 0 2.2025 4573.2031 3303.4324)">
							</pattern>
							
								<path fill="#FFFFFF" stroke="url(#SVGID_00000065067024639553107950000011029244629033937850_)" stroke-width="0.5935" stroke-miterlimit="10" d="
								M323.54,318.44l-3.24-14.16h-13.85l-3.01,14.16h-12.58l14.24-57.28h16.06l15.66,57.28H323.54z M308.03,294.78h10.36
								l-5.22-23.26h-0.24L308.03,294.78z"/>
							
								<pattern  id="SVGID_00000078007931491290287550000001973413962462820779_" xlink:href="#Unnamed_Pattern" patternTransform="matrix(2.2025 0 0 2.2025 4573.2031 3303.4324)">
							</pattern>
							
								<path fill="#FFFFFF" stroke="url(#SVGID_00000078007931491290287550000001973413962462820779_)" stroke-width="0.5935" stroke-miterlimit="10" d="
								M343.32,318.44v-57.28h21.12c13.53,0,17.33,6.17,17.33,14c0,7.75-5.06,11.79-10.84,13.37v0.16c9.18,1.11,13.29,6.09,13.29,14
								c0,11.71-9.18,15.74-21.6,15.74H343.32z M355.5,285.13h2.93c5.7,0,11.39-1.35,11.39-7.99c0-6.8-4.59-7.12-10.76-7.12h-3.56
								V285.13z M355.5,309.66h4.67c6.65,0,11.08-1.19,11.08-7.91c0-7.12-5.14-7.99-11.16-7.99h-4.59V309.66z"/>
						</g>
					</g>
					<g>
						
							<pattern  id="SVGID_00000047774262017586301290000001161002323100492452_" xlink:href="#Unnamed_Pattern" patternTransform="matrix(2.2025 0 0 2.2025 4573.2031 3303.4324)">
						</pattern>
						
							<path fill-rule="evenodd" clip-rule="evenodd" fill="#FFBA00" stroke="url(#SVGID_00000047774262017586301290000001161002323100492452_)" stroke-width="0.5277" stroke-miterlimit="10" d="
							M299.77,304.47c0.11-0.19,0,0.09,0.12-0.27c0.23-0.71,0.07-1.49,0.01-2.24c-0.06-0.92-0.02-1.59-0.1-2.53
							c-0.16-1.91-0.53-3.96-0.92-5.83c-0.57-2.75-1.37-5.48-1.88-7.99c-0.23-1.12-0.26-1.52-0.98-2.32
							c-2.44,0.03-1.57,2.71-0.94,4.93c1.98,6.93,0.63,9.42,2.46,15.22C297.83,304.34,298,304.73,299.77,304.47L299.77,304.47z"/>
						
							<pattern  id="SVGID_00000076594892427872163380000011330841941149821339_" xlink:href="#Unnamed_Pattern" patternTransform="matrix(2.2025 0 0 2.2025 4573.2031 3303.4324)">
						</pattern>
						
							<path fill-rule="evenodd" clip-rule="evenodd" fill="#FF1F00" stroke="url(#SVGID_00000076594892427872163380000011330841941149821339_)" stroke-width="0.5277" stroke-miterlimit="10" d="
							M174.09,290.33c0,3.7,0.93,6.21,3.4,8.09c2.23,1.7,5.28,2.5,8.59,2.56c8.51,0.14,5.28-5.36,5-10.17
							c-0.11-1.82-0.28-3.5-0.28-5.4c0.01-3.22,0.48-5.17-2.59-5.96c-2.17-0.55-5.7-0.36-8.15-0.57c-1.77-0.15-2.19-0.06-3.14,1.18
							C174.7,282.94,174.09,286.52,174.09,290.33L174.09,290.33z"/>
						
							<pattern  id="SVGID_00000084520790299965961150000003607681574784903064_" xlink:href="#Unnamed_Pattern" patternTransform="matrix(2.2025 0 0 2.2025 4573.2031 3303.4324)">
						</pattern>
						
							<path fill-rule="evenodd" clip-rule="evenodd" fill="#FF1F00" stroke="url(#SVGID_00000084520790299965961150000003607681574784903064_)" stroke-width="0.5277" stroke-miterlimit="10" d="
							M286.56,284.64c-2.13-0.03-4.57-0.48-5.41,1c-0.78,1.37-0.17,4.09,0,5.64c0.22,1.99,0.39,3.79,0.72,5.74
							c0.72,4.26,3.74,5.2,7.78,3.64c2.04-0.79,2.14-1.8,2.22-4.25C291.98,293.06,292.13,284.72,286.56,284.64L286.56,284.64z"/>
						
							<pattern  id="SVGID_00000127007175463649485890000013687997152634212777_" xlink:href="#Unnamed_Pattern" patternTransform="matrix(2.2025 0 0 2.2025 4573.2031 3303.4324)">
						</pattern>
						
							<path fill-rule="evenodd" clip-rule="evenodd" fill="#FFBA00" stroke="url(#SVGID_00000127007175463649485890000013687997152634212777_)" stroke-width="0.5277" stroke-miterlimit="10" d="
							M189.6,282.15c0,2.8,0.59,4.11,0.74,6.39c0.14,2.08-0.32,4.31-0.32,6.5c0,1.95,0.43,5.71,3.05,5.55
							c1.05-1.62,1.2-1.89,1.16-4.45l-0.36-11.29c-0.04-1.52,0.08-6.02-1.15-6.97c-0.49-0.38-1.49-0.58-2.15-0.24
							C189.42,278.24,189.59,280.73,189.6,282.15L189.6,282.15z"/>
						
							<pattern  id="SVGID_00000082327398581381997930000003464868298443902384_" xlink:href="#Unnamed_Pattern" patternTransform="matrix(2.2025 0 0 2.2025 4573.2031 3303.4324)">
						</pattern>
						
							<path fill-rule="evenodd" clip-rule="evenodd" fill="#FFBA00" stroke="url(#SVGID_00000082327398581381997930000003464868298443902384_)" stroke-width="0.5277" stroke-miterlimit="10" d="
							M199.08,296.4v-0.12c0.01-4.08-1.27-8.29-1.3-12.89c-0.01-0.94,0.13-1.73,0.11-2.71c-0.04-1.95-0.96-2.85-2.99-2.72
							c-0.29,0.45-0.49,0.52-0.64,1.28c-0.3,1.59-0.19,4.04,0.1,5.52c0.86,4.26-0.39,10.44,1.56,14.12
							C196.76,300.43,199.07,301.32,199.08,296.4L199.08,296.4z"/>
						
							<pattern  id="SVGID_00000101103711965456887350000017140226948537984688_" xlink:href="#Unnamed_Pattern" patternTransform="matrix(2.2025 0 0 2.2025 4573.2031 3303.4324)">
						</pattern>
						
							<path fill-rule="evenodd" clip-rule="evenodd" fill="#FFBA00" stroke="url(#SVGID_00000101103711965456887350000017140226948537984688_)" stroke-width="0.5277" stroke-miterlimit="10" d="
							M339.22,279.09c-1.44,0.73-1.36,6.01-1.5,8.35c-0.22,3.73-1.25,16.2-0.84,19.03c0.18,1.23,0.78,2.27,1.76,3.09
							c1.41,1.18,1.55,1.36,2.86,0.21c1.64-1.44,1.16-0.98,1.16-3.69c0-1.66,0.14-3.07,0.23-4.7c0.34-6.12,4.1-17.76,0.17-21.42
							C342.31,279.25,340.58,278.4,339.22,279.09L339.22,279.09z"/>
						<path fill-rule="evenodd" clip-rule="evenodd" fill="#0A7A15" d="M236.58,303.23c2.91,0.01,3.83-1.81,4.32-4.45
							c0.59-3.22,0.92-12.08-2.14-14.43c-1.56-1.2-4.78-1.55-7-1.62c-3.65-0.12-4.66,0.05-4.56,3.93
							C227.37,293.32,227.81,303.2,236.58,303.23L236.58,303.23z"/>
						<path fill-rule="evenodd" clip-rule="evenodd" fill="#BA4219" d="M241.96,303.79c0.13-0.17-0.01,0.09,0.16-0.25
							c0.34-0.67,0.3-1.46,0.37-2.21c0.08-0.92,0.24-1.57,0.31-2.52c0.14-1.91,0.11-3.99,0.02-5.9c-0.12-2.8-0.48-5.63-0.58-8.18
							c-0.05-1.15-0.02-1.54-0.6-2.45c-2.41-0.36-1.98,2.43-1.71,4.72c0.85,7.16-0.88,9.4,0,15.42
							C240.07,303.35,240.17,303.77,241.96,303.79L241.96,303.79z"/>
						<path fill-rule="evenodd" clip-rule="evenodd" fill="#FF8B0D" d="M244.1,289.52c0,3.73-0.17,8.07-0.33,11.8
							c-0.05,1.03,0.28,2.6,1.49,2.56c1.78-0.06,1.04-4.81,1.02-6.41c-0.02-1.28-0.02-2.57-0.03-3.85
							c-0.02-1.97,0.08-9.39-0.59-11.01c-0.42-1.03-1.67-1.45-2.01-0.24c-0.25,0.89,0.19,2.51,0.26,3.43
							C244.01,287.01,244.1,288.28,244.1,289.52L244.1,289.52z"/>
						
							<pattern  id="SVGID_00000031897830897385945450000015940729270357120399_" xlink:href="#Unnamed_Pattern" patternTransform="matrix(2.2025 0 0 2.2025 4573.2031 3303.4324)">
						</pattern>
						
							<path fill-rule="evenodd" clip-rule="evenodd" fill="#FFBA00" stroke="url(#SVGID_00000031897830897385945450000015940729270357120399_)" stroke-width="0.5277" stroke-miterlimit="10" d="
							M291.35,290.68c0,3.73-0.17,8.07-0.33,11.8c-0.05,1.03,0.28,2.6,1.49,2.56c1.78-0.06,1.04-4.81,1.02-6.41
							c-0.02-1.28-0.02-2.57-0.03-3.85c-0.02-1.97,0.08-9.39-0.59-11.01c-0.42-1.03-1.67-1.45-2.01-0.24
							c-0.25,0.89,0.19,2.51,0.26,3.43C291.26,288.17,291.35,289.45,291.35,290.68L291.35,290.68z"/>
						
							<pattern  id="SVGID_00000147219861953669041210000008032054523358286779_" xlink:href="#Unnamed_Pattern" patternTransform="matrix(2.2025 0 0 2.2025 4573.2031 3303.4324)">
						</pattern>
						
							<path fill-rule="evenodd" clip-rule="evenodd" fill="#FFBA00" stroke="url(#SVGID_00000147219861953669041210000008032054523358286779_)" stroke-width="0.5277" stroke-miterlimit="10" d="
							M330.9,283.82c0,3.7-0.11,20.82,0.38,22.7c0.51,1.93,0.53,3.06,2.55,1.64c0.09-2.72-1.01-3.62,0.25-8.93
							c1.24-5.25,0.85-12.13,0.85-17.65c0-1.29,0.41-4.39-1.1-4.8c-0.86-0.23-0.82,0.27-0.86,0.32c-1.44,1.55-1.31,1.83-1.68,3.4
							c-0.17,0.74-0.06,0.16-0.15,0.46C330.82,281.92,330.9,282.7,330.9,283.82L330.9,283.82z"/>
					</g>
				</g>
			</g>
			<path fill="#FF8B0D" d="M190.67,329.72h-15.78c-1.78,0-3.23-1.45-3.23-3.23v-3.8h15.78c1.78,0,3.23,1.45,3.23,3.23V329.72z"/>
			<g>
				<path fill="#FFCF06" d="M209.37,222.67c0.44,0.6,0.88,1.32,0.88,2.12c0,0.52,0.26,0.44,0.26,0.8c0,0.28-0.18,0.52-0.18,0.76
					c-0.09,1.64-0.31,2.12-0.66,2.84c-0.09,0.2-0.22,0.52-0.35,0.68c-0.22,0.32-0.31,0.44-0.88,0.72c-0.18,0.08-0.09,0.32-0.26,0.44
					c-0.61,0.56-1.49,1.24-2.59,1.52c-0.61,0.16-1.23,0.2-1.89,0.2c-0.88,0-1.93-0.2-2.94-0.84c-0.39-0.24-1.05-0.96-1.27-1.6
					c-0.13-0.36-0.18-0.72-0.18-1.08c0-0.64,0.22-1.28,0.57-1.76c0.13-0.16,0.75-0.64,1.23-0.64c0.83,0,1.23,0.4,1.23,1.12
					c0,0.32-0.26,0.52-0.48,0.68c-0.61,0.44-0.88,0.8-0.88,1.44c0.09,0.76,0.44,1.04,1.14,1.24c0.31,0.08,0.61,0.12,0.97,0.12
					c0.61,0,1.01-0.12,1.62-0.36s0.88-0.72,1.23-1.2c0.13-0.16,0.18-0.32,0.35-0.48c0.18-0.12,0.31-0.08,0.44-0.28
					c0.09-0.12,0.09-0.32,0.09-0.44l0.4-1.32c0.09-0.32,0.09-0.96,0.09-1.36s0.13-0.68,0.13-0.96c0-0.28-0.04-0.52-0.18-0.96
					c-0.35-1.16-1.01-1.6-1.54-2.08c-0.26-0.24-0.92-0.52-1.27-0.64c-0.61-0.2-1.27-0.32-2.02-0.32c-1.01,0-2.02,0.28-2.9,0.72
					c-0.44,0.2-0.75,0.36-0.92,0.76l-0.31,0.52c-0.53,0.64-1.01,1.12-1.14,1.36c-0.09,0.16-0.09,0.44-0.13,0.64
					c-0.04,0.12-0.44,0.32-0.48,0.44c-0.18,0.36-0.18,0.96-0.35,1.32c-0.04,0.08-0.35,0.28-0.39,0.36
					c-0.04,0.48-0.09,0.76-0.22,1.24c-0.09,0.32-0.48,0.68-0.61,0.96c-0.26,0.6-0.31,1.32-0.48,1.96c-0.04,0.16-0.31,0.52-0.35,0.68
					l-0.13,0.76c-0.39,1.56-0.83,1.64-0.83,2v1c0,0.6-0.48,1.48-0.61,2l-0.22,1.08c-0.09,0.48-0.26,0.6-0.31,0.68
					c-0.31,0.92-0.4,1.72-0.57,2.44c-0.09,0.44-0.75,0.96-0.75,1.4c0,0.36-0.09,0.68-0.22,1c-0.53,1.24-0.57,0.84-1.1,1.84
					c-0.13,0.24-0.22,0.8-0.35,1.16c-0.22,0.6-1.36,2.28-1.84,2.92c0.31,0.36,0.39,0.28,0.57,0.48c0.18,0.24,0.04,0.36,0.35,0.36
					c0.26,0.16,0.48,0.68,0.83,0.68c0.18,0,0.31,0,0.48,0.08c0.31,0.12,0.48,0.52,0.75,0.68c0.22,0.12,0.53,0.04,0.7,0.2
					c0.18,0.16,0.22,0.36,0.4,0.44c0.26,0.08,1.23,0.56,2.02,0.76c0.09,0.04,0.09,0.12,0.09,0.2c0.22,0.04,0.48,0.04,0.61,0.12
					c0.22,0.12,0.26,0.36,0.48,0.48c0.26,0.16,0.57,0.12,0.88,0.2c0.13,0.04,0.26,0.36,0.48,0.44c0.44,0.16,0.66,0.2,1.14,0.36
					c0.92,0.32,1.93,1.28,2.94,1.28c0.61,0,0.92,0.12,1.67,0.24c0.18,0.04,0.39,0.04,0.57,0.04c0.61,0,1.23-0.12,1.71-0.24
					c1.1-0.32,1.27-0.48,1.76-0.88c0.31-0.24,0.31-0.32,0.44-0.52c0.04-0.08,0.26-0.16,0.35-0.16c0.13,0,0.35,0.24,0.35,0.44
					c0,0.48-0.48,1.2-0.79,1.52c-0.53,0.56-0.92,0.88-1.67,1.28c-0.79,0.44-1.49,0.28-1.71,0.36c-0.48,0.16-0.09,0.12-0.66,0.24
					c-0.13,0.04-0.44,0.08-0.66,0.08c-0.66,0-1.54-0.28-1.89-0.28c-0.31,0-0.83,0.08-1.27,0.08c-0.53,0-1.32-0.6-1.89-0.64
					c-0.61-0.04-3.03-1.24-3.51-1.32c-0.26-0.04-0.4-0.48-0.61-0.56c-0.39-0.16-0.79-0.28-1.19-0.36c-1.05-0.24-3.95-2.28-4.21-2.44
					c-0.31-0.2-0.57-0.24-0.88-0.4c-0.61-0.4-0.88-0.64-1.36-0.84c-0.31,0.4-0.61,0.24-1.14,0.48c-0.13,0.08-0.57,0.28-0.75,0.32
					c-0.26,0.04-0.48,0.32-0.75,0.44c-1.1,0.52-3.25,0.8-5.36,0.8c-0.7,0-1.45-0.04-2.15-0.16c-0.53-0.08-0.75-0.32-1.27-0.32
					c-0.31,0-0.61-0.2-0.79-0.32c-0.31-0.16-0.57-0.16-0.88-0.32c-0.48-0.28-1.1-0.88-1.45-1.36c-0.39-0.56-0.79-1.36-0.79-2.44
					c0-0.2,0-0.44,0.04-0.64c0.18-1.36,1.49-2.4,3.03-2.88c0.39-0.12,1.27-0.28,1.71-0.28c1.93,0,3.56,0.2,5.14,0.72
					c0.35,0.12,0.7,0.08,1.05,0.2c0.18,0.08,0.44,0.36,0.61,0.44c0.35,0.16,0.57,0.08,0.88,0.24c0,0.08,0,0.2,0.04,0.28l0.53-0.08
					c0.18,0.08,0.35,0.36,0.48,0.44c0.48,0.28,0.92,0.16,1.27,0.52c0.48-0.4,0.31-0.64,0.61-1.08l0.31-0.16
					c0.35-0.76,0.48-1.6,0.88-2.48l0.26-0.24c0.04-0.04,0.04-0.08,0.04-0.12c0-0.08-0.04-0.2-0.04-0.32c0-0.44,0.57-0.96,0.7-1.44
					c0.13-0.44,0.13-0.88,0.26-1.32c0.31-1.12,0.83-2.36,1.23-3.52c0.26-0.76,0.26-1.64,0.57-2.36c1.18-3.28,1.8-6.69,3.16-9.81
					c0.22-0.2,1.05-1.6,1.32-1.88c1.32-1.52,2.68-2.8,4.96-3.64c0.7-0.28,2.11-0.44,2.99-0.44c0.53,0,1.19-0.12,2.46-0.12
					C205.6,219.83,208.32,221.19,209.37,222.67z M171.97,247.98c-0.57,0.4-1.19,0.84-1.27,1.44c-0.04,0.2-0.04,0.4-0.04,0.6
					c0,1,0.44,1.68,1.01,2.24c0.13,0.16,0.18,0,0.44,0.2c0.18,0.12,0.31,0.2,0.53,0.2c0.48,0,1.05,0.56,1.67,0.64
					c0.31,0.08,0.97,0.04,1.8,0.2c0.7,0,1.32-0.2,1.76-0.28c0.7-0.12,1.14-0.24,1.76-0.24c0.22,0,0.83-0.64,1.01-0.64
					c0.66,0,1.45-1.16,1.58-1.6c-0.22-0.16-0.53-0.2-0.7-0.4c-0.09-0.08-0.26-0.16-0.4-0.24c-0.18-0.12-0.57-0.12-0.75-0.2
					c-0.18-0.08-0.18-0.2-0.35-0.32c-0.22-0.16-1.1-0.52-1.4-0.64c-1.45-0.6-2.9-1.2-4.65-1.24
					C173.46,247.7,172.45,247.7,171.97,247.98z"/>
				<path fill="#FFCF06" d="M218.24,244.33c-0.22,0.4-0.61,0.8-0.79,1.16c-0.53,1-0.75,2.2-1.1,3.24c-0.09,0.28-0.13,0.6-0.13,0.96
					c0,0.72,0.09,1.2,0.57,1.44c0.09,0.04,0.18,0.08,0.31,0.08c0.31,0,1.23-0.44,1.49-0.6c0.88-0.6,2.19-1.8,3.25-2.76
					c0.39-0.36,1.18-1.16,1.67-1.16c0.04,0,0.66,0.12,0.66,0.28c0,0.04-0.26,0.48-0.4,0.6c-0.22,0.32-0.31,0.44-0.61,0.64
					c-0.26,0.12-0.83,0.64-1.1,0.88c-0.22,0.16-0.09,0.4-0.31,0.56c-0.44,0.28-1.01,0.48-1.32,0.88c-0.13,0.2-0.31,0.56-0.53,0.68
					l-0.44,0.12c-0.26,0.16-0.53,0.44-0.79,0.6c-0.26,0.16-0.53,0.16-0.79,0.28c-0.18,0.08-0.48,0.32-0.7,0.4
					c-0.18,0.16-0.79,0.28-1.49,0.28c-0.22,0-0.75,0-1.01-0.08c-0.18-0.04-0.13-0.12-0.26-0.24c-0.44-0.32-1.01-0.24-1.27-0.64
					c-0.39-0.52-0.61-1.24-0.61-1.88c0-0.68,0.09-1.4,0.35-2.04c0.09-0.2,0.22-0.56,0.22-0.68c0-0.12-0.04-0.16-0.13-0.16
					c-0.04,0-0.09,0-0.13,0.04c-0.61,0.56-1.01,0.76-1.67,1.24c-0.26,0.16-0.39,0.44-0.61,0.64c-0.31,0.28-0.53,0.28-0.83,0.52
					c-0.44,0.28-0.75,0.72-1.14,1c-0.61,0.4-1.23,1-1.84,1.36c-0.92,0.52-1.19,1.04-2.02,1.48c-0.09,0.04-0.18,0.08-0.22,0.08
					c-0.09,0-0.35-0.08-0.48-0.08c-0.4,0.12-0.66,0.16-0.92,0.16c-0.83,0-1.71-0.52-1.8-1.2v-0.36c0-0.96,0.4-2.24,0.88-3.24
					c0.44-0.88,0.61-1.68,1.05-2.52c0.31-0.64,0.92-1.52,0.92-1.84c-0.04-0.08-0.04-0.12-0.13-0.12c-0.13,0-0.26,0.12-0.44,0.32
					c-0.88,0.96-1.76,1.76-2.72,2.72c-0.18,0.2-0.66,0.28-0.97,0.28c-0.18,0-0.31-0.16-0.31-0.32c0-0.04,0-0.08,0.04-0.16
					c0.31-0.64,0.83-0.76,1.14-1.28c0.18-0.32,0.22-0.28,0.53-0.48l0.66-0.56c0.57-0.52,0.13-0.4,0.7-0.88
					c0.39-0.32,0.44-0.6,0.97-0.96c0.4-0.28,0.7-0.68,0.83-1c0.09-0.24,0.31-0.76,0.53-0.88c0.61-0.36,0.97-0.28,1.54-0.6
					c0.48-0.28,1.1-0.52,1.62-0.64c0.44,0,1.1,0.2,1.23,0.4c0.09,0.12,0.09,0.2,0.09,0.32c0,0.28-0.18,0.52-0.26,0.72
					c-0.13,0.28-0.13,0.72-0.13,0.88c0,0.48-1.01,1.56-1.01,1.92c0,0.04-0.18,0.28-0.22,0.44c-0.13,0.32-0.04,0.64-0.26,0.92
					c-0.92,1.28-2.11,4.33-2.11,5.13c0.04,0.28,0.35,0.32,0.61,0.32c0.35,0,1.49-0.8,2.06-1.32c0.13-0.12,0.13-0.36,0.26-0.44
					c0.44-0.32,0.92-0.52,1.32-0.84c0.26-0.2,0.44-0.48,0.7-0.68c0.22-0.16,0.57-0.28,0.79-0.48c0.35-0.36,0.83-0.68,1.14-1.08
					c0.31-0.4,0.97-0.84,1.27-1.28c0.4-0.48,0.61-1,1.01-1.48c0.31-0.44,0.92-0.76,1.27-1.2c0.39-0.44,0.53-1.24,1.14-1.32
					c0.13,0,0.53-0.12,0.79-0.12c0.04,0,0.13,0,0.18,0.04c0.66,0.32,1.1,1.2,1.1,1.68c0,0.16,0,0.28-0.04,0.32
					C218.73,243.17,218.51,243.74,218.24,244.33z"/>
				<path fill="#FFCF06" d="M226.63,247.9c0,0.04,0.22,0.28,0.22,0.44c0,0.8-0.61,1.6-0.61,2.72c0,0.2,0,0.4,0.04,0.6
					c0.22,0.84,0.61,1.12,1.27,1.12c1.1,0,2.11-0.24,2.59-0.44c0.39-0.12,0.88-0.24,1.32-0.44c0.79-0.36,1.01-0.6,1.8-0.6
					c0.09-0.04,0.13-0.32,0.22-0.36l0.53-0.08c0.31-0.16,0.31-0.44,0.61-0.6c0.4-0.2,0.75-0.48,1.14-0.76
					c0.13-0.08,0.35-0.12,0.48-0.2c0.31-0.2,0.39-0.64,0.66-0.84c0.31-0.2,0.83-0.56,1.05-0.84c0.13-0.12,0.44-0.2,0.57-0.32
					c0.31-0.32,0.53-0.72,0.97-0.76c0.4,0,0.66,0.04,0.7,0.08c0.04,0.04,0.09,0.24,0.09,0.44c0,0.28-0.7,0.84-0.92,1
					c-0.61,0.4-1.36,0.84-1.84,1.4c-0.26,0.32-0.92,0.72-1.32,0.96c-1.14,0.72-2.24,1.36-3.47,2.04c-0.09,0.08-0.66,0.16-0.75,0.24
					c-0.35,0.24-0.66,0.52-1.05,0.68c-0.48,0.2-1.19,0.32-1.71,0.48c-0.22,0.04-0.57,0.2-0.7,0.2c-0.48,0-0.83,0.08-1.27,0.16
					c-0.18,0.04-0.35,0.04-0.57,0.04c-1.23,0-2.94-0.64-3.38-1.2c-0.53-0.68-0.75-1.48-0.75-2.44c0-0.2-0.09-0.4-0.09-0.6
					c0-0.2,0.31-0.72,0.31-1c0-0.32,0.31-1.8,0.61-2.16c0.18-0.44,1.62-2.72,2.24-3.32c0.61-0.64,1.23-1.28,1.93-1.64
					c0.31-0.2,0.75-0.08,1.05-0.32c0.13-0.12,0.31-0.36,0.44-0.44c0.79-0.44,1.97-0.56,3.03-0.56c0.66,0,1.32,0.08,1.76,0.24
					c0.44,0.2,0.61,0.32,0.92,0.6c0.13,0.12,0.26,0.12,0.35,0.36c0.66-0.52,1.01-2.16,1.67-2.16c0.48,0,0.92,0.84,0.92,1.16
					c0,0.32-0.09,0.64-0.31,1c-0.22,0.44-0.48,0.2-0.57,0.36c-0.09,0.16,0,0.32-0.13,0.48c-0.39,0.44-0.97,0.84-1.23,1.12
					c-0.4,0.4-0.97,0.96-1.49,1.08c-0.22,0-0.48-0.36-0.48-0.48c0-0.16,0.31-0.36,0.44-0.6c0.18-0.32,0.35-0.6,0.35-0.92
					c0-0.12,0-0.2-0.04-0.32c-0.18-0.36-0.57-0.48-1.32-0.48c-0.35,0-0.88,0.24-1.45,0.68c-0.18,0.12-0.83,0.36-1.01,0.52
					c-0.09,0.04-0.44,0.08-0.53,0.2c-0.44,0.32-0.39,0.6-0.75,0.96c-0.53,0.52-0.18,0.44-0.7,0.88c-0.09,0.08-0.66,0.24-0.66,0.52
					c0,0.04,0.04,0.16,0.04,0.28c0,0.08-0.04,0.2-0.09,0.24c-0.26,0.44-0.44,0.84-0.7,1.2C226.98,247.62,226.67,247.74,226.63,247.9
					z"/>
				<path fill="#FFCF06" d="M249.85,238.29c-0.35,0.32-0.7,0.76-1.05,1.12l-1.54,1.64c-0.04,0.08-0.09,0.16-0.09,0.2
					c-0.09,0.24-0.09,0.16-0.66,0.64c-0.31,0.44-0.57,1.08-0.66,1.52c-0.04,0.36-0.13,0.64-0.22,0.96
					c-0.13,0.48-0.48,0.76-0.48,1.44l0.13-0.04c0.48-0.4,0.44-0.44,0.83-0.92c0.13-0.2,0.57-0.28,0.75-0.48
					c0.22-0.2,0.79-0.8,1.01-0.92c0.61-0.4,1.05-0.84,1.67-1.28c0.79-0.56,1.76-1.2,2.77-1.48c0.31-0.08,0.79-0.12,1.18-0.12
					c0.22,0,0.44,0,0.57,0.04c0.61,0.16,1.27,0.6,1.36,1.4c0.04,0.2,0.04,0.44,0.04,0.6c0,0.64-0.18,0.96-0.35,1.2
					c-0.13,0.16-0.13,0.24-0.13,0.32v0.16c-0.26,0.68-1.27,1.68-2.33,2.4c-0.66,0.4-1.23,0.88-1.49,1
					c-0.26,0.12-0.79,0.12-1.01,0.28c-0.22,0.12-0.44,0.16-0.66,0.2c-0.4,0.04-0.83,0.12-0.83,0.32c0,0.2,0.18,0.48,0.31,0.64
					c0.09,0.16,0.31,0.4,0.44,0.56c0.61,0.76,0.18,0.68,0.97,1.4c0.22,0.2,0.79,0.56,0.97,0.64c0.35,0.16,0.75,0.24,1.19,0.24
					c0.48,0,0.97-0.08,1.54-0.36c0.35-0.16,1.01-0.48,1.36-0.72c0.39-0.32,0.75-0.68,1.1-1c0.31-0.24,0.53-0.2,0.79-0.4
					c0.22-0.2,0.09-0.28,0.39-0.56c0.04-0.04,0.26-0.24,0.26-0.28c0.13-0.32,0.53-0.44,0.7-0.76c0.13-0.24,0.88-1.04,1.23-1.16
					c0.18-0.08,0.4-0.08,0.53-0.08c0.18,0,0.35,0.04,0.35,0.16c0,0.08-0.04,0.24-0.13,0.32c-0.18,0.28-0.92,1.32-1.27,1.48
					c-0.44,0.28-0.61,0.68-0.97,1c-0.53,0.48-0.88,0.92-1.45,1.36l-0.57,0.48l-0.7,0.32c-0.22,0.16-0.13,0.36-0.44,0.52
					c-0.26,0.2-1.49,0.8-1.76,0.92c-0.61,0.28-1.32,0.28-1.93,0.28c-0.57,0-1.14,0-1.67-0.16c-0.57-0.2-0.97-0.36-1.36-0.72
					c-0.09-0.08-0.31-0.56-0.44-0.6c-0.13-0.08-0.35-0.28-0.44-0.4c-0.66-0.88-0.44-0.8-0.88-1.72l-0.09-0.2
					c-0.13-0.2-0.35-0.32-0.53-0.52c-0.22-0.32-0.26-0.28-0.26-0.68c0-0.48,0.61-1.4,0.97-1.4c0.31,0,0.61,0.24,0.83,0.24
					c1.36,0,2.11-0.88,3.21-1.92c0.26-0.24,0.39-0.56,0.7-0.8c0.18-0.12,0.35-0.12,0.44-0.28c0.09-0.12,0.13-0.36,0.22-0.48
					c0.26-0.52,0.4-0.84,0.4-1.28c0-0.12,0-0.24-0.04-0.36c-0.04-0.12-0.18-0.2-0.35-0.2c-0.09,0-0.18,0-0.26,0.04
					c-0.79,0.2-1.67,0.68-2.42,1.16l-0.44,0.48c-0.18,0.24-0.61,0.24-0.88,0.44c-0.35,0.28-0.4,0.6-0.7,0.96
					c-0.18,0.2-0.57,0.4-0.57,0.52c-0.31,0.24-0.35,0.28-0.61,0.6c-0.09,0.08-0.26,0.08-0.4,0.16c-0.39,0.32-0.35,0.88-0.66,1.32
					l-0.4,0.52c-0.26,0.32-0.22,0.8-0.35,1.24c-0.35,1.04-0.39,2.92-0.75,3.6c-0.13,0.28-0.57,0.36-0.83,0.36
					c-0.31,0-0.61-0.12-0.92-0.28c-0.26-0.16-1.23-0.28-1.27-0.52v-0.16c0-0.28,0.13-0.4,0.13-0.72c0-0.52,0.13-1.32,0.22-1.8
					c0.35-1.8,0.57-1.68,0.7-3.04c0.18-0.64,0.18-0.76,0.39-1.28c0-0.04-0.09-0.12-0.13-0.12c-0.22,0-0.44,0.44-0.57,0.56
					c-0.22,0.2-0.4,0.44-0.66,0.6c-0.13,0.12-0.48,0.64-0.66,0.8c-0.13,0.12-0.26,0.16-0.35,0.16c-0.26,0-0.61-0.36-0.61-0.52
					c0-0.04,0-0.08,0.04-0.12c0.22-0.24,0.44-0.52,0.57-0.76c0.04-0.12,0.26-0.04,0.35-0.12c0.13-0.12-0.04-0.24,0.26-0.52
					c0.18-0.16,0.44-0.32,0.61-0.52c0.31-0.36,0.66-0.84,0.97-1.28c0.22-0.24,0.22-0.4,0.4-0.68c0.09-0.16,0.31-0.28,0.39-0.44
					c0.26-0.52,0.18-0.84,0.4-1.36c0.18-0.32,0.39-0.72,0.48-1.04c0.13-0.4,0.22-0.8,0.31-1.16l0.53-1.56
					c0.18-0.44,0.22-0.72,0.48-0.96c0.18-0.24,0.04-0.68,0.18-1l1.01-1.96c0.22-0.44,0.26-0.68,0.31-0.72
					c0.22-0.28,0.39-0.92,0.48-1.16c0.13-0.16,0.39-0.4,0.48-0.6l0.35-0.72c0.31-0.48,0.79-0.88,1.1-1.4
					c0.88-1.48,2.72-3.6,4.39-4.48c0.4-0.24,1.14-0.64,2.02-0.64c0.18,0,0.4,0,0.57,0.04c0.7,0.12,1.45,1.04,1.45,2
					c0,0.92-0.26,1.84-0.61,2.56c-0.13,0.44-0.35,0.88-0.57,1.24c-0.35,0.72-0.7,1.32-1.1,2.04c-0.7,1.24-1.62,2.36-2.72,3.68
					C251.65,236.45,250.82,237.49,249.85,238.29z M253.45,232c0.31-0.52,0.35-0.92,0.66-1.48c0.18-0.28,0.66-0.56,0.79-0.84
					c0.09-0.24,0.44-0.84,0.57-1.12c0.31-0.84,0.44-1.44,0.44-1.92c0-0.2-0.09-0.64-0.35-0.76c-0.09-0.04-0.18-0.04-0.26-0.04
					c-0.35,0-1.27,0.56-1.67,1.04c-0.39,0.48-0.61,0.8-0.83,1.12c-0.09,0.12-0.04,0.24-0.13,0.36c-0.09,0.12-0.48,0.32-0.48,0.44
					c0,0.08-0.75,1.2-1.05,1.76c-0.04,0.12-0.53,0.24-0.53,0.24s0.13,0.24,0.13,0.32c-0.09,0.36-0.92,1.96-1.32,2.76
					c-0.39,0.8-0.31,1.24-0.44,1.4c-0.26,0.12-0.35,0.28-0.39,0.44c-0.53,1.24-1.05,2.6-1.05,2.84c0,0.16,0,0.44,0.09,0.44
					c0.13,0,0.57-0.44,0.61-0.52l0.7-0.72c0.61-0.52,2.15-2.44,2.77-3.28C252.23,233.76,253.02,232.8,253.45,232z"/>
				<path fill="#FFCF06" d="M273.82,243.65c0-0.56-0.35-0.96-0.61-0.96c-0.18,0-0.66,0.12-0.88,0.32c-0.4,0.36-0.35,0.56-0.75,0.84
					c-0.22,0.16-0.57,0.36-0.75,0.56l-0.31,0.56c-0.44,0.36-0.48,0.48-0.48,0.52c0,0.04-0.04,0.2-0.09,0.24
					c-0.18,0.16-0.39,0.2-0.53,0.36c-0.22,0.16-0.31,0.44-0.57,0.64c-0.75,0.8-1.32,1.6-1.97,2.48c-0.48,0.56-0.57,1.16-0.97,1.64
					c-0.09,0.12-0.35,0.24-0.39,0.36c-0.04,0.08-0.04,0.2-0.04,0.32s0,0.2-0.04,0.28c-0.22,0.48-0.26,1.28-0.75,1.44
					c-0.31,0.08-1.4,0.12-1.98,0.24h-0.22c-0.39,0-1.18-0.16-1.18-0.6c0.04-0.16,0.04-0.56,0.09-0.72c0.44-1.72,0.57-1.4,0.92-2
					c0.09-0.2,0-0.52,0.13-0.76c0.4-0.84,0.83-1.96,1.27-2.88c0.13-0.32,0.04-0.64,0.18-0.88c0.31-1.08,1.01-1.8,1.14-2.4
					c-0.04,0-0.09-0.04-0.13-0.04c-0.13,0.04-0.26,0.24-0.75,0.56c-0.18,0.12-0.35,0.6-0.75,0.96c-0.39,0.36-0.66,0.76-0.97,1
					l-0.92,0.76c-0.39,0.4-0.48,0.64-0.79,0.84c-0.13,0.12-0.44,0.12-0.57,0.12c-0.09,0-0.13,0-0.18-0.04
					c-0.09-0.08-0.26-0.28-0.26-0.4c0.04-0.2,0.22-0.44,0.39-0.6c0.18-0.16,0.35-0.24,0.53-0.4c0.22-0.2,0.18-0.28,0.61-0.68
					c0.35-0.32,0.7-0.76,1.01-1.08c1.23-1.28,2.42-2.6,3.42-4c0.53-0.76,1.05-1.08,1.93-1.48c0.22-0.12,0.66-0.24,0.88-0.24
					c0.35,0,0.53,0.2,0.61,0.56c0,0.6-0.4,1.96-0.53,2.2c-0.22,0.52-0.26,1-0.4,1.56c-0.04,0.12-0.22,0.28-0.26,0.4
					c0,0.04,0.04,0.2,0.04,0.36c0,0.08,0,0.12-0.04,0.2c-0.22,0.44-0.22,0.76-0.39,1.2c-0.18,0.52-0.44,1.12-0.44,1.32
					c0,0.04,0,0.12,0.04,0.12c0.13,0,0.18,0,0.53-0.44c0.88-0.96,1.05-1.08,1.93-2.08c0.44-0.52,1.32-1.24,1.84-1.72
					c0.48-0.44,0.75-0.76,1.32-1.12c0.66-0.48,1.62-0.8,2.33-0.8c0.57,0,1.36,0.32,1.8,0.88c0.39,0.56,0.53,1.2,0.53,1.96v0.2
					c-0.04,0.32-0.18,0.44-0.18,0.76c-0.04,0.16-0.13,0.28-0.13,0.48c0,0.08,0,0.16,0.04,0.24c0.04,0.08,0.04,0.2,0.04,0.32
					c0,0.32-0.09,0.76-0.09,1.08c0,0.68-0.18,1.2-0.26,1.56v0.28c0,0.4,0.09,0.92,0.09,1.24c-0.04,0.28-0.04,0.48-0.04,0.64
					c0,0.64,0.13,1,0.53,1.24c0.18,0.12,0.35,0.16,0.61,0.16c0.44,0,0.79-0.24,1.14-0.4c0.4-0.2,1.01-0.72,1.27-0.96
					c0.44-0.4,0.31-0.44,0.75-0.8l0.79-0.56c0.53-0.44,1.89-2.16,2.24-2.24c0.13-0.04,0.22-0.08,0.31-0.08c0.04,0,0.18,0,0.22,0.04
					c0.13,0.08,0.22,0.32,0.22,0.48c0,0.08,0,0.12-0.04,0.2c0,0.36-0.75,1.04-1.01,1.24c-0.13,0.12-0.31,0.16-0.44,0.28
					c-0.09,0.08-0.18,0.32-0.26,0.4c-0.53,0.52-1.1,1-1.36,1.28l-0.57,0.44c-0.61,0.56-0.57,0.64-1.89,1.48
					c-0.31,0.2-0.53,0.24-0.83,0.4c-0.13,0.04-0.31,0.24-0.44,0.28c-0.44,0.2-1.01,0.36-1.54,0.44c-0.53,0-1.67-0.12-1.93-0.28
					c-0.39-0.2-0.79-0.64-0.97-1c-0.04-0.12-0.09-0.2-0.09-0.28c0-0.12,0.04-0.28,0.04-0.44c0-0.08,0-0.16-0.04-0.24
					c-0.04-0.12-0.26-0.32-0.26-0.44c-0.04-0.36-0.04-0.72-0.04-1.04v-1.28c0-0.4,0-0.88,0.04-1.72
					C273.38,245.38,273.82,244.62,273.82,243.65z"/>
				<path fill="#FFCF06" d="M294.37,248.46h0.4c0.26,0,0.53,0,0.83-0.12c0.31-0.08,0.53-0.16,0.79-0.32
					c0.04-0.04,0.48-0.16,0.66-0.28c0.35-0.2,0.66-0.44,0.97-0.68c0.18-0.12,0.35-0.28,0.57-0.28c0.04,0,0.4,0.16,0.4,0.56
					c0,0.24-1.14,0.92-1.36,1.04c-0.18,0.12-0.53,0.4-0.79,0.44c-0.09,0-0.26,0-0.35,0.04c-0.13,0.04-0.18,0.16-0.31,0.2
					c-0.7,0.24-1.32,0.24-1.89,0.24c-0.7,0-1.27-0.12-1.67-0.4c-0.35,0.6-0.39,0.4-0.79,0.88l-0.09,0.12
					c-0.44,0.52-0.79,1.04-1.36,1.44c-0.22,0.12-0.35,0.08-0.53,0.24c-0.13,0.12-0.18,0.44-0.31,0.52c-0.04,0-0.04,0.04-0.18,0.12
					c-0.53,0.4-0.92,0.68-1.45,0.88c-0.66,0.24-1.49,0.36-2.15,0.36c-1.27,0-2.59-0.44-3.16-1.44c-0.4-0.64-0.53-1.56-0.53-2.48
					c0-0.76,0.09-1.52,0.31-2.08c0.22-0.48,0.13-0.96,0.44-1.36c0.09-0.12,0.22-0.2,0.31-0.28c0.26-0.4,0.31-0.96,0.57-1.36
					c0.48-0.68,1.01-1.28,1.62-1.96c0.13-0.16,0.31-0.16,0.44-0.28c0.13-0.16,0.31-0.44,0.44-0.56c0.7-0.64,1.62-1.2,2.5-1.56
					c0.04-0.04,0.13-0.04,0.22-0.04h0.31c0.57,0,1.18-0.28,1.67-0.36c0.22-0.04,0.61-0.04,0.83-0.04c0.83,0,1.62,0.24,2.33,0.84
					c0.4,0.32,0.83,1,0.83,2.08v0.28c0,0.16-0.09,0.24-0.13,0.4c0,0.12,0,0.52-0.04,0.64c-0.09,0.44-0.22,0.84-0.44,1.36
					c0,1.08-0.57,2.12-1.05,2.84C293.49,248.34,293.8,248.46,294.37,248.46z M292.26,241.37c-0.09,0-0.22,0.04-0.31,0.04
					c-1.05,0.16-1.14,0.4-2.02,0.96c-0.48,0.32-0.79,0.76-1.19,1.16c-0.35,0.36-0.79,0.68-1.1,1.12c-0.18,0.28-0.04,0.52-0.57,0.84
					c-0.22,0.12-0.61,0.2-0.75,0.4c0,0.2,0.13,0.44,0.13,0.56c0,0.56-0.66,1.44-0.83,1.96c-0.13,0.36-0.35,0.68-0.44,1.04v0.8
					c0,0.8,0.13,1.12,0.57,1.44c0.31,0.2,0.61,0.2,1.01,0.2c0.66,0,1.14-0.2,1.71-0.6c0.61-0.44,0.83-0.56,1.27-1.04
					c0.61-0.6,1.23-1.28,1.8-2.16c-0.31-0.32-0.7-1.08-0.79-1.4c-0.04-0.24-0.09-0.4-0.09-0.6v-1.04c0-0.48,0.44-0.88,0.92-1.16
					c0.31-0.16,0.66-0.32,0.88-0.32c0.48,0,0.7,0,0.92,0.2l0.04-0.36c0-0.08,0.13-0.24,0.13-0.32c0-0.12-0.13-0.28-0.13-0.36
					c-0.04-0.4,0-0.84-0.31-1.12C292.88,241.37,292.66,241.37,292.26,241.37z"/>
				<path fill="#FFCF06" d="M322.69,239.97v1.28c0,0.32-0.04,0.84-0.22,1.32c-0.26,0.68-0.39,1.72-0.75,2.4
					c-0.09,0.2-0.09,0.4-0.18,0.56c-0.48,0.8-0.79,1.6-1.36,2.32c-0.22,0.28-0.61,0.64-0.83,0.92c-0.09,0.12-0.09,0.28-0.18,0.4
					c-0.09,0.08-0.31,0.12-0.4,0.2l-0.83,1.12c-0.13,0.16-0.48,0.28-0.61,0.4c-0.48,0.52-1.01,0.76-1.62,1.16
					c-0.13,0.08-0.31,0.28-0.48,0.28c-0.22,0-0.31,0.24-0.53,0.32c-0.31,0.12-1.01,0.2-1.54,0.2c-0.39,0-1.23-0.04-1.45-0.2
					c-0.13-0.08-0.39-0.2-0.48-0.32c-0.09,0-0.26-0.04-0.35-0.08c-0.18-0.12-0.61-0.56-0.7-0.72c-0.18-0.28-0.13-0.6-0.18-0.84
					c0-0.32,0.13-0.56,0.13-0.84c0-0.12-0.09-0.28-0.13-0.44c0-0.08-0.04-0.28-0.04-0.44c0.13-0.64,0.35-1,0.35-1.56l-0.04-0.44
					c0-0.16,0.09-0.24,0.13-0.6c-1.32,1.12-1.93,1.8-3.21,2.8c-0.31,0.24-0.57,0.52-0.88,0.8c-0.09,0.04-0.22,0-0.31,0.08
					c-0.22,0.16-0.18,0.32-0.35,0.48c-0.44,0.28-0.79,0.4-1.1,0.76c0,0.32-0.13,0.36-0.35,0.6c-0.18,0.2-0.57,0.2-0.75,0.4
					c-0.13,0.2-0.13,0.44-0.31,0.6c-0.18,0.16-0.48,0.56-0.66,0.68c-0.09,0.04-0.22,0.04-0.26,0.12c-0.09,0.16-0.09,0.2-0.09,0.24
					c0,0.24-0.31,0.4-0.57,0.52c-0.09,0.04-0.26,0.08-0.39,0.08c-0.26,0-0.79-0.08-0.92-0.12c-0.4-0.12-1.05-0.32-1.05-0.68
					c0-0.08,0.04-0.2,0.09-0.32c0.13-0.36,0.13-0.48,0.26-0.8c0.22-0.48,0.53-0.96,0.75-1.48c0.18-0.48,0.26-0.96,0.44-1.44
					c0.35-1.08,0.53-1.04,0.75-1.48c0.35-0.72,0.39-1.48,0.75-2.2c0.53-0.96,1.01-1.88,1.4-2.92c0-0.04-0.09-0.08-0.13-0.08
					c-0.18,0-1.27,1.36-1.45,1.56c-0.92,1-1.45,1.68-1.93,1.96c-0.57,0.32-0.83,0.88-1.27,0.88c-0.26,0-0.53-0.24-0.53-0.44
					c0-0.08,0.04-0.16,0.09-0.24l0.75-0.8c0.22-0.36,0.44-0.24,0.79-0.52c0.35-0.28,0.18-0.56,0.57-0.92
					c0.35-0.32,0.48-0.28,0.92-0.72c0.48-0.48,0.92-1.16,1.49-1.76c0.7-0.72,0.35-0.96,1.27-1.6c0.22-0.16,0.44-0.12,0.7-0.24
					c0.48-0.2,1.01-0.76,1.45-0.76c0.09,0,0.22,0.04,0.31,0.12c0.39,0.28,0.88,0.68,0.88,1.12c0,0.76-0.39,1.68-0.39,2.44v0.2
					c0,0.72-0.35,1.72-0.7,2.32c-0.09,0.2-0.35,0.32-0.44,0.52c-0.57,1.12-0.88,1.96-1.19,3.24c0.09,0.04,0.09,0.16,0.18,0.16
					c0.09,0,0.97-0.72,1.62-1.32c0.53-0.44,1.23-0.8,1.67-1.32c0.31-0.36,0.53-0.72,0.83-1.08c0.22-0.2,0.57-0.36,0.75-0.6
					c0.18-0.2,0.26-0.44,0.44-0.6c0.26-0.28,0.66-0.52,0.92-0.8c0.57-0.6,1.19-2.24,2.11-2.24c0.39,0.04,0.83,0.24,1.01,0.52
					c0.13,0.2,0.26,0.72,0.26,1.24c0,0.28,0,0.48-0.04,0.64c-0.04,0.08-0.13,0.24-0.13,0.44c0,0.08,0,0.16,0.04,0.24
					c0,0.04,0.04,0.12,0.04,0.16c0,0.44-0.39,0.84-0.39,1.16v0.6c0,1-0.44,2.28-0.44,3.32c0,0.6,0.04,0.88,0.31,1.12
					c0.13,0.12,0.26,0.12,0.39,0.12c0.26,0,0.53-0.08,0.75-0.2c0.35-0.2,0.31,0,0.61-0.24c0.04-0.04,0.09-0.2,0.13-0.28
					c0.48-0.36,0.79-0.56,1.18-0.96c0.09-0.04,0.22-0.08,0.31-0.16c0.57-0.64,0.88-1.44,1.45-2.12c0.09-0.08,0.26-0.04,0.31-0.08
					c0.35-0.32,0.44-0.8,0.7-1.2c0.66-0.96,1.1-2.76,1.19-3.24v-0.36c0-0.12,0-0.24,0.04-0.36c0.18-0.84,0.31-1.76,0.31-2.6
					c0-0.56-0.04-0.84-0.22-1.32c-0.13-0.44-0.04-0.8-0.22-1.16l-0.09-0.12c-0.22-0.4-0.35-0.8-0.79-0.96
					c-0.88-0.28-2.24-0.12-2.24-1.08c0-0.04,0.09-0.44,0.18-0.52c0.13-0.12,0.44-0.28,0.66-0.28c0.97,0,1.71,0.36,2.11,0.6
					c0,0.36,0.4,0.32,0.53,0.56c0.31,0.36,0.4,0.8,0.66,1.16c0.09,0.12,0.26,0.24,0.31,0.36c0.13,0.32,0.13,0.84,0.22,1.16
					c0.18,0.56,0.18,1.08,0.22,1.6V239.97z"/>
			</g>
		</g>
	</g>
</g>
<g>
</g>
<g>
</g>
<g>
</g>
<g>
</g>
<g>
</g>
<g>
</g>
<g>
</g>
<g>
</g>
<g>
</g>
<g>
</g>
<g>
</g>
<g>
</g>
<g>
</g>
<g>
</g>
<g>
</g>
</svg>
