<?xml version="1.0" encoding="utf-8"?>
<!-- Generator: Adobe Illustrator 28.6.0, SVG Export Plug-In . SVG Version: 9.03 Build 54939)  -->
<svg version="1.1" id="Layer_1" xmlns="http://www.w3.org/2000/svg" xmlns:xlink="http://www.w3.org/1999/xlink" x="0px" y="0px"
	 viewBox="0 0 500 500" enable-background="new 0 0 500 500" xml:space="preserve">
<g>
	<path fill="#FAE5BC" d="M251.07,486.41c-6.27,0-10.69-5.06-16.3-11.46c-2.58-2.94-5.5-6.28-8.96-9.52l-0.07-0.06l-0.06-0.07
		c-19.02-20.02-56.82-44.92-79.4-59.8c-7.58-4.99-13.57-8.94-16.63-11.24c-1.17-0.89-2.26-1.73-3.28-2.52
		c-1.91-1.47-4.08-3.16-5.83-4.33c0.14,0.66,0.25,1.34,0.32,2.02c0.62,6.11-2.54,8.41-4.48,9.25l-0.84,0.36l-0.91-0.14
		c-9.64-1.5-17.44-2.23-23.85-2.23c-8.13,0-12.7,1.18-17.12,2.33c-1.1,0.29-2.24,0.58-3.41,0.85
		c-10.69,7.54-18.21,11.05-23.65,11.05c-2.58,0-4.37-0.77-5.77-1.53l-0.23-0.12l-0.21-0.16c-6.38-4.92-8.31-12.46-5.59-21.78
		c1.08-3.7,2.69-6.95,3.91-9.11l-23.44-15.95l38.67-23.47l-7.77-9.14l-0.03-1.13c-0.01-0.3-0.67-30.37,0-53.63
		c0.63-21.72,10.74-24.52,16.79-26.19c0.34-0.09,0.67-0.18,0.98-0.28c1.44-53.86,18.1-98.35,49.53-132.27
		c26.93-29.06,57.56-42.31,69.09-47.3l0.19-0.08l0.2-0.06c63.9-18.08,65.95-53.91,65.97-54.27l6.24-0.81
		c11.24,36.84,31.72,42.77,46.67,47.11c1.47,0.43,2.85,0.83,4.19,1.25c32.69,10.03,53.3,24.86,75.93,45.52l0.05,0.05
		c25.99,24.84,43.84,53.44,53.07,84.99c7.45,25.48,7.22,45.84,7.11,55.62c0,0.16,0,0.33-0.01,0.48
		c11.11,5.53,15.94,16.13,16.16,16.61l0.28,0.63l0,0.69c0,0.35-0.23,35.21-0.23,50.62c0,11.2-4.5,19.36-7.61,23.66
		c4.22,2.01,11.79,5.83,22.26,11.95c8.68,4.52,11.85,7.5,11.69,10.96c-0.16,3.49-3.63,4.92-6.16,5.96
		c-0.79,0.32-1.53,0.63-2.08,0.93l-0.16,0.09l-0.17,0.07c-6.53,2.67-10.26,5.07-11.09,7.15c-0.62,1.54,0.24,3.6,1.82,7.12
		c0.91,2.04,1.95,4.35,2.78,7.06l0.1,0.34l0.03,0.35c0.47,6.05-0.59,10.38-3.23,13.24c-2.05,2.21-4.87,3.33-8.39,3.33
		c-3.4,0-7.48-1.07-12.14-3.19l-0.43-0.19l-0.35-0.31c-7.6-6.65-21.33-10.62-36.71-10.62c-4.55,0-9.02,0.38-12.62,1.06
		c-3.18,1.37-5.73,2.03-7.81,2.03c-3.23,0-4.72-1.64-5.32-2.62c-1.13-1.84-1.06-4.33,0.2-6.84c0.63-1.24,0.8-2.41,0.63-3.92
		c-34.17,18.61-81.21,60.04-106.9,82.65c-3.36,2.96-6.28,5.53-8.8,7.72C261.37,482.94,256.17,486.41,251.07,486.41z"/>
	<path fill="#2D0A06" d="M252.06,14.18c0,0-1.41,38.3-68.29,57.23C155.64,83.57,69.43,123.72,67.02,250.32
		c-5.33,2.51-17.05,0.84-17.72,24.3s0,53.47,0,53.47l9.46,11.13l-37.63,22.84l21.85,14.87c0,0-13.52,19.38-0.68,29.29
		c2.93,1.58,7.89,3.6,26.59-9.69c9.24-2.03,15.77-5.86,46.19-1.13c4.73-2.03,1.8-9.86,0.9-12.25c2.25-2.62,6.98,1.71,15.55,8.22
		c11.94,8.99,70.74,44.36,96.43,71.4c16.23,15.21,19.83,31.09,37.63,9.8c22.53-19.6,81-72.95,120.2-92.91
		c1.01,3.69,1.69,6.78,0,10.14c-1.69,3.35-0.68,7.23,9.12,2.93c13.18-2.62,38.87-1.6,52.38,10.23c7.44,3.38,20.62,7.26,19.26-10.23
		c-3.72-12.08-12.24-16.81,8.34-25.22c4.36-2.4,13.97-3.2-3.45-12.26c-16.52-9.67-25.83-13.57-25.83-13.57s9.54-9.24,9.54-24.84
		s0.23-50.64,0.23-50.64s-4.96-11.11-16.45-15.86c0-15.11,4-80.45-59.17-140.83c-21.71-19.83-41.68-34.7-74.73-44.84
		C289.89,59.92,264.92,56.31,252.06,14.18z"/>
	<path fill="#2D6C4D" d="M81.22,239.17h342.46c0,0,13.82-141.49-171.08-174.84c0,0-1.73-6.31-5.11,0
		C232.4,68.84,86.85,89.68,81.22,239.17z"/>
	<path fill="#2D0A06" d="M134.26,126.64l20.77-16.01c0.06-0.05,0.13-0.08,0.21-0.09c1.93-0.36,27.83-4.42,40.41,31.49
		c0.02,0.05,0.04,0.1,0.07,0.14c2.64,3.46,6.12,2.63,8.37-4.55c0.08-0.25,0.34-0.39,0.59-0.32c1.24,0.35,4.59,0.67,3.19-6.75
		c-0.02-0.11-0.01-0.22,0.04-0.31c3.09-5.96,18.32-23.16,31.23-33.68c0.15-0.12,0.21-0.31,0.16-0.49
		c-1.93-7.67-0.95-19.54,12.39-20.21c7.44,0,17.39,6.67,10.04,20.21c-0.12,0.22-0.06,0.48,0.14,0.63
		c7.25,5.21,20.26,14.68,24.54,28.76c0.04,0.12,0.13,0.23,0.24,0.29c4.26,2.2,5.7,3.33,5.49,6.82c-0.01,0.09-0.5,2.96-0.45,3.04
		c1.61,2.81,5.7,4.07,7.6,6.93c0.25,0.38,0.83,0.22,0.88-0.23c1.36-13.48,3.8-30.24,21.88-32.3c0.02,0,0.03,0,0.05,0
		c10.41-0.32,33.43-0.62,32.15,29.26c-0.23,5.31-1.26,10.55-4.11,15.04c-8.82,13.89-29.04,42.5-29.84,43.64
		c-0.02,0.02-0.04,0.05-0.06,0.07l-22.5,22.05l-12.49,13.38c-0.08,0.09-0.13,0.21-0.13,0.33V243c0,0.27-0.22,0.48-0.48,0.48H222.7
		c-0.14,0-0.26-0.06-0.36-0.16c-1.85-2.02-21.05-23.11-25.77-28.68c-5.4-6.52-4.51-8.56-14.6-13.27c-0.03-0.01-0.06-0.03-0.09-0.05
		c-5.65-4.28-16.87-11.3-20.24-40.52c-1.56-11.6,2.4-24.96-27.23-33.31C134.04,127.38,133.94,126.88,134.26,126.64z"/>
	<g>
		<path fill="#2D0A06" d="M179.58,222.46c0.45-8.11-4.28-10.36-9.24-11.04c-7.44,0-7.66,7.66-10.14,12.17
			c-5.86-18.48-13.74-12.84-19.6-8.11c-5.86,4.73-6.07-3.15-6.07-3.15l1.12-8.11c0,0,0,0,1.72,1.58c17.04,0.45,17.43-2.7,21.04-6.08
			c9.01-6.31,3.49-10.81,3.49-10.81s-11.98-3.25-23.8,6.96c-2.58-0.51,0.9-11.08,3.08-15.52c2.46,2.83,5.69,4.6,9.43,4.9
			c0.03-0.24,0.06-0.49,0.07-0.74c0.19-3.22-1.29-6.28-3.26-8.74c0.19-0.16,0.31-0.36,0.36-0.59c3.35,0.62,6.65-0.1,9.69-1.67
			c-0.03-0.05-0.06-0.11-0.09-0.16c-1.9-3.07-5.33-5.2-8.77-6.05c4.03-2.07,6.56-4.32,8.31-8.57c-3.4-1.23-7.06-0.59-10.33,0.67
			c2.11-3.66,2.84-6.91,2.24-11.12c-3.88,1.26-6.93,3.72-9.11,7.14c0.08-2.9-0.45-5.71-1.81-8.28c-0.53-1.01-1.37-2.52-2.52-2.88
			l-0.21,0.21c-2.75,3.14-3.89,6.85-3.89,10.99l-0.07-0.1c-2.02-2.77-5.31-4.46-8.66-4.98c-0.01,0.08-0.02,0.16-0.02,0.24
			c-0.31,3.6,1.09,7.45,3.4,10.19c-0.66-0.19-1.33-0.39-2.01-0.54c-3.07-0.66-6.28-0.26-8.94,1.47c0.22,0.39,0.46,0.76,0.71,1.13
			c1.77,2.55,4.26,4.56,7.36,5.12c-0.39,0.14-0.78,0.28-1.17,0.44c-3.28,1.3-5.76,3.61-7.15,6.86c3.71,1.48,7.76,1.3,11.48-0.06
			c-2.43,3.21-3.36,7.13-2.81,11.08c2.02-0.49,7.36-3.14,8.94-4.17c3.57,3.45,2.65,11.27,2.5,13.73c-16.56-9.33-20.8-5.27-23.6-3.58
			c-1.44,22.31,23.31,23.99,23.31,23.99v14.53c0,0-8.35-3.72-19.16-3.38c-10.81,0.34,2.95,12.41,2.95,12.41h64.19
			c0,0,8.79-7.45,14.11-14.43C199.91,218.62,190.17,219.75,179.58,222.46z"/>
		<path fill="#FD2D79" d="M135.56,150.07c0.88,0.27,1.51,1.43,1.92,2.2c1.04,1.96,1.44,4.11,1.38,6.32
			c1.66-2.61,3.99-4.49,6.94-5.45c0.46,3.21-0.1,5.69-1.71,8.48c2.5-0.96,5.29-1.45,7.88-0.51c-1.34,3.24-3.26,4.95-6.34,6.53
			c2.62,0.65,5.24,2.27,6.69,4.61c0.03,0.04,0.05,0.08,0.07,0.12c-2.56,1.32-5.37,1.86-8.19,1.09c1.77,1.98,3.18,4.56,3.02,7.3
			c-0.01,0.19-0.03,0.37-0.06,0.56c-2.88-0.23-5.36-1.6-7.25-3.8c-0.12-0.14-0.24-0.29-0.35-0.43c0.23,3.1-0.71,5.76-2.61,8.2
			c-2.06-2.14-3.38-4.74-3.33-7.76c0-0.09,0-0.18,0.01-0.28c-1.73,2.72-4.14,4.13-7.22,4.87c-0.42-3.01,0.29-6,2.15-8.45
			c-2.84,1.04-5.93,1.18-8.75,0.05c1.06-2.48,2.95-4.24,5.45-5.23c0.29-0.12,0.59-0.23,0.89-0.33c-2.37-0.43-4.27-1.96-5.62-3.91
			c-0.19-0.28-0.38-0.56-0.55-0.86c2.03-1.32,4.48-1.62,6.82-1.12c0.52,0.11,1.02,0.26,1.53,0.41c-1.76-2.09-2.83-5.02-2.59-7.77
			c0.01-0.06,0.01-0.12,0.02-0.18c2.55,0.4,5.06,1.69,6.61,3.8l0.06,0.08c0-3.15,0.87-5.99,2.97-8.38L135.56,150.07z"/>
		<circle fill="#2D0A06" cx="136.1" cy="167.68" r="4.15"/>
	</g>
	<path fill="#2D6C4D" d="M74.46,250.32h356.43c0,0-0.56,10.14,8.22,13.86c3.72,3.72,5.41-5.41,5.41,60.83
		c-4.06,8.11-9.46,15.55-9.46,15.55h-11.14l-30.42,24.33h-23.66c0,0-24.82,6.76-117.23,86.52c-16.26-12.62-52.28-53.62-118.53-87.42
		c-14.89,0-19.39,0-19.39,0s-12.39-5.41-33.46-23.43c-7.1-1.35-12.5,0.45-15.55-8.67c-4.39-4.39-6.08-5.41-6.08-5.41v-56.44
		C59.59,270.03,72.09,260.68,74.46,250.32z"/>
	<path fill="#F6EAB9" d="M251.4,388.44c0,0-0.6,26.89-24.63,28.69c0.6,1.65-5.71,2.55,7.66,2.4c2.85,0.9,14.57,6.31,15.92,21.48
		c1.2,1.65,2.1,3.3,4.06-5.41c2.56-5.68,3.08-14.34,22.38-16.45c0.79-0.09,0.75-1.31-0.03-1.49c-3-0.7-7.79-0.74-10.78-2.28
		C262.06,413.37,251.25,404.51,251.4,388.44z"/>
	<g>
		
			<line fill="none" stroke="#FAE5BC" stroke-width="0.9575" stroke-miterlimit="10" x1="183.77" y1="379.65" x2="201.16" y2="379.65"/>
		
			<line fill="none" stroke="#FAE5BC" stroke-width="0.9575" stroke-miterlimit="10" x1="193.42" y1="374.69" x2="193.42" y2="391.37"/>
		
			<line fill="none" stroke="#FAE5BC" stroke-width="0.9575" stroke-miterlimit="10" x1="222.39" y1="374.69" x2="222.39" y2="392.72"/>
		
			<line fill="none" stroke="#FAE5BC" stroke-width="0.9575" stroke-miterlimit="10" x1="230.6" y1="378.52" x2="212.57" y2="378.52"/>
		
			<line fill="none" stroke="#FAE5BC" stroke-width="0.9575" stroke-miterlimit="10" x1="206.71" y1="389.79" x2="206.71" y2="408.04"/>
		
			<line fill="none" stroke="#FAE5BC" stroke-width="0.9575" stroke-miterlimit="10" x1="216.18" y1="398.91" x2="196.16" y2="398.91"/>
		
			<line fill="none" stroke="#FAE5BC" stroke-width="0.9575" stroke-miterlimit="10" x1="283.09" y1="373.57" x2="283.09" y2="392.72"/>
		
			<line fill="none" stroke="#FAE5BC" stroke-width="0.9575" stroke-miterlimit="10" x1="291.65" y1="379.65" x2="272.73" y2="379.65"/>
		
			<line fill="none" stroke="#FAE5BC" stroke-width="0.9575" stroke-miterlimit="10" x1="311.25" y1="374.69" x2="311.25" y2="391.37"/>
		
			<line fill="none" stroke="#FAE5BC" stroke-width="0.9575" stroke-miterlimit="10" x1="303.82" y1="379.65" x2="320.79" y2="379.65"/>
		
			<line fill="none" stroke="#FAE5BC" stroke-width="0.9575" stroke-miterlimit="10" x1="296.7" y1="389.79" x2="296.7" y2="408.04"/>
		
			<line fill="none" stroke="#FAE5BC" stroke-width="0.9575" stroke-miterlimit="10" x1="286.7" y1="398.91" x2="307.65" y2="398.91"/>
	</g>
	<path fill="#257155" d="M133.31,203.25c0,0,2.4-13.22-19.68-10.81c-0.6,2.85,1.5,17.27,16.22,19.68c2.4-2.55,0.3-5.55-4.06-9.98
		c-4.36-4.44-2.85-4.89,1.8-1.13C130.75,204.3,131.8,204,133.31,203.25z"/>
	<path fill="#257155" d="M137.36,199.65c0,0,3.6-10.96,20.73-9.16c1.05,0.9,3.91,3-6.46,10.66
		C148.33,201.6,136.37,201.6,137.36,199.65z"/>
	<path fill="#257155" d="M121.11,238.78c0,0-10.51-8.34-7.57-9.54c2.94-1.2,18.79-0.38,23.01,9.54
		C132.95,238.78,121.11,238.78,121.11,238.78z"/>
	<path fill="#257155" d="M140.66,236.56c0,0-5.69-12.02-1.18-16.67c4.51-4.66,13.67-7.36,15.02,1.2c1.8,6.61,7.73,10.21-8.38,14.57
		C142.94,236.56,140.66,236.56,140.66,236.56z"/>
	<path fill="#257155" d="M168.02,231.9c0,0,1.13-4.51,0-6.98s-4.73-6.87,2.7-9.4C173.43,215.46,179.96,225.82,168.02,231.9z"/>
	<path fill="#257155" d="M166.15,239.17l12.81-11.24c2.02-1.77,4.38-3.1,6.95-3.88c5.42-1.65,13.32-3.52,3.51,3.12
		c-6.78,4.59-11.1,11.99-11.1,11.99H166.15z"/>
	<path fill="#2D0A06" d="M326.84,199.17h64.97c0.37,0,0.74,0.05,1.1,0.15c2.53,0.7,11.91,4.08,8.01,15.32
		c-0.04,0.1-0.08,0.21-0.12,0.31c-0.39,0.9-0.7,1.67-0.94,2.34c-0.6,1.63,1.14,2.78,1.3,4.51c0.7,7.49-1.51,9.28-17.04,15.53
		c-1.34,0.54-5.93,1.85-11.35,2.25h-45.03c-1.02,0-1.96-0.78-2.72-1.46c-2.07-1.86-16.5-5.88-18.79-9.75
		c-1.58-2.67,0.32-6.07,3.42-6.18c3.49-0.12,6.74-0.06,9.18,0.03c2.38,0.09,4.33-1.85,4.27-4.23l-0.38-14.59
		C322.66,201.08,324.52,199.17,326.84,199.17z"/>
	<path fill="#2D0A06" d="M207.24,87.75c0,0,0.57,7.24-7.57,7.75c-0.09,0.01-0.11,0.14-0.02,0.17c1.82,0.59,8.23,3.37,7.58,9.07
		c0,0-0.1-8.58,6.82-9.1c0.09-0.01,0.11-0.13,0.03-0.16C212.57,94.87,207.24,92.7,207.24,87.75z"/>
	<path fill="#FAE5BC" d="M334.67,185.35c0,0,0.16,2-2.09,2.14c-0.03,0-0.03,0.04-0.01,0.05c0.5,0.16,2.27,0.93,2.09,2.5
		c0,0-0.03-2.37,1.88-2.51c0.02,0,0.03-0.04,0.01-0.05C336.14,187.32,334.67,186.72,334.67,185.35z"/>
	<path fill="#2D0A06" d="M295.19,87.75c0,0,0.57,7.24-7.57,7.75c-0.09,0.01-0.11,0.14-0.02,0.17c1.82,0.59,8.23,3.37,7.58,9.07
		c0,0-0.1-8.58,6.82-9.1c0.09-0.01,0.11-0.13,0.03-0.16C300.52,94.87,295.19,92.7,295.19,87.75z"/>
	<path fill="#F83501" d="M311.7,225.62c0,0,15.45,6.01,43.92,4.96c16.16,0,27.51,0.18,35.83-4.96c3-0.6,10.36,0.9,0,5.71
		s-18.32,7.84-36.5,7.84c-6.76,0-26.74-2.73-36.5-7.84C311.85,227.72,307.73,224.39,311.7,225.62z"/>
	<path fill="#F83501" d="M327.39,202.94c0,0,2.7,19.53,8.11,22.42c4.51,2.21,20.05,1.99,26.81,1.99c6.76,0,6.76,0,6.76,0
		s4.73,0.45,6.53-2.85c3.49-5.32,8.6-16.81,5.6-21.33C372.49,203.16,327.39,202.94,327.39,202.94z"/>
	<path fill="#2D0A06" d="M103.46,239.49c0,0-12.48-19.72-12.71-25.81c1.58-1.58,1.58,1.58,4.96,7.89s14.64,16.77,11.27,5.79
		s-6.98-20.76-9.24-24.43s-3.83-11.72-2.03-12.65c0.9,1.77,4.73,19.32,6.31,11.11c0-8.88,2.1-19.25,2.1-19.25s2.25-9.46,12.47-15.02
		c0.9,1.2,0.82,1.2-3.57,7.21c-4.69,6.01-8.45,7.02-9.12,24.33c-0.08,9.01-1.65,12.21,2.06,13.45c4.28,1.01,9.35,1.01,26.7,7.54
		c0.45,1.92,2.59,4.62-2.03,2.37c-4.62-2.25-15.77-7.89-22.42-7.89c-2.82,1.35-1.92,7.58,0.9,11.9l1.58,4.96l7.45,8.5H103.46z"/>
	<path fill="#F83501" d="M338.31,114.39c0.3,0.11,4.96,2.03,7.91,5.03c4.61,4.7,10.11,18.76-1.1,34.92
		c-6.18,10.13-17.65,27.44-24.25,37.32c-3.31,4.96-7.23,9.47-11.68,13.45l-24.7,22.08c-0.13,0.12-0.25,0.25-0.35,0.39l-2.84,4.11
		c-0.26,0.37-0.39,0.81-0.39,1.26v5.82c0,1.22-0.99,2.22-2.22,2.22h-52.5c-1.22,0-2.22-0.99-2.22-2.22v-2.76
		c0-1.22-0.99-2.22-2.22-2.22h0c-1.22,0-2.22-0.99-2.22-2.22v-2c0-1.22-0.99-2.22-2.22-2.22h-0.35c-0.74,0-1.43-0.37-1.84-0.99
		c-2.7-4.07-12.92-19.45-14.74-21.93c-2.1-2.85-19.21-5.11-25.45-20.43c-8.36-21.4-2.54-49.7-24.9-57.42
		c-1.6-0.55-2.03-2.62-0.76-3.75l8.62-7.66c0.36-0.32,0.8-0.51,1.28-0.55c3.56-0.29,18.82,0.48,33.78,31.65
		c0.09,0.19,0.21,0.38,0.36,0.54c2.73,2.98,6.23,6.31,11.94,4.67c0.94-0.27,1.58-1.14,1.58-2.12v-4.93c0-1.22,0.99-2.22,2.22-2.22
		h82.22c1.04,0,1.94,0.72,2.16,1.74l0.96,4.31c0.23,1.01,1.12,1.74,2.16,1.74h5.45c1.17,0,2.13-0.9,2.21-2.06
		c0.41-6.21-0.49-23.6,6.58-29.78C310.82,118.17,319.61,107.63,338.31,114.39z"/>
	<path fill="#F83501" d="M217.3,139.3v-6.16h-2.1v-2.85h3.15c0,0,7.21-17.05,24.78-31.47c1.13-1.58,1.02-4.51,1.02-4.51
		s-4.49-12.84,7.15-14.87c6.4,0,13.23,4.28,8.27,14.87v5.18c0,0,17.12,7.89,23.43,26.59c2.66,2.12,7.4,2.07,7.23,5.41
		c-0.1,2.04-1.93,3.57-3.97,3.45l-1.23-0.07v4.43H217.3z"/>
	<path fill="#F1EECF" d="M157.31,118.95c2.09,0,9.53-4.73,19.44,8.11c9.24,13.07,13.29,29.51,27.04,29.06
		c-0.45,2.93-8.09,9.69-6.98,19.83c4.72-5.86,17.08-18.47,17.32-18.7c-0.44,0.68-13.88,15.27-7.27,34.9
		c5.26,12.42,12.24,19.97,12.24,19.97s-2.93-40.67,20.73-53.51c1.13-2.03,32.22-2.03,32.22-2.03v-4.28l-69.62-0.37
		c0,0-8.33,1.13-14.42-14.91c-5.07-7.51-12.66-21.41-29.59-22.27l-12.17,10.81c0,0,16.15-0.07,20.9,22.12
		c3.43,18.82,2.77,45.06,25.45,52.8c3.3-0.66,4.21-2.62,4.21-2.62s-18.9-8.7-23.55-31.98s-3.85-33.04-19.5-41.01
		C155.68,121.13,157.31,118.95,157.31,118.95z"/>
	<path fill="#F1EECF" d="M204.12,202.37c0.79,0.16,11.19,19.62,16.4,22.56c-1.89,1.06-3.29,5.57-11.1-6.71
		c-7.66-12.05-9.19-14.09-9.19-14.09S199.37,201.41,204.12,202.37z"/>
	<path fill="#2D0A06" d="M309.17,189.83v-25.57l2.86-6.24c0.38-0.83,0.58-1.73,0.58-2.64v-25.79c0-1.9,0.74-3.74,2.09-5.09
		c2.93-2.93,9.11-7.07,19.69-5.15c7.74,3.15,16.62,11.46,9.03,27.79C330.66,164.9,309.17,189.83,309.17,189.83z"/>
	<path fill="#2D6C4D" d="M316.34,156.36v-25.51c0-1.05,0.37-2.06,1.07-2.85c1.91-2.14,6.52-5.84,14.84-4.5
		c0.33,0.05,0.66,0.15,0.97,0.28c5.65,2.49,11.76,8.63,6.51,20.35c-0.12,0.26-0.26,0.51-0.43,0.75
		c-4.86,6.75-10.7,14.17-15.28,19.85c-2.56,3.18-7.7,1.36-7.69-2.72L316.34,156.36z"/>
	<path fill="#2D0A06" d="M403.89,180.79c0,0-2.1-27.26-33.65-52.05c0.23-5.41-7.44-17.12-41.01-29.51c-3.6,0.9-6.98,3.83,6.98,7.66
		c13.07,5.86,22.31,13.29,26.59,18.02c4.28,4.73,6.38,5.63,6.38,5.63S393.83,151.5,403.89,180.79z"/>
	<path fill="#F1EECF" d="M341.99,219.36l-3.29-12.89c-0.16-0.64,0.32-1.26,0.98-1.26h35.3c0.22,0,0.43-0.07,0.61-0.2l0,0
		c0.78-0.59,0.36-1.82-0.61-1.82l-44.19-0.24c-0.87,0-1.68,0-3.4,0c1.8,4.35,9.58,17.66,12.33,19.34c2.98,1.75,2.36-2.38,2.28-2.84
		C342.01,219.41,342,219.39,341.99,219.36z"/>
	<path fill="#F83501" d="M381.34,209.64c0,0,9.62-3.06,11.74-0.35s1.68,13.67-15.37,11.2l-2.09,4.01c0,0,8.52,0.04,14.47-1.4
		c3.08-0.75,5.44-3.25,6.49-6.42c2.48-7.5,0.88-16.8-15.03-10.96C381.53,205.72,381.77,207.55,381.34,209.64z"/>
	<path fill="#2D0A06" d="M275.01,162.06c0,0,23.44,37.63-11.3,58.8c-1.62,2.7,13.25,5.03,21.36-5.71
		c8.11-10.74,23.63-35.11,5.17-55.48C277.42,158,276.43,157.78,275.01,162.06z"/>
	<path fill="#2D0A06" d="M296.57,156.87c0,0,24.31,30.19-6.32,62.3c-3.59,3.49-2.83,5.96-2.83,5.96l25.49-23.15l0.1-23.94
		l-0.1-21.17H296.57z"/>
	<path fill="#F1EECF" d="M256.42,107.46l-16.23,0.71c0,0-5.5,5.37-12.11,16.63c18.63,0,37.1,0,37.1,0v2.93h-39.2v3.87l-10.78,0.33
		v-1.64h3.15c0,0,8.08-17.27,19.4-26.68c5.46-0.17,17.51,0,17.51,0S260.39,104.94,256.42,107.46z"/>
	<path fill="#2D0A06" d="M265.68,182.37c-0.89,0-1.75,0.11-2.58,0.32c0.02-0.29,0.04-0.58,0.04-0.87c0-5.85-4.74-10.58-10.58-10.58
		s-10.58,4.74-10.58,10.58c0,0.4,0.02,0.79,0.07,1.18c-1.13-0.41-2.34-0.63-3.61-0.63c-5.85,0-10.58,4.74-10.58,10.58
		c0,5.85,4.74,10.58,10.58,10.58c1.25,0,2.45-0.22,3.56-0.62c-0.01,0.2-0.02,0.41-0.02,0.62c0,5.85,4.74,10.58,10.58,10.58
		s10.58-4.74,10.58-10.58c0-0.1,0-0.21-0.01-0.31c0.82,0.2,1.67,0.31,2.55,0.31c5.85,0,10.58-4.74,10.58-10.58
		C276.27,187.11,271.53,182.37,265.68,182.37z"/>
	<circle fill="#F83501" cx="252.31" cy="181.2" r="6.49"/>
	<circle fill="#F83501" cx="265.04" cy="192.03" r="6.49"/>
	<circle fill="#F83501" cx="252.06" cy="204.42" r="6.49"/>
	<circle fill="#F83501" cx="239.07" cy="192.68" r="6.49"/>
	<path fill="#F1EECF" d="M358.7,214.09c-0.17,0-0.34,0.02-0.5,0.06c0-0.06,0.01-0.11,0.01-0.17c0-1.13-0.92-2.05-2.05-2.05
		c-1.13,0-2.05,0.92-2.05,2.05c0,0.08,0,0.15,0.01,0.23c-0.22-0.08-0.45-0.12-0.7-0.12c-1.13,0-2.05,0.92-2.05,2.05
		c0,1.13,0.92,2.05,2.05,2.05c0.24,0,0.47-0.04,0.69-0.12c0,0.04,0,0.08,0,0.12c0,1.13,0.92,2.05,2.05,2.05
		c1.13,0,2.05-0.92,2.05-2.05c0-0.02,0-0.04,0-0.06c0.16,0.04,0.32,0.06,0.49,0.06c1.13,0,2.05-0.92,2.05-2.05
		C360.75,215.01,359.83,214.09,358.7,214.09z"/>
	<circle fill="#F83501" cx="356.1" cy="213.86" r="1.26"/>
	<circle fill="#F83501" cx="358.57" cy="215.96" r="1.26"/>
	<circle fill="#F83501" cx="356.05" cy="218.37" r="1.26"/>
	<circle fill="#F83501" cx="353.53" cy="216.09" r="1.26"/>
	<polygon fill="#2D0A06" points="382.01,204.93 381.86,209.74 382.88,209.58 382.65,204.53 	"/>
	<polygon fill="#2D0A06" points="378.76,218.75 375.48,224.72 377.49,224.72 380.58,218.83 	"/>
	<path fill="#FAE5BC" d="M77.68,250.32c0,0-5.71,19.37-15.62,21.02v57.11l-2.23-2.23v-56.19c0,0,14.1-11.75,14.62-19.71H77.68z"/>
	<rect x="242.15" y="95.87" fill="#2D0A06" width="18.25" height="2.4"/>
	<rect x="217.22" y="227.61" fill="#2D0A06" width="67.5" height="2.4"/>
	<rect x="218.72" y="233.4" fill="#2D0A06" width="65.99" height="2.4"/>
	<path fill="#F83501" d="M219,65.4c0,0,28.37-14.87,33.33-30.42c2.49,6.31,22.99,29.29,33.81,30.42c-9.91,0-24.58-4.06-33.81-13.07
		C234.99,62.93,219,65.4,219,65.4z"/>
	<path fill="#F1EECF" d="M250.62,38.86l1.94,3.31l-1.94-0.68c0,0-3.83,4.7-12.18,10.92C238.44,52.42,247.98,42.69,250.62,38.86z"/>
	<path fill="#2D0A06" d="M136.31,128.81c0.92-0.24-24.11,15.55-31.54,46.64c-0.68-1.35,0.26-11.49,5.33-20.62
		C115.28,145.59,126.02,131.51,136.31,128.81z"/>
	<circle fill="#FAE5BC" cx="285.64" cy="80.45" r="2.87"/>
	<circle fill="#FAE5BC" cx="202.37" cy="119.07" r="2.55"/>
	<circle fill="#FAE5BC" cx="185.32" cy="207.84" r="1.28"/>
	<circle fill="#2D0A06" cx="184.42" cy="164.87" r="3.34"/>
	<circle fill="#2D0A06" cx="185.87" cy="182.11" r="2.42"/>
	<circle fill="#FAE5BC" cx="210.8" cy="89.98" r="1.03"/>
	<path fill="#FAE5BC" d="M337.78,176.53c0,0,8.45,0.11,8.34,5.07c-0.11,4.96-3.49,9.91,1.24,11.94c4.73,2.03,2.48-1.01,3.27-3.27
		c0.79-2.25,2.82-0.34,2.82,4.39c0,4.73-2.48,4.17-2.48,4.17l-2.03-2.82c0,0-8.22-2.59-6.87-9.46c1.35-6.87,0.34-5.75-2.37-7.1
		C336.99,178.11,335.3,177.21,337.78,176.53z"/>
	<path fill="#F1EECF" d="M122.56,193.27c0,0,9.61,0.53,9.76,7.59C132.32,200.86,129.62,195.15,122.56,193.27z"/>
	<path fill="#F1EECF" d="M149.9,191.32c0,0,8.04-1.65,8.64,0.83C158.53,192.15,155.53,190.95,149.9,191.32z"/>
	<g opacity="0.4">
		<path d="M99.21,281.89v53.4c0,0,0,6.53-4.51,8.56c1.58,1.8,11.49,2.48,18.7-9.01c0-11.94,0-57,0-57s50.69,0.23,51.59-15.32
			c-0.9-3.15-0.68-7.21-21.63,0c0,0-25.91,3.57-45.44,5.07c-8.56,1.5-28.39,8.26-16.22,19.68c2.7,1.35,5.71-1.95,13.07-5.56
			C97.33,279.75,99.21,281.89,99.21,281.89z"/>
		<path d="M124.48,304.04c0,0,4.51-10.06,11.72-9.99c4.28,1.43,4.96,0.08,4.28,7.62c-2.48,1.01-25.23,3.49-23.88,20.39
			c1.8,5.86,8.97,16.45,21.04,3.6c0.13-2.25-0.09-4.73-6.17-1.8c-4.28-1.13-11.49-8.11,9.24-12.62c0,4.28,0,12.39,0,12.39l8.64,8.11
			h2.4v-39.43c0,0-1.86-7.89-17.6-7.89c-4.93,0.45-16.73,7.56-15.52,17.24C119.97,304.49,120.88,305.62,124.48,304.04z"/>
		<path d="M182.57,284.44v33.5h-14.64v19.15c0,0-4.43,11.49-16.18,11.04c-4.32-1.8-3.64-2.03-4.77-5.63
			c-0.23,0.23-6.76,0.23-2.7,7.21c1.58,1.8,12.39,6.65,45.17-6.87c13.86-3.38,58.8-14.53,73.34-3.04
			c-0.34,1.35-22.31-2.35-48.67,5.08c-26.36,7.43-56.78,22.97-72.32,11.65c-5.07-5.24-9.01-16.62,1.58-20.9
			c4.73-0.68,14.53,2.25,14.53,2.25v-48.22l-6.25-5.13L182.57,284.44z"/>
		<path d="M187.34,284.44h19.23c0,0,11.57,1.31,11.57,13.93c0,5.11-6.31,11.72-14.12,13.82c3.3,3.6,18.1,21.52,18.1,21.52h-13.07
			l-15.32-20.73v22.83h-6.38V284.44z"/>
		<polygon points="218.85,285.3 233.08,285.3 233.08,331.11 230.38,332.54 222.63,324.79 222.63,289.85 		"/>
		<polygon points="261.22,307.38 269.16,307.38 269.16,332.94 267.66,333.74 263.33,329.41 263.33,309.92 		"/>
		<circle cx="227.56" cy="273.66" r="6.61"/>
		<path d="M249.37,294.35v16.37l5.95-5.95c0,0,5.01,0.39,3.51,4.15c-3.76,3-6.16,6.31-6.16,6.31s-3.76,0.3,7.81,12.47
			c0.9,1.05,1.65,5.11-2.1,3.91c-3.6-4.36-9.01-10.66-9.01-10.66v10.88h-6.01v-37.47H249.37z"/>
		<circle cx="266.27" cy="301.9" r="3.49"/>
		<circle cx="419.1" cy="278.92" r="7.09"/>
		<path d="M250.35,280.27c0,0,1.8,5.48,42.58-1.73c35.6-6.08,41.68-7.89,43.71-11.49c0.9-2.03,4.28-3.83,6.76,5.18
			c-1.58,3.15,5.18,12.39-48.67,16.22c0,29.74,0,63.09,0,63.09l-12.39,10.59c0,0-10.14,3.38-2.03-4.51c0-27.04,0-66.46,0-66.46
			S251.03,301.83,250.35,280.27z"/>
		<path d="M261.22,279.22c0,0,24.84-29.74,63.14-10.36c-3.15-0.23-37.1-4.77-58.09,10.36C263.08,280.12,260.29,280.24,261.22,279.22
			z"/>
		<path d="M325.23,311.36v10.51c0,0-25.83,1.95-24.93,19.38c0.75,2.25,1.2,12.32,13.82,10.06c2.85-0.45,11.57-6.61,8.71-10.21
			c-3.15,1.95-16.37,2.55-11.42-3.6c5.63-5.63,15.4-7.59,15.4-7.59v9.8l10.1,9.12v-44.12c0,0-24.07-8.94-32.41,8.37
			c-1.35,4.25-3.38,12.28,1.73,11.53c2.4-0.45,6.31-10.66,10.96-12.47C321.85,310.95,325.23,311.36,325.23,311.36z"/>
		<path d="M372.77,282.94c0,0-1.04-7.44-14.94-7.44c-2.86,0.9-11.87,5.26-12.1,18.85s0,48.52,0,48.52s-1.35,17.35-14.87,5.18
			c-1.35,0.45-3.83,5.79,8.11,12.47c3.6,1.28,14.64-0.08,17.8-14.95c0-15.1,0-56.1,0-56.1s3.6-9.69,12.17-2.48
			C370.74,287.22,372.77,282.94,372.77,282.94z"/>
		<path d="M407.46,290.6c0,0-3.15-14.42-20.05-15.1c-10.36,0-21.4,8.79-21.4,19.83c0,11.04,0,54.75,0,54.75s-2.7,6.98-6.53,9.01
			c-1.13,1.35,0.9,3.42,10.81-2.57c6.98-5.09,9.01-9.14,9.01-9.14v-53.02c0,0,5.18-9.61,14.87-9.05
			C400.93,287.22,403.63,293.08,407.46,290.6z"/>
		<path d="M381.69,296.8c0,0,3.15,4.5,2.93,10.59c-0.23,6.09,0,32.45,0,32.45l11.27-6.09v-24.82c0,0,1.58-9.2,8.34-4.69
			c1.58,1.58,7.66-0.6,6.53-5.82c-0.9-2.51-6.29-7.38-16.22,0c-0.68,0.42-3.15-2.06-3.15-2.06L381.69,296.8z"/>
		<polygon points="410.89,290.75 427.49,290.75 427.49,293.6 425.55,293.6 425.55,331.61 413.98,331.61 413.98,294.5 		"/>
		<path d="M234.17,349.03c0,0,36.16,36.37,77.05,7.49c-3.27,2.65-18.52,14.37-18.52,14.37s17.58-4.06,23.17-9.01
			c-9.73,8.34-22.12,18.7-49.6,12.84C258.61,372.92,221.44,349.03,234.17,349.03z"/>
		<rect x="166.57" y="292.12" width="9.46" height="19.08"/>
		<path d="M192.86,306.09v-13.22c0,0,11.87-2.4,11.87,3C204.73,301.28,201.12,305.49,192.86,306.09z"/>
		<path d="M250.32,276.18c0,0,2.55-11.57,21.93-11.42c-4.21,1.05-19.68,9.01-21.93,13.97C250.02,276.93,250.32,276.18,250.32,276.18
			z"/>
	</g>
	<g>
		<path fill="#FAE5BC" d="M95.64,276.23v53.4c0,0,0,6.53-4.51,8.56c1.58,1.8,11.49,2.48,18.7-9.01c0-11.94,0-57,0-57
			s50.69,0.23,51.59-15.32c-0.9-3.15-0.68-7.21-21.63,0c0,0-25.91,3.57-45.44,5.07c-8.56,1.5-28.39,8.26-16.22,19.68
			c2.7,1.35,5.71-1.95,13.07-5.56C93.76,274.09,95.64,276.23,95.64,276.23z"/>
		<path fill="#FAE5BC" d="M120.91,298.38c0,0,4.51-10.06,11.72-9.99c4.28,1.43,4.96,0.08,4.28,7.62
			c-2.48,1.01-25.23,3.49-23.88,20.39c1.8,5.86,8.97,16.45,21.04,3.6c0.13-2.25-0.09-4.73-6.17-1.8
			c-4.28-1.13-11.49-8.11,9.24-12.62c0,4.28,0,12.39,0,12.39l8.64,8.11h2.4v-39.43c0,0-1.86-7.89-17.6-7.89
			c-4.93,0.45-16.73,7.56-15.52,17.24C116.4,298.83,117.3,299.96,120.91,298.38z"/>
		<path fill="#FAE5BC" d="M179,278.78v33.5h-14.64v19.15c0,0-4.43,11.49-16.18,11.04c-4.32-1.8-3.64-2.03-4.77-5.63
			c-0.23,0.23-6.76,0.23-2.7,7.21c1.58,1.8,12.39,6.65,45.17-6.87c13.86-3.38,58.8-14.53,73.34-3.04
			c-0.34,1.35-22.31-2.35-48.67,5.08c-26.36,7.43-56.78,22.97-72.32,11.65c-5.07-5.24-9.01-16.62,1.58-20.9
			c4.73-0.68,14.53,2.25,14.53,2.25V284l-6.25-5.13L179,278.78z"/>
		<path fill="#FAE5BC" d="M183.77,278.78H203c0,0,11.57,1.31,11.57,13.93c0,5.11-6.31,11.72-14.12,13.82
			c3.3,3.6,18.1,21.52,18.1,21.52h-13.07l-15.32-20.73v22.83h-6.38V278.78z"/>
		<polygon fill="#FAE5BC" points="215.27,279.65 229.51,279.65 229.51,325.46 226.81,326.88 219.06,319.13 219.06,284.19 		"/>
		<polygon fill="#FAE5BC" points="257.65,301.73 265.59,301.73 265.59,327.29 264.09,328.08 259.76,323.76 259.76,304.26 		"/>
		<circle fill="#F6EAB9" cx="223.99" cy="268.01" r="6.61"/>
		<path fill="#FAE5BC" d="M245.8,288.7v16.37l5.95-5.95c0,0,5.01,0.39,3.51,4.15c-3.76,3-6.16,6.31-6.16,6.31s-3.76,0.3,7.81,12.47
			c0.9,1.05,1.65,5.11-2.1,3.91c-3.6-4.36-9.01-10.66-9.01-10.66v10.88h-6.01V288.7H245.8z"/>
		<circle fill="#FAE5BC" cx="262.7" cy="296.24" r="3.49"/>
		<circle fill="#F6EAB9" cx="415.53" cy="273.27" r="7.09"/>
		<path fill="#FAE5BC" d="M246.78,274.61c0,0,1.8,5.48,42.58-1.73c35.6-6.08,41.68-7.89,43.71-11.49c0.9-2.03,4.28-3.83,6.76,5.18
			c-1.58,3.15,5.18,12.39-48.67,16.22c0,29.74,0,63.09,0,63.09l-12.39,10.59c0,0-10.14,3.38-2.03-4.51c0-27.04,0-66.46,0-66.46
			S247.46,296.17,246.78,274.61z"/>
		<path fill="#F6EAB9" d="M257.65,273.56c0,0,24.84-29.74,63.14-10.36c-3.15-0.23-37.1-4.77-58.09,10.36
			C259.51,274.46,256.72,274.58,257.65,273.56z"/>
		<path fill="#FAE5BC" d="M321.66,305.71v10.51c0,0-25.83,1.95-24.93,19.38c0.75,2.25,1.2,12.32,13.82,10.06
			c2.85-0.45,11.57-6.61,8.71-10.21c-3.15,1.95-16.37,2.55-11.42-3.6c5.63-5.63,15.4-7.59,15.4-7.59v9.8l10.1,9.12v-44.12
			c0,0-24.07-8.94-32.41,8.37c-1.35,4.25-3.38,12.28,1.73,11.53c2.4-0.45,6.31-10.66,10.96-12.47
			C318.28,305.29,321.66,305.71,321.66,305.71z"/>
		<path fill="#FAE5BC" d="M369.19,277.28c0,0-1.04-7.44-14.94-7.44c-2.86,0.9-11.87,5.26-12.1,18.85c-0.23,13.59,0,48.52,0,48.52
			s-1.35,17.35-14.87,5.18c-1.35,0.45-3.83,5.79,8.11,12.47c3.6,1.28,14.64-0.08,17.8-14.95c0-15.1,0-56.1,0-56.1
			s3.6-9.69,12.17-2.48C367.17,281.56,369.19,277.28,369.19,277.28z"/>
		<path fill="#FAE5BC" d="M403.89,284.94c0,0-3.15-14.42-20.05-15.1c-10.36,0-21.4,8.79-21.4,19.83s0,54.75,0,54.75
			s-2.7,6.98-6.53,9.01c-1.13,1.35,0.9,3.42,10.81-2.57c6.98-5.09,9.01-9.14,9.01-9.14V288.7c0,0,5.18-9.61,14.87-9.05
			C397.36,281.56,400.06,287.42,403.89,284.94z"/>
		<path fill="#FAE5BC" d="M378.12,291.14c0,0,3.15,4.5,2.93,10.59c-0.23,6.09,0,32.45,0,32.45l11.27-6.09v-24.82
			c0,0,1.58-9.2,8.34-4.69c1.58,1.58,7.66-0.6,6.53-5.82c-0.9-2.51-6.29-7.38-16.22,0c-0.68,0.42-3.15-2.06-3.15-2.06L378.12,291.14
			z"/>
		<polygon fill="#FAE5BC" points="407.32,285.09 423.91,285.09 423.91,287.95 421.97,287.95 421.97,325.95 410.41,325.95 
			410.41,288.84 		"/>
		<path fill="#F6EAB9" d="M230.6,343.38c0,0,36.16,36.37,77.05,7.49c-3.27,2.65-18.52,14.37-18.52,14.37s17.58-4.06,23.17-9.01
			c-9.73,8.34-22.12,18.7-49.6,12.84C255.04,367.26,217.87,343.38,230.6,343.38z"/>
		<rect x="163" y="286.46" fill="#2C6053" width="9.46" height="19.08"/>
		<path fill="#2C6053" d="M189.29,300.43v-13.22c0,0,11.87-2.4,11.87,3C201.16,295.62,197.55,299.83,189.29,300.43z"/>
		<path fill="#FAE5BC" d="M246.75,270.52c0,0,2.55-11.57,21.93-11.42c-4.21,1.05-19.68,9.01-21.93,13.97
			C246.45,271.27,246.75,270.52,246.75,270.52z"/>
	</g>
	<path fill="#2D0A06" d="M434.38,274.57v51.37c0,0-2.25,6.91-2.85,0c0-7.21,0-51.37,0-51.37S433.03,269.46,434.38,274.57z"/>
	<path fill="#2D0A06" d="M70.19,273.73v32.33c0,0-2.25,4.35-2.85,0c0-4.54,0-32.33,0-32.33S68.83,270.52,70.19,273.73z"/>
	<path fill="#2D0A06" d="M70.38,313.75v13.31c0,0-2.56,1.79-3.24,0c0-1.87,0-13.31,0-13.31S68.84,312.43,70.38,313.75z"/>
	<g>
		<circle fill="#FAE5BC" cx="195.45" cy="356.88" r="2.18"/>
		<circle fill="#FAE5BC" cx="201.98" cy="362.89" r="2.18"/>
		<circle fill="#FAE5BC" cx="206.86" cy="356.13" r="2.18"/>
	</g>
	<g>
		<circle fill="#2D0A06" cx="387.01" cy="348.23" r="2.18"/>
		<circle fill="#2D0A06" cx="393.54" cy="354.24" r="2.18"/>
		<circle fill="#2D0A06" cx="398.42" cy="347.48" r="2.18"/>
	</g>
	<path fill="#2D6C4D" d="M48.16,395.86c0,0,1.58-22.98,16.22-28.61s30.87,1.8,30.87,1.8s-22.53,0.9-27.71,7.89
		c0,0,24.11-5.86,40.1,5.18C107.64,382.12,68.21,375.13,48.16,395.86z"/>
	<path fill="#2D6C4D" d="M40.95,360.49c0,0,10.14-16.67,34.25-2.7c0,0-5.63,4.06-17.12,2.7c-11.49-1.35,1.13,3.15,1.13,3.15
		S54.24,370.63,40.95,360.49z"/>
	<path fill="#2D6C4D" d="M62.58,348.32c-2.23-0.32,21.18,1.42,39.43,16.82C102.01,365.14,74.97,350.12,62.58,348.32z"/>
	<path fill="#2D6C4D" d="M457.66,395.86c0,0-1.58-22.98-16.22-28.61s-30.87,1.8-30.87,1.8s22.53,0.9,27.71,7.89
		c0,0-24.11-5.86-40.1,5.18C398.18,382.12,437.61,375.13,457.66,395.86z"/>
	<path fill="#2D6C4D" d="M464.87,360.49c0,0-10.14-16.67-34.25-2.7c0,0,5.63,4.06,17.12,2.7c11.49-1.35-1.13,3.15-1.13,3.15
		S451.58,370.63,464.87,360.49z"/>
	<path fill="#2D6C4D" d="M443.24,348.32c2.23-0.32-21.18,1.42-39.43,16.82C403.82,365.14,430.85,350.12,443.24,348.32z"/>
	<path fill="#F83501" d="M121.28,373.46l17.01,1.58c0,0,74.8,51.82,98.12,73c9.45,8.58,13.07,21.18,37.85-2.48
		s35.16-38.62,92.95-73.09c6.42-1.01,14.53-1.69,14.53-1.69l-49.68,34.13c0,0-34.03,25.32-68.84,60.47
		c-4.39,3.72-6.42,15.88-23.99-2.03C213.54,434.96,121.28,373.46,121.28,373.46z"/>
	<path fill="#F6EAB9" d="M165.28,398.08c0,0,24.06,12.71,40.31,28.93C205.59,427.01,171.27,405.99,165.28,398.08z"/>
	<path fill="#F6EAB9" d="M348.03,386.48c0,0-23.62,13.51-39.31,30.27C308.72,416.75,342.31,394.59,348.03,386.48z"/>
	<path fill="#F1EECF" d="M243.56,86.36c0,0,0.56-5.98,8.45-6.9c3.38,0.6,4.23,0.71,7.11,2.79c2.88,2.08-1.63,0.9-5.38,0.66
		c-3.76-0.24-8.26,0.7-8.56,7.07C243.45,91.06,243.08,89.75,243.56,86.36z"/>
	<path fill="#2D0A06" d="M377.43,206.18c0,0-0.72,11.9-5.75,16.95c-5.03,5.05,0.9,2.81,1.5,2.09c0.6-0.72,6.25-8.68,6.69-13.71
		C380.32,206.48,379.95,203.77,377.43,206.18z"/>
	<path fill="#F1EECF" d="M318.73,227.61c0,0,12.73,2.87,23.62,2.95C342.35,230.57,330.11,232.49,318.73,227.61z"/>
	<path fill="#F1EECF" d="M374.01,230.23c0,0,9.5-0.38,14.81-3.21C388.82,227.03,383.25,231.01,374.01,230.23z"/>
	<path fill="#2D0A06" d="M388.11,170.34c2.11-1.16,3.84-2.72,5.43-5.03c0.13-0.2,0.07-0.47-0.14-0.59c-2.89-1.56-6.23-1.74-9.43-1.3
		c-0.37,0.05-0.6-0.37-0.37-0.66c2.35-2.97,3.55-5.91,3.82-9.79c0.02-0.26-0.21-0.47-0.47-0.43c-3.64,0.56-6.81,2.15-9.47,4.64
		c-0.28,0.26-0.73,0.01-0.68-0.37c0.4-2.57,0.3-5.16-0.48-7.68c-0.36-1.15-0.92-2.89-2.05-3.49l-0.26,0.17
		c-3.48,2.72-5.4,6.35-6.22,10.65l-0.06-0.12c-1.49-3.14-4.39-5.48-7.6-6.74c-0.22,0.11-0.32,0.16-0.54,0.27
		c-0.86,3.25-0.39,6.93,1.02,9.99c0.16,0.34-0.21,0.69-0.55,0.53c-0.29-0.14-0.58-0.28-0.88-0.4c-2.94-1.24-6.21-1.5-9.21-0.39
		c-0.21,0.08-0.32,0.31-0.24,0.52c0.12,0.32,0.25,0.63,0.39,0.94c1.16,2.61,2.97,4.9,5.47,6.25c0.34,0.18,0.26,0.69-0.12,0.76
		c0,0-0.01,0-0.01,0c-3.53,0.68-6.46,2.46-8.54,5.35c-0.14,0.19-0.08,0.46,0.12,0.58c3.13,1.88,6.76,2.51,10.37,2.15
		c0.38-0.04,0.6,0.41,0.34,0.68c-2.51,2.64-3.94,6.01-4.23,9.65c-0.02,0.25,0.19,0.45,0.43,0.44c4.18-0.28,7.69-1.58,10.64-4.73
		c-0.03,0.12-0.06,0.25-0.08,0.37c-0.82,3.94,0.18,7.68,2.26,11.03c0.13,0.21,0.43,0.26,0.62,0.08c3.01-2.76,4.86-6.05,5.33-10.17
		c0.12,0.23,0.24,0.46,0.37,0.68c1.93,3.37,4.82,5.83,8.5,6.95c0.22,0.07,0.44-0.07,0.51-0.28c0.04-0.12,0.07-0.24,0.1-0.35
		c0.83-3.29-0.08-6.74-1.63-9.69c-0.17-0.33,0.16-0.7,0.51-0.56c3.34,1.29,6.9,1.19,10.36,0.17c-0.02-0.06-0.04-0.13-0.07-0.19
		c-0.32-0.83-1.83-2.25-3.24-3.52c-0.37-0.33,0.06-0.91,0.48-0.65c17.5,10.66,18.96,32.5,17.59,45.99
		c-1.16,11.39-5.07,16.47-6.75,18.17c-0.26,0.26-0.07,0.69,0.29,0.69h2.56c0.13,0,0.26-0.05,0.33-0.16
		c4.81-8.2,5.33-11.24,6.62-20.48c0.71-5.09,0-0.02,0-0.03c0.97-34.82-11.83-42.74-21.17-49.2
		C387.82,170.86,387.84,170.48,388.11,170.34z"/>
	<g>
		<path fill="#FD2D79" d="M373.17,152.96c0.81,0.44,1.2,1.7,1.45,2.53c0.63,2.13,0.61,4.31,0.11,6.46c2.14-2.23,4.79-3.62,7.88-3.98
			c-0.18,3.24-1.22,5.56-3.34,7.98c2.64-0.45,5.47-0.38,7.83,1.05c-1.95,2.92-4.17,4.22-7.5,5.16c2.44,1.15,4.69,3.26,5.65,5.84
			c0.02,0.04,0.03,0.09,0.05,0.14c-2.77,0.79-5.63,0.77-8.25-0.54c1.34,2.28,2.23,5.09,1.53,7.75c-0.05,0.18-0.11,0.36-0.17,0.54
			c-2.78-0.79-4.94-2.62-6.36-5.15c-0.09-0.16-0.18-0.33-0.26-0.49c-0.38,3.09-1.83,5.51-4.17,7.53c-1.6-2.5-2.38-5.31-1.74-8.26
			c0.02-0.09,0.04-0.18,0.06-0.27c-2.23,2.33-4.87,3.23-8.04,3.36c0.18-3.04,1.47-5.83,3.76-7.86c-2.99,0.46-6.04-0.01-8.59-1.68
			c1.53-2.22,3.72-3.57,6.37-4.06c0.31-0.06,0.63-0.1,0.94-0.15c-2.24-0.88-3.8-2.76-4.74-4.93c-0.14-0.31-0.26-0.63-0.37-0.95
			c2.25-0.89,4.71-0.71,6.91,0.24c0.48,0.21,0.95,0.46,1.42,0.7c-1.32-2.4-1.79-5.48-1.02-8.13c0.02-0.06,0.04-0.12,0.05-0.17
			c2.43,0.9,4.63,2.65,5.73,5.03l0.04,0.09c0.62-3.09,2.03-5.7,4.56-7.63L373.17,152.96z"/>
		<circle fill="#2D0A06" cx="370.24" cy="170.34" r="4.15"/>
	</g>
	<path fill="#2D0A06" d="M124.79,233.8c0,0,6.81,3.94,7.16,4.98c0.35,1.04-1.38,1.04-1.38,1.04S120.84,232.3,124.79,233.8z"/>
	<polygon fill="#FAE5BC" points="329.68,292.75 361.38,292.83 361.38,298.9 335.35,298.82 	"/>
</g>
<g>
</g>
<g>
</g>
<g>
</g>
<g>
</g>
<g>
</g>
<g>
</g>
<g>
</g>
<g>
</g>
<g>
</g>
<g>
</g>
<g>
</g>
<g>
</g>
<g>
</g>
<g>
</g>
<g>
</g>
</svg>
