<?xml version="1.0" encoding="UTF-8"?>
<svg id="Layer_1" data-name="Layer 1" xmlns="http://www.w3.org/2000/svg" viewBox="0 0 87.7 121.13">
  <defs>
    <style>
      .cls-1 {
        fill: #e6674b;
      }
    </style>
  </defs>
  <path class="cls-1" d="m26.98,7.06C34.05,3.14,41.54.21,49.64.01c14.93-.35,26.64,5.64,34.16,18.89,8.64,22.4,2.05,42.04-11.09,60.44-1.26,1.76-2.68,3.05-.55,5,7.59,6.97,5.59,15.62.4,23.83-3.75,5.94-9.27,10.03-15.95,12.62-2.02.78-2.87.08-4.54-1.11,8.48-3.45,14.92-8.7,18.6-16.6,2.14-4.6,3.58-9.51.7-14.65-1.88-3.35-3.47-3.39-5.98-.77-5.41,5.65-11.91,9.83-18.73,13.56-3.74,2.05-7.72,2.93-11.95,2.28-4.62-.71-6.4-4.13-4.93-8.64,1.43-4.38,4.49-7.04,8.32-9.29,7.79-4.55,16.05-6.86,25.09-5.9,3.34.36,5.2-.97,7.28-3.74,8.2-10.91,12.05-23.4,13.2-36.59.75-8.66-1.23-17.24-6.7-24.54-1.04-1.45-1.85-3.17-3.17-4.3C63.68,1.8,52.31.07,39.88,4.78c-7.63,2.45-14.06,6.93-20.16,11.93-2.9,2.38-5.65,4.95-9.29,8.16,6.91.74,11.68-5.09,18.68-3.25-3.78,3.05-7.72,3.59-11.15,5.02-4.82,2.02-10.04,3.07-14.7,5.55-.93.5-1.84.92-2.71.12-.87-.8-.53-1.89-.19-2.79,1.78-4.77,3.87-9.45,5.38-14.3.68-2.19,1.84-2.66,3.56-2.2,2.53.69.26,2.31.33,3.45.08,1.32-.64,2.68-1.32,5.12,6.62-5.64,12.42-10.39,18.68-14.55Zm37.38,75.2c-6.34-1.46-11.54-.33-16.31,1.91-5.25,2.47-11.15,4.34-13.93,10.28-.84,1.81-1.91,3.5-.28,5.45,1.52,1.82,3.18,1.67,5.33,1.12,4.1-1.05,7.51-3.39,10.88-5.61,5.25-3.46,10.22-7.4,14.31-13.15Z"/>
</svg>