<?xml version="1.0" encoding="UTF-8"?>
<svg id="Layer_1" data-name="Layer 1" xmlns="http://www.w3.org/2000/svg" viewBox="0 0 65.82 78.38">
  <defs>
    <style>
      .cls-1 {
        fill: #f6d69e;
      }
    </style>
  </defs>
  <path class="cls-1" d="m9.7,78.38C5.35,77.79.51,69.13.04,60.08c-.7-13.32,8.19-24.32,22.8-27.84.74-23.22,17.61-26.37,36.04-27.78-.76-1.3-1.34-2.28-1.91-3.27.3-.4.6-.8.9-1.2,2.65,1.62,5.31,3.24,7.96,4.86-2.06,2.84-4.11,5.69-6.17,8.53-.58-.42-1.16-.84-1.74-1.26.82-1.44,1.65-2.88,2.76-4.83-8.7.54-17.11.85-24.65,5.11-6.03,3.4-9.62,8.6-10.1,15.71-.2,2.87.39,4.39,3.82,4.97,8.54,1.44,15.5,5.9,20.88,12.74,2.46,3.13,3.79,6.55,1.15,10.05-2.59,3.43-6.35,2.59-9.64,1.35-8.54-3.21-13.64-9.83-17.02-17.99-.5-1.2-.96-2.42-1.47-3.73-6.95.07-12.02,3.25-15.8,8.51-3.83,5.33-6.13,11.51-4.61,17.91,1.37,5.76,4.32,11.15,6.47,16.45Zm16.36-42.09c3.4,4.93,5.82,9.68,9.42,13.23,2.78,2.75,6.87,4.6,10.7,5.74,3.51,1.05,5.29-1.65,3.99-5.04-2.68-7-14.59-14.43-24.11-13.94Z"/>
</svg>