<?xml version="1.0" encoding="UTF-8"?>
<svg id="Layer_1" data-name="Layer 1" xmlns="http://www.w3.org/2000/svg" viewBox="0 0 55.83 78.22">
  <defs>
    <style>
      .cls-1 {
        fill: #e2b42d;
      }
    </style>
  </defs>
  <path class="cls-1" d="m12.01,0C5,3.16,1.36,8.61.23,17.47c-1.67,13.03,5.91,24.45,18.68,30.1-.31,18.4,11.25,36.97,31.24,26.33.02,1.29,0,2.58-.07,3.87.47.14.93.29,1.38.45,1.53-2.73,2.89-5.56,4.37-8.33-3.12-1.35-6.27-2.64-9.39-3.99-.2.68-.41,1.35-.59,2.04,1.41.94,2.83,1.74,4.34,2.5-7.07,5.54-13.19,4.28-20.74-.8-6.03-4.06-8.58-9.95-8.13-17.3.18-2.97,1.25-4.34,4.7-4.68,8.57-.83,16.04-3.92,22.38-10.05,2.9-2.8,4.41-6.15,2.38-9.73s-5.81-3.52-9.26-2.53c-8.95,2.57-14.24,7.94-19.23,15.54-.73,1.12-1.36,2.39-2.09,3.55-6.47-1.49-11.23-4.77-14.39-10.67-3.16-5.9-4.34-11.78-2.22-18.15C5.51,9.89,9.3,5.43,12.01,0Zm10.78,43.95c3.6-3.77,6.96-8.6,11.16-11.75,3.25-2.43,7.5-3.96,11.24-4.34,3.42-.35,5.59,1.76,3.11,5.52-5.13,7.74-15.9,11.66-25.5,10.57Z"/>
</svg>