<svg xmlns="http://www.w3.org/2000/svg" width="646" height="646" viewBox="0 0 646 646">
  <path id="Polygon_11" data-name="Polygon 11" d="M370.112,4.343a4,4,0,0,1,6.553,1.038l27.367,58.758a4,4,0,0,0,5.567,1.809L466.276,34.5a4,4,0,0,1,5.911,3.012l7.871,64.339a4,4,0,0,0,4.735,3.44l63.623-12.4a4,4,0,0,1,4.691,4.691l-12.4,63.623a4,4,0,0,0,3.44,4.735l64.339,7.87a4,4,0,0,1,3.012,5.911L580.052,236.4a4,4,0,0,0,1.809,5.567l58.758,27.367a4,4,0,0,1,1.038,6.553l-47.426,44.185a4,4,0,0,0,0,5.853l47.426,44.185a4,4,0,0,1-1.038,6.553l-58.758,27.367a4,4,0,0,0-1.809,5.567l31.45,56.678a4,4,0,0,1-3.012,5.911l-64.339,7.87a4,4,0,0,0-3.44,4.735l12.4,63.623a4,4,0,0,1-4.691,4.691l-63.623-12.4a4,4,0,0,0-4.735,3.44l-7.871,64.339a4,4,0,0,1-5.911,3.012L409.6,580.052a4,4,0,0,0-5.567,1.809l-27.367,58.758a4,4,0,0,1-6.553,1.038l-44.185-47.426a4,4,0,0,0-5.853,0l-44.185,47.426a4,4,0,0,1-6.553-1.038l-27.367-58.758a4,4,0,0,0-5.567-1.809L179.724,611.5a4,4,0,0,1-5.911-3.012l-7.87-64.339a4,4,0,0,0-4.735-3.44l-63.623,12.4a4,4,0,0,1-4.691-4.691l12.4-63.623a4,4,0,0,0-3.44-4.735L37.51,472.187a4,4,0,0,1-3.012-5.911L65.948,409.6a4,4,0,0,0-1.809-5.567L5.381,376.664a4,4,0,0,1-1.038-6.553l47.426-44.185a4,4,0,0,0,0-5.853L4.343,275.888a4,4,0,0,1,1.038-6.553l58.758-27.367a4,4,0,0,0,1.809-5.567L34.5,179.723a4,4,0,0,1,3.012-5.911l64.339-7.87a4,4,0,0,0,3.44-4.735l-12.4-63.623a4,4,0,0,1,4.691-4.691l63.623,12.4a4,4,0,0,0,4.735-3.44l7.871-64.339a4,4,0,0,1,5.911-3.012L236.4,65.948a4,4,0,0,0,5.567-1.809L269.336,5.381a4,4,0,0,1,6.553-1.038l44.185,47.426a4,4,0,0,0,5.853,0Z" fill="#f97316"/>
</svg>
