<?xml version="1.0" standalone="no"?>
<!DOCTYPE svg PUBLIC "-//W3C//DTD SVG 20010904//EN"
 "http://www.w3.org/TR/2001/REC-SVG-20010904/DTD/svg10.dtd">
<svg version="1.0" xmlns="http://www.w3.org/2000/svg"
 width="9154.000000pt" height="2366.000000pt" viewBox="0 0 9154.000000 2366.000000"
 preserveAspectRatio="xMidYMid meet">

<g transform="translate(0.000000,2366.000000) scale(0.100000,-0.100000)"
fill="#EF4444" stroke="none">
<path d="M40110 23639 c-230 -10 -260 -18 -325 -83 -102 -102 -102 -250 0
-349 72 -70 77 -71 492 -58 202 6 493 11 646 11 306 0 322 3 385 63 123 118
99 314 -48 397 l-45 25 -460 1 c-253 1 -543 -2 -645 -7z"/>
<path d="M42261 23579 c-177 -52 -238 -280 -108 -410 59 -59 88 -67 354 -94
290 -30 490 -54 773 -96 113 -17 228 -29 257 -27 140 12 237 151 209 301 -14
73 -93 157 -167 177 -91 25 -681 103 -1048 140 -226 22 -222 22 -270 9z"/>
<path d="M38565 23509 c-385 -51 -962 -145 -1048 -171 -21 -6 -58 -29 -81 -49
-136 -120 -103 -333 64 -408 59 -27 103 -26 263 3 220 41 507 86 804 126 314
42 341 51 399 127 93 122 53 296 -85 366 -66 33 -111 34 -316 6z"/>
<path d="M44610 23201 c-143 -44 -218 -187 -171 -325 15 -44 72 -111 110 -131
14 -7 116 -36 226 -65 256 -66 559 -153 800 -230 252 -80 308 -80 399 0 46 41
75 97 83 159 11 92 -46 200 -126 240 -120 61 -1181 363 -1268 360 -15 0 -39
-4 -53 -8z"/>
<path d="M36245 23049 c-294 -82 -529 -154 -791 -240 -298 -98 -332 -116 -373
-204 -25 -54 -28 -149 -5 -203 32 -77 115 -138 202 -149 40 -4 83 7 294 76
283 92 538 169 783 236 94 26 189 58 212 71 111 64 149 209 87 324 -46 85
-122 130 -219 129 -27 -1 -113 -19 -190 -40z"/>
<path d="M46810 22423 c-159 -82 -186 -292 -53 -403 21 -17 129 -73 241 -125
237 -110 467 -228 717 -368 166 -94 184 -102 243 -105 77 -5 135 15 186 64 48
46 67 85 73 150 9 83 -12 140 -72 199 -57 56 -308 197 -674 380 -496 248 -551
265 -661 208z"/>
<path d="M33965 22234 c-361 -160 -942 -455 -1002 -507 -139 -122 -80 -369
101 -418 86 -23 125 -11 361 112 248 130 554 279 755 368 204 90 259 149 260
276 0 144 -100 244 -245 245 -53 0 -79 -9 -230 -76z"/>
<path d="M48913 21239 c-54 -10 -92 -30 -131 -70 -49 -51 -67 -95 -67 -174 0
-105 20 -133 204 -283 227 -186 322 -272 561 -508 118 -116 231 -220 250 -230
22 -11 58 -18 100 -18 186 -2 303 188 219 357 -57 116 -871 863 -994 912 -44
18 -94 23 -142 14z"/>
<path d="M32042 21169 c-79 -24 -693 -468 -1013 -732 -81 -67 -110 -122 -110
-209 -1 -149 120 -260 266 -245 67 7 102 25 195 102 189 156 511 395 807 599
129 88 161 130 170 220 15 144 -84 263 -226 272 -31 2 -71 -1 -89 -7z"/>
<path d="M91390 20359 c-483 -388 -1360 -1020 -2045 -1474 -1849 -1225 -3628
-2146 -5169 -2676 -109 -38 -193 -71 -185 -73 8 -3 928 -185 2044 -406 1117
-221 2038 -404 2047 -408 17 -7 -15 -51 -336 -467 -67 -86 -85 -129 -85 -200
-2 -217 275 -324 425 -163 29 30 249 315 388 501 32 42 61 77 65 77 4 0 607
-742 1341 -1648 734 -907 1336 -1645 1338 -1641 2 4 -13 110 -32 235 -133 862
-189 1703 -189 2814 0 593 8 913 38 1475 69 1296 237 2743 460 3953 19 106 35
195 35 197 0 13 -25 -4 -140 -96z"/>
<path d="M30182 19650 c-76 -34 -459 -446 -781 -840 -57 -69 -111 -141 -122
-162 -99 -193 92 -414 297 -344 65 22 86 41 195 176 131 162 296 353 440 508
271 292 295 319 307 360 50 166 -62 322 -233 322 -38 0 -76 -8 -103 -20z"/>
<path d="M50490 19501 c-82 -27 -149 -92 -170 -166 -26 -93 -13 -138 92 -312
170 -282 298 -524 424 -796 89 -194 139 -244 255 -255 150 -14 286 127 265
274 -14 102 -302 674 -519 1029 -89 147 -115 178 -171 207 -43 22 -136 32
-176 19z"/>
<path d="M28713 17790 c-23 -12 -57 -38 -76 -59 -67 -75 -325 -527 -511 -896
-121 -239 -121 -240 -121 -310 1 -84 24 -135 85 -187 89 -77 218 -78 316 -3
24 19 61 82 143 243 144 284 236 452 384 702 l122 205 0 81 c0 72 -3 86 -30
130 -45 72 -109 108 -199 112 -57 2 -79 -1 -113 -18z"/>
<path d="M51480 17351 c-46 -15 -85 -39 -117 -73 -71 -73 -81 -163 -34 -299
16 -46 106 -311 201 -589 94 -278 182 -522 196 -542 29 -45 110 -94 170 -103
97 -14 209 47 253 139 44 89 39 109 -158 686 -214 626 -215 629 -234 666 -19
37 -62 77 -106 99 -39 20 -134 29 -171 16z"/>
<path d="M27741 15669 c-54 -10 -110 -46 -146 -93 -45 -59 -209 -557 -335
-1016 -73 -264 -76 -313 -24 -396 82 -133 271 -154 383 -42 46 45 40 30 156
443 37 132 113 375 167 540 87 260 99 306 95 347 -17 145 -153 245 -296 217z"/>
<path d="M52235 15101 c-89 -40 -144 -126 -145 -224 0 -50 11 -85 74 -240 101
-250 198 -470 324 -742 86 -184 116 -239 152 -277 128 -132 346 -80 407 98 26
76 14 124 -72 305 -116 246 -227 496 -330 748 -103 249 -141 309 -220 336 -56
20 -142 18 -190 -4z"/>
<path d="M87096 13979 c-67 -16 -100 -44 -257 -227 -158 -182 -384 -437 -572
-644 -120 -132 -136 -159 -144 -233 -15 -144 96 -267 242 -268 109 -1 129 15
395 309 358 397 582 659 613 717 26 46 28 59 24 119 -8 117 -80 204 -188 227
-57 12 -59 12 -113 0z"/>
<path d="M27131 13368 c-57 -16 -115 -63 -143 -115 -21 -38 -33 -89 -57 -243
-60 -393 -113 -862 -115 -1025 -1 -123 7 -148 70 -209 108 -105 298 -82 377
46 31 50 35 70 62 363 21 220 58 511 95 754 19 117 28 208 24 230 -26 146
-173 240 -313 199z"/>
<path d="M32965 13064 c-172 -4 -543 -24 -657 -34 -136 -13 -203 -51 -249
-142 -72 -141 13 -314 173 -352 14 -3 113 1 220 9 107 9 384 18 623 21 237 3
447 10 468 16 48 12 124 80 148 133 21 45 24 121 8 180 -15 56 -100 137 -159
153 -47 12 -370 21 -575 16z"/>
<path d="M53320 12991 c-79 -26 -148 -91 -168 -160 -17 -56 -14 -130 7 -176
41 -90 387 -611 590 -888 156 -213 187 -238 301 -238 127 -1 229 89 247 216 9
66 -13 128 -77 214 -186 252 -392 552 -545 796 -99 159 -124 189 -179 217 -43
22 -136 32 -176 19z"/>
<path d="M34595 12961 c-98 -25 -177 -113 -191 -213 -13 -91 41 -196 122 -240
40 -21 87 -33 220 -53 316 -48 634 -112 929 -186 162 -42 219 -34 304 37 69
58 97 169 67 262 -20 59 -73 118 -132 143 -89 40 -583 149 -939 207 -279 46
-339 53 -380 43z"/>
<path d="M30955 12796 c-433 -115 -1043 -334 -1126 -403 -16 -14 -42 -46 -57
-72 -23 -38 -27 -57 -27 -116 1 -107 48 -180 145 -224 80 -37 128 -29 322 48
290 115 537 198 810 271 183 49 217 63 258 103 151 148 65 397 -145 421 -39 5
-80 -2 -180 -28z"/>
<path d="M36835 12327 c-120 -58 -172 -183 -129 -310 26 -76 74 -115 235 -186
282 -126 535 -259 811 -428 164 -100 213 -115 298 -90 116 34 186 133 178 253
-6 93 -42 145 -149 216 -208 138 -655 376 -954 509 -148 65 -212 73 -290 36z"/>
<path d="M85465 12228 c-53 -19 -85 -47 -350 -308 -143 -140 -342 -330 -441
-422 -102 -95 -191 -186 -205 -210 -32 -58 -34 -164 -2 -223 27 -51 78 -100
125 -119 56 -24 154 -20 205 7 86 45 936 865 969 935 45 96 26 201 -50 277
-70 70 -165 93 -251 63z"/>
<path d="M28868 11886 c-143 -51 -993 -680 -1079 -799 -84 -116 -48 -280 78
-354 41 -24 59 -28 123 -28 93 0 99 4 265 140 192 158 457 355 663 493 100 67
193 135 207 150 59 63 78 157 50 242 -42 126 -186 199 -307 156z"/>
<path d="M54719 11087 c-65 -24 -117 -75 -144 -141 -21 -49 -19 -142 4 -191
29 -64 373 -436 727 -786 173 -171 194 -188 243 -203 68 -20 84 -20 150 0 100
29 171 123 171 225 0 110 0 110 -310 424 -157 160 -358 369 -447 466 -102 111
-176 183 -200 194 -48 24 -147 29 -194 12z"/>
<path d="M38860 11061 c-77 -25 -127 -67 -163 -136 -27 -53 -28 -155 -2 -205
10 -19 99 -118 199 -220 201 -206 341 -365 479 -544 156 -203 171 -219 220
-244 98 -51 237 -21 302 64 52 68 68 160 41 236 -54 152 -761 954 -905 1028
-47 24 -131 34 -171 21z"/>
<path d="M26905 10992 c-47 -22 -98 -70 -123 -116 -15 -28 -17 -69 -17 -392
l0 -362 -221 -238 c-321 -347 -433 -474 -450 -507 -23 -43 -29 -129 -13 -184
17 -62 96 -143 155 -161 81 -24 159 -12 221 35 18 13 108 107 200 209 154 170
183 198 183 176 0 -15 63 -73 99 -92 89 -45 198 -30 272 37 75 68 90 124 79
285 -19 249 -19 250 21 296 82 96 79 225 -8 322 l-43 48 -8 249 -7 250 -30 49
c-45 72 -109 108 -199 112 -53 2 -81 -2 -111 -16z"/>
<path d="M83702 10615 c-18 -8 -122 -88 -230 -178 -210 -174 -419 -343 -650
-525 -124 -98 -147 -120 -168 -165 -67 -145 15 -313 169 -348 79 -17 142 0
226 64 227 173 877 702 931 758 83 87 77 265 -11 346 -63 58 -191 81 -267 48z"/>
<path d="M56403 9429 c-49 -24 -99 -77 -121 -128 -35 -83 -10 -202 57 -268 99
-99 925 -734 1007 -773 50 -25 149 -27 202 -4 106 44 171 174 142 285 -20 78
-51 109 -234 244 -207 151 -508 384 -684 529 -67 55 -139 109 -160 118 -54 25
-156 24 -209 -3z"/>
<path d="M81825 9161 c-22 -10 -110 -67 -195 -126 -85 -60 -303 -206 -485
-326 -181 -119 -350 -234 -374 -255 -62 -54 -84 -109 -79 -194 7 -132 96 -221
227 -228 44 -3 79 1 102 11 43 18 396 247 709 460 398 271 407 279 430 381 33
149 -86 296 -239 296 -33 0 -72 -8 -96 -19z"/>
<path d="M40272 9159 c-88 -17 -162 -85 -188 -174 -22 -77 -13 -116 63 -275
139 -290 253 -567 353 -860 48 -139 58 -160 99 -202 147 -148 393 -59 418 151
5 42 -3 75 -57 232 -152 448 -398 998 -478 1071 -57 51 -132 72 -210 57z"/>
<path d="M27120 8641 c-109 -34 -180 -128 -180 -241 0 -128 204 -1162 249
-1265 40 -91 119 -140 226 -140 58 0 78 5 117 28 74 43 128 131 128 207 0 15
-24 137 -54 271 -61 275 -99 470 -151 772 -21 123 -43 224 -55 247 -48 94
-180 151 -280 121z"/>
<path d="M25466 8619 c-21 -5 -51 -17 -67 -26 -17 -10 -130 -128 -253 -263
-122 -135 -308 -334 -412 -443 -104 -108 -203 -218 -221 -243 -110 -155 7
-376 201 -378 103 -1 133 21 370 270 358 376 639 691 663 742 56 116 4 267
-110 321 -52 24 -120 33 -171 20z"/>
<path d="M58358 8056 c-53 -19 -83 -40 -112 -79 -81 -106 -68 -250 28 -335 63
-55 723 -441 1019 -596 98 -51 113 -56 172 -56 76 0 117 15 168 59 105 93 106
267 1 362 -22 19 -94 64 -159 99 -176 93 -511 285 -747 427 -198 119 -210 125
-270 129 -39 3 -77 -1 -100 -10z"/>
<path d="M79869 7901 c-20 -4 -168 -80 -328 -170 -161 -89 -410 -223 -553
-298 -164 -86 -273 -149 -294 -171 -104 -107 -79 -297 51 -377 44 -27 57 -30
129 -30 l81 0 235 124 c273 144 478 256 711 387 220 124 259 168 259 294 0
156 -139 271 -291 241z"/>
<path d="M60422 6924 c-86 -43 -132 -121 -132 -221 0 -70 24 -127 73 -174 47
-45 451 -225 1027 -457 153 -62 171 -67 241 -67 67 0 81 4 125 30 70 44 107
108 112 196 4 59 0 77 -23 124 -14 30 -41 66 -59 80 -18 14 -128 63 -244 110
-274 110 -478 195 -739 311 -189 84 -218 94 -270 94 -44 0 -73 -7 -111 -26z"/>
<path d="M23780 6925 c-32 -10 -90 -52 -200 -147 -201 -171 -416 -342 -598
-476 -283 -208 -297 -225 -297 -347 1 -78 21 -129 72 -177 68 -65 187 -87 268
-49 72 33 440 310 721 542 330 274 355 303 355 417 1 70 -20 124 -64 170 -67
70 -167 96 -257 67z"/>
<path d="M40950 6894 c-58 -25 -99 -63 -126 -116 -32 -63 -32 -99 -5 -318 33
-269 43 -428 45 -745 2 -282 4 -302 23 -340 46 -88 126 -137 225 -137 98 0
185 58 226 151 36 79 26 643 -18 1044 -35 322 -45 356 -120 419 -66 57 -174
75 -250 42z"/>
<path d="M77715 6811 c-27 -10 -156 -64 -285 -121 -129 -56 -374 -158 -545
-226 -297 -119 -312 -126 -355 -173 -97 -102 -95 -237 5 -337 57 -57 116 -79
192 -72 49 5 304 102 694 266 509 214 556 239 600 324 66 129 0 295 -136 341
-62 22 -107 21 -170 -2z"/>
<path d="M27651 6326 c-87 -31 -161 -136 -161 -228 0 -82 202 -641 397 -1095
90 -211 141 -258 278 -258 56 0 79 5 115 25 85 48 137 146 127 240 -2 25 -38
123 -79 220 -91 212 -213 529 -303 785 -37 105 -75 204 -86 221 -20 34 -76 76
-122 93 -37 14 -123 13 -166 -3z"/>
<path d="M62655 6075 c-51 -18 -127 -99 -143 -152 -29 -97 1 -200 76 -264 44
-37 201 -92 662 -229 436 -130 601 -172 656 -167 175 17 276 199 198 356 -16
32 -43 64 -67 82 -44 32 -41 31 -437 143 -146 41 -388 114 -538 161 -286 89
-330 97 -407 70z"/>
<path d="M75530 5965 c-30 -6 -143 -40 -250 -74 -158 -50 -536 -160 -888 -258
-116 -32 -187 -125 -187 -243 1 -77 25 -130 81 -180 89 -77 145 -78 410 -6
402 111 944 276 1004 306 82 42 130 122 130 217 0 165 -137 274 -300 238z"/>
<path d="M21872 5570 c-18 -4 -144 -64 -280 -133 -263 -133 -452 -220 -702
-324 -175 -72 -210 -93 -244 -144 -69 -103 -56 -231 31 -315 54 -53 131 -80
199 -69 89 13 481 183 884 383 328 163 364 188 395 281 50 152 -48 303 -210
324 -22 3 -55 2 -73 -3z"/>
<path d="M64935 5451 c-90 -40 -155 -160 -140 -254 14 -87 78 -169 151 -197
58 -22 610 -131 1039 -206 223 -38 267 -39 333 -5 156 80 182 292 50 406 -51
43 -68 49 -258 80 -217 36 -610 110 -833 156 -208 43 -282 48 -342 20z"/>
<path d="M73205 5359 c-94 -23 -651 -121 -893 -158 -288 -45 -318 -54 -376
-122 -46 -54 -59 -96 -54 -174 8 -127 99 -216 227 -223 124 -7 1219 181 1300
222 42 22 106 99 119 144 18 58 14 121 -9 172 -54 120 -172 172 -314 139z"/>
<path d="M67333 5091 c-17 -5 -52 -20 -77 -35 -183 -107 -136 -397 72 -445 82
-19 812 -81 1148 -97 131 -6 144 -5 190 15 101 45 148 117 148 226 0 82 -22
134 -79 183 -58 52 -92 61 -278 72 -323 19 -697 49 -1047 84 -25 3 -59 1 -77
-3z"/>
<path d="M70780 5030 c-162 -14 -462 -30 -777 -40 -328 -11 -341 -13 -407 -70
-114 -101 -108 -285 12 -377 68 -52 100 -56 357 -49 289 8 582 23 840 42 176
12 206 17 252 39 177 87 176 345 -2 437 -47 25 -134 30 -275 18z"/>
<path d="M11695 4909 c-121 -4 -243 -13 -272 -19 -66 -14 -124 -57 -160 -117
-24 -41 -28 -59 -28 -124 0 -67 4 -81 30 -125 33 -53 99 -100 159 -114 20 -4
116 -4 214 1 97 5 382 11 633 13 l457 4 50 26 c194 98 165 389 -44 452 -38 11
-126 14 -433 12 -212 0 -485 -5 -606 -9z"/>
<path d="M13767 4834 c-31 -10 -64 -30 -91 -58 -118 -118 -93 -310 52 -389 42
-23 77 -29 277 -52 275 -31 531 -65 792 -105 106 -17 209 -30 229 -30 130 0
244 115 244 245 0 98 -78 207 -167 233 -101 30 -1178 175 -1270 171 -10 0 -40
-7 -66 -15z"/>
<path d="M10075 4779 c-470 -59 -977 -133 -1038 -151 -120 -36 -193 -183 -155
-312 16 -55 99 -138 154 -154 59 -17 93 -15 307 18 258 39 518 75 777 105 250
30 277 37 330 83 61 52 84 103 84 187 0 107 -47 180 -144 224 -56 25 -114 25
-315 0z"/>
<path d="M19485 4655 c-251 -63 -642 -143 -855 -175 -161 -25 -199 -40 -253
-99 -88 -98 -82 -247 15 -337 40 -38 80 -59 130 -68 112 -20 1229 210 1334
275 43 26 79 73 99 128 40 113 -8 237 -112 294 -83 44 -113 43 -358 -18z"/>
<path d="M40887 4549 c-101 -24 -156 -83 -192 -206 -112 -380 -183 -568 -326
-863 -54 -113 -101 -224 -105 -246 -15 -98 52 -212 148 -254 96 -41 226 -11
289 67 33 42 199 389 267 558 117 292 216 619 216 710 -1 152 -150 270 -297
234z"/>
<path d="M16083 4475 c-175 -87 -176 -346 -2 -435 44 -23 102 -33 359 -65 432
-52 906 -83 990 -64 194 43 257 290 109 423 -54 50 -115 63 -314 70 -251 9
-622 44 -877 82 -146 21 -205 19 -265 -11z"/>
<path d="M7625 4359 c-301 -68 -795 -190 -890 -220 -79 -24 -130 -66 -161
-134 -67 -144 16 -313 170 -345 53 -11 67 -8 438 84 211 52 484 117 608 145
124 27 238 55 254 61 48 18 85 49 112 96 77 131 36 280 -95 347 -79 39 -131
35 -436 -34z"/>
<path d="M28600 4154 c-111 -48 -175 -187 -137 -299 52 -151 625 -1012 739
-1109 109 -94 283 -61 363 68 26 43 30 59 30 120 -1 87 -5 97 -141 283 -137
187 -340 495 -464 703 -102 171 -134 209 -197 235 -45 19 -148 19 -193 -1z"/>
<path d="M5580 3804 c-216 -59 -1136 -383 -1192 -419 -107 -71 -134 -242 -55
-348 70 -92 192 -121 318 -73 163 61 414 149 753 262 235 79 381 133 402 149
73 55 110 170 85 261 -35 130 -175 206 -311 168z"/>
<path d="M3360 2984 c-143 -56 -773 -336 -1013 -452 -126 -61 -170 -87 -190
-113 -77 -102 -77 -229 1 -319 52 -62 103 -84 187 -84 64 0 80 5 180 53 223
107 593 274 878 397 81 35 163 75 182 90 19 14 46 50 61 80 22 46 26 64 22
123 -7 133 -97 223 -227 228 -36 1 -73 0 -81 -3z"/>
<path d="M39745 2475 c-22 -8 -42 -15 -44 -15 -2 0 -94 -89 -205 -198 -212
-209 -373 -348 -571 -494 -182 -135 -182 -135 -212 -186 -24 -39 -28 -58 -28
-117 1 -84 24 -135 87 -189 68 -59 173 -74 256 -36 53 24 304 210 472 350 165
138 522 494 544 543 62 138 -7 300 -145 341 -64 19 -102 20 -154 1z"/>
<path d="M30035 2271 c-47 -21 -99 -70 -122 -114 -8 -17 -18 -59 -21 -93 -8
-100 19 -145 174 -291 332 -312 813 -683 926 -714 190 -51 357 134 293 323
-21 61 -59 98 -205 200 -231 161 -473 360 -693 567 -60 57 -127 111 -150 122
-55 24 -148 25 -202 0z"/>
<path d="M1155 1932 c-142 -70 -731 -397 -990 -550 -122 -72 -159 -127 -159
-237 0 -84 23 -135 85 -189 54 -46 96 -59 173 -54 60 4 76 11 362 174 164 94
413 233 553 309 148 81 267 153 286 173 64 64 82 178 44 262 -41 90 -113 140
-214 147 -54 4 -68 1 -140 -35z"/>
<path d="M37610 1040 c-239 -97 -530 -196 -780 -265 -179 -49 -226 -73 -265
-136 -105 -165 8 -379 200 -379 140 0 901 249 1212 396 82 39 125 84 149 157
29 88 3 186 -68 254 -47 45 -97 63 -170 62 -55 -1 -91 -13 -278 -89z"/>
<path d="M32027 976 c-67 -25 -111 -61 -142 -117 -24 -44 -29 -66 -29 -119 1
-126 61 -194 230 -260 331 -128 932 -298 1119 -316 112 -11 203 35 249 128 76
152 -12 325 -182 358 -276 54 -731 186 -992 287 -129 50 -196 60 -253 39z"/>
<path d="M35405 529 c-169 -17 -619 -29 -820 -23 -204 7 -212 6 -263 -16 -102
-44 -161 -143 -149 -254 9 -91 61 -161 147 -200 41 -18 70 -20 345 -24 408 -6
913 22 1019 55 136 43 203 212 137 341 -25 48 -76 97 -123 116 -41 17 -153 19
-293 5z"/>
</g>
</svg>
