<?xml version="1.0" encoding="UTF-8"?>
<svg version="1.1" xmlns="http://www.w3.org/2000/svg" width="512" height="512">
<path d="M0 0 C3.61827445 3.2537299 5.25346283 5.47125077 5.64697266 10.34960938 C5.67972081 12.01401052 5.68395273 13.67914554 5.6640625 15.34375 C5.66884613 16.23106812 5.67362976 17.11838623 5.67855835 18.03259277 C5.6819489 19.90179221 5.67280572 21.77105162 5.65185547 23.64013672 C5.62507595 26.49191219 5.65163005 29.33975236 5.68359375 32.19140625 C5.6802895 34.01302947 5.67388295 35.83465025 5.6640625 37.65625 C5.67418365 38.50328491 5.68430481 39.35031982 5.69473267 40.22302246 C5.6116517 44.44555276 5.28599327 47.18042019 2.58520508 50.52709961 C-0.5197678 53.49718841 -1.89932887 53.95482303 -6.0078125 54.171875 C-9.22052543 53.89469977 -11.35181246 52.78598695 -14 51 C-15.03258366 49.69173827 -16.03875067 48.36153498 -17 47 C-18.01707031 48.16015625 -18.01707031 48.16015625 -19.0546875 49.34375 C-32.40199353 64.37489235 -47.42361907 75.46577452 -68 77 C-90.61997867 77.86727191 -110.69697981 68.18073781 -129.0534668 55.89648438 C-141.4351678 47.62731368 -154.24357851 41.40171927 -169.5 43.5625 C-179.89821803 45.8171778 -187.9308702 51.29709689 -194 60 C-199.33577177 69.67884182 -200.55987059 80.07417107 -198.421875 90.9375 C-191.48048476 112.140292 -172.82144766 127.42263199 -157 142 C-156.41621582 142.53963379 -155.83243164 143.07926758 -155.23095703 143.63525391 C-150.0902467 148.38560836 -144.90731446 153.08665224 -139.6875 157.75 C-135.65112076 161.37239162 -131.79359891 165.12644233 -128 169 C-125.53997823 171.48018588 -123.06878249 173.93512931 -120.52734375 176.33203125 C-99.66475314 196.31354715 -80.88972001 226.32224865 -79.76171875 255.8359375 C-79.32665484 277.42330141 -83.66541627 295.77484153 -99 312 C-114.18224045 326.36019021 -132.33680871 330.64281376 -152.63720703 330.47265625 C-184.04931729 329.59785251 -210.73253603 314.72232867 -233.1484375 293.6640625 C-235.82764019 291.16102656 -238.55906463 288.73319394 -241.3125 286.3125 C-244.77884686 283.19662107 -247.88896709 279.98879617 -250.890625 276.4296875 C-253.83756528 273.03524888 -256.9221508 269.775568 -260 266.5 C-264.13852237 262.08758113 -268.22598509 257.65375848 -272.1796875 253.07421875 C-293.355237 228.94499819 -320.82473674 199.91240748 -355.09375 197.6484375 C-370.01976322 197.12075914 -384.58910764 200.97793335 -396 211 C-404.84667597 220.98699595 -407.9935615 232.84756213 -407.36328125 245.98828125 C-405.6731974 267.8651871 -392.27912626 287.87242536 -381.37109375 306.265625 C-367.29995028 330.05568379 -354.8126783 354.63865511 -361 383 C-366.83109173 403.98077023 -381.91071974 420.10252785 -400.3984375 431.00390625 C-421.5619719 442.87147111 -444.84869753 449.2737996 -468.09603882 455.73742676 C-470.05897825 456.28338664 -472.02093458 456.83289475 -473.98184204 457.3861084 C-476.76681951 458.16847515 -479.55620354 458.93250907 -482.34765625 459.69140625 C-483.17283752 459.9253157 -483.9980188 460.15922516 -484.84820557 460.40022278 C-490.52513878 461.9127779 -496.12516954 462.72098546 -502 462 C-505.125 460.125 -505.125 460.125 -507 457 C-507.68357774 453.52514651 -507.91239336 450.43489266 -507 447 C-503.26874187 442.42872974 -499.63227757 440.8786695 -494.04296875 439.5703125 C-492.8856147 439.27655731 -492.8856147 439.27655731 -491.70487976 438.97686768 C-490.05633755 438.5602822 -488.40582572 438.15142682 -486.75360107 437.74969482 C-483.29232577 436.90707768 -479.84173071 436.02416472 -476.38989258 435.14382935 C-473.82683364 434.49101062 -471.26234541 433.84403325 -468.69775391 433.19726562 C-421.51563609 421.2927398 -421.51563609 421.2927398 -386.46484375 389.48828125 C-379.74102262 376.68753723 -379.45306955 364.25103835 -383.66723633 350.51220703 C-386.29086694 342.59084373 -389.99141619 335.29753913 -394 328 C-394.35078613 327.35740234 -394.70157227 326.71480469 -395.06298828 326.05273438 C-398.50090214 319.78480165 -402.05310088 313.58651642 -405.69921875 307.4375 C-421.04237618 281.49136944 -434.10261477 254.76761445 -427.1640625 223.8359375 C-423.91211523 212.23552893 -417.71299166 202.26942117 -409 194 C-408.41476562 193.43023437 -407.82953125 192.86046875 -407.2265625 192.2734375 C-393.34015922 179.56053309 -375.7250162 175.30296835 -357.33203125 175.75390625 C-322.16971415 177.32205041 -290.14525595 201.23219003 -267 226 C-265.31416271 227.88232182 -263.65713546 229.7853899 -262.01171875 231.703125 C-259.39719915 234.68824641 -256.69961361 237.59192682 -254 240.5 C-249.5825047 245.264032 -245.26006137 250.09447478 -241 255 C-219.2401494 280.0350446 -191.83072381 306.4007721 -156.92773438 309.1640625 C-142.21574999 309.96146003 -128.26661617 307.5929518 -116.3125 298.375 C-106.28355466 289.07930302 -101.6740863 275.55763973 -100.96875 262.15625 C-101.31534447 227.15020877 -124.37503071 202.23686483 -147.78515625 179.1171875 C-150.74745487 176.22242758 -153.78546457 173.44794313 -156.9453125 170.76953125 C-160.67477758 167.55765353 -164.26023475 164.18347876 -167.875 160.84375 C-170.12329334 158.77769173 -172.41685879 156.77376018 -174.73046875 154.78125 C-194.92710189 137.15056289 -217.12582512 115.90085595 -221 88 C-222.18674639 70.27662353 -218.48188163 54.40148357 -206.625 40.6875 C-195.1687038 28.60005559 -181.43415337 22.15050118 -164.73461914 21.5949707 C-144.90534377 21.34824102 -130.35115951 29.40230325 -114 39.5625 C-98.47406892 49.19489413 -82.16022823 57.81047447 -63.3046875 54.53125 C-49.31261122 50.84681612 -38.75707214 40.89417728 -31 29 C-31.845625 29.226875 -32.69125 29.45375 -33.5625 29.6875 C-37.90818701 30.08256246 -40.21675458 29.10988687 -44 27 C-45.77473737 24.21957812 -46.3636555 21.84044895 -46.5 18.5625 C-46.57734375 17.45068359 -46.57734375 17.45068359 -46.65625 16.31640625 C-45.58256196 12.52654309 -43.30150949 10.85277774 -40 9 C-35.82445127 7.35539141 -31.58600428 6.02363549 -27.27929688 4.77758789 C-25.26254595 4.19114817 -23.25666794 3.57503032 -21.25 2.95507812 C-5.36264615 -1.83752013 -5.36264615 -1.83752013 0 0 Z " fill="#084c61" transform="translate(507,25)"/>
</svg>
