<?xml version="1.0"?>
<svg xmlns="http://www.w3.org/2000/svg" data-name="Layer 1" id="Layer_1" viewBox="0 0 128 128"><defs><style>.cls-1{fill:#fc785e;}.cls-2{fill:#f9dbd7;opacity:0.3;}.cls-3{fill:#e1ebf4;}.cls-4{fill:#a54b3f;}.cls-4,.cls-7,.cls-8,.cls-9{opacity:0.5;}.cls-5{fill:#2d4356;}.cls-6{fill:#ffdb80;}.cls-7{fill:#fff;}.cls-8{fill:#9fa5aa;}.cls-9{fill:#f9edd2;}.cls-10{fill:#ad9359;opacity:0.45;}</style></defs><title/><path class="cls-1" d="M120.88,31.5h-5.16a13.2705,13.2705,0,0,1-2.71,1.5,11.14319,11.14319,0,0,1-1.1.4,4.1236,4.1236,0,0,1-.47.13c-.16.04-.31.08-.47.12a8.31776,8.31776,0,0,1-.97.19,12.58209,12.58209,0,0,1-4,0,8.31776,8.31776,0,0,1-.97-.19c-.16-.04-.31006-.08-.47-.12a4.1236,4.1236,0,0,1-.47-.13,11.14319,11.14319,0,0,1-1.1-.4,13.2705,13.2705,0,0,1-2.71-1.5H95.69s-5.19,1.33-5.19,5.33V64.35A15.95073,15.95073,0,0,1,115.94,76h9.73V35.17Zm-12.9,17.96-2.86-2.71L107.82,35l.18-.78.18.78,2.71,11.72Z"/><path class="cls-2" d="M124,37.8v2a4.87978,4.87978,0,0,0-4.95-4.8H96.95A4.87978,4.87978,0,0,0,92,39.8v-2A4.87978,4.87978,0,0,1,96.95,33h6.04a11.14319,11.14319,0,0,0,1.1.4,4.1236,4.1236,0,0,0,.47.13c.16.04.31.08.47.12a8.31776,8.31776,0,0,0,.97.19,12.58209,12.58209,0,0,0,4,0,8.31776,8.31776,0,0,0,.97-.19c.16-.04.31006-.08.47-.12a4.1236,4.1236,0,0,0,.47-.13,11.14319,11.14319,0,0,0,1.1-.4h6.04A4.87978,4.87978,0,0,1,124,37.8Z"/><path class="cls-1" d="M31.25,30.5H28.97A13.80516,13.80516,0,0,1,25,33c-.36.15-.72.28-1.09.4a11.26788,11.26788,0,0,1-1.91.44,12.46666,12.46666,0,0,1-1.37.14c-.21.01-.42.02-.63.02s-.42-.01-.63-.02A12.46666,12.46666,0,0,1,18,33.84a11.26788,11.26788,0,0,1-1.91-.44c-.37006-.12-.73-.25-1.09-.4a13.80516,13.80516,0,0,1-3.97-2.5H8.42c-4.42,0-6.75,6.75-6.75,6.75L1.12,75.21l2.05,2.04H12v-.06A15.97384,15.97384,0,0,1,38.92,65.53V38.17C38.92,33.58,31.25,30.5,31.25,30.5ZM20.02,49.46,17.11,46.72,19.82,35l.18-.78.18.78,2.7,11.75Z"/><path class="cls-2" d="M36,37.8v2A4.87978,4.87978,0,0,0,31.05,35H8.95A4.87978,4.87978,0,0,0,4,39.8v-2A4.87978,4.87978,0,0,1,8.95,33H15c.36.15.72.28,1.09.4a11.26788,11.26788,0,0,0,1.91.44,12.46666,12.46666,0,0,0,1.37.14c.21.01.42.02.63.02s.42-.01.63-.02A12.46666,12.46666,0,0,0,22,33.84a11.26788,11.26788,0,0,0,1.91-.44c.37006-.12.73-.25,1.09-.4h6.05A4.87978,4.87978,0,0,1,36,37.8Z"/><path class="cls-3" d="M115.98193,76.83331c.00269.11975.01807.23627.01807.35663a16.01833,16.01833,0,0,1-16,16c-.45007,0-.89258-.03094-1.33331-.06757V117.5H117V76.83331Z"/><rect class="cls-3" height="40.66667" width="18.33333" x="54.66667" y="76.83333"/><path class="cls-1" d="M81.67,35.17V76H46.5V36.83c0-4,5.19-5.33,5.19-5.33h1.49A14.83374,14.83374,0,0,0,57.04,35a13.11048,13.11048,0,0,0,13.92,0,14.83374,14.83374,0,0,0,3.86-3.5h2.06Z"/><path class="cls-3" d="M28,93.18751A15.88807,15.88807,0,0,1,12.15723,75.06738L9.66669,74v43.83331H29.5V93.11151C29.00555,93.15778,28.50629,93.18751,28,93.18751Z"/><path class="cls-4" d="M52,73v2H48.32a.302.302,0,0,1-.32-.27v-2a.302.302,0,0,0,.32.27Z"/><path class="cls-4" d="M8,73v2H4.32A.302.302,0,0,1,4,74.73v-2a.302.302,0,0,0,.32.27Z"/><path class="cls-4" d="M80,72.73v2a.302.302,0,0,1-.32.27H76V73h3.68A.302.302,0,0,0,80,72.73Z"/><path class="cls-4" d="M124,72.73v2a.302.302,0,0,1-.32.27H120V73h3.68A.302.302,0,0,0,124,72.73Z"/><rect class="cls-4" height="2" width="16" x="56" y="73"/><path class="cls-5" d="M64,11c-5.51,0-10,4.93-10,11,0,6.06,4.49,11,10,11s10-4.94,10-11C74,15.93,69.51,11,64,11Zm0,18c-3.31,0-6-3.14-6-7s2.69-7,6-7,6,3.14,6,7S67.31,29,64,29Z"/><ellipse class="cls-3" cx="64" cy="22" rx="6" ry="7"/><path class="cls-5" d="M64,37.85a12,12,0,1,0,12,12A12.01595,12.01595,0,0,0,64,37.85Zm0,20a8,8,0,1,1,8-8A8.00419,8.00419,0,0,1,64,57.85Z"/><path class="cls-6" d="M72,49.85a8,8,0,1,1-8-8A8.00419,8.00419,0,0,1,72,49.85Z"/><path class="cls-5" d="M62.91409,45.93991a1.99984,1.99984,0,0,0-2.8282,2.8282l1.086,1.08589-1.086,1.08591a1.99984,1.99984,0,0,0,2.8282,2.8282L64,52.68211l1.08589,1.086a1.99984,1.99984,0,1,0,2.8282-2.8282l-1.086-1.08591,1.086-1.08589a1.99984,1.99984,0,1,0-2.8282-2.8282L64,47.02591Z"/><path class="cls-5" d="M26.89,46.33,23.91,33.4v-.01a13.60611,13.60611,0,0,1-1.91.45,12.46666,12.46666,0,0,1-1.37.14c-.21.01-.42.02-.63.02s-.42-.01-.63-.02A12.46666,12.46666,0,0,1,18,33.84a13.60611,13.60611,0,0,1-1.91-.45v.01l-3,12.96a3.13773,3.13773,0,0,0,1.34,3.32l3.91,3.69a2.56573,2.56573,0,0,0,1.7.63,2.46429,2.46429,0,0,0,1.48-.48l4.08-3.84A3.09715,3.09715,0,0,0,26.89,46.33Zm-6.87,3.13L17.11,46.72,20,34.22l2.88,12.53Z"/><polygon class="cls-6" points="22.88 46.75 20.02 49.46 17.11 46.72 20 34.22 22.88 46.75"/><path class="cls-5" d="M20,8c-5.51,0-10,4.93-10,11,0,6.06,4.49,11,10,11s10-4.94,10-11C30,12.93,25.51,8,20,8Zm0,18c-3.31,0-6-3.14-6-7s2.69-7,6-7,6,3.14,6,7S23.31,26,20,26Z"/><ellipse class="cls-3" cx="20" cy="19" rx="6" ry="7"/><path class="cls-5" d="M28,114.61331A1.27924,1.27924,0,0,1,26.92289,116H22V92.00931a15.99678,15.99678,0,0,1-4-2.3516V116H13.07709A1.278,1.278,0,0,1,12,114.61471V65a2,2,0,0,0-4,0V75H4.31739A.29945.29945,0,0,1,4,74.73341V37.79831A4.88057,4.88057,0,0,1,8.94919,33h6.0664a14.05758,14.05758,0,0,1-5.4209-4h-.6455A8.8847,8.8847,0,0,0,0,37.79831v36.9351A4.297,4.297,0,0,0,4.31739,79H8v35.61471A5.24387,5.24387,0,0,0,13.07709,120h13.8458A5.24457,5.24457,0,0,0,32,114.61331V92.66111a15.92609,15.92609,0,0,1-4,.5264Z"/><path class="cls-5" d="M31.04879,29h-.6435a14.05758,14.05758,0,0,1-5.4209,4h6.0644A4.8817,4.8817,0,0,1,36,37.79831v25.5542a16.09342,16.09342,0,0,1,4,3.2876V37.79831A8.88581,8.88581,0,0,0,31.04879,29Z"/><path class="cls-5" d="M28,65.19a12,12,0,1,0,12,12A12.00952,12.00952,0,0,0,28,65.19Zm0,20a8,8,0,1,1,8-8A8.01066,8.01066,0,0,1,28,85.19Z"/><path class="cls-6" d="M36,77.19a8,8,0,1,1-8-8A8.01066,8.01066,0,0,1,36,77.19Z"/><path class="cls-5" d="M30.61719,74.08011l-3.8584,1.897-.6641-.878a1.99971,1.99971,0,1,0-3.1894,2.4131l1.6601,2.1943a2.01811,2.01811,0,0,0,2.47661.5884l5.34079-2.625a2.00025,2.00025,0,0,0-1.7656-3.5898Z"/><path class="cls-5" d="M114.91,46.36l-3-12.96v-.01c-.15.05-.31.09-.47.14-.16.04-.31.08-.47.12-.31995.08-.64.14-.97.19a12.58209,12.58209,0,0,1-4,0c-.33-.05-.65-.11-.97-.19-.16-.04-.31006-.08-.47-.12-.16-.05-.32-.09-.47-.14v.01l-2.98,12.93a3.09715,3.09715,0,0,0,1.29,3.35l4.08,3.84a2.46429,2.46429,0,0,0,1.48.48,2.56573,2.56573,0,0,0,1.7-.63l3.91-3.69A3.13773,3.13773,0,0,0,114.91,46.36Zm-6.93,3.1-2.86-2.71L108,34.22l2.89,12.5Z"/><polygon class="cls-6" points="110.89 46.72 107.98 49.46 105.12 46.75 108 34.22 110.89 46.72"/><path class="cls-5" d="M108,8c-5.51,0-10,4.93-10,11,0,6.06,4.49,11,10,11s10-4.94,10-11C118,12.93,113.51,8,108,8Zm0,18c-3.31,0-6-3.14-6-7s2.69-7,6-7,6,3.14,6,7S111.31,26,108,26Z"/><ellipse class="cls-3" cx="108" cy="19" rx="6" ry="7"/><path class="cls-5" d="M119.05079,29h-.6455a14.05758,14.05758,0,0,1-5.4209,4h6.0664A4.88059,4.88059,0,0,1,124,37.79831v36.9351A.29948.29948,0,0,1,123.68259,75H120V65a2,2,0,0,0-4,0v49.61471A1.278,1.278,0,0,1,114.92289,116H110V89.65771a15.99769,15.99769,0,0,1-4,2.3516V116h-4.92291A1.27922,1.27922,0,0,1,100,114.61331V93.18751a15.92639,15.92639,0,0,1-4-.5264v21.9522A5.24455,5.24455,0,0,0,101.07709,120h13.8458A5.24389,5.24389,0,0,0,120,114.61471V79h3.68259A4.297,4.297,0,0,0,128,74.73341V37.79831A8.88472,8.88472,0,0,0,119.05079,29Z"/><path class="cls-5" d="M92,63.35251V37.79831A4.88168,4.88168,0,0,1,96.95119,33h6.0644a14.05758,14.05758,0,0,1-5.4209-4h-.6435A8.88579,8.88579,0,0,0,88,37.79831v28.8418A16.09249,16.09249,0,0,1,92,63.35251Z"/><path class="cls-2" d="M54.52,33.01A12.98813,12.98813,0,0,0,57.04,35H52.95A4.87978,4.87978,0,0,0,48,39.8v-2a4.8621,4.8621,0,0,1,4.82-4.79Z"/><path class="cls-2" d="M80,37.8v2A4.87978,4.87978,0,0,0,75.05,35H70.96a12.98813,12.98813,0,0,0,2.52-1.99h1.7A4.8621,4.8621,0,0,1,80,37.8Z"/><path class="cls-5" d="M100,65.19a12,12,0,1,0,12,12A12.00952,12.00952,0,0,0,100,65.19Zm0,20a8,8,0,1,1,8-8A8.01066,8.01066,0,0,1,100,85.19Z"/><path class="cls-6" d="M108,77.19a8,8,0,1,1-8-8A8.01066,8.01066,0,0,1,108,77.19Z"/><path class="cls-5" d="M105.29489,74.99271a1.9987,1.9987,0,0,0-2.6777-.9126l-3.8584,1.897-.6641-.878a1.99971,1.99971,0,1,0-3.1894,2.4131l1.6601,2.1943a2.01811,2.01811,0,0,0,2.47661.5884l5.34079-2.625A1.99992,1.99992,0,0,0,105.29489,74.99271Z"/><path class="cls-7" d="M70,22a6.63384,6.63384,0,0,1-.07,1c-.41-3.39-2.91-6-5.93-6s-5.52,2.61-5.93,6A6.63384,6.63384,0,0,1,58,22c0-3.86,2.69-7,6-7S70,18.14,70,22Z"/><path class="cls-8" d="M70,22c0,3.86-2.69,7-6,7s-6-3.14-6-7a6.63384,6.63384,0,0,1,.07-1c.41,3.39,2.91,6,5.93,6s5.52-2.61,5.93-6A6.63384,6.63384,0,0,1,70,22Z"/><path class="cls-7" d="M26,19a6.63384,6.63384,0,0,1-.07,1c-.41-3.39-2.91-6-5.93-6s-5.52,2.61-5.93,6A6.63384,6.63384,0,0,1,14,19c0-3.86,2.69-7,6-7S26,15.14,26,19Z"/><path class="cls-8" d="M26,19c0,3.86-2.69,7-6,7s-6-3.14-6-7a6.63384,6.63384,0,0,1,.07-1c.41,3.39,2.91,6,5.93,6s5.52-2.61,5.93-6A6.63384,6.63384,0,0,1,26,19Z"/><path class="cls-7" d="M114,19a6.63383,6.63383,0,0,1-.07,1c-.41-3.39-2.91-6-5.93-6s-5.52,2.61-5.93,6a6.63383,6.63383,0,0,1-.07-1c0-3.86,2.69-7,6-7S114,15.14,114,19Z"/><path class="cls-8" d="M114,19c0,3.86-2.69,7-6,7s-6-3.14-6-7a6.63383,6.63383,0,0,1,.07-1c.41,3.39,2.91,6,5.93,6s5.52-2.61,5.93-6A6.63383,6.63383,0,0,1,114,19Z"/><path class="cls-9" d="M72,49.85a8.26549,8.26549,0,0,1-.06,1,8.00312,8.00312,0,0,0-15.88,0,8.26549,8.26549,0,0,1-.06-1,8,8,0,0,1,16,0Z"/><path class="cls-10" d="M72,49.85a8,8,0,0,1-16,0,8.267,8.267,0,0,1,.06-1,8.00312,8.00312,0,0,0,15.88,0A8.267,8.267,0,0,1,72,49.85Z"/><path class="cls-9" d="M36,77.19a8.26623,8.26623,0,0,1-.06,1,8.00312,8.00312,0,0,0-15.88,0,8.26623,8.26623,0,0,1-.06-1,8,8,0,0,1,16,0Z"/><path class="cls-10" d="M36,77.19a8,8,0,0,1-16,0,8.26624,8.26624,0,0,1,.06-1,8.00312,8.00312,0,0,0,15.88,0A8.26624,8.26624,0,0,1,36,77.19Z"/><path class="cls-9" d="M108,77.19a8.26622,8.26622,0,0,1-.06,1,8.00312,8.00312,0,0,0-15.88,0,8.26623,8.26623,0,0,1-.06-1,8,8,0,0,1,16,0Z"/><path class="cls-10" d="M108,77.19a8,8,0,0,1-16,0,8.26624,8.26624,0,0,1,.06-1,8.00312,8.00312,0,0,0,15.88,0A8.26622,8.26622,0,0,1,108,77.19Z"/><path class="cls-5" d="M76.32709,29.10061A14.98309,14.98309,0,0,1,73.48539,33h1.5634A4.8817,4.8817,0,0,1,80,37.79831v36.9351A.29948.29948,0,0,1,79.68259,75H76V65a2,2,0,0,0-4,0V75H56V65a2,2,0,0,0-4,0V75H48.31739A.29945.29945,0,0,1,48,74.73341V37.79831A4.88057,4.88057,0,0,1,52.94919,33h1.5654a14.98566,14.98566,0,0,1-2.8417-3.89989A8.8541,8.8541,0,0,0,44,37.79831v36.9351A4.297,4.297,0,0,0,48.31739,79H52v35.61471A5.24387,5.24387,0,0,0,57.07709,120h13.8458A5.24457,5.24457,0,0,0,76,114.61331V79h3.68259A4.297,4.297,0,0,0,84,74.73341V37.79831A8.8544,8.8544,0,0,0,76.32709,29.10061ZM62,116H57.07709A1.278,1.278,0,0,1,56,114.61471V79h6Zm10-1.3867A1.27924,1.27924,0,0,1,70.92289,116H66V79h6Z"/><path class="cls-8" d="M28,112.61v2A1.28112,1.28112,0,0,1,26.92,116H22v-2h4.92A1.28112,1.28112,0,0,0,28,112.61Z"/><path class="cls-8" d="M18,114v2H13.08A1.27447,1.27447,0,0,1,12,114.61v-2A1.27447,1.27447,0,0,0,13.08,114Z"/><path class="cls-8" d="M106,114v2h-4.92a1.28112,1.28112,0,0,1-1.08-1.39v-2a1.28112,1.28112,0,0,0,1.08,1.39Z"/><path class="cls-8" d="M116,112.61v2a1.27447,1.27447,0,0,1-1.08,1.39H110v-2h4.92A1.27447,1.27447,0,0,0,116,112.61Z"/><path class="cls-8" d="M62,114v2H57.08A1.27447,1.27447,0,0,1,56,114.61v-2A1.27447,1.27447,0,0,0,57.08,114Z"/><path class="cls-8" d="M72,112.61v2A1.28112,1.28112,0,0,1,70.92,116H66v-2h4.92A1.28112,1.28112,0,0,0,72,112.61Z"/></svg>
