<svg id="Layer_1" height="512" viewBox="0 0 512 512" width="512" xmlns="http://www.w3.org/2000/svg" data-name="Layer 1"><path d="m256 0c141.385 0 256 114.615 256 256s-114.615 256-256 256-256-114.615-256-256 114.615-256 256-256zm154.428 213.459a12.956 12.956 0 0 0 -12.517-16.244h-15.363a86.825 86.825 0 0 1 -173.483 0h-25.934l28.51 108.639h164.528a12.821 12.821 0 0 0 12.548-9.66zm-12.517-23.859h-15.363a86.825 86.825 0 0 0 -173.483 0h-27.94l-8.744-33.305a26.727 26.727 0 0 0 -26.144-20.155h-48.937a3.809 3.809 0 0 0 0 7.618h48.933a19.183 19.183 0 0 1 18.777 14.473l38.751 147.626h-4.043a23.16 23.16 0 1 0 0 46.32h31.594a27.776 27.776 0 1 0 22.011 0h90.619a27.791 27.791 0 1 0 21.981 0h1.079a18.711 18.711 0 0 1 15.931 8.333l5.66 8.189a3.848 3.848 0 0 0 3.145 1.638 3.724 3.724 0 0 0 2.156-.686 3.8 3.8 0 0 0 .958-5.3l-5.66-8.181a26.349 26.349 0 0 0 -22.19-11.611h-167.28a15.542 15.542 0 1 1 0-31.084h176.447a20.3 20.3 0 0 0 19.885-15.349l21.746-82.738a20.586 20.586 0 0 0 -19.889-25.788zm-113.26-54.85a59.719 59.719 0 0 0 -4.432 116.321 3.806 3.806 0 1 0 1.977-7.35 52.122 52.122 0 0 1 2.455-101.213l-8.026 6.436a3.809 3.809 0 0 0 2.367 6.786 3.853 3.853 0 0 0 2.395-.839l16.8-13.463a3.835 3.835 0 0 0 1.438-3.022 3.783 3.783 0 0 0 -1.5-2.989l-16.825-12.782a3.809 3.809 0 0 0 -4.611 6.063l7.965 6.049zm.989 59.459a14.246 14.246 0 0 0 2.905-17.666c-2.546-4.513-7.547-7.242-13.327-7.3h-.18c-5.929 0-11.259 2.762-13.9 7.237a13.822 13.822 0 0 0 -.18 13.667 3.8 3.8 0 1 0 6.649-3.689 6.169 6.169 0 0 1 .089-6.106c1.258-2.094 4.193-3.491 7.337-3.491h.12c3.025.032 5.54 1.307 6.738 3.421a6.644 6.644 0 0 1 -1.108 8.043c-3.953 2.361-7.816 4.945-11.5 7.674a19.475 19.475 0 0 0 -8.086 16.009v1.758a3.806 3.806 0 0 0 3.8 3.809h22.4a3.809 3.809 0 0 0 0-7.618h-18.408a11.747 11.747 0 0 1 4.822-7.833c3.593-2.666 7.4-5.18 11.23-7.47a3.592 3.592 0 0 0 .6-.445zm39.23-4.989a3.818 3.818 0 0 0 -7.636 0v6.144h-10.334l11.859-20.541a3.8 3.8 0 1 0 -6.588-3.809l-15.154 26.254a3.809 3.809 0 0 0 3.3 5.713h16.92v10.919a3.818 3.818 0 0 0 7.636 0v-10.922h3.713a3.809 3.809 0 0 0 0-7.617h-3.716v-6.144zm-15.153-46.04a52.107 52.107 0 0 1 -4.672 101.505l8.146-7.357a3.812 3.812 0 0 0 -5.121-5.649l-15.662 14.156a3.806 3.806 0 0 0 -1.258 3.1 3.878 3.878 0 0 0 1.677 2.889l17.908 12a3.9 3.9 0 0 0 2.126.641 3.806 3.806 0 0 0 2.127-6.97l-8.056-5.4a59.737 59.737 0 0 0 4.821-116.257 3.808 3.808 0 0 0 -2.036 7.338z" fill-rule="evenodd"/></svg>