<svg enable-background="new 0 0 64 64" viewBox="0 0 64 64" xmlns="http://www.w3.org/2000/svg"><g id="Layer_1" fill="#f4bb56"><path d="m21.3 3h-2.8c-5.5 0-10.3 3.7-11.6 9-.6 2.5-1.3 5.2-1.9 7.7-.6 2.3-.1 4.8 1.4 6.7s3.7 3 6.1 3c2.3 0 4.6-.9 6.2-2.6 1.6-1.6 2.6-3.9 2.6-6.2 0-7.7 0-17.6 0-17.6z"/><path d="m44.4 35.1c1.2-.9 2.9-.9 4.1 0 .3.2.6.4.8.6.5.4 1.2.6 1.8.6h1c1.5 0 2.9 1 3.3 2.4.1.3.2.7.3 1 .2.6.6 1.2 1.1 1.5.3.2.5.4.8.6 1.2.9 1.7 2.5 1.3 3.9-.1.3-.2.7-.3 1-.2.6-.2 1.3 0 1.9.1.3.2.6.3 1 .5 1.4 0 3-1.3 3.9-.3.2-.6.4-.8.6-.5.4-.9.9-1.1 1.6-.1.3-.2.6-.3 1-.5 1.4-1.8 2.4-3.3 2.4-.4 0-.7 0-1 0-.7 0-1.3.2-1.8.6-.3.2-.5.4-.8.6-1.2.9-2.9.9-4.1 0-.3-.2-.6-.4-.8-.6-.5-.4-1.2-.6-1.8-.6-.3 0-.7 0-1 0-1.5 0-2.9-1-3.3-2.4-.1-.3-.2-.7-.3-1-.2-.6-.6-1.2-1.1-1.6-.3-.2-.5-.4-.8-.6-1.2-.9-1.7-2.5-1.3-3.9.1-.3.2-.7.3-1 .2-.6.2-1.3 0-1.9-.1-.3-.2-.6-.3-1-.5-1.4 0-3 1.3-3.9.3-.2.6-.4.8-.6.5-.4.9-.9 1.1-1.5.1-.3.2-.6.3-1 .5-1.4 1.8-2.4 3.3-2.4h1c.7 0 1.3-.2 1.8-.6.3-.2.6-.4.8-.6z"/></g><g id="Layer_2"><g><g><path d="m47.9 44.6-2.3 2.3c-.1.1-.3.1-.4 0l-.6-.6c-.9-.9-2.3-.8-3 .3-.6.8-.4 1.9.3 2.6l.4.4c.7.7 1.6 1.2 2.6 1.3 1.3.2 2.6-.3 3.6-1.2l2.3-2.3c.8-.8.8-2 0-2.8s-2.1-.8-2.9 0zm12.8 3.5c-.1-.2-.1-.5 0-.7l.3-1c.7-2.3-.1-4.7-2-6.1l-.8-.6c-.2-.1-.3-.3-.4-.5l-.3-1c-.6-1.9-2.2-3.3-4.1-3.7v-4.2c1.2-.6 2.3-1.5 3.2-2.6 1.9-2.4 2.5-5.5 1.8-8.4l-1.9-7.7c-1.7-6.3-7.3-10.6-13.6-10.6h-24.5c-6.4 0-11.9 4.3-13.5 10.5l-1.9 7.7c-.7 2.9-.1 6 1.8 8.4s4.7 3.8 7.7 3.8c2.9 0 5.6-1.1 7.6-3.2.5-.5.9-1 1.3-1.6.4.5.8 1 1.2 1.4 2.1 2.1 5 3.3 8 3.3s5.9-1.2 8-3.3c.4-.4.8-.9 1.2-1.4.4.6.8 1.1 1.3 1.6 2 2 4.7 3.2 7.6 3.2h.6v1.9c-1.9-1.1-4.3-1.1-6.1.2l-.8.6c-.2.1-.4.2-.6.2h-1c-.7 0-1.3.1-1.9.3-.9-.7-2-1.1-3.2-1.1h-10.1c-2.8 0-5 2.3-5 5v7.2c0 1.1.9 2 2 2s2-.9 2-2v-7.2c0-.6.5-1 1-1h10.1.1c-.1.2-.2.4-.2.6l-.3 1c-.1.2-.2.4-.4.6l-.9.5c-1.9 1.4-2.7 3.9-2 6.1l.3 1c.1.2.1.5 0 .7l-.3 1c-.3.9-.3 1.8-.2 2.7h-15.6c-2.4 0-4.3-1.9-4.3-4.3v-11.5c0-1.1-.9-2-2-2s-2 .9-2 2v11.5c0 4.6 3.7 8.3 8.3 8.3h18.5.1c.2.1.3.3.4.5l.3 1c.7 2.3 2.8 3.8 5.2 3.8h1c.2 0 .5.1.7.3l.8.6c1 .7 2.1 1.1 3.2 1.1s2.3-.4 3.2-1.1l.8-.6c.2-.1.4-.2.6-.2h1c2.4 0 4.5-1.5 5.2-3.8l.3-1c.1-.2.2-.4.4-.5l.8-.6c1.9-1.4 2.7-3.9 2-6.2zm-11.9-20.7c-1.8 0-3.5-.7-4.8-2s-2-3-2-4.8v-.6c0-1.1-.9-2-2-2s-2 .9-2 2c0 2-.8 3.8-2.2 5.2s-3.2 2.2-5.2 2.2-3.8-.8-5.2-2.2-2.1-3.2-2.1-5.2c0-1.1-.9-2-2-2s-2 .9-2 2v.6c0 1.8-.7 3.5-2 4.8s-3 2-4.8 2-3.5-.8-4.6-2.2-1.5-3.2-1.1-5l1.9-7.7c1.2-4.4 5.2-7.5 9.7-7.5h24.4c4.6 0 8.5 3.1 9.6 7.5l1.9 7.7c.4 1.7.1 3.6-1.1 5-.5.8-1.3 1.4-2.2 1.8-.2 0-.4.1-.6.2-.5.1-1 .2-1.6.2zm7.9 24.6-.8.6c-.9.6-1.5 1.5-1.9 2.5l-.3 1c-.2.6-.8 1-1.4 1h-1c-1.1 0-2.1.3-3 1l-.8.6c-.5.4-1.2.4-1.8 0l-.8-.6c-.9-.6-1.9-1-3-1h-1c-.7 0-1.2-.4-1.4-1l-.3-1c-.3-1-1-1.9-1.9-2.5l-1-.6c-.5-.4-.7-1.1-.5-1.7l.3-1c.3-1 .3-2.1 0-3.2l-.3-1c-.2-.6 0-1.3.5-1.7l.8-.6c.9-.6 1.5-1.5 1.9-2.6l.3-1c.2-.6.8-1 1.4-1h1c1.1 0 2.1-.3 3-1l.8-.6c.5-.4 1.2-.4 1.8 0l.8.6c.9.6 1.9 1 3 1h1c.7 0 1.2.4 1.4 1l.3 1c.3 1 1 1.9 1.9 2.5l.8.6c.5.4.7 1.1.5 1.7l-.3 1c-.3 1-.3 2.1 0 3.2l.3 1c.4.7.2 1.4-.3 1.8z" fill="#2d1f47"/></g></g></g></svg>