<svg id="Layer_1" fill="white" enable-background="new 0 0 450 450" height="512" viewBox="0 0 450 450" width="512" xmlns="http://www.w3.org/2000/svg"><g><path d="m407.16 389.42h-62.86c-2.76 0-5-2.24-5-5s2.24-5 5-5h57.86v-254.49c0-2.76 2.24-5 5-5s5 2.24 5 5v259.49c0 2.77-2.24 5-5 5zm-288.96 0h-75.36c-2.76 0-5-2.24-5-5v-259.49c0-2.76 2.24-5 5-5s5 2.24 5 5v254.49h70.36c2.76 0 5 2.24 5 5 0 2.77-2.23 5-5 5z"/><path d="m433.43 100.37c-2.18 0-4.18-1.44-4.81-3.64l-23.14-81.76h-360.97l-23.14 81.76c-.75 2.66-3.52 4.2-6.17 3.45-2.66-.75-4.2-3.51-3.45-6.17l24.17-85.4c.61-2.15 2.57-3.64 4.81-3.64h368.54c2.24 0 4.2 1.49 4.81 3.64l24.17 85.4c.75 2.66-.79 5.42-3.45 6.17-.46.12-.92.19-1.37.19z"/><path d="m46.34 130.14c-19.18 0-34.78-15.6-34.78-34.78 0-2.76 2.24-5 5-5h59.55c2.76 0 5 2.24 5 5 .01 19.18-15.59 34.78-34.77 34.78zm-24.27-29.78c2.32 11.27 12.32 19.78 24.27 19.78s21.95-8.5 24.27-19.78z"/><path d="m105.9 130.14c-19.18 0-34.78-15.6-34.78-34.78 0-2.76 2.24-5 5-5h59.55c2.76 0 5 2.24 5 5 0 19.18-15.6 34.78-34.77 34.78zm-24.27-29.78c2.32 11.27 12.32 19.78 24.27 19.78s21.95-8.5 24.27-19.78z"/><path d="m165.45 130.14c-19.18 0-34.78-15.6-34.78-34.78 0-2.76 2.24-5 5-5h59.55c2.76 0 5 2.24 5 5 0 19.18-15.6 34.78-34.77 34.78zm-24.27-29.78c2.32 11.27 12.32 19.78 24.27 19.78s21.95-8.5 24.27-19.78z"/><path d="m225 130.14c-19.18 0-34.78-15.6-34.78-34.78 0-2.76 2.24-5 5-5h59.55c2.76 0 5 2.24 5 5 .01 19.18-15.59 34.78-34.77 34.78zm-24.27-29.78c2.32 11.27 12.32 19.78 24.27 19.78s21.95-8.5 24.27-19.78z"/><path d="m284.55 130.14c-19.18 0-34.78-15.6-34.78-34.78 0-2.76 2.24-5 5-5h59.55c2.76 0 5 2.24 5 5 .01 19.18-15.59 34.78-34.77 34.78zm-24.27-29.78c2.32 11.27 12.32 19.78 24.27 19.78s21.95-8.5 24.27-19.78z"/><path d="m344.1 130.14c-19.18 0-34.78-15.6-34.78-34.78 0-2.76 2.24-5 5-5h59.55c2.76 0 5 2.24 5 5 .01 19.18-15.59 34.78-34.77 34.78zm-24.26-29.78c2.32 11.27 12.32 19.78 24.27 19.78s21.95-8.5 24.27-19.78z"/><path d="m403.66 130.14c-19.18 0-34.78-15.6-34.78-34.78 0-2.76 2.24-5 5-5h59.55c2.76 0 5 2.24 5 5 0 19.18-15.6 34.78-34.77 34.78zm-24.27-29.78c2.32 11.27 12.32 19.78 24.27 19.78s21.95-8.5 24.27-19.78z"/><path d="m421.35 57.66h-392.7c-2.76 0-5-2.24-5-5s2.24-5 5-5h392.7c2.76 0 5 2.24 5 5s-2.24 5-5 5z"/><path d="m231.22 445.04c-25.84 0-51.37-6.85-73.83-19.82-22.44-12.95-41.14-31.66-54.09-54.09-2.09-3.63-2.63-7.84-1.54-11.87s3.68-7.39 7.3-9.47c7.47-4.29 17.04-1.71 21.33 5.76 10.2 17.66 24.92 32.39 42.59 42.59 17.64 10.18 37.78 15.57 58.25 15.57 31.09 0 60.33-12.11 82.31-34.09 21.98-21.99 34.09-51.22 34.09-82.31s-12.11-60.33-34.09-82.31c-21.99-21.99-51.22-34.09-82.31-34.09s-60.33 12.11-82.31 34.09c-18.96 18.96-30.72 43.71-33.47 70.2h6.81c1.79 0 3.44.95 4.33 2.5s.89 3.45 0 5l-23.11 40.02c-.89 1.55-2.54 2.5-4.33 2.5s-3.44-.95-4.33-2.5l-23.11-40.02c-.89-1.55-.89-3.45 0-5s2.54-2.5 4.33-2.5h7.93c2.84-34.85 17.92-67.5 42.79-92.36 27.91-27.91 65.01-43.28 104.48-43.28 39.46 0 76.57 15.37 104.48 43.28s43.28 65.01 43.28 104.47-15.37 76.57-43.28 104.48c-27.93 27.88-65.04 43.25-104.5 43.25zm-114.4-87.34c-.95 0-1.91.24-2.79.75-1.3.75-2.24 1.96-2.63 3.41s-.2 2.97.55 4.27c12.07 20.91 29.51 38.35 50.43 50.42 20.95 12.09 44.75 18.48 68.83 18.48 36.79 0 71.39-14.33 97.4-40.35 26.02-26.02 40.35-60.61 40.35-97.4s-14.33-71.39-40.35-97.4c-26.02-26.02-60.61-40.35-97.4-40.35s-71.39 14.33-97.4 40.35c-24.23 24.23-38.5 56.39-40.18 90.53-.13 2.66-2.33 4.76-4.99 4.76h-3.95l14.45 25.02 14.45-25.02h-3.57c-1.38 0-2.69-.57-3.64-1.57-.94-1-1.43-2.35-1.36-3.72 1.79-30.92 14.86-60.03 36.81-81.98 23.87-23.87 55.62-37.02 89.38-37.02s65.51 13.15 89.38 37.02c23.87 23.88 37.02 55.62 37.02 89.38 0 33.77-13.15 65.51-37.02 89.38-23.87 23.88-55.62 37.02-89.38 37.02-22.22 0-44.09-5.85-63.25-16.91-19.18-11.08-35.18-27.07-46.26-46.26-1.02-1.79-2.93-2.81-4.88-2.81z"/><g><path d="m210.52 308.28c10.22-11.08 15.4-20.79 15.4-28.87 0-6.69-2.27-12.13-6.74-16.17-4.46-4.02-10.59-6.06-18.22-6.06-8.16 0-14.77 2.37-19.66 7.05s-7.37 10.9-7.37 18.47v.5h11.31v-.5c0-5.04 1.39-9.02 4.12-11.83 2.73-2.8 6.63-4.22 11.6-4.22 4.11 0 7.44 1.32 9.89 3.91 2.46 2.6 3.71 5.99 3.71 10.08 0 3.06-.78 6.06-2.31 8.93-1.56 2.91-4.43 6.75-8.54 11.41l-28.09 31.21-.13.14v8.1h54.16v-9.42h-40.1z"/><path d="m284.1 312.18v-53.89h-11.75l-36.56 56.58v6.72h36.95v18.84h11.36v-18.83h11.26v-9.41h-11.26zm-35.2 0 23.54-36.82.29-.52v37.34z"/></g><path d="m231.22 208.51c-2.76 0-5-2.24-5-5v-27.57c0-2.76 2.24-5 5-5s5 2.24 5 5v27.57c0 2.76-2.24 5-5 5z"/><path d="m352.62 302.29h-27.57c-2.76 0-5-2.24-5-5s2.24-5 5-5h27.57c2.76 0 5 2.24 5 5s-2.23 5-5 5z"/></g></svg>