<?xml version="1.0" encoding="iso-8859-1"?>
<!-- Generator: Adobe Illustrator 19.0.0, SVG Export Plug-In . SVG Version: 6.00 Build 0)  -->
<svg version="1.1" id="Layer_1" fill="white" xmlns="http://www.w3.org/2000/svg" xmlns:xlink="http://www.w3.org/1999/xlink" x="0px" y="0px"
	 viewBox="0 0 491.52 491.52" style="enable-background:new 0 0 491.52 491.52;" xml:space="preserve">
<circle style="fill:#E05B49;" cx="245.76" cy="245.76" r="245.76"/>
<path style="opacity:0.1;enable-background:new    ;" d="M355.021,135.468c-7.578-7.834-18.227-12.698-30.003-12.698
	c-4.301,0-8.448,0.666-12.39,1.894c-9.83-12.033-24.73-19.713-41.472-19.713c-15.104,0-28.723,6.298-38.451,16.385
	c-9.318-5.786-20.275-9.164-32-9.164c-32.768,0-59.443,26.06-60.416,58.572c-20.019,3.123-35.328,20.378-35.328,41.268
	c0,10.137,3.584,19.404,9.574,26.624c1.69,2.047,3.584,3.942,5.632,5.683l0.205,0.153l65.075,65.076v70.298
	c0,1.638,0.614,3.123,1.638,4.3l0.819,0.82l102.41,102.451c106.448-19.505,188.941-107.523,199.95-216.705l-134.271-134.27
	L355.021,135.468z"/>
<path style="fill:#EBF0F3;" d="M365.323,175.63c0.961-3.517,1.517-7.201,1.517-11.023c0-23.098-18.725-41.823-41.822-41.823
	c-4.313,0-8.474,0.655-12.388,1.868c-9.816-12.014-24.738-19.692-41.461-19.692c-15.12,0-28.75,6.295-38.483,16.377
	c-9.283-5.805-20.247-9.171-32.002-9.171c-32.759,0-59.413,26.06-60.408,58.578c-20,3.132-35.315,20.387-35.315,41.266
	c0,23.098,18.725,41.823,41.822,41.823c4.239,0,8.326-0.642,12.182-1.815c7.656,20.198,27.129,34.583,50.011,34.583
	c5.215,0,10.241-0.781,15.006-2.172c10.971,15.285,28.882,25.251,49.133,25.251c32.37,0,58.797-25.442,60.378-57.421
	c3.583,0.999,7.343,1.574,11.244,1.574c23.098,0,41.823-18.725,41.823-41.823C386.56,196.402,377.994,182.816,365.323,175.63z"/>
<g>
	<path style="fill:#FFFFFF;" d="M131.622,191.101l8.39-1.315l0.26-8.49c0-0.013,0.003-0.026,0.003-0.039
		c-8.765,1.833-16.039,7.073-20.444,14.291C123.343,193.369,127.288,191.78,131.622,191.101z"/>
	<path style="fill:#FFFFFF;" d="M313.657,249.199l-0.63,12.795c-0.51,10.3-4.115,19.722-9.859,27.437
		c11.55-8.633,19.286-22.107,20.087-37.559L313.657,249.199z"/>
	<path style="fill:#FFFFFF;" d="M360.267,184.537l-6.92-3.928l2.095-7.675c0.77-2.818,1.16-5.62,1.16-8.328
		c0-17.415-14.17-31.582-31.585-31.582c-3.19,0-6.34,0.475-9.36,1.41l-6.595,2.04l-4.365-5.345
		c-8.27-10.123-20.49-15.93-33.53-15.93c-11.82,0-22.865,4.705-31.11,13.247l-5.765,5.97l-7.035-4.398
		c-7.965-4.98-17.155-7.613-26.575-7.613c-16.565,0-31.156,7.897-40.285,20.178c8.369-6.232,18.74-9.938,30.045-9.938
		c9.42,0,18.61,2.633,26.575,7.613l7.035,4.398l5.765-5.97c8.245-8.542,19.29-13.247,31.11-13.247c13.04,0,25.26,5.808,33.53,15.93
		l4.365,5.345l6.595-2.04c3.02-0.935,6.17-1.41,9.36-1.41c17.415,0,31.585,14.168,31.585,31.582c0,2.707-0.39,5.51-1.16,8.328
		l-2.095,7.675l6.92,3.928c9.905,5.615,16.055,16.142,16.055,27.472c0,6.087-1.76,11.758-4.756,16.585
		c8.982-5.575,14.996-15.498,14.996-26.825C376.322,200.679,370.172,190.152,360.267,184.537z"/>
</g>
<path style="fill:#FCD462;" d="M273.452,229.695h-81.258c-3.713,0-6.723,3.01-6.723,6.723v143.418c0,3.713,3.01,6.723,6.723,6.723
	h107.132c3.714,0,6.724-3.01,6.724-6.723V262.292L273.452,229.695z"/>
<path style="fill:#F6C358;" d="M273.452,229.695v25.873c0,3.713,3.01,6.723,6.724,6.723h25.873L273.452,229.695z"/>
<g>
	<rect x="198.477" y="276.352" style="fill:#DC8744;" width="94.566" height="6.753"/>
	<rect x="198.477" y="297.984" style="fill:#DC8744;" width="94.566" height="6.753"/>
	<rect x="198.477" y="319.642" style="fill:#DC8744;" width="94.566" height="6.753"/>
	<rect x="198.477" y="341.299" style="fill:#DC8744;" width="94.566" height="6.753"/>
	<rect x="198.477" y="362.936" style="fill:#DC8744;" width="94.566" height="6.753"/>
</g>
<g>
</g>
<g>
</g>
<g>
</g>
<g>
</g>
<g>
</g>
<g>
</g>
<g>
</g>
<g>
</g>
<g>
</g>
<g>
</g>
<g>
</g>
<g>
</g>
<g>
</g>
<g>
</g>
<g>
</g>
</svg>
