<svg id="Layer_1" enable-background="new 0 0 491.5 491.5" height="512" viewBox="0 0 491.5 491.5" width="512" xmlns="http://www.w3.org/2000/svg"><g id="Layer_x0020_1"><g id="_284253408" clip-rule="evenodd" fill-rule="evenodd"><path id="_351897680" d="m381.9 284.5h-45.6c-2.6 0-4.7-2.1-4.7-4.7s2.1-4.7 4.7-4.7h45.6c32.5 0 58.9-26.4 58.9-58.9 0-19.5-9.7-37.8-25.8-48.8-1.3-.9-2-2.3-2.1-3.8-.6-31.9-26-57.3-57.8-57.9-2.3 0-4.2-1.7-4.6-3.9-6.5-36.7-38.3-63.4-75.7-63.4-38 0-70.7 28.4-76 65.9-.2 1.4-1 2.6-2.1 3.3-1.2.7-2.6.9-3.9.5-5.5-1.7-11.2-2.5-17-2.5-28.2 0-52.6 20.1-57.9 47.8-.5 2.3-2.6 4-4.9 3.8-1.1-.1-2.2-.1-3.3-.1-32.5 0-58.9 26.4-58.9 58.9s26.4 58.9 58.9 58.9h45.6c2.6 0 4.7 2.1 4.7 4.7s-2.1 4.7-4.7 4.7h-45.6c-37.7 0-68.4-30.7-68.4-68.4 0-37.6 30.6-68.3 68.2-68.4 7.6-30.1 34.9-51.5 66.3-51.5 4.9 0 9.8.5 14.6 1.6 3.8-18.4 13.5-35.1 27.7-47.5 15.7-13.8 35.9-21.3 56.8-21.3 40.7 0 75.5 28.2 84.2 67.5 16.3 1.2 31.6 8.2 43.3 19.9 12 12 19 27.8 19.9 44.7 17.6 12.9 28 33.3 28 55.2 0 37.7-30.7 68.4-68.4 68.4z" fill="#f9a12a"/><path id="_284258424" d="m273.1 217.8h-50.1c-2.6 0-4.7-2.1-4.7-4.7s2.1-4.7 4.7-4.7h50.1c2.6 0 4.7 2.1 4.7 4.7.1 2.6-2.1 4.7-4.7 4.7zm63.2 244.9h-181.1c-2.6 0-4.7-2.1-4.7-4.7v-244.9c0-2.6 2.1-4.7 4.7-4.7h30.5c2.6 0 4.7 2.1 4.7 4.7s-2.1 4.7-4.7 4.7h-25.8v235.4h171.7v-235.4h-30.4c-2.6 0-4.7-2.1-4.7-4.7s2.1-4.7 4.7-4.7h35.1c2.6 0 4.7 2.1 4.7 4.7v244.9c.1 2.6-2 4.7-4.7 4.7z" fill="#4d81c2"/><g fill="#f9a12a"><path id="_284257008" d="m208 347c-7.1 0-12.9 5.8-12.9 12.9s5.8 12.9 12.9 12.9h75.4c7.1 0 12.9-5.8 12.9-12.9 0-4.3-2.1-8.3-5.7-10.7-1.3-.9-2-2.3-2.1-3.8-.1-7-5.7-12.5-12.7-12.7-2.3 0-4.2-1.7-4.6-3.9-1.5-8.5-8.9-14.7-17.6-14.7-8.8 0-16.4 6.6-17.7 15.3-.2 1.4-1 2.6-2.1 3.3-1.2.8-2.6.9-3.9.5-3.5-1-7.3-.6-10.4 1.3-3.2 1.9-5.3 5-6 8.6-.4 2.3-2.5 4-4.9 3.8-.1.1-.3.1-.6.1zm75.5 35.2h-75.5c-12.3 0-22.4-10-22.4-22.4 0-11.4 8.7-20.9 19.8-22.2 1.8-4.6 5-8.6 9.3-11.2 4-2.4 8.6-3.5 13.1-3.2 3.7-10.9 14.1-18.7 25.9-18.7 12.1 0 22.5 7.8 26.1 19 9.5 1.8 16.9 9.5 18.1 19.2 5 4.2 7.9 10.5 7.9 17.1.1 12.4-10 22.4-22.3 22.4z"/><path id="_284253360" d="m316.4 410.3h-141.3c-2.6 0-4.7-2.1-4.7-4.7s2.1-4.7 4.7-4.7h141.3c2.6 0 4.7 2.1 4.7 4.7s-2.1 4.7-4.7 4.7z"/><path id="_284253096" d="m316.4 436.7h-141.3c-2.6 0-4.7-2.1-4.7-4.7s2.1-4.7 4.7-4.7h141.3c2.6 0 4.7 2.1 4.7 4.7s-2.1 4.7-4.7 4.7z"/></g><path id="_284253672" d="m195.1 286.3h18.6v-50.1c0-2.6 2.1-4.7 4.7-4.7h9.8l-23.8-41.3-23.8 41.3h9.8c2.6 0 4.7 2.1 4.7 4.7zm23.3 9.5h-28.1c-2.6 0-4.7-2.1-4.7-4.7v-50.1h-13.3c-1.7 0-3.3-.9-4.1-2.4s-.8-3.3 0-4.7l32-55.5c.9-1.5 2.4-2.4 4.1-2.4s3.3.9 4.1 2.4l32 55.5c.8 1.5.8 3.3 0 4.7-.8 1.5-2.4 2.4-4.1 2.4h-13.3v50.1c.1 2.6-2 4.7-4.6 4.7z" fill="#4d81c2"/><path id="_284253576" d="m263.3 240.3 23.8 41.3 23.8-41.3h-9.8c-2.6 0-4.7-2.1-4.7-4.7v-50.1h-18.6v50.1c0 2.6-2.1 4.7-4.7 4.7zm23.9 55.5c-1.7 0-3.3-.9-4.1-2.4l-32.1-55.4c-.8-1.5-.8-3.3 0-4.7.8-1.5 2.4-2.4 4.1-2.4h13.3v-50.1c0-2.6 2.1-4.7 4.7-4.7h28.1c2.6 0 4.7 2.1 4.7 4.7v50.1h13.2c1.7 0 3.3.9 4.1 2.4s.8 3.3 0 4.7l-32 55.5c-.8 1.4-2.3 2.3-4 2.3z" fill="#4d81c2"/></g></g></svg>