<svg id="Layer_1" fill="white" enable-background="new 0 0 50 50" viewBox="0 0 50 50" xmlns="http://www.w3.org/2000/svg"><g><path d="m25 1c-13.23 0-24 10.77-24 24 0 3.82.87 7.48 2.6 10.87 4.12 8.1 12.32 13.13 21.4 13.13 7.92 0 15.32-3.9 19.81-10.44 1.37-2.01 2.42-4.18 3.12-6.46.71-2.28 1.07-4.67 1.07-7.1 0-13.23-10.76-24-24-24zm-20.39 33.52c-1.4-2.99-2.11-6.19-2.11-9.52 0-12.15 9.69-22.09 21.75-22.48v22.02zm27.26 7.99c0 1.02-.83 1.84-1.84 1.84h-11.6c-1.02 0-1.85-.82-1.85-1.84v-10.28c0-1.01.83-1.84 1.85-1.84h11.6c1.01 0 1.84.83 1.84 1.84zm12.11-5.42-18.23-12.48v-22.09c12.06.39 21.75 10.33 21.75 22.48 0 4.31-1.21 8.47-3.52 12.09z"/><path d="m21.75 15.05c-.57-1.67-1.82-2.99-3.28-3.56l.44-.62c.16-.22.19-.5.08-.74-.11-.25-.34-.41-.61-.44-.85-.09-1.73.1-2.51.53-.5-.83-1.32-1.41-2.2-1.5-.27-.03-.52.08-.68.29s-.2.49-.1.73l.28.7c-1.68-.24-3.39.19-4.72 1.25-.97.76-1.75 1.68-2.32 2.73-.88 1.62-1.29 3.74-1.15 5.83-.28.5-.42 1.07-.36 1.68.14 1.33 1.19 2.35 2.47 2.51.67 2.41 3.04 4.13 5.9 4.13.08 0 .16 0 .24-.01 2.68-.1 4.91-1.78 5.64-4.1 1.3-.09 2.34-1.1 2.48-2.53.04-.41-.01-.81-.13-1.17.99-1.61 1.2-3.75.53-5.71zm-15.63 6.72c-.05-.5.19-.97.57-1.23-.06.89-.03 1.36.1 2.25-.37-.2-.63-.57-.67-1.02zm11.52 1.27-.04.28c-.07.13-.1.27-.09.41-.44 1.87-2.2 3.25-4.42 3.34-2.26.07-4.29-1.4-4.64-3.36 0-.04.01-.08 0-.12-.01-.05-.03-.09-.05-.14l-.03-.16c-.26-1.75-.27-1.81-.1-3.71 0-.02.38-1.66 1.78-2.32.31.78 1.1 1.83 3.11 2.4.28.08.58-.01.77-.22.19-.22.24-.52.13-.79l-.59-1.44c.42-.15 1.11-.33 1.65-.43.52-.09 1.06-.19 1.59-.21-.09.6.04 1.23.37 1.75.09.14.2.27.3.41.13.17.35.45.33.54-.01.04 0 .07 0 .1 0 .04-.01.07-.01.11.17 1.91.17 1.91-.06 3.56zm1.54-.17c.14-1.02.17-1.45.11-2.32.39.27.62.73.57 1.22-.05.46-.28.9-.68 1.1z"/><path d="m36.63 11.79c-4.5 0-8.16 3.66-8.16 8.15 0 4.5 3.66 8.16 8.16 8.16 4.49 0 8.15-3.66 8.15-8.16 0-4.49-3.66-8.15-8.15-8.15zm0 7.4c1.42 0 2.57 1.16 2.57 2.58 0 1.15-.77 2.12-1.82 2.45v.23c0 .41-.34.75-.75.75-.42 0-.75-.34-.75-.75v-.23c-1.05-.33-1.83-1.3-1.83-2.45 0-.42.34-.75.75-.75.42 0 .75.33.75.75 0 .59.48 1.07 1.08 1.07.59 0 1.07-.48 1.07-1.07 0-.6-.48-1.08-1.07-1.08-1.42 0-2.58-1.15-2.58-2.57 0-1.16.78-2.12 1.83-2.45v-.23c0-.41.33-.75.75-.75.41 0 .75.34.75.75v.23c1.05.33 1.82 1.29 1.82 2.45 0 .41-.34.75-.75.75s-.75-.34-.75-.75c0-.59-.48-1.07-1.07-1.07-.6 0-1.08.48-1.08 1.07s.48 1.07 1.08 1.07z"/><path d="m25.23 31.89v2.62l-.43-.5c-.15-.17-.35-.26-.57-.26s-.43.09-.57.26l-.43.5v-2.62z"/><path d="m30.03 31.89h-3.3v4.64c0 .32-.2.6-.49.71-.09.03-.17.04-.26.04-.22 0-.43-.09-.57-.26l-1.18-1.37-1.18 1.37c-.21.24-.54.32-.83.22-.3-.11-.49-.39-.49-.71v-4.64h-3.3c-.19 0-.35.15-.35.34v10.28c0 .19.16.34.35.34h11.6c.19 0 .34-.15.34-.34v-10.28c0-.19-.15-.34-.34-.34zm-.37 9.73c0 .42-.34.75-.75.75h-3.3c-.42 0-.75-.33-.75-.75v-1.98c0-.41.33-.75.75-.75h3.3c.41 0 .75.34.75.75z"/><path d="m26.36 40.39h1.8v.48h-1.8z"/></g></svg>