<svg id="Layer_1" fill="white" enable-background="new 0 0 512 512" viewBox="0 0 512 512" xmlns="http://www.w3.org/2000/svg"><path d="m296.34 242.05v-18c0-4.91-4-8.91-8.91-8.91h-62.87c-4.91 0-8.91 4-8.91 8.91v18c0 3.31-2.69 6-6 6s-6-2.69-6-6v-18c0-11.53 9.38-20.91 20.91-20.91h62.87c11.53 0 20.91 9.38 20.91 20.91v18c0 3.31-2.69 6-6 6s-6-2.69-6-6zm-9.19-72.39c0 3.31 2.69 6 6 6h55.71c4.91 0 8.91 4 8.91 8.91v57.48c0 3.31 2.69 6 6 6s6-2.69 6-6v-57.48c0-11.53-9.38-20.91-20.91-20.91h-55.71c-3.32 0-6 2.68-6 6zm-138.92 78.39c3.31 0 6-2.69 6-6v-57.48c0-4.91 4-8.91 8.91-8.91h55.71c3.31 0 6-2.69 6-6s-2.69-6-6-6h-55.71c-11.53 0-20.91 9.38-20.91 20.91v57.48c0 3.31 2.69 6 6 6zm19.19-37.63v31.63c0 3.31 2.69 6 6 6s6-2.69 6-6v-31.63c0-3.31-2.69-6-6-6s-6 2.68-6 6zm165.16 0v31.63c0 3.31 2.69 6 6 6s6-2.69 6-6v-31.63c0-3.31-2.69-6-6-6s-6 2.68-6 6zm-102.15-40.76c0-14.1 11.47-25.57 25.57-25.57s25.57 11.47 25.57 25.57-11.47 25.56-25.57 25.56-25.57-11.47-25.57-25.56zm12 0c0 7.48 6.09 13.57 13.57 13.57s13.57-6.09 13.57-13.57-6.09-13.57-13.57-13.57-13.57 6.09-13.57 13.57zm100.92-37.12c0 14.1-11.47 25.57-25.57 25.57s-25.56-11.47-25.56-25.57 11.47-25.57 25.56-25.57 25.57 11.47 25.57 25.57zm-12 0c0-7.48-6.09-13.57-13.57-13.57s-13.56 6.09-13.56 13.57 6.08 13.57 13.56 13.57 13.57-6.09 13.57-13.57zm-162.7 0c0-14.1 11.47-25.57 25.56-25.57s25.57 11.47 25.57 25.57-11.47 25.57-25.57 25.57-25.56-11.47-25.56-25.57zm12 0c0 7.48 6.08 13.57 13.56 13.57s13.57-6.09 13.57-13.57-6.09-13.57-13.57-13.57-13.56 6.09-13.56 13.57zm75.35-18.04c-5.27 0-9.89-3.08-9.89-6.58 0-3.31-2.69-6-6-6s-6 2.69-6 6c0 8.48 6.73 15.65 15.89 17.87v1.14c0 3.31 2.69 6 6 6s6-2.69 6-6v-1.14c9.16-2.22 15.89-9.39 15.89-17.87 0-10.25-9.82-18.58-21.89-18.58-5.27 0-9.89-3.08-9.89-6.58s4.62-6.58 9.89-6.58 9.89 3.08 9.89 6.58c0 3.31 2.69 6 6 6s6-2.69 6-6c0-8.48-6.73-15.65-15.89-17.87v-1.14c0-3.31-2.69-6-6-6s-6 2.69-6 6v1.14c-9.16 2.22-15.89 9.39-15.89 17.87 0 10.25 9.82 18.58 21.89 18.58 5.27 0 9.89 3.08 9.89 6.58s-4.62 6.58-9.89 6.58zm-74.33-13.17c3.31 0 6-2.69 6-6 0-37.68 30.65-68.33 68.33-68.33s68.33 30.65 68.33 68.33c0 3.31 2.69 6 6 6s6-2.69 6-6c0-44.29-36.04-80.33-80.33-80.33s-80.33 36.04-80.33 80.33c0 3.31 2.69 6 6 6zm263.1 286.47-68.49 28.63c-.74.31-1.53.46-2.31.46-.77 0-1.55-.15-2.28-.45-1.37-.56-2.47-1.63-3.11-2.96.59 4.15-.56 8.53-3.55 11.91l-6.76 7.65c-1.4 1.58-3.06 2.78-4.86 3.61.82 4.35-.28 9.01-3.43 12.57l-6.76 7.65c-2.92 3.31-7 4.99-11.1 4.99-1.44 0-2.87-.22-4.26-.64-.59 1.25-1.35 2.45-2.31 3.53l-6.76 7.65c-2.92 3.31-7 4.99-11.1 4.99-1.06 0-2.12-.13-3.16-.35-.61 1.44-1.44 2.8-2.53 4.03l-6.76 7.65c-2.92 3.31-7.01 4.99-11.1 4.99-3.49 0-6.99-1.22-9.8-3.71l-12.23-10.81-12.33 13.12c-2.91 3.1-6.85 4.66-10.79 4.66-3.64 0-7.28-1.33-10.14-4.01l-7.44-7c-1.19-1.12-2.15-2.4-2.89-3.77-1.46.46-2.98.7-4.5.7-3.64 0-7.28-1.33-10.14-4.01l-7.44-7c-1.06-.99-1.93-2.11-2.62-3.3-1.6.65-3.32 1.03-5.1 1.08-.16 0-.31.01-.47.01-3.79 0-7.37-1.41-10.13-4.01l-7.44-7c-2.88-2.7-4.53-6.37-4.65-10.33-.02-.63.01-1.25.07-1.87-1.87-.66-3.64-1.7-5.17-3.14l-7.44-7c-2.88-2.7-4.53-6.37-4.65-10.33s1.3-7.72 4-10.6l8.27-8.8-12.54-8.7-4.92 11.79c-.61 1.47-1.78 2.63-3.26 3.24-.73.3-1.51.45-2.28.45-.79 0-1.57-.15-2.31-.46l-68.53-28.61c-3.06-1.28-4.5-4.79-3.23-7.85 1.28-3.06 4.79-4.5 7.85-3.23l62.99 26.3 44.88-107.5-62.99-26.3c-3.06-1.28-4.5-4.79-3.23-7.85 1.28-3.06 4.79-4.5 7.85-3.23l68.53 28.61c1.47.61 2.63 1.78 3.24 3.26.6 1.47.6 3.12-.01 4.59l-4.96 11.88 30.07 6.04c.05-.45.11-.88.16-1.34.21-1.92 1.34-3.63 3.03-4.58 13.19-7.4 26.33-12.37 40.25-17.62 2.54-.96 5.11-1.93 7.72-2.93 1.23-.47 2.59-.53 3.85-.15 16.78 4.97 32.69 10.56 47.5 16.65l-1.85-4.43c-.61-1.47-.62-3.12-.01-4.59.6-1.47 1.77-2.64 3.24-3.26l68.49-28.62c3.06-1.28 6.57.17 7.85 3.22 1.28 3.06-.17 6.57-3.22 7.85l-62.95 26.31 44.92 107.48 62.96-26.31c3.06-1.28 6.57.16 7.85 3.22 1.22 3.09-.23 6.6-3.28 7.88zm-214.81-75.67c-2.95 24.72-8.04 43.3-15.53 56.68.02.03.04.05.04.06 0 0 .04.01.12.03l10.84 2.05c3.86.73 7.25-.09 10.34-2.52 6.63-5.2 8.49-11.68 6.24-21.66-.65-2.87.88-5.8 3.62-6.89l27.53-11.04c2.11-.84 4.51-.43 6.21 1.07l73.34 64.83 6.24-4.21-31.57-75.53c-16.93-7.58-35.62-14.47-55.62-20.48-1.97.75-3.93 1.49-5.86 2.22-12.52 4.72-24.39 9.21-35.94 15.39zm-68.29 115.47 7.44 7c1.13 1.06 2.91 1.01 3.97-.12l22.81-24.26c.58-.61.79-1.21.76-2.05-.04-.85-.3-1.41-.95-1.98l-7.66-6.77c-1.14-1.01-2.86-.93-3.91.18l-22.59 24.03c-.69.73-.77 1.57-.75 2.01.01.44.15 1.28.88 1.96zm28.6 29.22 31.62-33.63c.59-.62.8-1.2.76-2.05-.04-.84-.31-1.42-.95-1.97l-7.66-6.77c-.54-.48-1.2-.71-1.86-.71-.75 0-1.49.3-2.05.89l-5.5 5.85c-.01.01-.01.01-.02.02l-22.8 24.26-3.08 3.28c-.69.73-.77 1.57-.75 2.01.01.44.15 1.27.88 1.96l7.44 7c.73.69 1.56.77 2.01.75.44-.03 1.28-.16 1.96-.89zm25.77 13.22 22.35-23.77c.59-.62.8-1.2.76-2.05-.04-.86-.3-1.41-.95-1.98l-7.66-6.77c-1.14-1.01-2.86-.93-3.91.18l-22.13 23.55c-1.06 1.13-1.01 2.91.12 3.97l7.44 7c1.14 1.05 2.92 1 3.98-.13zm43.21-5.33c.59-.62.8-1.2.76-2.05-.04-.86-.3-1.41-.95-1.98l-7.66-6.77c-1.15-1.01-2.86-.93-3.91.18l-.02-.02c-.12.14-.23.28-.35.41l-17.66 18.79c-1.06 1.13-1.01 2.91.12 3.97l7.44 7c1.13 1.06 2.91 1.01 3.97-.12zm96.54-51.23-81.6-72.13-19.6 7.86c1.41 11.98-2.42 21.61-11.42 28.67-5.81 4.56-12.72 6.24-19.98 4.87l-10.84-2.05c-3.45-.65-6.26-2.57-8.13-5.54-3.33-5.3-1.96-9.29-.84-11.2 5.97-10.22 10.33-24.36 13.25-42.98l-33.19-6.66-30.18 72.28 16.12 11.19 6.01-6.39c5.52-5.87 14.56-6.29 20.6-.95l7.66 6.77c1.2 1.06 2.19 2.26 2.97 3.57 5.05-2.07 11.01-1.24 15.38 2.63l7.66 6.77c3.07 2.72 4.8 6.32 4.99 10.41.05 1.15-.03 2.26-.22 3.34 1.45.61 2.83 1.46 4.08 2.56l7.66 6.77c2.45 2.17 4.03 4.91 4.67 8 3.05.27 6.05 1.47 8.54 3.67l7.66 6.77c3.07 2.72 4.8 6.32 4.99 10.41.14 2.94-.55 5.7-1.98 8.12l12.24 10.82c1.16 1.03 2.94.91 3.97-.25l6.76-7.65c1.03-1.16.92-2.94-.24-3.96l-47.44-41.93c-2.48-2.19-2.72-5.99-.52-8.47 2.19-2.48 5.99-2.72 8.47-.52l52.56 46.46c1.16 1.03 2.94.91 3.97-.25l6.76-7.65c1.03-1.16.92-2.94-.24-3.96l-54.66-48.32c-2.48-2.19-2.72-5.99-.52-8.47 2.19-2.48 5.99-2.72 8.47-.52l60.67 53.63c1.16 1.02 2.94.92 3.96-.24l6.76-7.65c1.03-1.16.92-2.94-.24-3.97-.45-.4-.83-.86-1.13-1.35-.78-.47-1.53-1.01-2.24-1.63l-50.84-44.94c-2.48-2.19-2.72-5.99-.52-8.47 2.19-2.48 5.99-2.72 8.47-.52l50.84 44.94c1.16 1.03 2.94.92 3.96-.24l6.76-7.65c.98-1.2.87-2.98-.29-4zm9.84-6.97-1.97-4.7-1.67 1.13 1.75 1.55c.71.62 1.33 1.3 1.89 2.02z"/></svg>