<svg height="512" viewBox="0 0 64 64" width="512" xmlns="http://www.w3.org/2000/svg"><g id="_30-hungry" data-name="30-hungry"><path d="m28.1 30.8-7.46 7.45a2.534 2.534 0 0 0 3.584 3.584l7.455-7.455z" fill="#6999dc"/><path d="m50.162 20.047-6.226 2.075 2.97-5.941a.457.457 0 0 0 -.613-.614l-5.941 2.971 2.075-6.226a.457.457 0 0 0 -.757-.468l-5.689 5.689a6.491 6.491 0 0 0 -1.9 4.589 6.491 6.491 0 0 1 -1.9 4.589l-.5.5 3.582 3.589.5-.5a6.491 6.491 0 0 1 4.589-1.9 6.491 6.491 0 0 0 4.589-1.9l5.689-5.7a.457.457 0 0 0 -.468-.753z" fill="#6999dc"/><path d="m32 55a10.962 10.962 0 0 1 -9.726-5.863 11 11 0 0 1 -15.274-10.137c0-.239.01-.484.03-.743a10.992 10.992 0 0 1 .3-20.616 10.855 10.855 0 0 1 -.33-2.641 10.983 10.983 0 0 1 15.735-9.919 10.988 10.988 0 0 1 18.53 0 10.98 10.98 0 0 1 15.407 12.56 10.992 10.992 0 0 1 .3 20.616c.02.259.03.5.03.743a11 11 0 0 1 -15.276 10.137 10.962 10.962 0 0 1 -9.726 5.863zm-9.248-8.2a1 1 0 0 1 .925.62 9 9 0 0 0 16.646 0 1 1 0 0 1 1.4-.5 8.955 8.955 0 0 0 13.177-9.206 1 1 0 0 1 .7-1.1 8.993 8.993 0 0 0 -.413-17.337 1 1 0 0 1 -.7-1.3 8.984 8.984 0 0 0 -13.087-10.699 1 1 0 0 1 -1.4-.4 8.988 8.988 0 0 0 -15.988 0 1 1 0 0 1 -1.4.4 8.981 8.981 0 0 0 -13.088 10.7 1 1 0 0 1 -.7 1.3 8.993 8.993 0 0 0 -.424 17.338 1 1 0 0 1 .7 1.1 8.993 8.993 0 0 0 13.171 9.207 1.006 1.006 0 0 1 .481-.123z"/><path d="m4 64a4 4 0 1 1 4-4 4 4 0 0 1 -4 4zm0-6a2 2 0 1 0 2 2 2 2 0 0 0 -2-2z"/><path d="m14 60a4 4 0 1 1 4-4 4 4 0 0 1 -4 4zm0-6a2 2 0 1 0 2 2 2 2 0 0 0 -2-2z"/><path d="m40.927 43.577a3.507 3.507 0 0 1 -2.5-1.036l-12.693-12.693c-2.855.429-6.249-.873-8.811-3.435-3.849-3.849-4.652-9.306-1.792-12.166s8.319-2.055 12.169 1.792c2.56 2.561 3.867 5.954 3.434 8.811l12.692 12.693a3.535 3.535 0 0 1 -2.5 6.034zm-14.862-15.812a1 1 0 0 1 .707.293l13.07 13.069a1.573 1.573 0 0 0 2.17 0 1.538 1.538 0 0 0 0-2.17l-13.07-13.069a1 1 0 0 1 -.265-.941c.553-2.3-.543-5.243-2.793-7.494-3.07-3.068-7.257-3.873-9.339-1.792s-1.276 6.27 1.792 9.339c2.251 2.25 5.191 3.35 7.5 2.793a.969.969 0 0 1 .228-.028z"/><path d="m25 27c-2 0-6.029-.994-6.97-4.758a1 1 0 0 1 1.94-.484c.796 3.181 4.86 3.242 5.03 3.242a1 1 0 0 1 0 2z"/></g></svg>