<svg id="phone" xmlns="http://www.w3.org/2000/svg" width="30" height="30" viewBox="0 0 30 30">
  <path id="Path_128886" data-name="Path 128886" d="M196.61,202.8c-.541.554-1.012,1.151-2.519.267-1.46-.856-3.914-3.154-4.275-5.053,0-.963.814-1.272,1.069-1.665-.143-.319-.6-1.155-1.459-2.783-.265.256-1.032,1.039-1.792,1.8-.25.237-.129.948-.055,1.286.759,3.462,4.732,7.415,7.79,8.684.588.244,2.192.782,2.59.363.934-.928,1.512-1.477,1.822-1.8l-2.7-1.6Zm0,0" transform="translate(-178.758 -184.554)" fill="#fdbd5b"/>
  <path id="Path_128887" data-name="Path 128887" d="M25.607,4.393A15,15,0,1,0,4.394,25.607,15,15,0,1,0,25.607,4.393ZM21.439,21.3c-1.209,1.184-1.488,1.685-2.818,1.685C12.614,22.984,4.539,12.531,7.708,9.6c1.347-1.349,1.784-1.821,2.1-2.082a1.507,1.507,0,0,1,2.3.442c.084.146-.078-.145.9,1.69.944,1.775,1.529,2.427-.069,3.88a9.636,9.636,0,0,0,3.521,3.559c.416-.425,1.336-1.7,2.862-.8,2.745,1.611,3.322,1.774,3.5,2.683.142.861-.2,1.17-1.384,2.329Zm0,0" transform="translate(0)" fill="#fdbd5b"/>
</svg>
